<svg xmlns="http://www.w3.org/2000/svg" viewBox="0 0 500 500"><g id="freepik--Plants--inject-62"><path d="M119.69,416H83.05s7.3-11.16,10.41-9.74c4,1.84,7-8.27,11.52-5.88,1.58.85.81,3.55,1.8,4.64,1.65,1.8,3.73,1.45,5.72,2.44C116.39,409.43,117.77,412,119.69,416Z" style="fill:#263238"></path><path d="M87.06,412.93s2.4-14,.74-16-2,7.61-2,7.61-5.58-20.16-9.15-20.27,4.24,17.49,4.24,17.49-15.26-24.94-19.7-22.61,16,24.43,16,24.43-11.17-9.61-13.63-6.9,12.4,11,12.4,11-6.55-1.47-6.55.71S80.5,414.17,87.06,412.93Z" style="fill:#2AB6B3"></path><path d="M87.06,412.93s2.4-14,.74-16-2,7.61-2,7.61-5.58-20.16-9.15-20.27,4.24,17.49,4.24,17.49-15.26-24.94-19.7-22.61,16,24.43,16,24.43-11.17-9.61-13.63-6.9,12.4,11,12.4,11-6.55-1.47-6.55.71S80.5,414.17,87.06,412.93Z" style="fill:#fff;opacity:0.2;isolation:isolate"></path><path d="M89.26,410.93s11.47-2.08,12.58-3.94-6.44.64-6.44.64,14-10,13.09-12.8-12.33,8.22-12.33,8.22,15-18.85,11.93-21.62-14.38,19.25-14.38,19.25S98,389.34,95.19,388.2s-5,12.69-5,12.69-.71-5.48-2.4-4.86S86.45,406.21,89.26,410.93Z" style="fill:#2AB6B3"></path><path d="M89.26,410.93s11.47-2.08,12.58-3.94-6.44.64-6.44.64,14-10,13.09-12.8-12.33,8.22-12.33,8.22,15-18.85,11.93-21.62-14.38,19.25-14.38,19.25S98,389.34,95.19,388.2s-5,12.69-5,12.69-.71-5.48-2.4-4.86S86.45,406.21,89.26,410.93Z" style="fill:#fff;opacity:0.2;isolation:isolate"></path><path d="M90.12,409.41s11.07-11.1,10.88-14-6.63,5.65-6.63,5.65,7.81-21.81,4.65-24.18S91.7,395.4,91.7,395.4s2.09-32.31-3.4-33-1.13,32.31-1.13,32.31-4-15.82-7.93-14.93,4.2,17.87,4.2,17.87-5-5.51-6.38-3.53S83.39,406.35,90.12,409.41Z" style="fill:#2AB6B3"></path><path d="M90.12,409.41s11.07-11.1,10.88-14-6.63,5.65-6.63,5.65,7.81-21.81,4.65-24.18S91.7,395.4,91.7,395.4s2.09-32.31-3.4-33-1.13,32.31-1.13,32.31-4-15.82-7.93-14.93,4.2,17.87,4.2,17.87-5-5.51-6.38-3.53S83.39,406.35,90.12,409.41Z" style="fill:#fff;opacity:0.4;isolation:isolate"></path><path d="M103.55,416H74.35s5.82-8.89,8.29-7.77c3.23,1.47,5.62-6.58,9.19-4.68,1.26.68.64,2.83,1.43,3.7,1.31,1.43,3,1.16,4.56,1.94C100.91,410.78,102,412.82,103.55,416Z" style="fill:#263238"></path><path d="M103.55,416H74.35s5.82-8.89,8.29-7.77c3.23,1.47,5.62-6.58,9.19-4.68,1.26.68.64,2.83,1.43,3.7,1.31,1.43,3,1.16,4.56,1.94C100.91,410.78,102,412.82,103.55,416Z" style="fill:#fff;opacity:0.2"></path><path d="M379.15,395.61s11-40.13,19.85-52.84-5.37,28.72-5.37,28.72,12.46-26.41,16.37-25.58-12.87,29.36-12.87,29.36,12.78-22.83,18.38-19.1-16.32,27.2-16.32,27.2,19.67-14.74,21.63-10.64-19.05,17.2-19.05,17.2,20-4,22.09,3-19.89,6-19.89,6,10.17-.46,12.1,6.89S389.38,410.49,379.15,395.61Z" style="fill:#2AB6B3"></path><path d="M379.15,395.61s11-40.13,19.85-52.84-5.37,28.72-5.37,28.72,12.46-26.41,16.37-25.58-12.87,29.36-12.87,29.36,12.78-22.83,18.38-19.1-16.32,27.2-16.32,27.2,19.67-14.74,21.63-10.64-19.05,17.2-19.05,17.2,20-4,22.09,3-19.89,6-19.89,6,10.17-.46,12.1,6.89S389.38,410.49,379.15,395.61Z" style="fill:#fff;opacity:0.2;isolation:isolate"></path><path d="M373.56,407.22s14.85-28.58,11.84-33.59-9.35,11.17-9.35,11.17,11.45-36.61,7.32-40.64-11.72,31.53-11.72,31.53,4-41.66,0-43.88-6,37.7-6,37.7-2.74-42.24-7.78-41.6,0,37.53,0,37.53-11.28-28.08-16.34-26.95,8.13,29.07,8.13,29.07-13.37-16.87-17.23-12.91,11.95,22.43,11.95,22.43-13.57-8.46-17.07-4.24,14.22,13.32,14.22,13.32-14.46,3.75-13.45,7.35,13.45,3.11,13.45,3.11S347,422.22,373.56,407.22Z" style="fill:#2AB6B3"></path><path d="M373.56,407.22s14.85-28.58,11.84-33.59-9.35,11.17-9.35,11.17,11.45-36.61,7.32-40.64-11.72,31.53-11.72,31.53,4-41.66,0-43.88-6,37.7-6,37.7-2.74-42.24-7.78-41.6,0,37.53,0,37.53-11.28-28.08-16.34-26.95,8.13,29.07,8.13,29.07-13.37-16.87-17.23-12.91,11.95,22.43,11.95,22.43-13.57-8.46-17.07-4.24,14.22,13.32,14.22,13.32-14.46,3.75-13.45,7.35,13.45,3.11,13.45,3.11S347,422.22,373.56,407.22Z" style="fill:#fff;opacity:0.4;isolation:isolate"></path><path d="M405.48,338.92a2.25,2.25,0,1,1-2.25-2.25A2.25,2.25,0,0,1,405.48,338.92Z" style="fill:#2AB6B3"></path><path d="M377.47,397.76s8.18-45.55,28.22-65.26" style="fill:none;stroke:#2AB6B3;stroke-linecap:round;stroke-miterlimit:10"></path><path d="M408.33,332.5a2.64,2.64,0,1,1-2.64-2.64A2.64,2.64,0,0,1,408.33,332.5Z" style="fill:#2AB6B3"></path><circle cx="397.62" cy="353.74" r="2.25" style="fill:#2AB6B3"></circle><path d="M389.88,347.21a2.25,2.25,0,1,1-2.25-2.26A2.25,2.25,0,0,1,389.88,347.21Z" style="fill:#2AB6B3"></path><path d="M396.87,361.9a2.25,2.25,0,1,1-2.25-2.25A2.26,2.26,0,0,1,396.87,361.9Z" style="fill:#2AB6B3"></path><path d="M386.58,358.68a2.25,2.25,0,1,1-2.25-2.25A2.25,2.25,0,0,1,386.58,358.68Z" style="fill:#2AB6B3"></path><path d="M397.79,335.14a2.25,2.25,0,1,1-2.25-2.25A2.25,2.25,0,0,1,397.79,335.14Z" style="fill:#2AB6B3"></path><polyline points="395.54 335.14 395.54 346.03 405.69 343.51" style="fill:none;stroke:#2AB6B3;stroke-linecap:round;stroke-miterlimit:10"></polyline><polyline points="387.63 347.21 390.54 355.77 397.62 354.18" style="fill:none;stroke:#2AB6B3;stroke-linecap:round;stroke-miterlimit:10"></polyline><polyline points="384.33 358.68 386.67 365.13 394.62 361.9" style="fill:none;stroke:#2AB6B3;stroke-linecap:round;stroke-miterlimit:10"></polyline><path d="M350.55,409.63C340,395,326.92,379.08,310.05,371.56" style="fill:none;stroke:#2AB6B3;stroke-linecap:round;stroke-miterlimit:10"></path><path d="M307.58,372.48a2.64,2.64,0,1,0,1.54-3.39A2.63,2.63,0,0,0,307.58,372.48Z" style="fill:#2AB6B3"></path><path d="M323,389.41a2.25,2.25,0,1,0,1.32-2.9A2.26,2.26,0,0,0,323,389.41Z" style="fill:#2AB6B3"></path><path d="M330,379.79a2.25,2.25,0,1,0,1.31-2.9A2.25,2.25,0,0,0,330,379.79Z" style="fill:#2AB6B3"></path><path d="M328.62,396a2.25,2.25,0,1,0,1.32-2.89A2.25,2.25,0,0,0,328.62,396Z" style="fill:#2AB6B3"></path><path d="M337.12,389.38a2.25,2.25,0,1,0,1.32-2.9A2.27,2.27,0,0,0,337.12,389.38Z" style="fill:#2AB6B3"></path><path d="M318.38,371.26a2.25,2.25,0,1,0,1.31-2.9A2.25,2.25,0,0,0,318.38,371.26Z" style="fill:#2AB6B3"></path><polyline points="320.48 370.47 324.3 380.67 313.91 381.87" style="fill:none;stroke:#2AB6B3;stroke-linecap:round;stroke-miterlimit:10"></polyline><polyline points="332.12 379 332.4 388.04 325.21 389.04" style="fill:none;stroke:#2AB6B3;stroke-linecap:round;stroke-miterlimit:10"></polyline><polyline points="339.23 388.59 339.31 395.45 330.73 395.21" style="fill:none;stroke:#2AB6B3;stroke-linecap:round;stroke-miterlimit:10"></polyline><path d="M307.54,416H427.78s-30.41-9.92-31.17-12.73-.74-4.76-4.44-7.21-8.79-3.95-10.2-6.63-5.78-7-7.29-8.27-19.55,7.81-19.76,8-5.23,10.05-6.94,12.25-13.51-.49-16.33,1.84-12.29,8.34-12.29,8.34S314.71,411,307.54,416Z" style="fill:#263238"></path><path d="M307.54,416H427.78s-30.41-9.92-31.17-12.73-.74-4.76-4.44-7.21-8.79-3.95-10.2-6.63-5.78-7-7.29-8.27-19.55,7.81-19.76,8-5.23,10.05-6.94,12.25-13.51-.49-16.33,1.84-12.29,8.34-12.29,8.34S314.71,411,307.54,416Z" style="fill:#fff;opacity:0.2"></path></g></svg>