<svg xmlns="http://www.w3.org/2000/svg" xmlns:xlink="http://www.w3.org/1999/xlink" viewBox="0 0 500 500"><defs><clipPath id="freepik--clip-path--inject-45"><path d="M382.53,250.2c-.89,3.11-2.27,6-3.23,9.12-29.33-1.78-63.81-3.56-97.8-4.62a30.3,30.3,0,0,0,6.34-4.16c1.42-1.21,2.56-3.11,4.46-3.52,1.05-.23,1.48,1.86,2.53,1.65a1.42,1.42,0,0,0,.79-.68l2.85-4.2a1.08,1.08,0,0,1,.61-.53c.24-.06.51.06.75,0,.53-.15.45-.91.5-1.47a1.92,1.92,0,0,1,1.51-1.67.77.77,0,0,1,.45,0,.82.82,0,0,1,.37.43c.68,1.45.34,3.24,1.14,4.63a8.08,8.08,0,0,1,.52.9c.4,1-.24,4.59,1.06,2.26.89-1.61,1.24-3.59,2.15-5.24a19.41,19.41,0,0,0,.92-2.47,11.53,11.53,0,0,1,1.48-1.69l.18,2.2a1.24,1.24,0,0,0,.17.63c.3.44,1,.36,1.42.68a1.93,1.93,0,0,1,.52,1.37c.07.5.24,1.08.72,1.24.11,0,.24,0,.3.15a.33.33,0,0,1,.05.22,6.93,6.93,0,0,0,.07,1.29c.76-.28,1.72-2.66,2.11-3.52l1.89-4.17a14.85,14.85,0,0,0,1.53-3.78,12.13,12.13,0,0,1,.68-3.45c.13-.28.41-.63.68-.47s.19.34.18.55a13.85,13.85,0,0,0,.31,4.26c.17.62.42,1.21.62,1.82a22.14,22.14,0,0,1,.73,7.17c0,1.68.75,2.81,1.84,1.09a28.66,28.66,0,0,0,1.48-3.73,8.63,8.63,0,0,0,1-3.47,7,7,0,0,1,0-1.65,4.29,4.29,0,0,1,.6-1.26,15,15,0,0,0,2.05-6.69,5.63,5.63,0,0,1,.52-2.63c.23-.37.55-.66.79-1,.7-1.1.35-3.06.74-4.4s.81-2.75,2.09-3.39a.72.72,0,0,1,.51-.1c.26.08.36.37.43.63,1,4.26-.26,8.9,1.23,13,.54,1.48,1.42,3.06.82,4.5a7.56,7.56,0,0,0-.69,1.47c-.25,1.31,1.19,2.23,2.06,3.24a5.78,5.78,0,0,1,1.14,2.25c.11.38.15,2.28.42,2.45,1.2.75,1.35-3.5,1.31-4.14a1.52,1.52,0,0,1,.05-.6,1.75,1.75,0,0,1,.33-.44,5.83,5.83,0,0,0,1.36-2.28c.25-.78.34-1.61.56-2.4a3.58,3.58,0,0,1,1.28-2.06.52.52,0,0,1,.27-.1c.17,0,.28.19.35.35a5.1,5.1,0,0,1,.4,1.68,2.19,2.19,0,0,0,.17.85c.83,1.39,2.07-.09,2.38-.95a4.3,4.3,0,0,0,.15-1.52c0-1.1-.05-2.2-.07-3.31a1.84,1.84,0,0,1,.17-1,3.71,3.71,0,0,1,.69-.68,3.07,3.07,0,0,0,.58-1.12c.68-1.88,1.3-5.66,2.71-7a7.51,7.51,0,0,1,.68,1.46,3.1,3.1,0,0,1,.31,1.3,3.49,3.49,0,0,1-.28,1,4.85,4.85,0,0,0-.33,2.06c.11,1,.7,1.94.86,3,.11.74,0,1.5.05,2.24a42.58,42.58,0,0,0,1.21,6.23c.2.82.62,4.07,1.57,4.42,1.2.27,1.9-2.44,1.85-3.25a2,2,0,0,1,.18-1.4c.29-.36.82-.41,1.17-.71.54-.47.44-1.32.52-2,.12-1,1.44-1.45,2-2.2a20.16,20.16,0,0,0,2-4.28c.93-2.22,2.86-6,2.66-8.4a18.86,18.86,0,0,0,2.62,8.15q1.29-4.9,2.41-9.84c.46-2,.51-5.22,2.4-6.48-.37,2.77,1.7,4.88,1.8,7.56.07,1.86-1,3.72-.52,5.51.35,1.23,1.43,2.18,1.7,3.44s-.26,2.47.17,3.59a2.69,2.69,0,0,0,.28.53,8.72,8.72,0,0,0,1.17,1.27,12.5,12.5,0,0,1,3.52,6.95C382.4,244.54,383.61,246.36,382.53,250.2Z" style="fill:#2AB6B3;stroke:#263238;stroke-linecap:round;stroke-linejoin:round"></path></clipPath><clipPath id="freepik--clip-path-2--inject-45"><path d="M217.93,253.75c-45.48.11-87.15,1.37-118.3,2.65l-1.45,0c-3.37-.1-6.75-.12-10.13-.11s-4.6.34-5.34-3.19c-.49-2.33,1.61-4.33,2.38-6.58.93-2.72-.09-5.86,1.06-8.49.39-.91,1-1.7,1.41-2.62.67-1.59.53-3.39.75-5.1.31-2.43,1.35-4.7,2-7,1.24-4.17,1.38-8.58,1.94-12.89.49-3.78,1.3-7.51,2.11-11.24q1.27-5.87,2.56-11.74c1.18,4.2,2.83,8,3.87,12.29.13.56,2.08,8.12,2.54,8.12-1.1.63-1.29,2.24-.82,3.43s3.53,7.82,4.64,8.27c2.73,1.11,4.58-2.29,6.61-3.68a9,9,0,0,0,1.39-1,2.71,2.71,0,0,0,.36-.46c.64-1,.37-2.39.83-3.51s1.73-1.92,2.3-3.07c.83-1.66.08-3.69.49-5.51.58-2.62,3-4.31,3.15-7.1,1.63,1.58,1.1,4.71,1.18,6.8q.19,5.07.57,10.12a19,19,0,0,0,4.07-7.54c-.64,2.37.57,6.4,1.07,8.75a20.38,20.38,0,0,0,1.2,4.57c.42.84,1.64,1.5,1.57,2.53,0,.72-.31,1.53.14,2.09.29.36.8.51,1,.91a2,2,0,0,1-.07,1.41c-.19.79,0,3.58,1.23,3.53,1-.16,2-3.29,2.35-4.05a42.48,42.48,0,0,0,2.32-5.9c.2-.73.22-1.49.46-2.2.34-1,1.09-1.76,1.38-2.75a4.61,4.61,0,0,0,0-2.09,3.92,3.92,0,0,1-.09-1,3.17,3.17,0,0,1,.55-1.23,6.88,6.88,0,0,1,.93-1.31c1.14,1.59,1.06,5.41,1.38,7.39a3.24,3.24,0,0,0,.37,1.2,5.25,5.25,0,0,1,.56.8,1.9,1.9,0,0,1,0,1c-.23,1.08-.45,2.16-.67,3.24a4.12,4.12,0,0,0-.13,1.52c.14.9,1.09,2.58,2.16,1.36a1.88,1.88,0,0,0,.32-.8,5.54,5.54,0,0,1,.7-1.57c.1-.15.24-.31.42-.28a.45.45,0,0,1,.24.15,3.56,3.56,0,0,1,.88,2.25c.07.82,0,1.65.11,2.46a6.1,6.1,0,0,0,.92,2.49,1.62,1.62,0,0,1,.25.49,1.54,1.54,0,0,1-.06.6c-.16.62-.78,4.84.53,4.31.29-.12.69-2,.87-2.33a5.85,5.85,0,0,1,1.52-2c1-.84,2.62-1.48,2.62-2.82a7.33,7.33,0,0,0-.41-1.56c-.33-1.53.83-2.93,1.62-4.28,2.22-3.78,1.81-8.58,3.6-12.58.11-.24.27-.51.53-.54a.68.68,0,0,1,.48.19c1.14.87,1.31,2.4,1.44,3.72s-.56,3.25-.07,4.46c.16.39.43.74.58,1.14a5.52,5.52,0,0,1,0,2.68,15.11,15.11,0,0,0,.8,7,4.6,4.6,0,0,1,.37,1.35,7.75,7.75,0,0,1-.29,1.63,8.46,8.46,0,0,0,.35,3.59,27.55,27.55,0,0,0,.76,3.93c.77,1.89,1.73.92,2-.73a22.36,22.36,0,0,1,2-6.92c.31-.56.66-1.1.94-1.68a13.41,13.41,0,0,0,1.08-4.13c0-.2.09-.44.28-.51s.51.29.58.59a11.89,11.89,0,0,1,0,3.52,15.38,15.38,0,0,0,.81,4l1.11,4.45c.22.91.73,3.43,1.43,3.84a6.44,6.44,0,0,0,.3-1.26.37.37,0,0,1,.09-.2c.08-.09.21-.08.32-.1.5-.06.78-.6.94-1.08a1.92,1.92,0,0,1,.76-1.25c.48-.24,1.15,0,1.52-.41a1.29,1.29,0,0,0,.28-.59c.19-.71.39-1.42.58-2.13a12.1,12.1,0,0,1,1.15,1.93,18.14,18.14,0,0,0,.45,2.6c.6,1.79.57,3.8,1.16,5.54.85,2.53.88-1.14,1.45-2a10.13,10.13,0,0,1,.68-.79c1-1.21,1-3,2-4.34a.91.91,0,0,1,.44-.36.78.78,0,0,1,.45.06,1.91,1.91,0,0,1,1.18,1.92c-.05.55-.27,1.29.23,1.53.22.11.5,0,.73.14a1.16,1.16,0,0,1,.51.65c.51,1.16,1.8,6.06,3.5,5.44,1-.34,1.94-3.92,2.44-4.85a26.35,26.35,0,0,0,3,8.11,1.61,1.61,0,0,0,.67.74c.61.28,1.36-.23,2,0,.39.15.62.55.89.88a5.18,5.18,0,0,0,4.12,1.5,28.57,28.57,0,0,1,4.53-.06,30.51,30.51,0,0,1,4.12,1.35A14.23,14.23,0,0,0,217.93,253.75Z" style="fill:#2AB6B3;stroke:#263238;stroke-linecap:round;stroke-linejoin:round"></path></clipPath><clipPath id="freepik--clip-path-3--inject-45"><path d="M413.8,226a7.09,7.09,0,0,1-1.08-3.9,4.1,4.1,0,0,1-1.73,2.78c-1.19-1.89-4.16-1.34-5.2-3.72-.49-1.15-.15-2.37-.24-3.56-.12-1.65-.73-2.36-1.39-3.79a5.11,5.11,0,0,1-.3-2.13v-8.51a4.66,4.66,0,0,1-1.81,2.48q-.8-6.88-1.6-13.78a1.33,1.33,0,0,0-.13-.51.92.92,0,0,0-1.4,0,2.56,2.56,0,0,0-.56,1.5c-.83,5.8-.82,11.9-3.45,17.13a12.15,12.15,0,0,0-1.42,3.35c-.25,1.41.15,2.94-.46,4.23-.45,1-1.39,1.62-1.84,2.58-.84,1.78-.21,4.13-1.4,5.78-1.32,1.84-4.07,2-5.77,3.36-2.32,1.88-2.57,5.26-2.64,8.24,0,.92-3.26-.07-3.59-.23-1.42-.68-2.25-2.11-3.06.51-.27.88-.27,1.82-.52,2.71-.39,1.33-1.34,2.34-1.89,3.58-.64,1.45-.24,1.89-.26,3.2-.05,2.82-1.59,2.53-3.89,3.53-1.23.55-1.49,1.38-2.59,2.09a1.27,1.27,0,0,1-1.52,0c-.64-.59-.19-1.65-.32-2.51a1.8,1.8,0,0,0-3.11-1c-.59.64-.65,1.62-1.19,2.29-1.07,1.32-3.17.76-4.82,1.18s-2.14,1.92-3.46,2.47c-1.16.49-3,.32-4.28.49a23.67,23.67,0,0,0-4.55.91c-.12,0-2.6,1.29-2.3,1.42,2.78,1.21,6.05,1.74,9,2.55a28.52,28.52,0,0,0,8.85,1.44c1.89-.1,3.87-.56,5.62.17.77.32,1.45.86,2.23,1.16a7.55,7.55,0,0,0,2.72.35c5.47,0,11.11-.59,16.28,1.19,1.06.36,2.09.82,3.17,1.14a17.58,17.58,0,0,0,4.45.63c4.12.13,8.32-.61,12.33.35a11.94,11.94,0,0,0,3.76.65,5.75,5.75,0,0,0,4-2.56,19.92,19.92,0,0,0,2.26-4.58c.5-1.36.38-3.07,1.07-4.34s2.2-1.71,3-2.82a6.27,6.27,0,0,0,.87-3.53c.44-9.62,2.42-20-4.13-28.16C415.33,222.85,413.8,225,413.8,226Z" style="fill:#2AB6B3;stroke:#263238;stroke-linecap:round;stroke-linejoin:round"></path></clipPath><clipPath id="freepik--clip-path-4--inject-45"><path d="M108.63,309.38c-1.49,1.08-7.3.46-10.77-12.35,0,0,0-.09,0-.14A4.48,4.48,0,0,1,94.27,295c-1.32-1.93-1.91-5.84-1.91-5.84h0c-.4-.1-5.76-1.5-2.06-5.23,2.79-2.81,6.89.24,6.09,2.6a2.44,2.44,0,0,1-.1.24l.6.28c1.42,1.52,4.47,5,4.74,7.05,0,.09,0,.14,0,.14l0,0c.24.21,2.06,1.81,4.78,4.67C109.33,302,110.13,308.3,108.63,309.38Z" style="fill:#757575;stroke:#263238;stroke-linecap:round;stroke-linejoin:round"></path></clipPath><clipPath id="freepik--clip-path-5--inject-45"><path d="M319.59,312.24a5.46,5.46,0,0,1-1.23-4.11,14.77,14.77,0,0,1,2.48-4.77c-2.16-1.28.08-6.3,4-5.51,5.22,1,.59,5.33.59,5.33s1.3,3.47,1,5.73a5,5,0,0,1-2.28,3.42c2.95,12.29-2,15.93-3.8,15.87s-4-5.53-2.88-9.6S319.59,312.24,319.59,312.24Z" style="fill:#2AB6B3;stroke:#263238;stroke-linecap:round;stroke-linejoin:round"></path></clipPath><clipPath id="freepik--clip-path-6--inject-45"><path d="M416.19,369.33c-10-4.08-22-18.4-13.76-34.87s-2.5-26.11,2.53-37.85,17.41-4.34,21.6,10.17,4.93,21.07,9.27,27.26C446.19,348.82,434.16,376.68,416.19,369.33Z" style="fill:#2AB6B3;stroke:#263238;stroke-linecap:round;stroke-linejoin:round"></path></clipPath><clipPath id="freepik--clip-path-7--inject-45"><path d="M390.73,377.06c-13.71-.27-34.61-11.78-32.39-35.16s-15-29.9-14.4-46.18,18.72-13.17,30.38,2.16,15.55,22.8,23.55,28.17C417,338.87,415.48,377.54,390.73,377.06Z" style="fill:#2AB6B3;stroke:#263238;stroke-linecap:round;stroke-linejoin:round"></path></clipPath><clipPath id="freepik--clip-path-8--inject-45"><path d="M374.87,396.62c-8.19,4.74-24.63,5.41-31.68-9.19s-19.52-12.3-25-22.12,6.34-14.46,18.7-9.57,17.33,7.91,24,8.22C376.74,364.69,389.66,388.07,374.87,396.62Z" style="fill:#2AB6B3;stroke:#263238;stroke-linecap:round;stroke-linejoin:round"></path></clipPath></defs><g id="freepik--Sun--inject-45"><circle cx="301.72" cy="113.16" r="28.21" transform="translate(-20.25 126.41) rotate(-22.91)" style="fill:#2AB6B3"></circle><circle cx="301.72" cy="113.16" r="28.21" transform="translate(-20.25 126.41) rotate(-22.91)" style="fill:#fff;opacity:0.9"></circle></g><g id="freepik--Trees--inject-45"><path d="M442.05,263.57c-14-1.06-36.26-2.65-62.75-4.25-29.33-1.78-63.81-3.56-97.8-4.62-19.32-.6-38.49-1-56.48-1-2.37,0-4.74,0-7.09,0-45.48.11-87.15,1.37-118.3,2.65-21.39.88-37.83,1.78-47.14,2.32l5.3-14.14,16-3.63,32.87-63.24s10.06,1.15,10.28,0S129.5,164,129.5,164h7.32c1.48,0,7.16-5.66,7.16-5.66s8.27-23.91,9.74-24.16,9.5-.29,10-.8,16.51,6.36,16.51,6.36-2.39,15.5-1.57,17,4.6,12,6.67,11.21,11.12-.82,12.66,0,12.49,21.94,12.49,21.94-1.1.06,1.09,3.45,5.88,11.08,8,13S242.94,219,242.94,219l8.82,16.57c-.21-.75-6-20.61-8.82-23.67s-18.69-11.52-18.69-11.52l-6.32-13.08-5.82-9.63,13.37-17,9.56-7.36,2.5-4.11s1.38-1.58,5.4,0,5.9.83,7.86,4.11,5.46,13.77,6.08,14.59,4.09,5.43,4.09,5.43,6.5,10.8,7.58,12.33-1.86-.54,2,4.18,2.26,2.09,3.84,4.72,6.58,8.88,6.58,8.88l-2.43,3.83s-2.59,5.73-5.22,8.12-6.25,10.75-6.25,10.75,9.28-8.92,11.47-10.75,7.23-8.12,7.23-8.12l5.65-5.43,7.51-8.55s7.1-10.62,9.48-10.48,20.86,0,20.86,0-4.57,3,2.19,8.17,17.93,10.79,18.94,12.46,8,9.56,8,9.56l-2-11.16s.57-9.69,2-10.86,9.11-13.85,9.24-16.74,3.83-13.57,3.83-13.57l3.18-7.36,9.63,3.38s1.61,14.53,3.36,16.44,7,9.68,7,9.68c11.08,15.08,19.09,30.74,28.15,47.18a4.41,4.41,0,0,0,2.1,2.27,14.22,14.22,0,0,0,2.45.21c2.11.33,3.28,2.55,4.12,4.51q2.82,6.57,5.64,13.14A92.67,92.67,0,0,1,442.05,263.57Z" style="fill:#2AB6B3"></path><path d="M442.05,263.57c-14-1.06-36.26-2.65-62.75-4.25-29.33-1.78-63.81-3.56-97.8-4.62-19.32-.6-38.49-1-56.48-1-2.37,0-4.74,0-7.09,0-45.48.11-87.15,1.37-118.3,2.65-21.39.88-37.83,1.78-47.14,2.32l5.3-14.14,16-3.63,32.87-63.24s10.06,1.15,10.28,0S129.5,164,129.5,164h7.32c1.48,0,7.16-5.66,7.16-5.66s8.27-23.91,9.74-24.16,9.5-.29,10-.8,16.51,6.36,16.51,6.36-2.39,15.5-1.57,17,4.6,12,6.67,11.21,11.12-.82,12.66,0,12.49,21.94,12.49,21.94-1.1.06,1.09,3.45,5.88,11.08,8,13S242.94,219,242.94,219l8.82,16.57c-.21-.75-6-20.61-8.82-23.67s-18.69-11.52-18.69-11.52l-6.32-13.08-5.82-9.63,13.37-17,9.56-7.36,2.5-4.11s1.38-1.58,5.4,0,5.9.83,7.86,4.11,5.46,13.77,6.08,14.59,4.09,5.43,4.09,5.43,6.5,10.8,7.58,12.33-1.86-.54,2,4.18,2.26,2.09,3.84,4.72,6.58,8.88,6.58,8.88l-2.43,3.83s-2.59,5.73-5.22,8.12-6.25,10.75-6.25,10.75,9.28-8.92,11.47-10.75,7.23-8.12,7.23-8.12l5.65-5.43,7.51-8.55s7.1-10.62,9.48-10.48,20.86,0,20.86,0-4.57,3,2.19,8.17,17.93,10.79,18.94,12.46,8,9.56,8,9.56l-2-11.16s.57-9.69,2-10.86,9.11-13.85,9.24-16.74,3.83-13.57,3.83-13.57l3.18-7.36,9.63,3.38s1.61,14.53,3.36,16.44,7,9.68,7,9.68c11.08,15.08,19.09,30.74,28.15,47.18a4.41,4.41,0,0,0,2.1,2.27,14.22,14.22,0,0,0,2.45.21c2.11.33,3.28,2.55,4.12,4.51q2.82,6.57,5.64,13.14A92.67,92.67,0,0,1,442.05,263.57Z" style="fill:#fff;opacity:0.8"></path><path d="M382.53,250.2c-.89,3.11-2.27,6-3.23,9.12-29.33-1.78-63.81-3.56-97.8-4.62a30.3,30.3,0,0,0,6.34-4.16c1.42-1.21,2.56-3.11,4.46-3.52,1.05-.23,1.48,1.86,2.53,1.65a1.42,1.42,0,0,0,.79-.68l2.85-4.2a1.08,1.08,0,0,1,.61-.53c.24-.06.51.06.75,0,.53-.15.45-.91.5-1.47a1.92,1.92,0,0,1,1.51-1.67.77.77,0,0,1,.45,0,.82.82,0,0,1,.37.43c.68,1.45.34,3.24,1.14,4.63a8.08,8.08,0,0,1,.52.9c.4,1-.24,4.59,1.06,2.26.89-1.61,1.24-3.59,2.15-5.24a19.41,19.41,0,0,0,.92-2.47,11.53,11.53,0,0,1,1.48-1.69l.18,2.2a1.24,1.24,0,0,0,.17.63c.3.44,1,.36,1.42.68a1.93,1.93,0,0,1,.52,1.37c.07.5.24,1.08.72,1.24.11,0,.24,0,.3.15a.33.33,0,0,1,.05.22,6.93,6.93,0,0,0,.07,1.29c.76-.28,1.72-2.66,2.11-3.52l1.89-4.17a14.85,14.85,0,0,0,1.53-3.78,12.13,12.13,0,0,1,.68-3.45c.13-.28.41-.63.68-.47s.19.34.18.55a13.85,13.85,0,0,0,.31,4.26c.17.62.42,1.21.62,1.82a22.14,22.14,0,0,1,.73,7.17c0,1.68.75,2.81,1.84,1.09a28.66,28.66,0,0,0,1.48-3.73,8.63,8.63,0,0,0,1-3.47,7,7,0,0,1,0-1.65,4.29,4.29,0,0,1,.6-1.26,15,15,0,0,0,2.05-6.69,5.63,5.63,0,0,1,.52-2.63c.23-.37.55-.66.79-1,.7-1.1.35-3.06.74-4.4s.81-2.75,2.09-3.39a.72.72,0,0,1,.51-.1c.26.08.36.37.43.63,1,4.26-.26,8.9,1.23,13,.54,1.48,1.42,3.06.82,4.5a7.56,7.56,0,0,0-.69,1.47c-.25,1.31,1.19,2.23,2.06,3.24a5.78,5.78,0,0,1,1.14,2.25c.11.38.15,2.28.42,2.45,1.2.75,1.35-3.5,1.31-4.14a1.52,1.52,0,0,1,.05-.6,1.75,1.75,0,0,1,.33-.44,5.83,5.83,0,0,0,1.36-2.28c.25-.78.34-1.61.56-2.4a3.58,3.58,0,0,1,1.28-2.06.52.52,0,0,1,.27-.1c.17,0,.28.19.35.35a5.1,5.1,0,0,1,.4,1.68,2.19,2.19,0,0,0,.17.85c.83,1.39,2.07-.09,2.38-.95a4.3,4.3,0,0,0,.15-1.52c0-1.1-.05-2.2-.07-3.31a1.84,1.84,0,0,1,.17-1,3.71,3.71,0,0,1,.69-.68,3.07,3.07,0,0,0,.58-1.12c.68-1.88,1.3-5.66,2.71-7a7.51,7.51,0,0,1,.68,1.46,3.1,3.1,0,0,1,.31,1.3,3.49,3.49,0,0,1-.28,1,4.85,4.85,0,0,0-.33,2.06c.11,1,.7,1.94.86,3,.11.74,0,1.5.05,2.24a42.58,42.58,0,0,0,1.21,6.23c.2.82.62,4.07,1.57,4.42,1.2.27,1.9-2.44,1.85-3.25a2,2,0,0,1,.18-1.4c.29-.36.82-.41,1.17-.71.54-.47.44-1.32.52-2,.12-1,1.44-1.45,2-2.2a20.16,20.16,0,0,0,2-4.28c.93-2.22,2.86-6,2.66-8.4a18.86,18.86,0,0,0,2.62,8.15q1.29-4.9,2.41-9.84c.46-2,.51-5.22,2.4-6.48-.37,2.77,1.7,4.88,1.8,7.56.07,1.86-1,3.72-.52,5.51.35,1.23,1.43,2.18,1.7,3.44s-.26,2.47.17,3.59a2.69,2.69,0,0,0,.28.53,8.72,8.72,0,0,0,1.17,1.27,12.5,12.5,0,0,1,3.52,6.95C382.4,244.54,383.61,246.36,382.53,250.2Z" style="fill:#2AB6B3"></path><g style="clip-path:url(#freepik--clip-path--inject-45)"><path d="M382.53,250.2c-.89,3.11-2.27,6-3.23,9.12-29.33-1.78-63.81-3.56-97.8-4.62a30.3,30.3,0,0,0,6.34-4.16c1.42-1.21,2.56-3.11,4.46-3.52,1.05-.23,1.48,1.86,2.53,1.65a1.42,1.42,0,0,0,.79-.68l2.85-4.2a1.08,1.08,0,0,1,.61-.53c.24-.06.51.06.75,0,.53-.15.45-.91.5-1.47a1.92,1.92,0,0,1,1.51-1.67.77.77,0,0,1,.45,0,.82.82,0,0,1,.37.43c.68,1.45.34,3.24,1.14,4.63a8.08,8.08,0,0,1,.52.9c.4,1-.24,4.59,1.06,2.26.89-1.61,1.24-3.59,2.15-5.24a19.41,19.41,0,0,0,.92-2.47,11.53,11.53,0,0,1,1.48-1.69l.18,2.2a1.24,1.24,0,0,0,.17.63c.3.44,1,.36,1.42.68a1.93,1.93,0,0,1,.52,1.37c.07.5.24,1.08.72,1.24.11,0,.24,0,.3.15a.33.33,0,0,1,.05.22,6.93,6.93,0,0,0,.07,1.29c.76-.28,1.72-2.66,2.11-3.52l1.89-4.17a14.85,14.85,0,0,0,1.53-3.78,12.13,12.13,0,0,1,.68-3.45c.13-.28.41-.63.68-.47s.19.34.18.55a13.85,13.85,0,0,0,.31,4.26c.17.62.42,1.21.62,1.82a22.14,22.14,0,0,1,.73,7.17c0,1.68.75,2.81,1.84,1.09a28.66,28.66,0,0,0,1.48-3.73,8.63,8.63,0,0,0,1-3.47,7,7,0,0,1,0-1.65,4.29,4.29,0,0,1,.6-1.26,15,15,0,0,0,2.05-6.69,5.63,5.63,0,0,1,.52-2.63c.23-.37.55-.66.79-1,.7-1.1.35-3.06.74-4.4s.81-2.75,2.09-3.39a.72.72,0,0,1,.51-.1c.26.08.36.37.43.63,1,4.26-.26,8.9,1.23,13,.54,1.48,1.42,3.06.82,4.5a7.56,7.56,0,0,0-.69,1.47c-.25,1.31,1.19,2.23,2.06,3.24a5.78,5.78,0,0,1,1.14,2.25c.11.38.15,2.28.42,2.45,1.2.75,1.35-3.5,1.31-4.14a1.52,1.52,0,0,1,.05-.6,1.75,1.75,0,0,1,.33-.44,5.83,5.83,0,0,0,1.36-2.28c.25-.78.34-1.61.56-2.4a3.58,3.58,0,0,1,1.28-2.06.52.52,0,0,1,.27-.1c.17,0,.28.19.35.35a5.1,5.1,0,0,1,.4,1.68,2.19,2.19,0,0,0,.17.85c.83,1.39,2.07-.09,2.38-.95a4.3,4.3,0,0,0,.15-1.52c0-1.1-.05-2.2-.07-3.31a1.84,1.84,0,0,1,.17-1,3.71,3.71,0,0,1,.69-.68,3.07,3.07,0,0,0,.58-1.12c.68-1.88,1.3-5.66,2.71-7a7.51,7.51,0,0,1,.68,1.46,3.1,3.1,0,0,1,.31,1.3,3.49,3.49,0,0,1-.28,1,4.85,4.85,0,0,0-.33,2.06c.11,1,.7,1.94.86,3,.11.74,0,1.5.05,2.24a42.58,42.58,0,0,0,1.21,6.23c.2.82.62,4.07,1.57,4.42,1.2.27,1.9-2.44,1.85-3.25a2,2,0,0,1,.18-1.4c.29-.36.82-.41,1.17-.71.54-.47.44-1.32.52-2,.12-1,1.44-1.45,2-2.2a20.16,20.16,0,0,0,2-4.28c.93-2.22,2.86-6,2.66-8.4a18.86,18.86,0,0,0,2.62,8.15q1.29-4.9,2.41-9.84c.46-2,.51-5.22,2.4-6.48-.37,2.77,1.7,4.88,1.8,7.56.07,1.86-1,3.72-.52,5.51.35,1.23,1.43,2.18,1.7,3.44s-.26,2.47.17,3.59a2.69,2.69,0,0,0,.28.53,8.72,8.72,0,0,0,1.17,1.27,12.5,12.5,0,0,1,3.52,6.95C382.4,244.54,383.61,246.36,382.53,250.2Z" style="fill:#fff;opacity:0.6000000000000001"></path></g><path d="M382.53,250.2c-.89,3.11-2.27,6-3.23,9.12-29.33-1.78-63.81-3.56-97.8-4.62a30.3,30.3,0,0,0,6.34-4.16c1.42-1.21,2.56-3.11,4.46-3.52,1.05-.23,1.48,1.86,2.53,1.65a1.42,1.42,0,0,0,.79-.68l2.85-4.2a1.08,1.08,0,0,1,.61-.53c.24-.06.51.06.75,0,.53-.15.45-.91.5-1.47a1.92,1.92,0,0,1,1.51-1.67.77.77,0,0,1,.45,0,.82.82,0,0,1,.37.43c.68,1.45.34,3.24,1.14,4.63a8.08,8.08,0,0,1,.52.9c.4,1-.24,4.59,1.06,2.26.89-1.61,1.24-3.59,2.15-5.24a19.41,19.41,0,0,0,.92-2.47,11.53,11.53,0,0,1,1.48-1.69l.18,2.2a1.24,1.24,0,0,0,.17.63c.3.44,1,.36,1.42.68a1.93,1.93,0,0,1,.52,1.37c.07.5.24,1.08.72,1.24.11,0,.24,0,.3.15a.33.33,0,0,1,.05.22,6.93,6.93,0,0,0,.07,1.29c.76-.28,1.72-2.66,2.11-3.52l1.89-4.17a14.85,14.85,0,0,0,1.53-3.78,12.13,12.13,0,0,1,.68-3.45c.13-.28.41-.63.68-.47s.19.34.18.55a13.85,13.85,0,0,0,.31,4.26c.17.62.42,1.21.62,1.82a22.14,22.14,0,0,1,.73,7.17c0,1.68.75,2.81,1.84,1.09a28.66,28.66,0,0,0,1.48-3.73,8.63,8.63,0,0,0,1-3.47,7,7,0,0,1,0-1.65,4.29,4.29,0,0,1,.6-1.26,15,15,0,0,0,2.05-6.69,5.63,5.63,0,0,1,.52-2.63c.23-.37.55-.66.79-1,.7-1.1.35-3.06.74-4.4s.81-2.75,2.09-3.39a.72.72,0,0,1,.51-.1c.26.08.36.37.43.63,1,4.26-.26,8.9,1.23,13,.54,1.48,1.42,3.06.82,4.5a7.56,7.56,0,0,0-.69,1.47c-.25,1.31,1.19,2.23,2.06,3.24a5.78,5.78,0,0,1,1.14,2.25c.11.38.15,2.28.42,2.45,1.2.75,1.35-3.5,1.31-4.14a1.52,1.52,0,0,1,.05-.6,1.75,1.75,0,0,1,.33-.44,5.83,5.83,0,0,0,1.36-2.28c.25-.78.34-1.61.56-2.4a3.58,3.58,0,0,1,1.28-2.06.52.52,0,0,1,.27-.1c.17,0,.28.19.35.35a5.1,5.1,0,0,1,.4,1.68,2.19,2.19,0,0,0,.17.85c.83,1.39,2.07-.09,2.38-.95a4.3,4.3,0,0,0,.15-1.52c0-1.1-.05-2.2-.07-3.31a1.84,1.84,0,0,1,.17-1,3.71,3.71,0,0,1,.69-.68,3.07,3.07,0,0,0,.58-1.12c.68-1.88,1.3-5.66,2.71-7a7.51,7.51,0,0,1,.68,1.46,3.1,3.1,0,0,1,.31,1.3,3.49,3.49,0,0,1-.28,1,4.85,4.85,0,0,0-.33,2.06c.11,1,.7,1.94.86,3,.11.74,0,1.5.05,2.24a42.58,42.58,0,0,0,1.21,6.23c.2.82.62,4.07,1.57,4.42,1.2.27,1.9-2.44,1.85-3.25a2,2,0,0,1,.18-1.4c.29-.36.82-.41,1.17-.71.54-.47.44-1.32.52-2,.12-1,1.44-1.45,2-2.2a20.16,20.16,0,0,0,2-4.28c.93-2.22,2.86-6,2.66-8.4a18.86,18.86,0,0,0,2.62,8.15q1.29-4.9,2.41-9.84c.46-2,.51-5.22,2.4-6.48-.37,2.77,1.7,4.88,1.8,7.56.07,1.86-1,3.72-.52,5.51.35,1.23,1.43,2.18,1.7,3.44s-.26,2.47.17,3.59a2.69,2.69,0,0,0,.28.53,8.72,8.72,0,0,0,1.17,1.27,12.5,12.5,0,0,1,3.52,6.95C382.4,244.54,383.61,246.36,382.53,250.2Z" style="fill:none;stroke:#263238;stroke-linecap:round;stroke-linejoin:round"></path><path d="M217.93,253.75c-45.48.11-87.15,1.37-118.3,2.65l-1.45,0c-3.37-.1-6.75-.12-10.13-.11s-4.6.34-5.34-3.19c-.49-2.33,1.61-4.33,2.38-6.58.93-2.72-.09-5.86,1.06-8.49.39-.91,1-1.7,1.41-2.62.67-1.59.53-3.39.75-5.1.31-2.43,1.35-4.7,2-7,1.24-4.17,1.38-8.58,1.94-12.89.49-3.78,1.3-7.51,2.11-11.24q1.27-5.87,2.56-11.74c1.18,4.2,2.83,8,3.87,12.29.13.56,2.08,8.12,2.54,8.12-1.1.63-1.29,2.24-.82,3.43s3.53,7.82,4.64,8.27c2.73,1.11,4.58-2.29,6.61-3.68a9,9,0,0,0,1.39-1,2.71,2.71,0,0,0,.36-.46c.64-1,.37-2.39.83-3.51s1.73-1.92,2.3-3.07c.83-1.66.08-3.69.49-5.51.58-2.62,3-4.31,3.15-7.1,1.63,1.58,1.1,4.71,1.18,6.8q.19,5.07.57,10.12a19,19,0,0,0,4.07-7.54c-.64,2.37.57,6.4,1.07,8.75a20.38,20.38,0,0,0,1.2,4.57c.42.84,1.64,1.5,1.57,2.53,0,.72-.31,1.53.14,2.09.29.36.8.51,1,.91a2,2,0,0,1-.07,1.41c-.19.79,0,3.58,1.23,3.53,1-.16,2-3.29,2.35-4.05a42.48,42.48,0,0,0,2.32-5.9c.2-.73.22-1.49.46-2.2.34-1,1.09-1.76,1.38-2.75a4.61,4.61,0,0,0,0-2.09,3.92,3.92,0,0,1-.09-1,3.17,3.17,0,0,1,.55-1.23,6.88,6.88,0,0,1,.93-1.31c1.14,1.59,1.06,5.41,1.38,7.39a3.24,3.24,0,0,0,.37,1.2,5.25,5.25,0,0,1,.56.8,1.9,1.9,0,0,1,0,1c-.23,1.08-.45,2.16-.67,3.24a4.12,4.12,0,0,0-.13,1.52c.14.9,1.09,2.58,2.16,1.36a1.88,1.88,0,0,0,.32-.8,5.54,5.54,0,0,1,.7-1.57c.1-.15.24-.31.42-.28a.45.45,0,0,1,.24.15,3.56,3.56,0,0,1,.88,2.25c.07.82,0,1.65.11,2.46a6.1,6.1,0,0,0,.92,2.49,1.62,1.62,0,0,1,.25.49,1.54,1.54,0,0,1-.06.6c-.16.62-.78,4.84.53,4.31.29-.12.69-2,.87-2.33a5.85,5.85,0,0,1,1.52-2c1-.84,2.62-1.48,2.62-2.82a7.33,7.33,0,0,0-.41-1.56c-.33-1.53.83-2.93,1.62-4.28,2.22-3.78,1.81-8.58,3.6-12.58.11-.24.27-.51.53-.54a.68.68,0,0,1,.48.19c1.14.87,1.31,2.4,1.44,3.72s-.56,3.25-.07,4.46c.16.39.43.74.58,1.14a5.52,5.52,0,0,1,0,2.68,15.11,15.11,0,0,0,.8,7,4.6,4.6,0,0,1,.37,1.35,7.75,7.75,0,0,1-.29,1.63,8.46,8.46,0,0,0,.35,3.59,27.55,27.55,0,0,0,.76,3.93c.77,1.89,1.73.92,2-.73a22.36,22.36,0,0,1,2-6.92c.31-.56.66-1.1.94-1.68a13.41,13.41,0,0,0,1.08-4.13c0-.2.09-.44.28-.51s.51.29.58.59a11.89,11.89,0,0,1,0,3.52,15.38,15.38,0,0,0,.81,4l1.11,4.45c.22.91.73,3.43,1.43,3.84a6.44,6.44,0,0,0,.3-1.26.37.37,0,0,1,.09-.2c.08-.09.21-.08.32-.1.5-.06.78-.6.94-1.08a1.92,1.92,0,0,1,.76-1.25c.48-.24,1.15,0,1.52-.41a1.29,1.29,0,0,0,.28-.59c.19-.71.39-1.42.58-2.13a12.1,12.1,0,0,1,1.15,1.93,18.14,18.14,0,0,0,.45,2.6c.6,1.79.57,3.8,1.16,5.54.85,2.53.88-1.14,1.45-2a10.13,10.13,0,0,1,.68-.79c1-1.21,1-3,2-4.34a.91.91,0,0,1,.44-.36.78.78,0,0,1,.45.06,1.91,1.91,0,0,1,1.18,1.92c-.05.55-.27,1.29.23,1.53.22.11.5,0,.73.14a1.16,1.16,0,0,1,.51.65c.51,1.16,1.8,6.06,3.5,5.44,1-.34,1.94-3.92,2.44-4.85a26.35,26.35,0,0,0,3,8.11,1.61,1.61,0,0,0,.67.74c.61.28,1.36-.23,2,0,.39.15.62.55.89.88a5.18,5.18,0,0,0,4.12,1.5,28.57,28.57,0,0,1,4.53-.06,30.51,30.51,0,0,1,4.12,1.35A14.23,14.23,0,0,0,217.93,253.75Z" style="fill:#2AB6B3"></path><g style="clip-path:url(#freepik--clip-path-2--inject-45)"><path d="M217.93,253.75c-45.48.11-87.15,1.37-118.3,2.65l-1.45,0c-3.37-.1-6.75-.12-10.13-.11s-4.6.34-5.34-3.19c-.49-2.33,1.61-4.33,2.38-6.58.93-2.72-.09-5.86,1.06-8.49.39-.91,1-1.7,1.41-2.62.67-1.59.53-3.39.75-5.1.31-2.43,1.35-4.7,2-7,1.24-4.17,1.38-8.58,1.94-12.89.49-3.78,1.3-7.51,2.11-11.24q1.27-5.87,2.56-11.74c1.18,4.2,2.83,8,3.87,12.29.13.56,2.08,8.12,2.54,8.12-1.1.63-1.29,2.24-.82,3.43s3.53,7.82,4.64,8.27c2.73,1.11,4.58-2.29,6.61-3.68a9,9,0,0,0,1.39-1,2.71,2.71,0,0,0,.36-.46c.64-1,.37-2.39.83-3.51s1.73-1.92,2.3-3.07c.83-1.66.08-3.69.49-5.51.58-2.62,3-4.31,3.15-7.1,1.63,1.58,1.1,4.71,1.18,6.8q.19,5.07.57,10.12a19,19,0,0,0,4.07-7.54c-.64,2.37.57,6.4,1.07,8.75a20.38,20.38,0,0,0,1.2,4.57c.42.84,1.64,1.5,1.57,2.53,0,.72-.31,1.53.14,2.09.29.36.8.51,1,.91a2,2,0,0,1-.07,1.41c-.19.79,0,3.58,1.23,3.53,1-.16,2-3.29,2.35-4.05a42.48,42.48,0,0,0,2.32-5.9c.2-.73.22-1.49.46-2.2.34-1,1.09-1.76,1.38-2.75a4.61,4.61,0,0,0,0-2.09,3.92,3.92,0,0,1-.09-1,3.17,3.17,0,0,1,.55-1.23,6.88,6.88,0,0,1,.93-1.31c1.14,1.59,1.06,5.41,1.38,7.39a3.24,3.24,0,0,0,.37,1.2,5.25,5.25,0,0,1,.56.8,1.9,1.9,0,0,1,0,1c-.23,1.08-.45,2.16-.67,3.24a4.12,4.12,0,0,0-.13,1.52c.14.9,1.09,2.58,2.16,1.36a1.88,1.88,0,0,0,.32-.8,5.54,5.54,0,0,1,.7-1.57c.1-.15.24-.31.42-.28a.45.45,0,0,1,.24.15,3.56,3.56,0,0,1,.88,2.25c.07.82,0,1.65.11,2.46a6.1,6.1,0,0,0,.92,2.49,1.62,1.62,0,0,1,.25.49,1.54,1.54,0,0,1-.06.6c-.16.62-.78,4.84.53,4.31.29-.12.69-2,.87-2.33a5.85,5.85,0,0,1,1.52-2c1-.84,2.62-1.48,2.62-2.82a7.33,7.33,0,0,0-.41-1.56c-.33-1.53.83-2.93,1.62-4.28,2.22-3.78,1.81-8.58,3.6-12.58.11-.24.27-.51.53-.54a.68.68,0,0,1,.48.19c1.14.87,1.31,2.4,1.44,3.72s-.56,3.25-.07,4.46c.16.39.43.74.58,1.14a5.52,5.52,0,0,1,0,2.68,15.11,15.11,0,0,0,.8,7,4.6,4.6,0,0,1,.37,1.35,7.75,7.75,0,0,1-.29,1.63,8.46,8.46,0,0,0,.35,3.59,27.55,27.55,0,0,0,.76,3.93c.77,1.89,1.73.92,2-.73a22.36,22.36,0,0,1,2-6.92c.31-.56.66-1.1.94-1.68a13.41,13.41,0,0,0,1.08-4.13c0-.2.09-.44.28-.51s.51.29.58.59a11.89,11.89,0,0,1,0,3.52,15.38,15.38,0,0,0,.81,4l1.11,4.45c.22.91.73,3.43,1.43,3.84a6.44,6.44,0,0,0,.3-1.26.37.37,0,0,1,.09-.2c.08-.09.21-.08.32-.1.5-.06.78-.6.94-1.08a1.92,1.92,0,0,1,.76-1.25c.48-.24,1.15,0,1.52-.41a1.29,1.29,0,0,0,.28-.59c.19-.71.39-1.42.58-2.13a12.1,12.1,0,0,1,1.15,1.93,18.14,18.14,0,0,0,.45,2.6c.6,1.79.57,3.8,1.16,5.54.85,2.53.88-1.14,1.45-2a10.13,10.13,0,0,1,.68-.79c1-1.21,1-3,2-4.34a.91.91,0,0,1,.44-.36.78.78,0,0,1,.45.06,1.91,1.91,0,0,1,1.18,1.92c-.05.55-.27,1.29.23,1.53.22.11.5,0,.73.14a1.16,1.16,0,0,1,.51.65c.51,1.16,1.8,6.06,3.5,5.44,1-.34,1.94-3.92,2.44-4.85a26.35,26.35,0,0,0,3,8.11,1.61,1.61,0,0,0,.67.74c.61.28,1.36-.23,2,0,.39.15.62.55.89.88a5.18,5.18,0,0,0,4.12,1.5,28.57,28.57,0,0,1,4.53-.06,30.51,30.51,0,0,1,4.12,1.35A14.23,14.23,0,0,0,217.93,253.75Z" style="fill:#fff;opacity:0.4"></path></g><path d="M217.93,253.75c-45.48.11-87.15,1.37-118.3,2.65l-1.45,0c-3.37-.1-6.75-.12-10.13-.11s-4.6.34-5.34-3.19c-.49-2.33,1.61-4.33,2.38-6.58.93-2.72-.09-5.86,1.06-8.49.39-.91,1-1.7,1.41-2.62.67-1.59.53-3.39.75-5.1.31-2.43,1.35-4.7,2-7,1.24-4.17,1.38-8.58,1.94-12.89.49-3.78,1.3-7.51,2.11-11.24q1.27-5.87,2.56-11.74c1.18,4.2,2.83,8,3.87,12.29.13.56,2.08,8.12,2.54,8.12-1.1.63-1.29,2.24-.82,3.43s3.53,7.82,4.64,8.27c2.73,1.11,4.58-2.29,6.61-3.68a9,9,0,0,0,1.39-1,2.71,2.71,0,0,0,.36-.46c.64-1,.37-2.39.83-3.51s1.73-1.92,2.3-3.07c.83-1.66.08-3.69.49-5.51.58-2.62,3-4.31,3.15-7.1,1.63,1.58,1.1,4.71,1.18,6.8q.19,5.07.57,10.12a19,19,0,0,0,4.07-7.54c-.64,2.37.57,6.4,1.07,8.75a20.38,20.38,0,0,0,1.2,4.57c.42.84,1.64,1.5,1.57,2.53,0,.72-.31,1.53.14,2.09.29.36.8.51,1,.91a2,2,0,0,1-.07,1.41c-.19.79,0,3.58,1.23,3.53,1-.16,2-3.29,2.35-4.05a42.48,42.48,0,0,0,2.32-5.9c.2-.73.22-1.49.46-2.2.34-1,1.09-1.76,1.38-2.75a4.61,4.61,0,0,0,0-2.09,3.92,3.92,0,0,1-.09-1,3.17,3.17,0,0,1,.55-1.23,6.88,6.88,0,0,1,.93-1.31c1.14,1.59,1.06,5.41,1.38,7.39a3.24,3.24,0,0,0,.37,1.2,5.25,5.25,0,0,1,.56.8,1.9,1.9,0,0,1,0,1c-.23,1.08-.45,2.16-.67,3.24a4.12,4.12,0,0,0-.13,1.52c.14.9,1.09,2.58,2.16,1.36a1.88,1.88,0,0,0,.32-.8,5.54,5.54,0,0,1,.7-1.57c.1-.15.24-.31.42-.28a.45.45,0,0,1,.24.15,3.56,3.56,0,0,1,.88,2.25c.07.82,0,1.65.11,2.46a6.1,6.1,0,0,0,.92,2.49,1.62,1.62,0,0,1,.25.49,1.54,1.54,0,0,1-.06.6c-.16.62-.78,4.84.53,4.31.29-.12.69-2,.87-2.33a5.85,5.85,0,0,1,1.52-2c1-.84,2.62-1.48,2.62-2.82a7.33,7.33,0,0,0-.41-1.56c-.33-1.53.83-2.93,1.62-4.28,2.22-3.78,1.81-8.58,3.6-12.58.11-.24.27-.51.53-.54a.68.68,0,0,1,.48.19c1.14.87,1.31,2.4,1.44,3.72s-.56,3.25-.07,4.46c.16.39.43.74.58,1.14a5.52,5.52,0,0,1,0,2.68,15.11,15.11,0,0,0,.8,7,4.6,4.6,0,0,1,.37,1.35,7.75,7.75,0,0,1-.29,1.63,8.46,8.46,0,0,0,.35,3.59,27.55,27.55,0,0,0,.76,3.93c.77,1.89,1.73.92,2-.73a22.36,22.36,0,0,1,2-6.92c.31-.56.66-1.1.94-1.68a13.41,13.41,0,0,0,1.08-4.13c0-.2.09-.44.28-.51s.51.29.58.59a11.89,11.89,0,0,1,0,3.52,15.38,15.38,0,0,0,.81,4l1.11,4.45c.22.91.73,3.43,1.43,3.84a6.44,6.44,0,0,0,.3-1.26.37.37,0,0,1,.09-.2c.08-.09.21-.08.32-.1.5-.06.78-.6.94-1.08a1.92,1.92,0,0,1,.76-1.25c.48-.24,1.15,0,1.52-.41a1.29,1.29,0,0,0,.28-.59c.19-.71.39-1.42.58-2.13a12.1,12.1,0,0,1,1.15,1.93,18.14,18.14,0,0,0,.45,2.6c.6,1.79.57,3.8,1.16,5.54.85,2.53.88-1.14,1.45-2a10.13,10.13,0,0,1,.68-.79c1-1.21,1-3,2-4.34a.91.91,0,0,1,.44-.36.78.78,0,0,1,.45.06,1.91,1.91,0,0,1,1.18,1.92c-.05.55-.27,1.29.23,1.53.22.11.5,0,.73.14a1.16,1.16,0,0,1,.51.65c.51,1.16,1.8,6.06,3.5,5.44,1-.34,1.94-3.92,2.44-4.85a26.35,26.35,0,0,0,3,8.11,1.61,1.61,0,0,0,.67.74c.61.28,1.36-.23,2,0,.39.15.62.55.89.88a5.18,5.18,0,0,0,4.12,1.5,28.57,28.57,0,0,1,4.53-.06,30.51,30.51,0,0,1,4.12,1.35A14.23,14.23,0,0,0,217.93,253.75Z" style="fill:none;stroke:#263238;stroke-linecap:round;stroke-linejoin:round"></path><path d="M457.7,264.78s-5.71-.47-15.65-1.21c-14-1.06-36.26-2.65-62.75-4.25-29.33-1.78-63.81-3.56-97.8-4.62-19.32-.6-38.49-1-56.48-1-2.37,0-4.74,0-7.09,0-45.48.11-87.15,1.37-118.3,2.65-21.39.88-37.83,1.78-47.14,2.32-5.58.33-8.6.53-8.6.53" style="fill:none;stroke:#263238;stroke-linecap:round;stroke-linejoin:round"></path><path d="M413.8,226a7.09,7.09,0,0,1-1.08-3.9,4.1,4.1,0,0,1-1.73,2.78c-1.19-1.89-4.16-1.34-5.2-3.72-.49-1.15-.15-2.37-.24-3.56-.12-1.65-.73-2.36-1.39-3.79a5.11,5.11,0,0,1-.3-2.13v-8.51a4.66,4.66,0,0,1-1.81,2.48q-.8-6.88-1.6-13.78a1.33,1.33,0,0,0-.13-.51.92.92,0,0,0-1.4,0,2.56,2.56,0,0,0-.56,1.5c-.83,5.8-.82,11.9-3.45,17.13a12.15,12.15,0,0,0-1.42,3.35c-.25,1.41.15,2.94-.46,4.23-.45,1-1.39,1.62-1.84,2.58-.84,1.78-.21,4.13-1.4,5.78-1.32,1.84-4.07,2-5.77,3.36-2.32,1.88-2.57,5.26-2.64,8.24,0,.92-3.26-.07-3.59-.23-1.42-.68-2.25-2.11-3.06.51-.27.88-.27,1.82-.52,2.71-.39,1.33-1.34,2.34-1.89,3.58-.64,1.45-.24,1.89-.26,3.2-.05,2.82-1.59,2.53-3.89,3.53-1.23.55-1.49,1.38-2.59,2.09a1.27,1.27,0,0,1-1.52,0c-.64-.59-.19-1.65-.32-2.51a1.8,1.8,0,0,0-3.11-1c-.59.64-.65,1.62-1.19,2.29-1.07,1.32-3.17.76-4.82,1.18s-2.14,1.92-3.46,2.47c-1.16.49-3,.32-4.28.49a23.67,23.67,0,0,0-4.55.91c-.12,0-2.6,1.29-2.3,1.42,2.78,1.21,6.05,1.74,9,2.55a28.52,28.52,0,0,0,8.85,1.44c1.89-.1,3.87-.56,5.62.17.77.32,1.45.86,2.23,1.16a7.55,7.55,0,0,0,2.72.35c5.47,0,11.11-.59,16.28,1.19,1.06.36,2.09.82,3.17,1.14a17.58,17.58,0,0,0,4.45.63c4.12.13,8.32-.61,12.33.35a11.94,11.94,0,0,0,3.76.65,5.75,5.75,0,0,0,4-2.56,19.92,19.92,0,0,0,2.26-4.58c.5-1.36.38-3.07,1.07-4.34s2.2-1.71,3-2.82a6.27,6.27,0,0,0,.87-3.53c.44-9.62,2.42-20-4.13-28.16C415.33,222.85,413.8,225,413.8,226Z" style="fill:#2AB6B3"></path><g style="clip-path:url(#freepik--clip-path-3--inject-45)"><path d="M413.8,226a7.09,7.09,0,0,1-1.08-3.9,4.1,4.1,0,0,1-1.73,2.78c-1.19-1.89-4.16-1.34-5.2-3.72-.49-1.15-.15-2.37-.24-3.56-.12-1.65-.73-2.36-1.39-3.79a5.11,5.11,0,0,1-.3-2.13v-8.51a4.66,4.66,0,0,1-1.81,2.48q-.8-6.88-1.6-13.78a1.33,1.33,0,0,0-.13-.51.92.92,0,0,0-1.4,0,2.56,2.56,0,0,0-.56,1.5c-.83,5.8-.82,11.9-3.45,17.13a12.15,12.15,0,0,0-1.42,3.35c-.25,1.41.15,2.94-.46,4.23-.45,1-1.39,1.62-1.84,2.58-.84,1.78-.21,4.13-1.4,5.78-1.32,1.84-4.07,2-5.77,3.36-2.32,1.88-2.57,5.26-2.64,8.24,0,.92-3.26-.07-3.59-.23-1.42-.68-2.25-2.11-3.06.51-.27.88-.27,1.82-.52,2.71-.39,1.33-1.34,2.34-1.89,3.58-.64,1.45-.24,1.89-.26,3.2-.05,2.82-1.59,2.53-3.89,3.53-1.23.55-1.49,1.38-2.59,2.09a1.27,1.27,0,0,1-1.52,0c-.64-.59-.19-1.65-.32-2.51a1.8,1.8,0,0,0-3.11-1c-.59.64-.65,1.62-1.19,2.29-1.07,1.32-3.17.76-4.82,1.18s-2.14,1.92-3.46,2.47c-1.16.49-3,.32-4.28.49a23.67,23.67,0,0,0-4.55.91c-.12,0-2.6,1.29-2.3,1.42,2.78,1.21,6.05,1.74,9,2.55a28.52,28.52,0,0,0,8.85,1.44c1.89-.1,3.87-.56,5.62.17.77.32,1.45.86,2.23,1.16a7.55,7.55,0,0,0,2.72.35c5.47,0,11.11-.59,16.28,1.19,1.06.36,2.09.82,3.17,1.14a17.58,17.58,0,0,0,4.45.63c4.12.13,8.32-.61,12.33.35a11.94,11.94,0,0,0,3.76.65,5.75,5.75,0,0,0,4-2.56,19.92,19.92,0,0,0,2.26-4.58c.5-1.36.38-3.07,1.07-4.34s2.2-1.71,3-2.82a6.27,6.27,0,0,0,.87-3.53c.44-9.62,2.42-20-4.13-28.16C415.33,222.85,413.8,225,413.8,226Z" style="fill:#fff;opacity:0.4"></path></g><path d="M413.8,226a7.09,7.09,0,0,1-1.08-3.9,4.1,4.1,0,0,1-1.73,2.78c-1.19-1.89-4.16-1.34-5.2-3.72-.49-1.15-.15-2.37-.24-3.56-.12-1.65-.73-2.36-1.39-3.79a5.11,5.11,0,0,1-.3-2.13v-8.51a4.66,4.66,0,0,1-1.81,2.48q-.8-6.88-1.6-13.78a1.33,1.33,0,0,0-.13-.51.92.92,0,0,0-1.4,0,2.56,2.56,0,0,0-.56,1.5c-.83,5.8-.82,11.9-3.45,17.13a12.15,12.15,0,0,0-1.42,3.35c-.25,1.41.15,2.94-.46,4.23-.45,1-1.39,1.62-1.84,2.58-.84,1.78-.21,4.13-1.4,5.78-1.32,1.84-4.07,2-5.77,3.36-2.32,1.88-2.57,5.26-2.64,8.24,0,.92-3.26-.07-3.59-.23-1.42-.68-2.25-2.11-3.06.51-.27.88-.27,1.82-.52,2.71-.39,1.33-1.34,2.34-1.89,3.58-.64,1.45-.24,1.89-.26,3.2-.05,2.82-1.59,2.53-3.89,3.53-1.23.55-1.49,1.38-2.59,2.09a1.27,1.27,0,0,1-1.52,0c-.64-.59-.19-1.65-.32-2.51a1.8,1.8,0,0,0-3.11-1c-.59.64-.65,1.62-1.19,2.29-1.07,1.32-3.17.76-4.82,1.18s-2.14,1.92-3.46,2.47c-1.16.49-3,.32-4.28.49a23.67,23.67,0,0,0-4.55.91c-.12,0-2.6,1.29-2.3,1.42,2.78,1.21,6.05,1.74,9,2.55a28.52,28.52,0,0,0,8.85,1.44c1.89-.1,3.87-.56,5.62.17.77.32,1.45.86,2.23,1.16a7.55,7.55,0,0,0,2.72.35c5.47,0,11.11-.59,16.28,1.19,1.06.36,2.09.82,3.17,1.14a17.58,17.58,0,0,0,4.45.63c4.12.13,8.32-.61,12.33.35a11.94,11.94,0,0,0,3.76.65,5.75,5.75,0,0,0,4-2.56,19.92,19.92,0,0,0,2.26-4.58c.5-1.36.38-3.07,1.07-4.34s2.2-1.71,3-2.82a6.27,6.27,0,0,0,.87-3.53c.44-9.62,2.42-20-4.13-28.16C415.33,222.85,413.8,225,413.8,226Z" style="fill:none;stroke:#263238;stroke-linecap:round;stroke-linejoin:round"></path><path d="M47.6,220.26a9.44,9.44,0,0,0,1.34-1.06c1.69-1.74-.31-4.13,1.21-5.78.56-.61,1.55-.72,2-1.39a2.41,2.41,0,0,0-.35-2.65,5.23,5.23,0,0,1-1.25-2.51c-.08-2,2.55-2.86,3.81-4.44,2-2.49.23-6.4,1.62-9.27.7-1.47,2.17-2.52,2.64-4.08a10.37,10.37,0,0,0,.13-3.15c0-4.28,2.43-8.12,4.82-11.67a4.56,4.56,0,0,1,2.08,4.17c-.07.75-.25,1.7.39,2.11.34.22.8.18,1.14.39a1.72,1.72,0,0,1,.62,1.1,23,23,0,0,1,.68,7c.61.89,2-.17,2.21-1.24s.18-2.42,1.16-2.88a1.69,1.69,0,0,1,2.06.86,4.38,4.38,0,0,1,.34,2.41c-.16,2.29-.64,4.64,0,6.84.33,1.17,1,2.25,1.19,3.45a12,12,0,0,1,0,3c-.08,1.13-.39,9.3,1.14,9,1.32-.26,1.39-4.66,2.81-5.51,2-1.17,4.32,2.58,4.58,4.18.19,1.19-.24,2.38-.22,3.58a1,1,0,0,0,.25.77,3.91,3.91,0,0,0,.57.31c.53.33.5,1.08.45,1.7-.18,2.1-.74,5.23,1.79,5,1.74-.13,3.6-2,4.74-3.11,1.38-1.41,3-3,5.31-2.11a3.17,3.17,0,0,1,1.48,4.26,6.82,6.82,0,0,1,5,2,1.41,1.41,0,0,1,.51,1.05c0,.37-.35.65-.51,1a2,2,0,0,0,1.06,2.46,5.77,5.77,0,0,0,2.92.37c.77.55.19,1.78-.58,2.33s-1.77,1-1.87,2a5.38,5.38,0,0,0,.11,1.12c.11,1.22-.74,2.58-.06,3.6a5,5,0,0,0,1,.9,4.9,4.9,0,0,1,1.61,3.76,14.7,14.7,0,0,1-.77,4.14c2.87.64,2.87-1.84,5.5-2.46a7.92,7.92,0,0,0,1.19-.28c1.37-.59,1.89-2.64,3.38-2.77a4,4,0,0,1,2,.71,1.82,1.82,0,0,0,2,0c1-.94-.32-3.13.88-3.81a1.29,1.29,0,0,1,.64-.15,2.94,2.94,0,0,1,2.48,1.68,7.39,7.39,0,0,1,.69,3.05,4.78,4.78,0,0,0,.62,2.51c.2.28.47.51.66.81a3.51,3.51,0,0,1,.28,2.38,5,5,0,0,0,0,2.42c1.31,3.5,5.15-1.69,6.34-.41a1.23,1.23,0,0,0,1.43.17,2.78,2.78,0,0,0,1-1.11c1.35-2.33,1.39-5.36,3.19-7.36a7.55,7.55,0,0,0,.9,3.76,5.54,5.54,0,0,1,.59.92,8.41,8.41,0,0,1,.22,1.88c.25,1.66,2.15,3.33,3.16,4.62,1.67,2.16,3,2.12,5.51,2.9a.87.87,0,0,1,.52.33c.22.38-.22.84-.65.91s-.88-.07-1.31,0a3.36,3.36,0,0,0-.91.4c-2.82,1.52-5.36.07-8.25.44-4.05.51-7.93,2.24-12.07,2-7.11-.47-7.8,1.25-14.76,2.77-8.28,1.82-22.53-2.49-30.81-.68-5.75,1.26-11.51,2.53-17.35,3.35-2.77.39-4.64.72-7.32,0a21.68,21.68,0,0,0-8.66-.74,13,13,0,0,1-3.91.35,2.88,2.88,0,0,1-2.61-2.5c0-.71.34-1.5-.08-2.08a1.77,1.77,0,0,0-.82-.53,19.24,19.24,0,0,0-6.36-1.26,11.74,11.74,0,0,1-2.51.06c-.82-.18-1.62-1-1.37-1.77a3.4,3.4,0,0,1,.68-1c1.09-1.45.48-3.6,1.3-5.22.18-.34.5-.7.89-.65.14,0,.28.1.43.11.45,0,.6-.57.71-1a24.17,24.17,0,0,1,1.19-2.46,8.23,8.23,0,0,0,.39-1.77c.18-1.3,0-4,.72-5.12.95-1.5.32-.33,1.73-.67s1.44,0,2.45-1.77c.85-1.46,1.59-3,2.38-4.5a10.9,10.9,0,0,0,.84-1.88,19.39,19.39,0,0,0,.42-2.85A11.83,11.83,0,0,1,46,221.94,5.17,5.17,0,0,1,47.6,220.26Z" style="fill:#2AB6B3"></path><path d="M48.13,219.47a4,4,0,0,0,1.08-.42c1.65-1.13-.41-4.15.94-5.63.56-.61,1.55-.72,2-1.39a2.41,2.41,0,0,0-.35-2.65,5.23,5.23,0,0,1-1.25-2.51c-.08-2,2.55-2.86,3.81-4.44,2-2.49.23-6.4,1.62-9.27.7-1.47,2.17-2.52,2.64-4.08a10.37,10.37,0,0,0,.13-3.15c0-4.28,2.43-8.12,4.82-11.67a4.56,4.56,0,0,1,2.08,4.17c-.07.75-.25,1.7.39,2.11.34.22.8.18,1.14.39a1.72,1.72,0,0,1,.62,1.1,23,23,0,0,1,.68,7c.61.89,2-.17,2.21-1.24s.18-2.42,1.16-2.88a1.69,1.69,0,0,1,2.06.86,4.38,4.38,0,0,1,.34,2.41c-.16,2.29-.64,4.64,0,6.84.33,1.17,1,2.25,1.19,3.45a12,12,0,0,1,0,3c-.08,1.13-.39,9.3,1.14,9,1.32-.26,1.39-4.66,2.81-5.51,2-1.17,4.32,2.58,4.58,4.18.19,1.19-.24,2.38-.22,3.58a1,1,0,0,0,.25.77,3.91,3.91,0,0,0,.57.31c.53.33.5,1.08.45,1.7-.18,2.1-.74,5.23,1.79,5,1.74-.13,3.6-2,4.74-3.11,1.38-1.41,3-3,5.31-2.11a3.17,3.17,0,0,1,1.48,4.26,6.82,6.82,0,0,1,5,2,1.41,1.41,0,0,1,.51,1.05c0,.37-.35.65-.51,1a2,2,0,0,0,1.06,2.46,5.77,5.77,0,0,0,2.92.37c.77.55.19,1.78-.58,2.33s-1.77,1-1.87,2a5.38,5.38,0,0,0,.11,1.12c.11,1.22-.74,2.58-.06,3.6a5,5,0,0,0,1,.9,4.9,4.9,0,0,1,1.61,3.76,14.7,14.7,0,0,1-.77,4.14c2.87.64,2.87-1.84,5.5-2.46a7.92,7.92,0,0,0,1.19-.28c1.37-.59,1.89-2.64,3.38-2.77a4,4,0,0,1,2,.71,1.82,1.82,0,0,0,2,0c1-.94-.32-3.13.88-3.81a1.29,1.29,0,0,1,.64-.15,2.94,2.94,0,0,1,2.48,1.68,7.39,7.39,0,0,1,.69,3.05,4.78,4.78,0,0,0,.62,2.51c.2.28.47.51.66.81a3.51,3.51,0,0,1,.28,2.38,5,5,0,0,0,0,2.42c1.31,3.5,5.15-1.69,6.34-.41a1.23,1.23,0,0,0,1.43.17,2.78,2.78,0,0,0,1-1.11c1.35-2.33,1.39-5.36,3.19-7.36a7.55,7.55,0,0,0,.9,3.76,5.54,5.54,0,0,1,.59.92,8.41,8.41,0,0,1,.22,1.88c.25,1.66,2.15,3.33,3.16,4.62,1.67,2.16,3,2.12,5.51,2.9a.87.87,0,0,1,.52.33c.22.38-.22.84-.65.91s-.88-.07-1.31,0a3.36,3.36,0,0,0-.91.4c-2.82,1.52-5.36.07-8.25.44-4.05.51-7.93,2.24-12.07,2-7.11-.47-7.8,1.25-14.76,2.77-8.28,1.82-22.53-2.49-30.81-.68a180.47,180.47,0,0,1-22.11,3.91" style="fill:none;stroke:#263238;stroke-linecap:round;stroke-linejoin:round"></path><path d="M477.92,284.89a1.37,1.37,0,0,1-.59.43c-.69.3-5,.9-5.19-.24s0,0-4.57-.08,0,0-3.95-.4,0,0-2.77.8,0,0-3.15-.25-.81-.15-3.18-.92-3.56-1.6-6.62-1.36,0,3.92,0,3.92-8.42-3-8.24-3.92-3.34-.64-5.43-.65-7.36-.32-7.36-.32l-2.52-2.28s-8.6-.16-9.78-2.19-5.15.05-7.49,0c-2.12-.05-.67-2.22-1-3.4-.53-2-3.26-2.38-5.12-2.69-1.66-.28-3.46-.39-5.08-.8-1.42-.36-2.67-1.15-4.22-1a2.78,2.78,0,0,1-1.86-.2c-1.71-1.25.82-2.41,1.14-3.32.57-1.56.07-2.72,1-4.4,1.08-2,.4-4.58,1.36-6.65.34-.74.88-1.37,1.28-2.09,1.83-3.25.77-8,3.72-10.32,1.27,1,.09,3.18.86,4.6.53,1,1.89,1.34,2.46,2.32a5.7,5.7,0,0,1,.43,1.42c.4,1.63,2.14,4.6,4,4.84,2.91.36.6-2.94,1.85-4.57a8.79,8.79,0,0,1,1.1-.92c1.2-1.06,1.14-2.89,1.17-4.48a20.53,20.53,0,0,1,2.42-9.2,3.59,3.59,0,0,1,1.11,3.06c.31.43,1,.17,1.39-.19a8.1,8.1,0,0,0,2.26-4.71c.27-1.38,1.11-3.7.76-5.05s-2-2-2.6-3.34c-1.24-2.85,2.93-3.73,2.81-6.32-.07-1.69-1.88-2.42-1.8-4,0-.84.72-1.56.73-2.41,0-.64-.38-1.32-.09-1.9a1.83,1.83,0,0,1,.71-.64l2.3-1.41a1.3,1.3,0,0,0,.48-.42,1.42,1.42,0,0,0,.16-.65c.28-3.28,1.44-6.16,1.69-9.44l1-12.22c.65-.48,1.33.58,1.43,1.38a67.47,67.47,0,0,1,.55,11.28c1.22-.15,2.68-.2,3.42.77a3.37,3.37,0,0,1,.35,2.6c-.34,2.13-.81,4.65.73,6.15.41.4.95.71,1.15,1.25s-.07,1.3.11,1.92c.28,1,1.59,1.63,1.29,2.57-.15.47-.64.72-.9,1.13-.59.92.23,2.12,1.18,2.65s2.1.79,2.8,1.62a3.23,3.23,0,0,0,1.36-2.74c0-.2,0-.39.05-.58a66.06,66.06,0,0,1,2.63-14.28l2.67,7.65q1.54-7.38,3.1-14.76a6.27,6.27,0,0,1,1.44-3.37c1.27,1.21,1.27,2.8,1.58,4.52a15.52,15.52,0,0,0,.6,2.12c.2.56.39,1.11.58,1.67a10.66,10.66,0,0,0,2.28,4.34c.71.69,1.71,1.53,1.31,2.43a5.59,5.59,0,0,1-.68.86,2.41,2.41,0,0,0,.17,2.62c.48.79,1.19,1.43,1.67,2.23a9,9,0,0,1,.93,2.84c.23,1.1.47,2.2.7,3.3a5.42,5.42,0,0,0,1.2,2.84,2.93,2.93,0,0,1,.83.93c.43,1.09-.4,1.95.23,3s1.24,1.44,1.34,2.91a14.81,14.81,0,0,0,.7,3.54,17.05,17.05,0,0,0,2.55,4.94,5.62,5.62,0,0,1,1.12,1.91,7,7,0,0,1-.12,2.41,7.59,7.59,0,0,0,2.35,6.31,3.57,3.57,0,0,1,.84.94c.41.82,0,1.84.23,2.72a16.13,16.13,0,0,0,.81,1.47c.41.91.17,2,.39,2.94.38,1.73,2.05,2.83,3,4.32,1.37,2.13,1.18,4.91,2.2,7.23.73,1.67,2.06,3,2.54,4.8s.1,3.33.06,5a13.75,13.75,0,0,0,.77,4.84C477.44,283.26,478.41,284.21,477.92,284.89Z" style="fill:#2AB6B3"></path><path d="M478.25,285.15s-5.93,1.21-6.11-.07,0,0-4.57-.08,0,0-3.95-.4,0,0-2.77.8,0,0-3.15-.25-.81-.15-3.18-.92-3.56-1.6-6.62-1.36,0,3.92,0,3.92-8.42-3-8.24-3.92-3.34-.64-5.43-.65-7.36-.32-7.36-.32l-2.52-2.28s-8.6-.16-9.78-2.19-5.15.05-7.49,0c-2.12-.05-.67-2.22-1-3.4-.53-2-3.26-2.38-5.12-2.69-1.66-.28-3.46-.39-5.08-.8-1.42-.36-2.67-1.15-4.22-1a2.78,2.78,0,0,1-1.86-.2c-1.71-1.25.82-2.41,1.14-3.32.57-1.56.07-2.72,1-4.4,1.08-2,.4-4.58,1.36-6.65.34-.74.88-1.37,1.28-2.09,1.83-3.25.77-8,3.72-10.32,1.27,1,.09,3.18.86,4.6.53,1,1.89,1.34,2.46,2.32a5.7,5.7,0,0,1,.43,1.42c.4,1.63,2.14,4.6,4,4.84,2.91.36.6-2.94,1.85-4.57a8.79,8.79,0,0,1,1.1-.92c1.2-1.06,1.14-2.89,1.17-4.48a20.53,20.53,0,0,1,2.42-9.2,3.59,3.59,0,0,1,1.11,3.06c.31.43,1,.17,1.39-.19a8.1,8.1,0,0,0,2.26-4.71c.27-1.38,1.11-3.7.76-5.05s-2-2-2.6-3.34c-1.24-2.85,2.93-3.73,2.81-6.32-.07-1.69-1.88-2.42-1.8-4,0-.84.72-1.56.73-2.41,0-.64-.38-1.32-.09-1.9a1.83,1.83,0,0,1,.71-.64l2.3-1.41a1.3,1.3,0,0,0,.48-.42,1.42,1.42,0,0,0,.16-.65c.28-3.28,1.44-6.16,1.69-9.44l1-12.22c.65-.48,1.33.58,1.43,1.38a67.47,67.47,0,0,1,.55,11.28c1.22-.15,2.68-.2,3.42.77a3.37,3.37,0,0,1,.35,2.6c-.34,2.13-.81,4.65.73,6.15.41.4.95.71,1.15,1.25s-.07,1.3.11,1.92c.28,1,1.59,1.63,1.29,2.57-.15.47-.64.72-.9,1.13-.59.92.23,2.12,1.18,2.65s2.1.79,2.8,1.62a3.23,3.23,0,0,0,1.36-2.74c0-.2,0-.39.05-.58a66.06,66.06,0,0,1,2.63-14.28l2.67,7.65q1.54-7.38,3.1-14.76a6.27,6.27,0,0,1,1.44-3.37c1.27,1.21,1.27,2.8,1.58,4.52a15.52,15.52,0,0,0,.6,2.12c.2.56.39,1.11.58,1.67a10.66,10.66,0,0,0,2.28,4.34c.71.69,1.71,1.53,1.31,2.43a5.59,5.59,0,0,1-.68.86,2.41,2.41,0,0,0,.17,2.62c.48.79,1.19,1.43,1.67,2.23a9,9,0,0,1,.93,2.84c.23,1.1.47,2.2.7,3.3a5.42,5.42,0,0,0,1.2,2.84,2.93,2.93,0,0,1,.83.93c.35.89-.63,2.06,0,2.77" style="fill:none;stroke:#263238;stroke-linecap:round;stroke-linejoin:round"></path></g></svg>