<svg xmlns="http://www.w3.org/2000/svg" viewBox="0 0 500 500"><g id="freepik--Plants--inject-63"><path d="M424.82,184.08A35.31,35.31,0,0,1,445.65,182a161.62,161.62,0,0,1-17.82,10.58A53.55,53.55,0,0,1,408,198.24,38.87,38.87,0,0,1,424.82,184.08Z" style="fill:#455a64"></path><path d="M414.08,179.87A38.21,38.21,0,0,1,432.16,166a58.71,58.71,0,0,1,22.74-3.49A48.61,48.61,0,0,1,414,180.34Z" style="fill:#455a64"></path><path d="M457.6,146.85a33.27,33.27,0,0,1-14.37,11.2,35,35,0,0,1-18.59,2l.35-.62A54.39,54.39,0,0,1,457.6,146.85Z" style="fill:#455a64"></path><path d="M463,133.5a23,23,0,0,1-11.4,7.92c-4.5,1.38-10.13,1.84-14.59.35A45.14,45.14,0,0,1,463,133.5Z" style="fill:#455a64"></path><path d="M446.46,130.14a21.29,21.29,0,0,1,17.11-2.46,24.32,24.32,0,0,1-17.22,2.56Z" style="fill:#455a64"></path><path d="M445.94,115a35.72,35.72,0,0,1-.75,16.57A19.32,19.32,0,0,1,445.94,115Z" style="fill:#ebebeb"></path><path d="M465.23,111.29a24.94,24.94,0,0,1-15.31,15.21l-.35-.17A31.28,31.28,0,0,1,465.23,111.29Z" style="fill:#455a64"></path><path d="M416.22,145.85a33.65,33.65,0,0,1,7.71-19.09c2.86,12.68.59,26.67-2.53,39.29l-.22-.22A33.68,33.68,0,0,1,416.22,145.85Z" style="fill:#455a64"></path><path d="M431.45,129.75c1.34-5.72,4-11,6.57-16.32a90.92,90.92,0,0,1-4.53,33.11l-.71.92C430.19,142.19,430.11,135.48,431.45,129.75Z" style="fill:#455a64"></path><path d="M401.34,143.83c3.25,6.93,6.41,13.94,8.43,21.33s2.84,15.2,1.38,22.71l-.25-.26A56.24,56.24,0,0,1,401.34,143.83Z" style="fill:#455a64"></path><path d="M406.63,206.85A129.74,129.74,0,0,0,388.06,158c-1.75,18.27,5.48,36,18.57,48.83" style="fill:#455a64"></path><path d="M421.55,200.69a47.24,47.24,0,0,1,23.95-7.35C435,205.46,420.32,215,405.39,220.84,407.8,212.73,414.49,205.34,421.55,200.69Z" style="fill:#455a64"></path><path d="M372.37,180.45a67.65,67.65,0,0,0,14.17,28.7,33.46,33.46,0,0,0,7.61,7,28.73,28.73,0,0,0,11.1,4c-9-14-21.33-27.74-32.88-39.67" style="fill:#455a64"></path><path d="M465.13,111.47s-.09.1-.28.28l-.83.78c-.74.7-1.86,1.67-3.24,3-2.8,2.61-6.76,6.51-11.39,11.57a205.13,205.13,0,0,0-30.51,43.81c-4.8,9.28-8.56,18.58-10.56,27.41a107.58,107.58,0,0,0-2,12.7c-.44,4-.78,7.74-1,11.16-.47,6.84-.5,12.4-.42,16.23,0,1.91.09,3.4.13,4.41,0,.48,0,.86,0,1.15a1.91,1.91,0,0,1,0,.39,1.69,1.69,0,0,1,0-.39c0-.28-.06-.66-.09-1.14-.08-1-.17-2.5-.24-4.42-.14-3.83-.16-9.4.26-16.25.21-3.43.53-7.18,1-11.19a106.7,106.7,0,0,1,1.92-12.75c2-8.89,5.76-18.24,10.57-27.54a200.64,200.64,0,0,1,30.7-43.83c4.67-5,8.67-8.9,11.52-11.47,1.4-1.31,2.55-2.27,3.31-2.94l.87-.74A1.49,1.49,0,0,1,465.13,111.47Z" style="fill:#263238"></path><path d="M125.45,97.62s1.13,20.24,6,29.8,13.31,18,16.73,22.23S157.4,162,160,169.71s8.11,20.49,8.11,20.49l.58-.08s-9.93-31.69-13-39.33S147,134.22,141.1,125.4,125.45,97.62,125.45,97.62Z" style="fill:#455a64"></path><path d="M147.23,52.59s-8.5,17.32-2.83,48.6,10.3,47.76,13.65,53.17,10.63,35.76,10.63,35.76-.06-10.66-3.93-34.29-8.24-47.07-8.24-47.07Z" style="fill:#455a64"></path><path d="M191.35,90.52s-10.5,45.87-13.89,61.16-8.78,38.44-8.78,38.44,8.1-14.23,12.51-20.94,8.67-18.14,9-27.33,5.9-27.82,4.88-38.1S191.35,90.52,191.35,90.52Z" style="fill:#455a64"></path><path d="M174.88,60.12A82.55,82.55,0,0,0,164,100.68c.19,23-.92,50.28,2.82,59.07s1.92,30.45,1.92,30.45,4.5-32.78,5.55-41.28,1.82-55.86,1.82-55.86Z" style="fill:#455a64"></path><path d="M168.68,190.12c-5-13.29-18.55-25.65-28.76-35.54a214.8,214.8,0,0,1-23.42-26.82,55,55,0,0,0,19.74,35.11C146.32,171,160,180.07,168.1,190.2" style="fill:#455a64"></path><path d="M283.93,129.6a9.05,9.05,0,0,1,5.28,4.72,16,16,0,0,1,1.46,7.07c0,4.7-2.05,9.69-4.45,13.73-4.31-2.94-5.91-8.78-6.54-11.79-1-4.76.11-14,4.25-13.73" style="fill:#2AB6B3"></path><path d="M291.67,162.23a7.71,7.71,0,0,1,1.61-7.58,10.24,10.24,0,0,1,7.23-3.23,4.32,4.32,0,0,1,3.47,1.09,3.28,3.28,0,0,1,.44,3.31,6.59,6.59,0,0,1-2.17,2.72c-3.13,2.52-6.62,4.39-10.58,3.69" style="fill:#2AB6B3"></path><path d="M288.35,177a4.13,4.13,0,0,1,0-1c.05-.69.1-1.57.17-2.63a26.79,26.79,0,0,1,1.68-8.54,16.6,16.6,0,0,1,5.16-7,11.61,11.61,0,0,1,2.28-1.35c.28-.13.52-.2.67-.26a.75.75,0,0,1,.25-.06,16.68,16.68,0,0,0-3.05,1.86,17.09,17.09,0,0,0-5,6.91,29.11,29.11,0,0,0-1.76,8.44c-.11,1.1-.2,2-.28,2.62A4.8,4.8,0,0,1,288.35,177Z" style="fill:#263238"></path><path d="M283.71,136.68a2.94,2.94,0,0,1,.1.41c.05.31.12.7.21,1.19.18,1,.42,2.52.7,4.37.56,3.71,1.26,8.83,1.91,14.5s1.12,10.83,1.4,14.56c.15,1.87.25,3.38.31,4.42,0,.5.05.9.06,1.21a2.26,2.26,0,0,1,0,.42,1.75,1.75,0,0,1-.07-.42c0-.31-.07-.7-.12-1.2-.1-1.08-.24-2.58-.42-4.41-.35-3.72-.85-8.87-1.5-14.54s-1.31-10.79-1.81-14.5c-.25-1.82-.45-3.31-.59-4.39l-.15-1.2A2.19,2.19,0,0,1,283.71,136.68Z" style="fill:#263238"></path><path d="M285.25,165.86a18.09,18.09,0,0,0-11.35-12c-1.38-.47-3.13-.67-4.09.42s-.51,2.82.17,4.11a15.43,15.43,0,0,0,15.22,7.84" style="fill:#2AB6B3"></path><path d="M275.05,158.21a3.79,3.79,0,0,1,.87.26,8,8,0,0,1,1,.39,14,14,0,0,1,1.28.6,16.12,16.12,0,0,1,1.48.87,18.52,18.52,0,0,1,1.61,1.14,20.23,20.23,0,0,1,3.18,3.22,19.61,19.61,0,0,1,2.3,3.89,17.86,17.86,0,0,1,.69,1.85,14.73,14.73,0,0,1,.43,1.67,10.41,10.41,0,0,1,.23,1.4,7.75,7.75,0,0,1,.1,1.06,4.23,4.23,0,0,1,0,.91c-.07,0-.09-1.3-.56-3.32a16.68,16.68,0,0,0-.47-1.63c-.18-.58-.44-1.18-.7-1.81a20.92,20.92,0,0,0-2.29-3.81,20.45,20.45,0,0,0-3.11-3.18,17,17,0,0,0-1.56-1.16c-.5-.35-1-.62-1.45-.88C276.26,158.67,275,158.28,275.05,158.21Z" style="fill:#263238"></path><path d="M93.42,438.5a38,38,0,0,0,21.1-21,1.44,1.44,0,0,0,.07-1.32c-.3-.45-1-.42-1.5-.32-10.79,2-18,11.81-19.67,22.67" style="fill:#455a64"></path><path d="M63.51,379.57a42.22,42.22,0,0,0-24.83-2.77c6.84,4.61,13.72,9.23,21.11,12.91s15.34,6.42,23.58,7A46.45,46.45,0,0,0,63.51,379.57Z" style="fill:#455a64"></path><path d="M76.4,374.71C71.35,367,63.59,361.26,55,357.83a69.85,69.85,0,0,0-27.11-4.51,58,58,0,0,0,48.52,21.95Z" style="fill:#455a64"></path><path d="M24.94,334.62a39.73,39.73,0,0,0,17,13.6,41.91,41.91,0,0,0,22.17,2.63l-.41-.74A64.86,64.86,0,0,0,24.94,334.62Z" style="fill:#455a64"></path><path d="M18.74,318.6a27.41,27.41,0,0,0,13.49,9.63c5.35,1.72,12.07,2.35,17.42.64A53.91,53.91,0,0,0,18.74,318.6Z" style="fill:#455a64"></path><path d="M38.5,314.84a25.39,25.39,0,0,0-20.4-3.2A29,29,0,0,0,38.62,315Z" style="fill:#455a64"></path><path d="M39.35,296.77A42.45,42.45,0,0,0,40,316.56,23.13,23.13,0,0,0,39.35,296.77Z" style="fill:#455a64"></path><path d="M16.37,292a29.73,29.73,0,0,0,18.05,18.4l.42-.2A37.42,37.42,0,0,0,16.37,292Z" style="fill:#455a64"></path><path d="M74.36,334.06a40.2,40.2,0,0,0-8.91-22.91c-3.61,15.1-1.11,31.83,2.42,46.94l.26-.25A40.19,40.19,0,0,0,74.36,334.06Z" style="fill:#455a64"></path><path d="M56.43,314.61c-1.52-6.86-4.57-13.26-7.6-19.59a108.41,108.41,0,0,0,4.9,39.6l.83,1.11C57.74,329.47,57.94,321.46,56.43,314.61Z" style="fill:#455a64"></path><path d="M92.16,331.88c-4,8.22-7.87,16.54-10.39,25.33s-3.63,18.11-2,27.1l.31-.31A67.16,67.16,0,0,0,92.16,331.88Z" style="fill:#455a64"></path><path d="M84.88,407a154.89,154.89,0,0,1,22.92-58c1.81,21.84-7.09,42.85-22.92,58" style="fill:#455a64"></path><path d="M67.16,399.46a56.33,56.33,0,0,0-28.48-9.14C51,405,68.41,416.53,86.15,423.76,83.4,414,75.52,405.12,67.16,399.46Z" style="fill:#455a64"></path><path d="M126.2,376.05a80.89,80.89,0,0,1-17.37,34,40,40,0,0,1-9.19,8.24c-3.52,2.15-9.42,4.33-13.31,4.58,10.93-16.55,25.88-32.8,39.87-46.86" style="fill:#455a64"></path><path d="M16.49,292.26a4.73,4.73,0,0,1,.37.3l1,.92c.9.82,2.27,2,3.94,3.6,3.39,3.15,8.15,7.89,13.7,14.05a240.12,240.12,0,0,1,18.07,22.81c3.12,4.51,6.27,9.33,9.33,14.45s6,10.56,8.82,16.22c5.63,11.33,9.93,22.72,12,33.51a142.34,142.34,0,0,1,1.94,15.45c.42,4.85.69,9.39.85,13.53.32,8.28.18,15,0,19.62-.11,2.32-.23,4.11-.34,5.33q-.08.88-.12,1.38c0,.31-.06.47-.06.47a4.15,4.15,0,0,1,0-.47L86.1,452c.07-1.21.16-3,.24-5.32.16-4.63.25-11.33-.12-19.61-.18-4.13-.47-8.66-.91-13.51a141.3,141.3,0,0,0-2-15.39c-2.12-10.73-6.41-22.07-12-33.37-2.82-5.64-5.77-11.06-8.8-16.19s-6.18-9.93-9.28-14.43a244.22,244.22,0,0,0-18-22.85c-5.5-6.18-10.22-10.95-13.56-14.14-1.65-1.64-3-2.83-3.87-3.67l-1-1Z" style="fill:#263238"></path><path d="M51.93,312c.14,0,.86,5.13,1.59,11.5S54.75,335,54.61,335s-.86-5.14-1.6-11.51S51.78,312,51.93,312Z" style="fill:#263238"></path><path d="M67.42,327c.14,0,.39,6.87.54,15.35s.17,15.36,0,15.37-.38-6.87-.54-15.36S67.28,327,67.42,327Z" style="fill:#263238"></path><path d="M63.63,350.34a4.11,4.11,0,0,1-1-.25L60,349.22l-8.58-2.93-8.59-2.88-2.6-.89a4.32,4.32,0,0,1-.94-.39,3.33,3.33,0,0,1,1,.19c.63.16,1.53.42,2.65.74,2.23.65,5.29,1.61,8.65,2.74S58,348,60.16,348.87c1.09.42,2,.77,2.56,1A4.21,4.21,0,0,1,63.63,350.34Z" style="fill:#263238"></path><path d="M88.85,351.08a7.32,7.32,0,0,1-.28,1.31c-.25.93-.56,2.12-.94,3.53-.81,3-2,7.06-3.27,11.58L81,379c-.42,1.48-.7,2.69-.88,3.53a7.81,7.81,0,0,1-.29,1.3,5.63,5.63,0,0,1,.09-1.34A34.41,34.41,0,0,1,80.6,379c.77-3,2-7.08,3.26-11.6s2.52-8.59,3.42-11.53l1.1-3.49A6.29,6.29,0,0,1,88.85,351.08Z" style="fill:#263238"></path><path d="M41.34,358.58a9.34,9.34,0,0,1,1.25.86,25.48,25.48,0,0,0,3.54,2.07,43.71,43.71,0,0,0,5.66,2.23c2.18.72,4.62,1.4,7.16,2.22a60.72,60.72,0,0,1,12.45,5.59c1.5.9,2.67,1.69,3.46,2.26a7.41,7.41,0,0,1,1.2.94,10.77,10.77,0,0,1-1.31-.77c-.82-.52-2-1.26-3.54-2.11a68.61,68.61,0,0,0-12.42-5.42c-2.53-.81-5-1.51-7.15-2.25A40.52,40.52,0,0,1,46,361.84a21.29,21.29,0,0,1-3.5-2.24c-.38-.3-.65-.57-.85-.74A1.52,1.52,0,0,1,41.34,358.58Z" style="fill:#263238"></path><path d="M53,379.44a7.31,7.31,0,0,1,1.26.54c.79.38,1.93.95,3.33,1.67,2.8,1.44,6.64,3.49,10.83,5.86s7.92,4.59,10.6,6.25c1.34.82,2.41,1.51,3.15,2a7.36,7.36,0,0,1,1.11.8,6.85,6.85,0,0,1-1.22-.62l-3.23-1.86L68.2,388l-10.74-6-3.26-1.82A6.71,6.71,0,0,1,53,379.44Z" style="fill:#263238"></path><path d="M100.63,372.94a7.47,7.47,0,0,1-.62,1.33c-.42.85-1,2.08-1.66,3.63-1.33,3.1-2.74,7.54-4.49,12.4A64.71,64.71,0,0,1,91,397a48.21,48.21,0,0,1-3,5.13c-.94,1.41-1.75,2.51-2.32,3.27a7.61,7.61,0,0,1-.92,1.15,7.6,7.6,0,0,1,.76-1.26c.56-.88,1.29-2,2.17-3.36a51.88,51.88,0,0,0,2.9-5.15,67.71,67.71,0,0,0,2.78-6.68c1.74-4.83,3.22-9.28,4.64-12.36a39.15,39.15,0,0,1,1.82-3.58A8.81,8.81,0,0,1,100.63,372.94Z" style="fill:#263238"></path><path d="M113.64,395.13a8,8,0,0,1-1.1,1.08c-.74.66-1.77,1.67-3,2.94-2.49,2.53-5.63,6.29-9.1,10.46-1.75,2.08-3.47,4-5.1,5.73a56.33,56.33,0,0,1-4.58,4.28c-.67.59-1.33,1.05-1.9,1.47a15.86,15.86,0,0,1-1.49,1,8.91,8.91,0,0,1-1.34.79,8.83,8.83,0,0,1,1.22-1c.41-.29.9-.64,1.44-1.1s1.18-.92,1.84-1.52c1.34-1.15,2.85-2.64,4.46-4.33s3.3-3.66,5-5.73c3.47-4.17,6.67-7.91,9.24-10.39a41.75,41.75,0,0,1,3.13-2.83A8.52,8.52,0,0,1,113.64,395.13Z" style="fill:#263238"></path><path d="M58,400.21a7,7,0,0,1,1.17.83l3.06,2.4c2.57,2,6.1,4.89,10,8.07s7.4,6,9.92,8.13l3,2.51a7.87,7.87,0,0,1,1,1,7.5,7.5,0,0,1-1.18-.82l-3.07-2.38c-2.58-2-6.13-4.85-10-8s-7.36-6.07-9.87-8.19l-3-2.53A8.1,8.1,0,0,1,58,400.21Z" style="fill:#263238"></path><path d="M28.5,322.68a24.87,24.87,0,0,1,3,.95c1.86.63,4.44,1.46,7.33,2.26s5.53,1.4,7.45,1.82a23.28,23.28,0,0,1,3.1.74,17,17,0,0,1-3.17-.38c-2-.33-4.62-.88-7.52-1.68A76.75,76.75,0,0,1,31.41,324,16.62,16.62,0,0,1,28.5,322.68Z" style="fill:#263238"></path><path d="M38.27,314.61a41.81,41.81,0,0,1-4.35-.9,42.79,42.79,0,0,1-4.38-.82,12.5,12.5,0,0,1,4.48.31A12.37,12.37,0,0,1,38.27,314.61Z" style="fill:#263238"></path><path d="M39,304.9a23.29,23.29,0,0,1,.82,5.64,22.12,22.12,0,0,1-.12,5.69,52.44,52.44,0,0,1-.4-5.66A48.12,48.12,0,0,1,39,304.9Z" style="fill:#263238"></path><path d="M61.44,418.07a9.06,9.06,0,0,1,1.27,1.08c.79.72,1.91,1.8,3.23,3.17a74.74,74.74,0,0,1,9.28,11.73,57.73,57.73,0,0,1,3.86,7.3c.45,1.19,1,2.29,1.26,3.38l.49,1.56c.12.51.24,1,.35,1.46a21.28,21.28,0,0,1,.49,2.55c.06.37.11.72.16,1.05s0,.61.07.89a9.07,9.07,0,0,1,0,1.66c-.12,0-.18-2.37-1.12-6.06-.13-.46-.25-.94-.39-1.44s-.34-1-.51-1.53c-.33-1.07-.83-2.16-1.29-3.33a60.35,60.35,0,0,0-3.86-7.21,83.65,83.65,0,0,0-9.1-11.75c-1.29-1.41-2.36-2.53-3.11-3.28A10.82,10.82,0,0,1,61.44,418.07Z" style="fill:#263238"></path><path d="M103.52,424.92a6,6,0,0,1-.86,1c-.59.61-1.41,1.53-2.37,2.7a51,51,0,0,0-3.16,4.28,48.6,48.6,0,0,0-5.63,11.71,50,50,0,0,0-1.38,5.14c-.31,1.49-.53,2.7-.64,3.54a6.8,6.8,0,0,1-.24,1.3,6,6,0,0,1,0-1.32,32.53,32.53,0,0,1,.48-3.59A43.4,43.4,0,0,1,91,444.48a50.24,50.24,0,0,1,2.41-6.13,48.67,48.67,0,0,1,3.28-5.7,43.22,43.22,0,0,1,3.28-4.26,33.68,33.68,0,0,1,2.5-2.61A6.51,6.51,0,0,1,103.52,424.92Z" style="fill:#263238"></path><path d="M78.09,454.6c-.12,0-.38-1.68-1.51-4.17-.14-.31-.3-.63-.46-1s-.37-.66-.57-1a25,25,0,0,0-1.39-2.15,35.7,35.7,0,0,0-3.89-4.4,49.47,49.47,0,0,0-4.55-3.74c-1.48-1-2.85-2-4-2.63s-2.16-1.23-2.84-1.6a4.88,4.88,0,0,1-1-.61,5.3,5.3,0,0,1,1.12.43c.71.31,1.72.79,2.93,1.46A46.09,46.09,0,0,1,66,437.77a44.59,44.59,0,0,1,4.63,3.75,33.71,33.71,0,0,1,3.92,4.5,24.08,24.08,0,0,1,1.38,2.22c.19.36.39.7.55,1l.44,1a13.36,13.36,0,0,1,.64,1.77,8,8,0,0,1,.35,1.36A5.85,5.85,0,0,1,78.09,454.6Z" style="fill:#263238"></path><path d="M116.53,437.19c0,.11-1.58.14-4,.71a26.2,26.2,0,0,0-4.19,1.39,25.54,25.54,0,0,0-8.75,6.17,25.15,25.15,0,0,0-2.71,3.47c-1.36,2.12-1.93,3.59-2,3.55a3.87,3.87,0,0,1,.35-1.05,10,10,0,0,1,.53-1.18,17.07,17.07,0,0,1,.83-1.51,22.94,22.94,0,0,1,2.66-3.61,27.44,27.44,0,0,1,4.11-3.64,26.65,26.65,0,0,1,4.82-2.65,24.4,24.4,0,0,1,4.29-1.3,16,16,0,0,1,1.7-.27,11.32,11.32,0,0,1,1.29-.1A4.42,4.42,0,0,1,116.53,437.19Z" style="fill:#263238"></path><path d="M85.15,263.88a9,9,0,0,1,5.28,4.72,15.92,15.92,0,0,1,1.47,7.07c0,4.7-2.05,9.7-4.45,13.74-4.31-3-5.91-8.79-6.54-11.8-1-4.76.11-14,4.24-13.73" style="fill:#2AB6B3"></path><path d="M92.89,296.52a7.73,7.73,0,0,1,1.62-7.58,10.29,10.29,0,0,1,7.23-3.24,4.33,4.33,0,0,1,3.47,1.09,3.32,3.32,0,0,1,.44,3.32,6.66,6.66,0,0,1-2.17,2.71c-3.13,2.53-6.63,4.39-10.59,3.7" style="fill:#2AB6B3"></path><path d="M89.57,311.33a5.93,5.93,0,0,1,0-1c0-.68.1-1.57.17-2.63a26.84,26.84,0,0,1,1.68-8.54,16.48,16.48,0,0,1,5.16-7,11.13,11.13,0,0,1,2.28-1.35,6.1,6.1,0,0,1,.67-.26l.24-.06a17.51,17.51,0,0,0-3,1.86,17.13,17.13,0,0,0-5,6.91A28.93,28.93,0,0,0,90,307.75c-.11,1.11-.2,2-.28,2.62A5.71,5.71,0,0,1,89.57,311.33Z" style="fill:#263238"></path><path d="M84.94,271a2.1,2.1,0,0,1,.09.41c.06.3.13.7.22,1.18.17,1,.41,2.53.69,4.38.56,3.7,1.27,8.82,1.92,14.5S89,302.27,89.26,306c.14,1.86.25,3.38.31,4.42q0,.74.06,1.2a2.4,2.4,0,0,1,0,.43,1.37,1.37,0,0,1-.07-.42l-.12-1.2c-.11-1.08-.25-2.58-.42-4.41-.35-3.73-.86-8.87-1.5-14.54S86.2,280.68,85.7,277c-.24-1.82-.44-3.31-.59-4.39-.06-.49-.11-.88-.15-1.19S84.92,271,84.94,271Z" style="fill:#263238"></path><path d="M86.47,300.14a18,18,0,0,0-11.35-12c-1.37-.47-3.13-.68-4.08.42s-.51,2.82.17,4.1a15.44,15.44,0,0,0,15.22,7.85" style="fill:#2AB6B3"></path><path d="M76.28,292.49a4.28,4.28,0,0,1,.87.27,7.8,7.8,0,0,1,1,.38c.37.18.82.34,1.28.61a15.91,15.91,0,0,1,1.48.86,18.71,18.71,0,0,1,1.61,1.15A18.49,18.49,0,0,1,88,302.87a16.18,16.18,0,0,1,.68,1.85,14.77,14.77,0,0,1,.44,1.66c.13.51.16,1,.23,1.4a7.56,7.56,0,0,1,.09,1.07,4.89,4.89,0,0,1,0,.91c-.08,0-.1-1.3-.57-3.32a13.59,13.59,0,0,0-.46-1.63,19.37,19.37,0,0,0-.71-1.82,20.29,20.29,0,0,0-2.28-3.81A21.88,21.88,0,0,0,82.32,296c-.54-.42-1-.82-1.56-1.15a16.32,16.32,0,0,0-1.45-.89C77.49,293,76.25,292.56,76.28,292.49Z" style="fill:#263238"></path></g></svg>