<svg xmlns="http://www.w3.org/2000/svg" xmlns:xlink="http://www.w3.org/1999/xlink" viewBox="0 0 500 500"><defs><clipPath id="freepik--clip-path--inject-45"><path d="M382.53,250.2c-.89,3.11-2.27,6-3.23,9.12-29.33-1.78-63.81-3.56-97.8-4.62a30.3,30.3,0,0,0,6.34-4.16c1.42-1.21,2.56-3.11,4.46-3.52,1.05-.23,1.48,1.86,2.53,1.65a1.42,1.42,0,0,0,.79-.68l2.85-4.2a1.08,1.08,0,0,1,.61-.53c.24-.06.51.06.75,0,.53-.15.45-.91.5-1.47a1.92,1.92,0,0,1,1.51-1.67.77.77,0,0,1,.45,0,.82.82,0,0,1,.37.43c.68,1.45.34,3.24,1.14,4.63a8.08,8.08,0,0,1,.52.9c.4,1-.24,4.59,1.06,2.26.89-1.61,1.24-3.59,2.15-5.24a19.41,19.41,0,0,0,.92-2.47,11.53,11.53,0,0,1,1.48-1.69l.18,2.2a1.24,1.24,0,0,0,.17.63c.3.44,1,.36,1.42.68a1.93,1.93,0,0,1,.52,1.37c.07.5.24,1.08.72,1.24.11,0,.24,0,.3.15a.33.33,0,0,1,.05.22,6.93,6.93,0,0,0,.07,1.29c.76-.28,1.72-2.66,2.11-3.52l1.89-4.17a14.85,14.85,0,0,0,1.53-3.78,12.13,12.13,0,0,1,.68-3.45c.13-.28.41-.63.68-.47s.19.34.18.55a13.85,13.85,0,0,0,.31,4.26c.17.62.42,1.21.62,1.82a22.14,22.14,0,0,1,.73,7.17c0,1.68.75,2.81,1.84,1.09a28.66,28.66,0,0,0,1.48-3.73,8.63,8.63,0,0,0,1-3.47,7,7,0,0,1,0-1.65,4.29,4.29,0,0,1,.6-1.26,15,15,0,0,0,2.05-6.69,5.63,5.63,0,0,1,.52-2.63c.23-.37.55-.66.79-1,.7-1.1.35-3.06.74-4.4s.81-2.75,2.09-3.39a.72.72,0,0,1,.51-.1c.26.08.36.37.43.63,1,4.26-.26,8.9,1.23,13,.54,1.48,1.42,3.06.82,4.5a7.56,7.56,0,0,0-.69,1.47c-.25,1.31,1.19,2.23,2.06,3.24a5.78,5.78,0,0,1,1.14,2.25c.11.38.15,2.28.42,2.45,1.2.75,1.35-3.5,1.31-4.14a1.52,1.52,0,0,1,.05-.6,1.75,1.75,0,0,1,.33-.44,5.83,5.83,0,0,0,1.36-2.28c.25-.78.34-1.61.56-2.4a3.58,3.58,0,0,1,1.28-2.06.52.52,0,0,1,.27-.1c.17,0,.28.19.35.35a5.1,5.1,0,0,1,.4,1.68,2.19,2.19,0,0,0,.17.85c.83,1.39,2.07-.09,2.38-.95a4.3,4.3,0,0,0,.15-1.52c0-1.1-.05-2.2-.07-3.31a1.84,1.84,0,0,1,.17-1,3.71,3.71,0,0,1,.69-.68,3.07,3.07,0,0,0,.58-1.12c.68-1.88,1.3-5.66,2.71-7a7.51,7.51,0,0,1,.68,1.46,3.1,3.1,0,0,1,.31,1.3,3.49,3.49,0,0,1-.28,1,4.85,4.85,0,0,0-.33,2.06c.11,1,.7,1.94.86,3,.11.74,0,1.5.05,2.24a42.58,42.58,0,0,0,1.21,6.23c.2.82.62,4.07,1.57,4.42,1.2.27,1.9-2.44,1.85-3.25a2,2,0,0,1,.18-1.4c.29-.36.82-.41,1.17-.71.54-.47.44-1.32.52-2,.12-1,1.44-1.45,2-2.2a20.16,20.16,0,0,0,2-4.28c.93-2.22,2.86-6,2.66-8.4a18.86,18.86,0,0,0,2.62,8.15q1.29-4.9,2.41-9.84c.46-2,.51-5.22,2.4-6.48-.37,2.77,1.7,4.88,1.8,7.56.07,1.86-1,3.72-.52,5.51.35,1.23,1.43,2.18,1.7,3.44s-.26,2.47.17,3.59a2.69,2.69,0,0,0,.28.53,8.72,8.72,0,0,0,1.17,1.27,12.5,12.5,0,0,1,3.52,6.95C382.4,244.54,383.61,246.36,382.53,250.2Z" style="fill:#2AB6B3;stroke:#263238;stroke-linecap:round;stroke-linejoin:round"></path></clipPath><clipPath id="freepik--clip-path-2--inject-45"><path d="M217.93,253.75c-45.48.11-87.15,1.37-118.3,2.65l-1.45,0c-3.37-.1-6.75-.12-10.13-.11s-4.6.34-5.34-3.19c-.49-2.33,1.61-4.33,2.38-6.58.93-2.72-.09-5.86,1.06-8.49.39-.91,1-1.7,1.41-2.62.67-1.59.53-3.39.75-5.1.31-2.43,1.35-4.7,2-7,1.24-4.17,1.38-8.58,1.94-12.89.49-3.78,1.3-7.51,2.11-11.24q1.27-5.87,2.56-11.74c1.18,4.2,2.83,8,3.87,12.29.13.56,2.08,8.12,2.54,8.12-1.1.63-1.29,2.24-.82,3.43s3.53,7.82,4.64,8.27c2.73,1.11,4.58-2.29,6.61-3.68a9,9,0,0,0,1.39-1,2.71,2.71,0,0,0,.36-.46c.64-1,.37-2.39.83-3.51s1.73-1.92,2.3-3.07c.83-1.66.08-3.69.49-5.51.58-2.62,3-4.31,3.15-7.1,1.63,1.58,1.1,4.71,1.18,6.8q.19,5.07.57,10.12a19,19,0,0,0,4.07-7.54c-.64,2.37.57,6.4,1.07,8.75a20.38,20.38,0,0,0,1.2,4.57c.42.84,1.64,1.5,1.57,2.53,0,.72-.31,1.53.14,2.09.29.36.8.51,1,.91a2,2,0,0,1-.07,1.41c-.19.79,0,3.58,1.23,3.53,1-.16,2-3.29,2.35-4.05a42.48,42.48,0,0,0,2.32-5.9c.2-.73.22-1.49.46-2.2.34-1,1.09-1.76,1.38-2.75a4.61,4.61,0,0,0,0-2.09,3.92,3.92,0,0,1-.09-1,3.17,3.17,0,0,1,.55-1.23,6.88,6.88,0,0,1,.93-1.31c1.14,1.59,1.06,5.41,1.38,7.39a3.24,3.24,0,0,0,.37,1.2,5.25,5.25,0,0,1,.56.8,1.9,1.9,0,0,1,0,1c-.23,1.08-.45,2.16-.67,3.24a4.12,4.12,0,0,0-.13,1.52c.14.9,1.09,2.58,2.16,1.36a1.88,1.88,0,0,0,.32-.8,5.54,5.54,0,0,1,.7-1.57c.1-.15.24-.31.42-.28a.45.45,0,0,1,.24.15,3.56,3.56,0,0,1,.88,2.25c.07.82,0,1.65.11,2.46a6.1,6.1,0,0,0,.92,2.49,1.62,1.62,0,0,1,.25.49,1.54,1.54,0,0,1-.06.6c-.16.62-.78,4.84.53,4.31.29-.12.69-2,.87-2.33a5.85,5.85,0,0,1,1.52-2c1-.84,2.62-1.48,2.62-2.82a7.33,7.33,0,0,0-.41-1.56c-.33-1.53.83-2.93,1.62-4.28,2.22-3.78,1.81-8.58,3.6-12.58.11-.24.27-.51.53-.54a.68.68,0,0,1,.48.19c1.14.87,1.31,2.4,1.44,3.72s-.56,3.25-.07,4.46c.16.39.43.74.58,1.14a5.52,5.52,0,0,1,0,2.68,15.11,15.11,0,0,0,.8,7,4.6,4.6,0,0,1,.37,1.35,7.75,7.75,0,0,1-.29,1.63,8.46,8.46,0,0,0,.35,3.59,27.55,27.55,0,0,0,.76,3.93c.77,1.89,1.73.92,2-.73a22.36,22.36,0,0,1,2-6.92c.31-.56.66-1.1.94-1.68a13.41,13.41,0,0,0,1.08-4.13c0-.2.09-.44.28-.51s.51.29.58.59a11.89,11.89,0,0,1,0,3.52,15.38,15.38,0,0,0,.81,4l1.11,4.45c.22.91.73,3.43,1.43,3.84a6.44,6.44,0,0,0,.3-1.26.37.37,0,0,1,.09-.2c.08-.09.21-.08.32-.1.5-.06.78-.6.94-1.08a1.92,1.92,0,0,1,.76-1.25c.48-.24,1.15,0,1.52-.41a1.29,1.29,0,0,0,.28-.59c.19-.71.39-1.42.58-2.13a12.1,12.1,0,0,1,1.15,1.93,18.14,18.14,0,0,0,.45,2.6c.6,1.79.57,3.8,1.16,5.54.85,2.53.88-1.14,1.45-2a10.13,10.13,0,0,1,.68-.79c1-1.21,1-3,2-4.34a.91.91,0,0,1,.44-.36.78.78,0,0,1,.45.06,1.91,1.91,0,0,1,1.18,1.92c-.05.55-.27,1.29.23,1.53.22.11.5,0,.73.14a1.16,1.16,0,0,1,.51.65c.51,1.16,1.8,6.06,3.5,5.44,1-.34,1.94-3.92,2.44-4.85a26.35,26.35,0,0,0,3,8.11,1.61,1.61,0,0,0,.67.74c.61.28,1.36-.23,2,0,.39.15.62.55.89.88a5.18,5.18,0,0,0,4.12,1.5,28.57,28.57,0,0,1,4.53-.06,30.51,30.51,0,0,1,4.12,1.35A14.23,14.23,0,0,0,217.93,253.75Z" style="fill:#2AB6B3;stroke:#263238;stroke-linecap:round;stroke-linejoin:round"></path></clipPath><clipPath id="freepik--clip-path-3--inject-45"><path d="M413.8,226a7.09,7.09,0,0,1-1.08-3.9,4.1,4.1,0,0,1-1.73,2.78c-1.19-1.89-4.16-1.34-5.2-3.72-.49-1.15-.15-2.37-.24-3.56-.12-1.65-.73-2.36-1.39-3.79a5.11,5.11,0,0,1-.3-2.13v-8.51a4.66,4.66,0,0,1-1.81,2.48q-.8-6.88-1.6-13.78a1.33,1.33,0,0,0-.13-.51.92.92,0,0,0-1.4,0,2.56,2.56,0,0,0-.56,1.5c-.83,5.8-.82,11.9-3.45,17.13a12.15,12.15,0,0,0-1.42,3.35c-.25,1.41.15,2.94-.46,4.23-.45,1-1.39,1.62-1.84,2.58-.84,1.78-.21,4.13-1.4,5.78-1.32,1.84-4.07,2-5.77,3.36-2.32,1.88-2.57,5.26-2.64,8.24,0,.92-3.26-.07-3.59-.23-1.42-.68-2.25-2.11-3.06.51-.27.88-.27,1.82-.52,2.71-.39,1.33-1.34,2.34-1.89,3.58-.64,1.45-.24,1.89-.26,3.2-.05,2.82-1.59,2.53-3.89,3.53-1.23.55-1.49,1.38-2.59,2.09a1.27,1.27,0,0,1-1.52,0c-.64-.59-.19-1.65-.32-2.51a1.8,1.8,0,0,0-3.11-1c-.59.64-.65,1.62-1.19,2.29-1.07,1.32-3.17.76-4.82,1.18s-2.14,1.92-3.46,2.47c-1.16.49-3,.32-4.28.49a23.67,23.67,0,0,0-4.55.91c-.12,0-2.6,1.29-2.3,1.42,2.78,1.21,6.05,1.74,9,2.55a28.52,28.52,0,0,0,8.85,1.44c1.89-.1,3.87-.56,5.62.17.77.32,1.45.86,2.23,1.16a7.55,7.55,0,0,0,2.72.35c5.47,0,11.11-.59,16.28,1.19,1.06.36,2.09.82,3.17,1.14a17.58,17.58,0,0,0,4.45.63c4.12.13,8.32-.61,12.33.35a11.94,11.94,0,0,0,3.76.65,5.75,5.75,0,0,0,4-2.56,19.92,19.92,0,0,0,2.26-4.58c.5-1.36.38-3.07,1.07-4.34s2.2-1.71,3-2.82a6.27,6.27,0,0,0,.87-3.53c.44-9.62,2.42-20-4.13-28.16C415.33,222.85,413.8,225,413.8,226Z" style="fill:#2AB6B3;stroke:#263238;stroke-linecap:round;stroke-linejoin:round"></path></clipPath><clipPath id="freepik--clip-path-4--inject-45"><path d="M108.63,309.38c-1.49,1.08-7.3.46-10.77-12.35,0,0,0-.09,0-.14A4.48,4.48,0,0,1,94.27,295c-1.32-1.93-1.91-5.84-1.91-5.84h0c-.4-.1-5.76-1.5-2.06-5.23,2.79-2.81,6.89.24,6.09,2.6a2.44,2.44,0,0,1-.1.24l.6.28c1.42,1.52,4.47,5,4.74,7.05,0,.09,0,.14,0,.14l0,0c.24.21,2.06,1.81,4.78,4.67C109.33,302,110.13,308.3,108.63,309.38Z" style="fill:#757575;stroke:#263238;stroke-linecap:round;stroke-linejoin:round"></path></clipPath><clipPath id="freepik--clip-path-5--inject-45"><path d="M319.59,312.24a5.46,5.46,0,0,1-1.23-4.11,14.77,14.77,0,0,1,2.48-4.77c-2.16-1.28.08-6.3,4-5.51,5.22,1,.59,5.33.59,5.33s1.3,3.47,1,5.73a5,5,0,0,1-2.28,3.42c2.95,12.29-2,15.93-3.8,15.87s-4-5.53-2.88-9.6S319.59,312.24,319.59,312.24Z" style="fill:#2AB6B3;stroke:#263238;stroke-linecap:round;stroke-linejoin:round"></path></clipPath><clipPath id="freepik--clip-path-6--inject-45"><path d="M416.19,369.33c-10-4.08-22-18.4-13.76-34.87s-2.5-26.11,2.53-37.85,17.41-4.34,21.6,10.17,4.93,21.07,9.27,27.26C446.19,348.82,434.16,376.68,416.19,369.33Z" style="fill:#2AB6B3;stroke:#263238;stroke-linecap:round;stroke-linejoin:round"></path></clipPath><clipPath id="freepik--clip-path-7--inject-45"><path d="M390.73,377.06c-13.71-.27-34.61-11.78-32.39-35.16s-15-29.9-14.4-46.18,18.72-13.17,30.38,2.16,15.55,22.8,23.55,28.17C417,338.87,415.48,377.54,390.73,377.06Z" style="fill:#2AB6B3;stroke:#263238;stroke-linecap:round;stroke-linejoin:round"></path></clipPath><clipPath id="freepik--clip-path-8--inject-45"><path d="M374.87,396.62c-8.19,4.74-24.63,5.41-31.68-9.19s-19.52-12.3-25-22.12,6.34-14.46,18.7-9.57,17.33,7.91,24,8.22C376.74,364.69,389.66,388.07,374.87,396.62Z" style="fill:#2AB6B3;stroke:#263238;stroke-linecap:round;stroke-linejoin:round"></path></clipPath></defs><g id="freepik--River--inject-45"><path d="M443.6,393.31c-32.2,38.48-92.1,64.08-189.6,64.08C76.94,457.39,22.56,373,32.64,280.28c9.09.48,23.27,1.54,25.85,3.57,3.85,3-5,4.84-5.34,8.16s5.52,4,6.3,7.89-2,5.39-1.66,7.79,7.19,16.13,31.45,21.4,37.62,4.92,34.52,10,45.3,6.25,68.16,10,48.12,8.8,55,7.06,37.85-.52,44,1.51,6.61,6.22,14,6,57.61,6.13,63.41,10.78,21,12.48,27.78,11.74C401.78,385.53,427.62,391.32,443.6,393.31Z" style="fill:#2AB6B3;opacity:0.4"></path><path d="M462.42,362.92c-45.3-1.48-182.41-24.6-240.5-29.14C155.18,328.56,89.65,314,82.59,299.9S78.05,273.15,46.73,270c0,0-.48-2.67,28.66-3.44s17.65-.2,21.82,2.15,24,1.51,34.94,1.4c12.38-.12,24.69-1.91,37.06-1.49l24.61.83a1.72,1.72,0,0,1,1.09.28c.29.24.35.79,0,1a132.12,132.12,0,0,0-14.07-.15c-3.72.16-10.17-.39-13.51,1.35-5.2,2.72,8.12,5.26,10,5.84,1.54.48,3.13,1.09,3,2.87-.08,1.21-2.13,1.94-2.17,3-.14,3.45,13.57,2,16,1.93a572,572,0,0,1,60,.32,162.3,162.3,0,0,0-20.8.5c-5.89.47-13.83.17-19.26,2.26,3.19,3.37,13.05,1.84,17.4,1.86,3.46,0,8.38-.59,11.41,1.51,4,2.79-4.75,1.11,1.22,4.32s13.29,5.33,24.39,3.22,3.14-1.82,0-3.81,12.29,0,19.19-1.42,18.68,2.29,15.06-2.31-8.64-4.38,22.09-4.22q12.36.06,24.69.8a56.42,56.42,0,0,0,6.74.39c3.41-.22,3.74-3-.26-3l-20.48.14c-4.49,0-9.09,0-13.31-1.48l21.44-1.24c6.16-.35,12.41-.7,18.51.42s11.18,2.46,17.36,0a7.5,7.5,0,0,0-6.28-2.24c.73-1.36,2.58-1.54,4.13-1.55L390.9,280c-5.74-2.27-12.13-2-18.3-1.8q-14.42.38-28.82-.52c6.59-2.48,13.81-2.56,20.85-2.61l52.13-.36c7.46,0,15.09-.07,22.33,2,3.74,1.05,6.33,2.62,10.25,2.56,4.33-.07,8.67,0,13,.2a20.92,20.92,0,0,1,6.06.9,7.48,7.48,0,0,1,4.52,3.91c1.16,2.81.87,6.94,1.27,10,.43,3.33-.12,6.68-.12,10,0,4.21-.17,8.43-.49,12.63a151.18,151.18,0,0,1-3.74,23.93C469.29,343.09,464.48,363,462.42,362.92Z" style="fill:#2AB6B3;opacity:0.4"></path><path d="M51.81,345.43c2.75-4.34,3.15,4.4,3.15,4.4l5.6-.86v4.43s6.07-.43,7.55,1.94,27.25,2.73,27.25,2.73-5.88,4.45-1.28,5.55,11.83.85,15.22,2.86,13,1.47,13.35,4.06,14.17,1.85,14.17,1.85-2.82,4.14,2,3,20.46-4.16,20.93-.26,1.76,5.17,4.89,4.28,3.65,1,5.35,2.4-.63,4.78,10.23,1.2,17.14-9.52,17.76-5.16-2.7,4.59,4.51,6.75,19,9,22.56,9,8.91-2.8,10-3.55,1.23,3.55,1.23,3.55,3.77-3.79,5.18-3,0,3.87,0,3.87a43.64,43.64,0,0,0,7.33-.82c3.19-.74,3.23,1.4,3.23,1.4l24.08,1.65s-5.16-2.17-2.78-3.38,6.27,1.15,6.27,1.15,5.95-.34,6.18-1.15,0,3.38,0,3.38,7.88-1.36,8.41,0-1.72,3,0,2.95,20.61-2.76,22,0,6.48,4.68,6.48,4.68" style="fill:none;stroke:#263238;stroke-linecap:round;stroke-linejoin:round"></path><path d="M330.14,421.83c-3.4-8.32-10.11-2.45-10.32-.85s.9,2.56-3.61,1.29-6.16.59-6.16.59-1,2.51-2.46,1.51-5.47,2.28-7.21,1.83-3.1,2.43-5.58,0-9,1.23-9,1.23-12.48.61-15.22-.54" style="fill:none;stroke:#263238;stroke-linecap:round;stroke-linejoin:round"></path><path d="M270.54,370.79c4.37-3.59,8.83-.1,8,.72s-1.41,2.48,2.43,2.05,4.8,4.32,4.8,4.32,6.37.59,9,.89,10.15.67,10.15.67" style="fill:none;stroke:#263238;stroke-linecap:round;stroke-linejoin:round"></path><path d="M254.41,374.73c-2-3.18,1.13,6.17-2.64,1.69s-4.74-6.1-7.61-4.89-3.72,3.61-5.08,3.2,2,1.47-2.81-.46-10.79.05-10.79.05" style="fill:none;stroke:#263238;stroke-linecap:round;stroke-linejoin:round"></path><path d="M36.48,311.36a2.59,2.59,0,0,1,.94-3.26c.25,2.06.49,4.11.74,6.17L42.6,311l.18,4.5,3.69-1.55c.76,1.52-.51,3.63.56,4.95.66.8,1.84.84,2.84,1.12a5.47,5.47,0,0,1,3.28,2.54c-.08-.53-.15-1.07-.23-1.6" style="fill:none;stroke:#263238;stroke-linecap:round;stroke-linejoin:round"></path><path d="M41.19,288.43a1.55,1.55,0,1,1,2.75,0,3.29,3.29,0,0,0,2.39-2.35,1.66,1.66,0,0,1,.31,1.6" style="fill:none;stroke:#263238;stroke-linecap:round;stroke-linejoin:round"></path><path d="M51.45,300.72a2.71,2.71,0,0,1,.36-2.38,3,3,0,0,1,1,2.42l2.15-.51" style="fill:none;stroke:#263238;stroke-linecap:round;stroke-linejoin:round"></path><path d="M99.63,343.05c.66-1.11,1.31-2.22,2-3.34.35-.59,1-1.28,1.6-1s.39,1.26.42,2a2.19,2.19,0,0,0,3.67,1.23,5.88,5.88,0,0,0,2.7,1.31" style="fill:none;stroke:#263238;stroke-linecap:round;stroke-linejoin:round"></path><path d="M186.5,365.27c-.31-1.08-.61-2.16-.92-3.24-.18-.62-.45-1.34-1.08-1.49-1.42-.36-1.71,2.4-3.16,2.69a2.77,2.77,0,0,0-5-1.33" style="fill:none;stroke:#263238;stroke-linecap:round;stroke-linejoin:round"></path><path d="M200.31,357.66a4.42,4.42,0,0,1,.94-2.9c.74-.72,2.31-.58,2.5.44.09.46-.11,1,.15,1.36.39.55,1.24.23,1.89.36s1.25.93,2,1c1.35.19,2.7-1.83,3.74-.95" style="fill:none;stroke:#263238;stroke-linecap:round;stroke-linejoin:round"></path><path d="M258.87,359.63a5.85,5.85,0,0,1,2.66-3.8c1.56.72,0,4,1.69,4.5l3-1.47c.18.4.36.81.53,1.21a6,6,0,0,1,3.56.48" style="fill:none;stroke:#263238;stroke-linecap:round;stroke-linejoin:round"></path><path d="M311.7,368.37a6,6,0,0,1,3.51.74,4.34,4.34,0,0,1,2-3.46,4.89,4.89,0,0,0,4.27,6c1.15.05,2.36-.32,3.44.08" style="fill:none;stroke:#263238;stroke-linecap:round;stroke-linejoin:round"></path><path d="M329.44,389.15a5.29,5.29,0,0,1,5.54,1.68l.14-3c.39-.46,1.18-.19,1.58.27s.65,1.06,1.17,1.38a4.47,4.47,0,0,0,1.91.31c.65.06,1.39.45,1.39,1.11" style="fill:none;stroke:#263238;stroke-linecap:round;stroke-linejoin:round"></path><path d="M390.81,407.55l0-6.23a2.46,2.46,0,0,1,.27-1.32c.56-.83,2-.56,2.59.23a7.4,7.4,0,0,1,1,2.82,3,3,0,0,0,1.79,2.26,14.94,14.94,0,0,0,2.31-.1c.78.06,1.58,1,1.06,1.54a4.48,4.48,0,0,0,2.76-2.17c.68.32.31,1.33.37,2.08.1,1.28,1.68,1.88,3,1.81s2.61-.51,3.83-.09" style="fill:none;stroke:#263238;stroke-linecap:round;stroke-linejoin:round"></path><path d="M229.87,423.72c-.45.26-1-.17-1.18-.67a8.73,8.73,0,0,1-.12-1.54,2.72,2.72,0,0,0-4.47-1.44,5.41,5.41,0,0,1-1,1.09,2.56,2.56,0,0,1-1.4.25l-5.36,0" style="fill:none;stroke:#263238;stroke-linecap:round;stroke-linejoin:round"></path><path d="M78.1,391l5.05,3,.69-4.3a1.22,1.22,0,0,1,.34-.8c.57-.44,1.29.36,1.46,1.06.37,1.4.28,2.89.61,4.31s1.26,2.86,2.7,3.08a19,19,0,0,0,2.49-.15c.84,0,1.8.61,1.69,1.44,1.38-.68,1.57-3.32,3.08-3.08a2.1,2.1,0,0,1,1.12.76,34.82,34.82,0,0,0,4.42,4.42,8.32,8.32,0,0,0,5.8,1.89" style="fill:none;stroke:#263238;stroke-linecap:round;stroke-linejoin:round"></path><path d="M138,423.32a28.54,28.54,0,0,1,8.11,2.58,10.86,10.86,0,0,1,2.5-4.87,9.76,9.76,0,0,1,2.79,5.87,1.69,1.69,0,0,0,.31,1c.4.42,1.09.24,1.67.16a3.75,3.75,0,0,1,3.8,2.08,3.37,3.37,0,0,1,4.88-1.64c.41.29.76.67,1.17,1a7.07,7.07,0,0,0,2.71.91,42.6,42.6,0,0,1,9.34,3.07,4.61,4.61,0,0,0-.13-3.71" style="fill:none;stroke:#263238;stroke-linecap:round;stroke-linejoin:round"></path><path d="M215.19,314.22a9.75,9.75,0,0,0,3.49-2.32c.53,1.32-.58,3.28.63,4,1.42.87,3-1.86,4.55-1.28" style="fill:none;stroke:#263238;stroke-linecap:round;stroke-linejoin:round"></path><path d="M256,319.23c1.15.49,2.12-1.71,3.3-1.3.83.29.81,1.6,1.58,2,.56.33,1.26,0,1.86-.24a15,15,0,0,1,12.58.35" style="fill:none;stroke:#263238;stroke-linecap:round;stroke-linejoin:round"></path><path d="M350.39,328.41c.1-.43.21-.85.31-1.28a2.87,2.87,0,0,0,4.78.31,6.17,6.17,0,0,0,6.84,2.88" style="fill:none;stroke:#263238;stroke-linecap:round;stroke-linejoin:round"></path><path d="M443.85,348.55c1.15.23,1.73-1.94,2.87-1.67a3.14,3.14,0,0,1,.79.46,4.47,4.47,0,0,0,2.47.16c.83-.05,1.87.29,2,1.12" style="fill:none;stroke:#263238;stroke-linecap:round;stroke-linejoin:round"></path><path d="M155.83,311.16l-12.56-.74-.11-1.92c-.92.86-2.56.16-3.08-1a6.06,6.06,0,0,1,0-3.72l-3.5,2.18a1,1,0,0,1-.68.22c-.42-.09-.52-.63-.57-1.06a6.14,6.14,0,0,0-1.48-3.26,1,1,0,0,0-.61-.39c-.47-.05-.76.49-.92.94l-1,2.93c-.76.36-1.39-.58-1.53-1.4s-.64-1.91-1.44-1.67a1.82,1.82,0,0,1-3.28,1.33c-.75-.12-.56,1.27-1.14,1.75-.84.7-1.79-1.16-2.88-1" style="fill:none;stroke:#263238;stroke-linecap:round;stroke-linejoin:round"></path><path d="M165.18,298.49a4.94,4.94,0,0,1,5.16.26c.5-1.09,1-2.18,1.51-3.27l2.18.73a12.13,12.13,0,0,1,4.59,2.31" style="fill:none;stroke:#263238;stroke-linecap:round;stroke-linejoin:round"></path><path d="M49.16,267.62c1.18-1.51,3.83,1.76,5.25.48.22-.2.38-.51.67-.58s.65.18.93.38a2.8,2.8,0,0,0,2.48.33" style="fill:none;stroke:#263238;stroke-linecap:round;stroke-linejoin:round"></path><path d="M275.67,272.88c-8,.73-16,.16-24-.4-9.33-.67-19.3-.43-28.48-2.13C240.4,268.16,258.69,269.67,275.67,272.88Z" style="fill:#2AB6B3;opacity:0.4"></path><path d="M323.79,275.7a85.08,85.08,0,0,1-11.39.95,86,86,0,0,1-16.33-1.3A58.36,58.36,0,0,1,309,273.63c2.16,0,4.33.24,6.48.45C317.75,274.31,321.7,276,323.79,275.7Z" style="fill:#2AB6B3;opacity:0.4"></path><path d="M482.18,358.31s-38.95,2-52-4.47c-26.17-13-82-22.81-163.56-25.85s-158.2-8.57-177.27-29.59C83.43,291.85,101,272,29.08,269.66l-1.62.28v2.76c11.46.89,28.18,3.23,39.08,9.34,11.5,6.46-10.07,13.91,0,27.46s51.7,32.69,170.55,39.9,147,17,151.75,27.44,68.86,12.94,68.86,12.94C488.55,382.14,482.18,358.31,482.18,358.31Z" style="fill:#fff"></path><path d="M452,389.5c-15.85-.89-59.27-4.1-63.11-12.66-4.7-10.49-32.9-20.22-151.75-27.44S76.61,323.05,66.54,309.5s11.5-21,0-27.46c-10.63-6-26.82-8.33-38.24-9.27" style="fill:none;stroke:#263238;stroke-linecap:round;stroke-linejoin:round"></path><path d="M29.08,269.66C101,272,83.43,291.85,89.37,298.4c19.07,21,95.68,26.55,177.27,29.59S404,340.84,430.2,353.84c8.79,4.36,29.36,4.87,41.82,4.74" style="fill:none;stroke:#263238;stroke-linecap:round;stroke-linejoin:round"></path><g style="opacity:0.5"><path d="M420.58,381.31c11.38,1.26,22.85,1.07,34.23,2.18" style="fill:none;stroke:#2AB6B3;stroke-linecap:round;stroke-linejoin:round"></path><path d="M396.14,371.51c5.47,4.63,11.66,11.16,19.56,9.58" style="fill:none;stroke:#2AB6B3;stroke-linecap:round;stroke-linejoin:round"></path><path d="M352.64,355.34c12.12,1.56,24.19,4.59,35,10.45" style="fill:none;stroke:#2AB6B3;stroke-linecap:round;stroke-linejoin:round"></path><path d="M342.74,354.34q3.4.26,6.81.63" style="fill:none;stroke:#2AB6B3;stroke-linecap:round;stroke-linejoin:round"></path><path d="M336.57,353.67l3.36.37" style="fill:none;stroke:#2AB6B3;stroke-linecap:round;stroke-linejoin:round"></path><path d="M289.2,350.66q22,1.57,44.08,2.74" style="fill:none;stroke:#2AB6B3;stroke-linecap:round;stroke-linejoin:round"></path><path d="M276.09,349.7l4.87.36" style="fill:none;stroke:#2AB6B3;stroke-linecap:round;stroke-linejoin:round"></path><path d="M260.11,348.46l13.2,1" style="fill:none;stroke:#2AB6B3;stroke-linecap:round;stroke-linejoin:round"></path><path d="M196.21,343.07c18.52,1.59,37,3.2,55.56,4.71" style="fill:none;stroke:#2AB6B3;stroke-linecap:round;stroke-linejoin:round"></path><path d="M188,342.28l5.47.53" style="fill:none;stroke:#2AB6B3;stroke-linecap:round;stroke-linejoin:round"></path><path d="M142.07,336.48c14.47,1.77,28.63,4.57,43.22,5.55" style="fill:none;stroke:#2AB6B3;stroke-linecap:round;stroke-linejoin:round"></path><path d="M134.85,336c1.31,0,2.63.06,3.94.15" style="fill:none;stroke:#2AB6B3;stroke-linecap:round;stroke-linejoin:round"></path><path d="M114.16,331.57c3.07.92,6.09,2,9.17,2.89" style="fill:none;stroke:#2AB6B3;stroke-linecap:round;stroke-linejoin:round"></path><path d="M105.48,328.54q2.51.94,5,1.81" style="fill:none;stroke:#2AB6B3;stroke-linecap:round;stroke-linejoin:round"></path><path d="M93.09,323.57c3.28,1.38,6.57,2.74,9.89,4" style="fill:none;stroke:#2AB6B3;stroke-linecap:round;stroke-linejoin:round"></path><path d="M71.71,310.27C76,316,83,319,90,322.29" style="fill:none;stroke:#2AB6B3;stroke-linecap:round;stroke-linejoin:round"></path><path d="M68.11,303.22c-.58,1.74.59,3.58,1.63,4.89" style="fill:none;stroke:#2AB6B3;stroke-linecap:round;stroke-linejoin:round"></path><path d="M103.37,312.65a29.43,29.43,0,0,0,3.35.5" style="fill:none;stroke:#2AB6B3;stroke-linecap:round;stroke-linejoin:round"></path><path d="M89.24,305.2a24.15,24.15,0,0,0,11.35,6.69" style="fill:none;stroke:#2AB6B3;stroke-linecap:round;stroke-linejoin:round"></path><path d="M82.59,294.33a30.06,30.06,0,0,0,4,7.73" style="fill:none;stroke:#2AB6B3;stroke-linecap:round;stroke-linejoin:round"></path><path d="M77.61,280C82,283,80,288,81.88,291.93" style="fill:none;stroke:#2AB6B3;stroke-linecap:round;stroke-linejoin:round"></path><path d="M57.56,273.67c5.07.71,10.45,1.75,14.83,4.55" style="fill:none;stroke:#2AB6B3;stroke-linecap:round;stroke-linejoin:round"></path><path d="M313.76,333.5c2,.18,4,.36,6.06.56" style="fill:none;stroke:#2AB6B3;stroke-linecap:round;stroke-linejoin:round"></path><path d="M230.73,329.67c22.73.85,45.48,1.34,68.19,2.71" style="fill:none;stroke:#2AB6B3;stroke-linecap:round;stroke-linejoin:round"></path><path d="M215.81,328.71q6.1.39,12.21.85" style="fill:none;stroke:#2AB6B3;stroke-linecap:round;stroke-linejoin:round"></path><path d="M180.81,326.53c8.72.65,17.46,1.14,26.19,1.65" style="fill:none;stroke:#2AB6B3;stroke-linecap:round;stroke-linejoin:round"></path><path d="M171.18,325.74c2.06.19,4.12.36,6.19.53" style="fill:none;stroke:#2AB6B3;stroke-linecap:round;stroke-linejoin:round"></path><path d="M129.71,319.39a289.87,289.87,0,0,0,38.1,6" style="fill:none;stroke:#2AB6B3;stroke-linecap:round;stroke-linejoin:round"></path><path d="M120.5,317.76q3.25.63,6.52,1.18" style="fill:none;stroke:#2AB6B3;stroke-linecap:round;stroke-linejoin:round"></path><path d="M433.57,362c11.21,3.26,23,3.59,34.62,3" style="fill:none;stroke:#2AB6B3;stroke-linecap:round;stroke-linejoin:round"></path><path d="M420.61,356.56q2.34,1.33,4.8,2.45" style="fill:none;stroke:#2AB6B3;stroke-linecap:round;stroke-linejoin:round"></path><path d="M351.24,337.16c22.75,2.41,45.65,7.11,66.13,17.66" style="fill:none;stroke:#2AB6B3;stroke-linecap:round;stroke-linejoin:round"></path><path d="M345,336.31c1.29.16,2.57.33,3.85.51" style="fill:none;stroke:#2AB6B3;stroke-linecap:round;stroke-linejoin:round"></path><path d="M76.12,298.21C76,291,77,282,68.11,279" style="fill:none;stroke:#2AB6B3;stroke-linecap:round;stroke-linejoin:round"></path><path d="M78.93,304.19a9.62,9.62,0,0,1-1.82-2.48" style="fill:none;stroke:#2AB6B3;stroke-linecap:round;stroke-linejoin:round"></path><path d="M92.28,313.41c-3.77-2.39-7.5-4.85-11.22-7.31" style="fill:none;stroke:#2AB6B3;stroke-linecap:round;stroke-linejoin:round"></path><path d="M98,316.93l-2.86-1.74" style="fill:none;stroke:#2AB6B3;stroke-linecap:round;stroke-linejoin:round"></path><path d="M119.67,326.69a80.75,80.75,0,0,1-18.28-7.77" style="fill:none;stroke:#2AB6B3;stroke-linecap:round;stroke-linejoin:round"></path><path d="M139.81,330.76A139.93,139.93,0,0,1,124.48,328" style="fill:none;stroke:#2AB6B3;stroke-linecap:round;stroke-linejoin:round"></path><path d="M164.61,333c-7.27-.55-14.55-1-21.79-1.86" style="fill:none;stroke:#2AB6B3;stroke-linecap:round;stroke-linejoin:round"></path><path d="M171.18,333.48l-3.85-.29" style="fill:none;stroke:#2AB6B3;stroke-linecap:round;stroke-linejoin:round"></path><path d="M195.19,334.82c-7.15-.33-14.3-.7-21.44-1.16" style="fill:none;stroke:#2AB6B3;stroke-linecap:round;stroke-linejoin:round"></path><path d="M207,335.12l-9-.18" style="fill:none;stroke:#2AB6B3;stroke-linecap:round;stroke-linejoin:round"></path><path d="M239.6,335.91c-9.72-.29-19.44-.51-29.16-.72" style="fill:none;stroke:#2AB6B3;stroke-linecap:round;stroke-linejoin:round"></path><path d="M294.17,338.81q-25.57-2.15-51.23-2.79" style="fill:none;stroke:#2AB6B3;stroke-linecap:round;stroke-linejoin:round"></path><path d="M305.22,339.79l-4.84-.45" style="fill:none;stroke:#2AB6B3;stroke-linecap:round;stroke-linejoin:round"></path><path d="M319,341.2c-3-.32-6-.64-9-.94" style="fill:none;stroke:#2AB6B3;stroke-linecap:round;stroke-linejoin:round"></path><path d="M373.58,349.07c-16.85-3.79-34-5.8-51.19-7.49" style="fill:none;stroke:#2AB6B3;stroke-linecap:round;stroke-linejoin:round"></path><path d="M407.53,364.72C400,355,389,352,376.83,349.83" style="fill:none;stroke:#2AB6B3;stroke-linecap:round;stroke-linejoin:round"></path><path d="M414.57,368.82c-1.47-.71-2.92-1.49-4.31-2.34" style="fill:none;stroke:#2AB6B3;stroke-linecap:round;stroke-linejoin:round"></path><path d="M421.41,371.53c-1.36-.44-2.71-.93-4-1.47" style="fill:none;stroke:#2AB6B3;stroke-linecap:round;stroke-linejoin:round"></path><path d="M438.26,374.73a79.88,79.88,0,0,1-13.91-2.34" style="fill:none;stroke:#2AB6B3;stroke-linecap:round;stroke-linejoin:round"></path><path d="M463.1,374.9c-7.32.25-14.65.46-22,0" style="fill:none;stroke:#2AB6B3;stroke-linecap:round;stroke-linejoin:round"></path><path d="M194.57,330.69l4.62.28" style="fill:none;stroke:#2AB6B3;stroke-linecap:round;stroke-linejoin:round"></path><path d="M149.58,327.66c14.1,1.15,28.22,2,42.34,2.87" style="fill:none;stroke:#2AB6B3;stroke-linecap:round;stroke-linejoin:round"></path><path d="M119.45,322.56c8.82,2.82,18.1,3.75,27.27,4.78" style="fill:none;stroke:#2AB6B3;stroke-linecap:round;stroke-linejoin:round"></path><path d="M109.3,318.07a43.6,43.6,0,0,0,5.92,3" style="fill:none;stroke:#2AB6B3;stroke-linecap:round;stroke-linejoin:round"></path><path d="M401.16,351.55a20.78,20.78,0,0,1,3.77,2.61" style="fill:none;stroke:#2AB6B3;stroke-linecap:round;stroke-linejoin:round"></path><path d="M388.06,347.48a57.4,57.4,0,0,1,10,2.63" style="fill:none;stroke:#2AB6B3;stroke-linecap:round;stroke-linejoin:round"></path><path d="M350,341.1q16.72,2.34,33.34,5.48" style="fill:none;stroke:#2AB6B3;stroke-linecap:round;stroke-linejoin:round"></path><path d="M291.41,335c18.43,1.32,36.83,3.13,55.14,5.61" style="fill:none;stroke:#2AB6B3;stroke-linecap:round;stroke-linejoin:round"></path><path d="M270.54,333.64q9,.56,18.08,1.17" style="fill:none;stroke:#2AB6B3;stroke-linecap:round;stroke-linejoin:round"></path><path d="M260.8,333.07l6.26.36" style="fill:none;stroke:#2AB6B3;stroke-linecap:round;stroke-linejoin:round"></path><path d="M246.93,332.33l5.08.26" style="fill:none;stroke:#2AB6B3;stroke-linecap:round;stroke-linejoin:round"></path><path d="M378.53,357.14q2.88.89,5.73,1.85" style="fill:none;stroke:#2AB6B3;stroke-linecap:round;stroke-linejoin:round"></path><path d="M311.5,345.59c21.75,1.66,43.5,4.64,64.47,10.78" style="fill:none;stroke:#2AB6B3;stroke-linecap:round;stroke-linejoin:round"></path><path d="M263.28,343.19c15,.61,30,1.11,45,2.16" style="fill:none;stroke:#2AB6B3;stroke-linecap:round;stroke-linejoin:round"></path><path d="M238.38,342c5.3.33,10.6.6,15.9.84" style="fill:none;stroke:#2AB6B3;stroke-linecap:round;stroke-linejoin:round"></path><path d="M221,340.86q7,.52,14,.92" style="fill:none;stroke:#2AB6B3;stroke-linecap:round;stroke-linejoin:round"></path><path d="M212.11,340.44l6.34.3" style="fill:none;stroke:#2AB6B3;stroke-linecap:round;stroke-linejoin:round"></path><path d="M71.63,295.07c-1.52,9.44,7,16.95,14.73,20.47" style="fill:none;stroke:#2AB6B3;stroke-linecap:round;stroke-linejoin:round"></path><path d="M72.57,287.68c.41,1.64-.18,3.51-.52,5.12" style="fill:none;stroke:#2AB6B3;stroke-linecap:round;stroke-linejoin:round"></path><path d="M48.37,273.92a130.94,130.94,0,0,0-14.61-2.3" style="fill:none;stroke:#2AB6B3;stroke-linecap:round;stroke-linejoin:round"></path><path d="M62.7,277.15q-4.89-1.22-9.82-2.28" style="fill:none;stroke:#2AB6B3;stroke-linecap:round;stroke-linejoin:round"></path></g></g></svg>