<svg xmlns="http://www.w3.org/2000/svg" viewBox="0 0 500 500"><g id="freepik--Rocks--inject-63"><path d="M428.37,311.42s9.61,9.18,17,8.31,21.85-6.12,21.85-6.12v-8.3l-8.3-8.74L457.21,290s-10,.44-13.11,2.19-12.67,7-12.67,7Z" style="fill:#f5f5f5"></path><path d="M428.37,311.42s0-.06,0-.2.08-.37.13-.62c.14-.58.33-1.38.56-2.4.52-2.15,1.26-5.22,2.18-9.05l0-.07.06,0,10.82-6,1.55-.87a9.43,9.43,0,0,1,1.72-.75,25.24,25.24,0,0,1,3.73-.83,77.36,77.36,0,0,1,8-.81h.2l.06.2c.55,2.08,1.15,4.29,1.75,6.55l-.06-.11,5.27,5.54,3,3.2.07.07v8.59l-.17.06c-5.71,2-11.12,3.72-16.08,4.95-1.24.3-2.44.58-3.63.78a18.29,18.29,0,0,1-3.49.39,15.69,15.69,0,0,1-6-1.61,37.87,37.87,0,0,1-7.42-4.8c-.79-.66-1.39-1.18-1.78-1.55l-.44-.43c-.1-.1-.15-.16-.14-.16s.22.17.64.52,1,.85,1.83,1.49a40.23,40.23,0,0,0,7.45,4.63,15.16,15.16,0,0,0,5.87,1.52,18.71,18.71,0,0,0,3.4-.4c1.18-.22,2.38-.5,3.61-.81,4.92-1.24,10.32-3,16-5l-.17.24q0-4,0-8.3l.08.17-3-3.19-5.27-5.55,0,0,0-.07L457,290.08l.25.18a79.38,79.38,0,0,0-8,.77,27.89,27.89,0,0,0-3.66.8,18.94,18.94,0,0,0-3.2,1.56l-10.87,5.94.08-.1c-1,3.79-1.77,6.82-2.32,8.94-.28,1-.49,1.83-.65,2.41-.07.25-.13.46-.17.63A1,1,0,0,1,428.37,311.42Z" style="fill:#263238"></path><path d="M471.51,254c-3.1-5.34-6.74-11.12-12.66-12.88-4.32-1.28-9.44-.25-13-3-2.84-2.15-3.81-6-6.3-8.58-3.74-3.85-9.82-3.82-15.19-3.53-4.55.24-9.42.59-13.06,3.34-3.4,2.57-5.18,6.85-8.61,9.38s-8.34,3-11.95,5.52-5.54,6.88-7.26,11l-4.17,10a9.53,9.53,0,0,0,3.18,11.45,30,30,0,0,0,11.44,4.86c27.39,4.92,61,3.72,83.5-6.91a4.88,4.88,0,0,0,2.15-6.85Q475.52,260.92,471.51,254Z" style="fill:#f5f5f5"></path><path d="M471.51,254s.13.19.36.56.57.95,1,1.67l3.8,6.46q1.24,2.1,2.74,4.67a7.09,7.09,0,0,1,.68,1.38,5.63,5.63,0,0,1,.24,1.6,5.16,5.16,0,0,1-1.18,3.16,5.3,5.3,0,0,1-1.39,1.14c-.54.3-1.11.5-1.67.76-1.14.49-2.29,1-3.52,1.5l-3.8,1.4c-1.31.43-2.68.83-4.07,1.26-11.19,3.23-25.07,5.12-40.46,5a186,186,0,0,1-24.07-1.75c-2.08-.27-4.16-.66-6.26-1a28.41,28.41,0,0,1-6.19-1.91A27.48,27.48,0,0,1,382,276.7a9.66,9.66,0,0,1-3.53-5.64,10.32,10.32,0,0,1,.85-6.6q1.28-3,2.52-6c1.72-3.94,3.1-8.06,5.71-11.45a13.61,13.61,0,0,1,4.85-4,58.23,58.23,0,0,1,5.7-2.22,15.88,15.88,0,0,0,5.13-2.81,28.23,28.23,0,0,0,3.8-4.36,22.85,22.85,0,0,1,3.86-4.23,14.1,14.1,0,0,1,5-2.47,48,48,0,0,1,10.57-1.18c3.41-.09,6.82.09,9.8,1.4a10.82,10.82,0,0,1,3.8,2.78,25.23,25.23,0,0,1,2.46,3.76,18.44,18.44,0,0,0,2.39,3.46,8.23,8.23,0,0,0,3.31,2.1c2.46.83,5,.83,7.26,1.11a19.09,19.09,0,0,1,3.3.62,13.49,13.49,0,0,1,2.87,1.23,17.52,17.52,0,0,1,4.19,3.45,39.12,39.12,0,0,1,4.37,6.08l1,1.69c.22.38.31.58.31.58s-.12-.18-.35-.56l-1-1.65a39.66,39.66,0,0,0-4.43-6,17.32,17.32,0,0,0-4.17-3.36,12.91,12.91,0,0,0-2.81-1.19,18.46,18.46,0,0,0-3.26-.59c-2.28-.26-4.8-.24-7.34-1.09a8.55,8.55,0,0,1-3.45-2.17,18.77,18.77,0,0,1-2.46-3.52,25,25,0,0,0-2.43-3.69,10.51,10.51,0,0,0-3.67-2.67c-2.89-1.25-6.24-1.43-9.63-1.33A48.28,48.28,0,0,0,416,227.36a13.61,13.61,0,0,0-4.85,2.4,22.17,22.17,0,0,0-3.78,4.16,28.19,28.19,0,0,1-3.86,4.43,16.38,16.38,0,0,1-5.27,2.91c-1.89.71-3.84,1.3-5.66,2.2A13.21,13.21,0,0,0,388,247.3c-2.53,3.29-3.92,7.38-5.63,11.34q-1.24,3-2.52,6A9.78,9.78,0,0,0,379,271a9.14,9.14,0,0,0,3.33,5.34,29.53,29.53,0,0,0,11.69,5c2.1.33,4.17.72,6.24,1a187,187,0,0,0,24,1.77c15.36.13,29.19-1.72,40.36-4.89,1.38-.43,2.75-.82,4.06-1.24l3.79-1.38c1.23-.45,2.37-1,3.51-1.47.56-.25,1.14-.46,1.65-.74a5.08,5.08,0,0,0,1.32-1.07,4.91,4.91,0,0,0,1.13-3,5.41,5.41,0,0,0-.22-1.51,6.63,6.63,0,0,0-.65-1.34l-2.69-4.69-3.72-6.5c-.41-.74-.73-1.3-1-1.7S471.51,254,471.51,254Z" style="fill:#263238"></path><path d="M429.6,281.82a1.86,1.86,0,0,1-.3-.47l-.75-1.38-2.69-5.14-8.7-17.05a11.69,11.69,0,0,0-3.16-4.24,9.78,9.78,0,0,0-4.66-1.52l-8.54-1-5.76-.73-1.56-.22a2,2,0,0,1-.54-.12,3.27,3.27,0,0,1,.55,0l1.57.13,5.78.57,8.56.9a10.27,10.27,0,0,1,4.9,1.59,12.19,12.19,0,0,1,3.33,4.41c3.37,6.67,6.39,12.73,8.56,17.12l2.54,5.22.67,1.43A1.84,1.84,0,0,1,429.6,281.82Z" style="fill:#263238"></path><path d="M446.24,240.65c0,.15-5.68,1.55-12.76,3.13s-12.85,2.76-12.88,2.62,5.68-1.54,12.77-3.13S446.21,240.51,446.24,240.65Z" style="fill:#263238"></path><path d="M460.06,217.61c.06.07-1.1.87-2.77,2.37a33.18,33.18,0,0,0-9.39,14.55c-.68,2.14-.92,3.52-1,3.5a3.79,3.79,0,0,1,.1-1,20.08,20.08,0,0,1,.57-2.62,29.75,29.75,0,0,1,9.5-14.73,21.29,21.29,0,0,1,2.16-1.6A3.32,3.32,0,0,1,460.06,217.61Z" style="fill:#263238"></path><path d="M448.82,208.58a5.53,5.53,0,0,1,.07,1.18c0,.75,0,1.85,0,3.2-.06,2.7-.25,6.43-.66,10.54s-1,7.8-1.46,10.45c-.24,1.33-.45,2.41-.62,3.14a6.1,6.1,0,0,1-.31,1.14,4.44,4.44,0,0,1,.11-1.17c.12-.86.28-1.91.46-3.16.39-2.67.88-6.36,1.3-10.46s.66-7.8.81-10.5c.07-1.26.13-2.32.18-3.19A4.93,4.93,0,0,1,448.82,208.58Z" style="fill:#263238"></path><path d="M438.62,217.54a23.4,23.4,0,0,1,1.24,2.89c.72,1.79,1.74,4.26,2.77,7a56.21,56.21,0,0,1,2.2,7.26,21.58,21.58,0,0,1,.37,2.28,2.83,2.83,0,0,1,0,.84c-.09,0-.28-1.17-.77-3s-1.31-4.4-2.33-7.17-2-5.26-2.63-7.1A15.44,15.44,0,0,1,438.62,217.54Z" style="fill:#263238"></path></g></svg>