<svg xmlns="http://www.w3.org/2000/svg" xmlns:xlink="http://www.w3.org/1999/xlink" viewBox="0 0 500 500"><defs><clipPath id="freepik--clip-path--inject-45"><path d="M382.53,250.2c-.89,3.11-2.27,6-3.23,9.12-29.33-1.78-63.81-3.56-97.8-4.62a30.3,30.3,0,0,0,6.34-4.16c1.42-1.21,2.56-3.11,4.46-3.52,1.05-.23,1.48,1.86,2.53,1.65a1.42,1.42,0,0,0,.79-.68l2.85-4.2a1.08,1.08,0,0,1,.61-.53c.24-.06.51.06.75,0,.53-.15.45-.91.5-1.47a1.92,1.92,0,0,1,1.51-1.67.77.77,0,0,1,.45,0,.82.82,0,0,1,.37.43c.68,1.45.34,3.24,1.14,4.63a8.08,8.08,0,0,1,.52.9c.4,1-.24,4.59,1.06,2.26.89-1.61,1.24-3.59,2.15-5.24a19.41,19.41,0,0,0,.92-2.47,11.53,11.53,0,0,1,1.48-1.69l.18,2.2a1.24,1.24,0,0,0,.17.63c.3.44,1,.36,1.42.68a1.93,1.93,0,0,1,.52,1.37c.07.5.24,1.08.72,1.24.11,0,.24,0,.3.15a.33.33,0,0,1,.05.22,6.93,6.93,0,0,0,.07,1.29c.76-.28,1.72-2.66,2.11-3.52l1.89-4.17a14.85,14.85,0,0,0,1.53-3.78,12.13,12.13,0,0,1,.68-3.45c.13-.28.41-.63.68-.47s.19.34.18.55a13.85,13.85,0,0,0,.31,4.26c.17.62.42,1.21.62,1.82a22.14,22.14,0,0,1,.73,7.17c0,1.68.75,2.81,1.84,1.09a28.66,28.66,0,0,0,1.48-3.73,8.63,8.63,0,0,0,1-3.47,7,7,0,0,1,0-1.65,4.29,4.29,0,0,1,.6-1.26,15,15,0,0,0,2.05-6.69,5.63,5.63,0,0,1,.52-2.63c.23-.37.55-.66.79-1,.7-1.1.35-3.06.74-4.4s.81-2.75,2.09-3.39a.72.72,0,0,1,.51-.1c.26.08.36.37.43.63,1,4.26-.26,8.9,1.23,13,.54,1.48,1.42,3.06.82,4.5a7.56,7.56,0,0,0-.69,1.47c-.25,1.31,1.19,2.23,2.06,3.24a5.78,5.78,0,0,1,1.14,2.25c.11.38.15,2.28.42,2.45,1.2.75,1.35-3.5,1.31-4.14a1.52,1.52,0,0,1,.05-.6,1.75,1.75,0,0,1,.33-.44,5.83,5.83,0,0,0,1.36-2.28c.25-.78.34-1.61.56-2.4a3.58,3.58,0,0,1,1.28-2.06.52.52,0,0,1,.27-.1c.17,0,.28.19.35.35a5.1,5.1,0,0,1,.4,1.68,2.19,2.19,0,0,0,.17.85c.83,1.39,2.07-.09,2.38-.95a4.3,4.3,0,0,0,.15-1.52c0-1.1-.05-2.2-.07-3.31a1.84,1.84,0,0,1,.17-1,3.71,3.71,0,0,1,.69-.68,3.07,3.07,0,0,0,.58-1.12c.68-1.88,1.3-5.66,2.71-7a7.51,7.51,0,0,1,.68,1.46,3.1,3.1,0,0,1,.31,1.3,3.49,3.49,0,0,1-.28,1,4.85,4.85,0,0,0-.33,2.06c.11,1,.7,1.94.86,3,.11.74,0,1.5.05,2.24a42.58,42.58,0,0,0,1.21,6.23c.2.82.62,4.07,1.57,4.42,1.2.27,1.9-2.44,1.85-3.25a2,2,0,0,1,.18-1.4c.29-.36.82-.41,1.17-.71.54-.47.44-1.32.52-2,.12-1,1.44-1.45,2-2.2a20.16,20.16,0,0,0,2-4.28c.93-2.22,2.86-6,2.66-8.4a18.86,18.86,0,0,0,2.62,8.15q1.29-4.9,2.41-9.84c.46-2,.51-5.22,2.4-6.48-.37,2.77,1.7,4.88,1.8,7.56.07,1.86-1,3.72-.52,5.51.35,1.23,1.43,2.18,1.7,3.44s-.26,2.47.17,3.59a2.69,2.69,0,0,0,.28.53,8.72,8.72,0,0,0,1.17,1.27,12.5,12.5,0,0,1,3.52,6.95C382.4,244.54,383.61,246.36,382.53,250.2Z" style="fill:#2AB6B3;stroke:#263238;stroke-linecap:round;stroke-linejoin:round"></path></clipPath><clipPath id="freepik--clip-path-2--inject-45"><path d="M217.93,253.75c-45.48.11-87.15,1.37-118.3,2.65l-1.45,0c-3.37-.1-6.75-.12-10.13-.11s-4.6.34-5.34-3.19c-.49-2.33,1.61-4.33,2.38-6.58.93-2.72-.09-5.86,1.06-8.49.39-.91,1-1.7,1.41-2.62.67-1.59.53-3.39.75-5.1.31-2.43,1.35-4.7,2-7,1.24-4.17,1.38-8.58,1.94-12.89.49-3.78,1.3-7.51,2.11-11.24q1.27-5.87,2.56-11.74c1.18,4.2,2.83,8,3.87,12.29.13.56,2.08,8.12,2.54,8.12-1.1.63-1.29,2.24-.82,3.43s3.53,7.82,4.64,8.27c2.73,1.11,4.58-2.29,6.61-3.68a9,9,0,0,0,1.39-1,2.71,2.71,0,0,0,.36-.46c.64-1,.37-2.39.83-3.51s1.73-1.92,2.3-3.07c.83-1.66.08-3.69.49-5.51.58-2.62,3-4.31,3.15-7.1,1.63,1.58,1.1,4.71,1.18,6.8q.19,5.07.57,10.12a19,19,0,0,0,4.07-7.54c-.64,2.37.57,6.4,1.07,8.75a20.38,20.38,0,0,0,1.2,4.57c.42.84,1.64,1.5,1.57,2.53,0,.72-.31,1.53.14,2.09.29.36.8.51,1,.91a2,2,0,0,1-.07,1.41c-.19.79,0,3.58,1.23,3.53,1-.16,2-3.29,2.35-4.05a42.48,42.48,0,0,0,2.32-5.9c.2-.73.22-1.49.46-2.2.34-1,1.09-1.76,1.38-2.75a4.61,4.61,0,0,0,0-2.09,3.92,3.92,0,0,1-.09-1,3.17,3.17,0,0,1,.55-1.23,6.88,6.88,0,0,1,.93-1.31c1.14,1.59,1.06,5.41,1.38,7.39a3.24,3.24,0,0,0,.37,1.2,5.25,5.25,0,0,1,.56.8,1.9,1.9,0,0,1,0,1c-.23,1.08-.45,2.16-.67,3.24a4.12,4.12,0,0,0-.13,1.52c.14.9,1.09,2.58,2.16,1.36a1.88,1.88,0,0,0,.32-.8,5.54,5.54,0,0,1,.7-1.57c.1-.15.24-.31.42-.28a.45.45,0,0,1,.24.15,3.56,3.56,0,0,1,.88,2.25c.07.82,0,1.65.11,2.46a6.1,6.1,0,0,0,.92,2.49,1.62,1.62,0,0,1,.25.49,1.54,1.54,0,0,1-.06.6c-.16.62-.78,4.84.53,4.31.29-.12.69-2,.87-2.33a5.85,5.85,0,0,1,1.52-2c1-.84,2.62-1.48,2.62-2.82a7.33,7.33,0,0,0-.41-1.56c-.33-1.53.83-2.93,1.62-4.28,2.22-3.78,1.81-8.58,3.6-12.58.11-.24.27-.51.53-.54a.68.68,0,0,1,.48.19c1.14.87,1.31,2.4,1.44,3.72s-.56,3.25-.07,4.46c.16.39.43.74.58,1.14a5.52,5.52,0,0,1,0,2.68,15.11,15.11,0,0,0,.8,7,4.6,4.6,0,0,1,.37,1.35,7.75,7.75,0,0,1-.29,1.63,8.46,8.46,0,0,0,.35,3.59,27.55,27.55,0,0,0,.76,3.93c.77,1.89,1.73.92,2-.73a22.36,22.36,0,0,1,2-6.92c.31-.56.66-1.1.94-1.68a13.41,13.41,0,0,0,1.08-4.13c0-.2.09-.44.28-.51s.51.29.58.59a11.89,11.89,0,0,1,0,3.52,15.38,15.38,0,0,0,.81,4l1.11,4.45c.22.91.73,3.43,1.43,3.84a6.44,6.44,0,0,0,.3-1.26.37.37,0,0,1,.09-.2c.08-.09.21-.08.32-.1.5-.06.78-.6.94-1.08a1.92,1.92,0,0,1,.76-1.25c.48-.24,1.15,0,1.52-.41a1.29,1.29,0,0,0,.28-.59c.19-.71.39-1.42.58-2.13a12.1,12.1,0,0,1,1.15,1.93,18.14,18.14,0,0,0,.45,2.6c.6,1.79.57,3.8,1.16,5.54.85,2.53.88-1.14,1.45-2a10.13,10.13,0,0,1,.68-.79c1-1.21,1-3,2-4.34a.91.91,0,0,1,.44-.36.78.78,0,0,1,.45.06,1.91,1.91,0,0,1,1.18,1.92c-.05.55-.27,1.29.23,1.53.22.11.5,0,.73.14a1.16,1.16,0,0,1,.51.65c.51,1.16,1.8,6.06,3.5,5.44,1-.34,1.94-3.92,2.44-4.85a26.35,26.35,0,0,0,3,8.11,1.61,1.61,0,0,0,.67.74c.61.28,1.36-.23,2,0,.39.15.62.55.89.88a5.18,5.18,0,0,0,4.12,1.5,28.57,28.57,0,0,1,4.53-.06,30.51,30.51,0,0,1,4.12,1.35A14.23,14.23,0,0,0,217.93,253.75Z" style="fill:#2AB6B3;stroke:#263238;stroke-linecap:round;stroke-linejoin:round"></path></clipPath><clipPath id="freepik--clip-path-3--inject-45"><path d="M413.8,226a7.09,7.09,0,0,1-1.08-3.9,4.1,4.1,0,0,1-1.73,2.78c-1.19-1.89-4.16-1.34-5.2-3.72-.49-1.15-.15-2.37-.24-3.56-.12-1.65-.73-2.36-1.39-3.79a5.11,5.11,0,0,1-.3-2.13v-8.51a4.66,4.66,0,0,1-1.81,2.48q-.8-6.88-1.6-13.78a1.33,1.33,0,0,0-.13-.51.92.92,0,0,0-1.4,0,2.56,2.56,0,0,0-.56,1.5c-.83,5.8-.82,11.9-3.45,17.13a12.15,12.15,0,0,0-1.42,3.35c-.25,1.41.15,2.94-.46,4.23-.45,1-1.39,1.62-1.84,2.58-.84,1.78-.21,4.13-1.4,5.78-1.32,1.84-4.07,2-5.77,3.36-2.32,1.88-2.57,5.26-2.64,8.24,0,.92-3.26-.07-3.59-.23-1.42-.68-2.25-2.11-3.06.51-.27.88-.27,1.82-.52,2.71-.39,1.33-1.34,2.34-1.89,3.58-.64,1.45-.24,1.89-.26,3.2-.05,2.82-1.59,2.53-3.89,3.53-1.23.55-1.49,1.38-2.59,2.09a1.27,1.27,0,0,1-1.52,0c-.64-.59-.19-1.65-.32-2.51a1.8,1.8,0,0,0-3.11-1c-.59.64-.65,1.62-1.19,2.29-1.07,1.32-3.17.76-4.82,1.18s-2.14,1.92-3.46,2.47c-1.16.49-3,.32-4.28.49a23.67,23.67,0,0,0-4.55.91c-.12,0-2.6,1.29-2.3,1.42,2.78,1.21,6.05,1.74,9,2.55a28.52,28.52,0,0,0,8.85,1.44c1.89-.1,3.87-.56,5.62.17.77.32,1.45.86,2.23,1.16a7.55,7.55,0,0,0,2.72.35c5.47,0,11.11-.59,16.28,1.19,1.06.36,2.09.82,3.17,1.14a17.58,17.58,0,0,0,4.45.63c4.12.13,8.32-.61,12.33.35a11.94,11.94,0,0,0,3.76.65,5.75,5.75,0,0,0,4-2.56,19.92,19.92,0,0,0,2.26-4.58c.5-1.36.38-3.07,1.07-4.34s2.2-1.71,3-2.82a6.27,6.27,0,0,0,.87-3.53c.44-9.62,2.42-20-4.13-28.16C415.33,222.85,413.8,225,413.8,226Z" style="fill:#2AB6B3;stroke:#263238;stroke-linecap:round;stroke-linejoin:round"></path></clipPath><clipPath id="freepik--clip-path-4--inject-45"><path d="M108.63,309.38c-1.49,1.08-7.3.46-10.77-12.35,0,0,0-.09,0-.14A4.48,4.48,0,0,1,94.27,295c-1.32-1.93-1.91-5.84-1.91-5.84h0c-.4-.1-5.76-1.5-2.06-5.23,2.79-2.81,6.89.24,6.09,2.6a2.44,2.44,0,0,1-.1.24l.6.28c1.42,1.52,4.47,5,4.74,7.05,0,.09,0,.14,0,.14l0,0c.24.21,2.06,1.81,4.78,4.67C109.33,302,110.13,308.3,108.63,309.38Z" style="fill:#757575;stroke:#263238;stroke-linecap:round;stroke-linejoin:round"></path></clipPath><clipPath id="freepik--clip-path-5--inject-45"><path d="M319.59,312.24a5.46,5.46,0,0,1-1.23-4.11,14.77,14.77,0,0,1,2.48-4.77c-2.16-1.28.08-6.3,4-5.51,5.22,1,.59,5.33.59,5.33s1.3,3.47,1,5.73a5,5,0,0,1-2.28,3.42c2.95,12.29-2,15.93-3.8,15.87s-4-5.53-2.88-9.6S319.59,312.24,319.59,312.24Z" style="fill:#2AB6B3;stroke:#263238;stroke-linecap:round;stroke-linejoin:round"></path></clipPath><clipPath id="freepik--clip-path-6--inject-45"><path d="M416.19,369.33c-10-4.08-22-18.4-13.76-34.87s-2.5-26.11,2.53-37.85,17.41-4.34,21.6,10.17,4.93,21.07,9.27,27.26C446.19,348.82,434.16,376.68,416.19,369.33Z" style="fill:#2AB6B3;stroke:#263238;stroke-linecap:round;stroke-linejoin:round"></path></clipPath><clipPath id="freepik--clip-path-7--inject-45"><path d="M390.73,377.06c-13.71-.27-34.61-11.78-32.39-35.16s-15-29.9-14.4-46.18,18.72-13.17,30.38,2.16,15.55,22.8,23.55,28.17C417,338.87,415.48,377.54,390.73,377.06Z" style="fill:#2AB6B3;stroke:#263238;stroke-linecap:round;stroke-linejoin:round"></path></clipPath><clipPath id="freepik--clip-path-8--inject-45"><path d="M374.87,396.62c-8.19,4.74-24.63,5.41-31.68-9.19s-19.52-12.3-25-22.12,6.34-14.46,18.7-9.57,17.33,7.91,24,8.22C376.74,364.69,389.66,388.07,374.87,396.62Z" style="fill:#2AB6B3;stroke:#263238;stroke-linecap:round;stroke-linejoin:round"></path></clipPath></defs><g id="freepik--Butterflies--inject-45"><path d="M94.09,292.91s-5-10.74-9.3-23c-8.33-24-.64-22.57,4.8-11.14,4.6,9.65,4.8,12,7.41,17.78,2,4.56,6.52,6.53,7.25.86.81-6.2,3.18,2.33,6.4,10.42s14.52-5.58,18.32-.52c3.95,5.26-15.32,6.67-18.08,11.91C106.85,306.9,94.09,292.91,94.09,292.91Z" style="fill:#263238"></path><path d="M93.56,288.35c-2.42-4.23-6-13.5-8.13-20.39s-2.57-12.26-1-11.2,4.78,12.79,5.06,16.39S95.87,292.42,93.56,288.35Z" style="fill:#2AB6B3;opacity:0.5"></path><path d="M96.62,290.53c-1.23.37-2.7-4.53-3.11-6.51s-2.18-6.59-2.08-7.73S99.37,289.71,96.62,290.53Z" style="fill:#2AB6B3;opacity:0.6000000000000001"></path><path d="M92.51,274.17c0,1.78-2-.17-1.93-1.48s-1.77-8.58-2-9.83S92.66,263.93,92.51,274.17Z" style="fill:#2AB6B3;opacity:0.2"></path><path d="M95.32,281.35c-.85-1.87-1.81-3.31-1.5-4s.18-2.81.32-3.53,2.47,3.48,2.43,5.36S95.89,282.59,95.32,281.35Z" style="fill:#2AB6B3;opacity:0.30000000000000004"></path><path d="M100.27,292.86c-1-.29-2-2.73-2.63-5.14s-1.47-4.1-.74-3.74,1.8-.12,1.66-.82.57-1.86,1.68.79S103.82,293.85,100.27,292.86Z" style="fill:#2AB6B3;opacity:0.5"></path><path d="M103.49,294.75c-.37-.11,1-.56.75-2.31s.82-3.62,3.28-1.58,3,4.76,1.9,5.91-1.54,1.2-1.83.86A14.93,14.93,0,0,0,103.49,294.75Z" style="fill:#2AB6B3;opacity:0.6000000000000001"></path><path d="M105.27,283c.4-1.31,1.8-.43,2.91,3.52s-1.3,1.42-2,.27A5.89,5.89,0,0,1,105.27,283Z" style="fill:#2AB6B3;opacity:0.2"></path><path d="M102.15,286.33c-.46-1.68,1.22-.7,1.56-1.33s1.65,1.25,1,2a4,4,0,0,1-1.49,1.18C102.94,288.34,102.56,287.8,102.15,286.33Z" style="fill:#2AB6B3;opacity:0.30000000000000004"></path><path d="M94.09,292.91s-5-10.74-9.3-23c-8.33-24-.64-22.57,4.8-11.14,4.6,9.65,4.8,12,7.41,17.78,2,4.56,6.52,6.53,7.25.86.81-6.2,3.18,2.33,6.4,10.42s14.52-5.58,18.32-.52c3.95,5.26-15.32,6.67-18.08,11.91C106.85,306.9,94.09,292.91,94.09,292.91Z" style="opacity:0.5"></path><path d="M90.05,285.4s-8.2-11-13.14-11.68-2.88,5.84-.24,5.87a1.83,1.83,0,0,0,1.92-2.47" style="fill:none;stroke:#263238;stroke-linecap:round;stroke-linejoin:round"></path><path d="M92.52,283.75c.2-.3-5-14.25-8.26-16.72s-3.53,5.68-1,5.89,1.41-1.42,1.41-1.42" style="fill:none;stroke:#263238;stroke-linecap:round;stroke-linejoin:round"></path><path d="M108.63,309.38c-1.49,1.08-7.3.46-10.77-12.35,0,0,0-.09,0-.14A4.48,4.48,0,0,1,94.27,295c-1.32-1.93-1.91-5.84-1.91-5.84h0c-.4-.1-5.76-1.5-2.06-5.23,2.79-2.81,6.89.24,6.09,2.6a2.44,2.44,0,0,1-.1.24l.6.28c1.42,1.52,4.47,5,4.74,7.05,0,.09,0,.14,0,.14l0,0c.24.21,2.06,1.81,4.78,4.67C109.33,302,110.13,308.3,108.63,309.38Z" style="fill:#757575"></path><g style="clip-path:url(#freepik--clip-path-4--inject-45)"><path d="M101.62,294.28a1.46,1.46,0,0,1-.07.6c-.47,1.29-2.07,1.85-3.69,2.15,0,0,0-.09,0-.14A4.48,4.48,0,0,1,94.27,295c-1.32-1.93-1.91-5.84-1.91-5.84a6.2,6.2,0,0,0,3.76-2.88l.25.25.5.52c1.42,1.52,4.47,5,4.74,7.05A1,1,0,0,1,101.62,294.28Z" style="fill:#2AB6B3;opacity:0.6000000000000001"></path></g><path d="M108.63,309.38c-1.49,1.08-7.3.46-10.77-12.35,0,0,0-.09,0-.14A4.48,4.48,0,0,1,94.27,295c-1.32-1.93-1.91-5.84-1.91-5.84h0c-.4-.1-5.76-1.5-2.06-5.23,2.79-2.81,6.89.24,6.09,2.6a2.44,2.44,0,0,1-.1.24l.6.28c1.42,1.52,4.47,5,4.74,7.05,0,.09,0,.14,0,.14l0,0c.24.21,2.06,1.81,4.78,4.67C109.33,302,110.13,308.3,108.63,309.38Z" style="fill:none;stroke:#263238;stroke-linecap:round;stroke-linejoin:round"></path><path d="M95.36,288.89a153.07,153.07,0,0,1,9.78-25.37c12.28-24.75,21-15.19,17.7-3.55-2.69,9.58-4.43,11.28-6.24,16.92-1.4,4.38,2.44,7.76,7.71,4.09s1.52,2.84-1.11,9.49,15.53.17,15.38,3.9-16.81,1.27-24,4.73C102,305.12,95.36,288.89,95.36,288.89Z" style="fill:#263238"></path><path d="M99.67,284.51c.53-5,4.7-15,8.69-21.89s8.61-10.69,9.8-8.45-5.58,12.69-8.77,15.54S99.18,289.16,99.67,284.51Z" style="fill:#2AB6B3;opacity:0.5"></path><path d="M102.52,287.78c-2.5-.19.39-5.12,1.83-7s3.43-6.58,4.75-7.4S107.67,288.17,102.52,287.78Z" style="fill:#2AB6B3;opacity:0.6000000000000001"></path><path d="M112.78,272.49c-1.76,1.3-2.73-1.45-1.34-2.38s5.71-7.36,6.57-8.37S122.15,265.53,112.78,272.49Z" style="fill:#2AB6B3;opacity:0.2"></path><path d="M109.88,279.58c.58-1.91.59-3.58,1.75-3.94s2.91-2,3.75-2.42.12,3.95-1.64,5.32S109.49,280.85,109.88,279.58Z" style="fill:#2AB6B3;opacity:0.30000000000000004"></path><path d="M105.9,291.14c-1.31-.6-.27-3,1.14-5.32s1.86-4,2.58-3.37,2.66.74,3.13.13,2.43-1.15,1.52,1.35S110.1,293.07,105.9,291.14Z" style="fill:#2AB6B3;opacity:0.5"></path><path d="M108.79,293.72c-.42-.19,1.89-.18,3.17-1.68s4.2-2.58,5.46-.27-.4,4.39-2.6,5.06-3,.64-3.06.3A8.09,8.09,0,0,0,108.79,293.72Z" style="fill:#2AB6B3;opacity:0.6000000000000001"></path><path d="M121.15,285.22c1.45-.77,2.28.36.46,3.53s-2.55.61-2.46-.47A4.52,4.52,0,0,1,121.15,285.22Z" style="fill:#2AB6B3;opacity:0.2"></path><path d="M114.64,286.53c.89-1.47,2.14-.07,3.08-.42s.91,1.52-.43,1.88a11,11,0,0,1-2.85.38C113.9,288.37,113.87,287.81,114.64,286.53Z" style="fill:#2AB6B3;opacity:0.30000000000000004"></path><path d="M320.83,300.61a119.33,119.33,0,0,0-15.35-17.31c-16.44-14.86-17.23.75-10.84,9.59,5.27,7.28,6.88,7.64,10.09,11.76,2.5,3.2,1.81,9.29-2.46,9.62s.33,3.87,4.39,8.35-8.19,11.6-6.62,15.09,9.45-11.14,14.68-13.12C323.82,321.14,320.83,300.61,320.83,300.61Z" style="fill:#263238"></path><path d="M316.79,299.55c-2.27-4.4-8.5-11-13.38-14.75s-8.87-4-8.6-.94,8.05,8.14,10.88,8.54S318.91,303.68,316.79,299.55Z" style="fill:#2AB6B3;opacity:0.5"></path><path d="M316.58,304.8c1.25-2-2.26-4.66-3.77-5.42s-4.46-3.82-5.49-3.64S314,309,316.58,304.8Z" style="fill:#2AB6B3;opacity:0.6000000000000001"></path><path d="M305,297.58c1.46,0,.88-3.4-.24-3.28s-6-2.9-6.84-3.24S297.23,297.76,305,297.58Z" style="fill:#2AB6B3;opacity:0.2"></path><path d="M309.39,302.3c-1.08-1.42-1.75-3-2.52-2.52s-2.33.23-2.95.43,1.51,3.89,3,3.93S310.1,303.25,309.39,302.3Z" style="fill:#2AB6B3;opacity:0.30000000000000004"></path><path d="M316.13,310.54c.45-1.54-1.07-3.13-2.74-4.3s-2.59-2.51-2.72-1.36-1.12,2.68-1.61,2.43-1.76.68-.27,2.43S314.66,315.5,316.13,310.54Z" style="fill:#2AB6B3;opacity:0.5"></path><path d="M315.62,315.16c.15-.5-1.08,1.22-2.35.71s-3.27.6-3,3.75,2,3.95,3.41,3,1.84-1.57,1.75-2A17.84,17.84,0,0,1,315.62,315.16Z" style="fill:#2AB6B3;opacity:0.6000000000000001"></path><path d="M305.65,316.05c-1.08.32-1.07,2,1.16,3.74s1.61-1.28,1.13-2.26S306.34,315.84,305.65,316.05Z" style="fill:#2AB6B3;opacity:0.2"></path><path d="M309.63,312.52c-1.05-.77-1.16,1.5-1.8,1.85s.12,2.15,1,1.5a8.17,8.17,0,0,0,1.67-1.72C310.76,313.75,310.56,313.19,309.63,312.52Z" style="fill:#2AB6B3;opacity:0.30000000000000004"></path><path d="M324.65,300.44a181.09,181.09,0,0,1,12.08-19.14c12.44-16.79,10.77-1.07,5.51,8.55-4.34,7.92-5.4,8.46-8,13-2,3.5-2.43,9.59.22,9.47s-.75,3.95-3.93,8.91,3.55,10.87,2.08,14.56-4.41-10.26-7.44-11.71C319.91,321.53,324.65,300.44,324.65,300.44Z" style="fill:#263238"></path><path d="M327.34,298.94a83.4,83.4,0,0,1,10.49-16.35c3.61-4.31,6.15-5,5.55-1.86s-6.2,9.09-8.05,9.8S325.43,303.34,327.34,298.94Z" style="fill:#2AB6B3;opacity:0.5"></path><path d="M326.74,304.23c-.51-1.9,2.07-5,3.14-5.88s3.34-4.34,4-4.27S327.79,308.17,326.74,304.23Z" style="fill:#2AB6B3;opacity:0.6000000000000001"></path><path d="M335.05,295.7c-.92.12-.08-3.36.61-3.35s4.17-3.57,4.76-4S339.92,295.05,335.05,295.7Z" style="fill:#2AB6B3;opacity:0.2"></path><path d="M331.63,300.94c.88-1.56,1.52-3.24,1.93-2.82s1.44,0,1.81.12-1.5,4.1-2.44,4.29S331.05,302,331.63,300.94Z" style="fill:#2AB6B3;opacity:0.30000000000000004"></path><path d="M326.23,310c-.07-1.51,1.11-3.28,2.33-4.64s2-2.81,1.9-1.66.33,2.58.68,2.28,1,.5-.17,2.43S326.47,314.85,326.23,310Z" style="fill:#2AB6B3;opacity:0.5"></path><path d="M325.91,314.61c0-.49.51,1.12,1.39.47s2,.25,1.38,3.47-1.79,4.2-2.57,3.38-.94-1.4-.83-1.79A29.56,29.56,0,0,0,325.91,314.61Z" style="fill:#2AB6B3;opacity:0.6000000000000001"></path><path d="M332.08,314.45c.63.21.39,1.93-1.26,3.91s-.83-1.13-.39-2.17S331.67,314.31,332.08,314.45Z" style="fill:#2AB6B3;opacity:0.2"></path><path d="M330.05,311.3c.78-.89.53,1.4.88,1.69s-.37,2.18-.82,1.62a5.1,5.1,0,0,1-.81-1.57C329.17,312.67,329.38,312.08,330.05,311.3Z" style="fill:#2AB6B3;opacity:0.30000000000000004"></path><path d="M324.65,300.44a181.09,181.09,0,0,1,12.08-19.14c12.44-16.79,10.77-1.07,5.51,8.55-4.34,7.92-5.4,8.46-8,13-2,3.5-2.43,9.59.22,9.47s-.75,3.95-3.93,8.91,3.55,10.87,2.08,14.56-4.41-10.26-7.44-11.71C319.91,321.53,324.65,300.44,324.65,300.44Z" style="opacity:0.5"></path><path d="M325.73,298.9s2.15-13.31,6.26-16.47,5.29,3.16,3,4.6-2.86-1-2.86-1" style="fill:none;stroke:#263238;stroke-linecap:round;stroke-linejoin:round"></path><path d="M322.77,298.9c-.32-.13-2.19-14.17-.45-17.9s5.79,2.68,3.64,4.21-1.92-.38-1.92-.38" style="fill:none;stroke:#263238;stroke-linecap:round;stroke-linejoin:round"></path><path d="M319.59,312.24a5.46,5.46,0,0,1-1.23-4.11,14.77,14.77,0,0,1,2.48-4.77c-2.16-1.28.08-6.3,4-5.51,5.22,1,.59,5.33.59,5.33s1.3,3.47,1,5.73a5,5,0,0,1-2.28,3.42c2.95,12.29-2,15.93-3.8,15.87s-4-5.53-2.88-9.6S319.59,312.24,319.59,312.24Z" style="fill:#2AB6B3"></path><g style="clip-path:url(#freepik--clip-path-5--inject-45)"><path d="M320.64,303.2a.51.51,0,0,1,.56.33c.07.21.59.27.76.3a7.15,7.15,0,0,0,1,.08c.91,0,1.62-.64,2.5-.77.49-.47,4.26-4.3-.64-5.29C321.06,297.09,318.85,301.72,320.64,303.2Z" style="fill-opacity:0.7000000000000001;opacity:0.30000000000000004"></path><path d="M325.61,311a3.48,3.48,0,0,1-1.71,1.06,10.39,10.39,0,0,1-2.36.18,4.24,4.24,0,0,1-2.12-.29.39.39,0,0,1-.1-.08c.16.23.27.37.27.37s-.92,2.3-2.09,6.36,1,9.53,2.88,9.6,6.75-3.58,3.8-15.87A5.28,5.28,0,0,0,325.61,311Z" style="fill-opacity:0.7000000000000001;opacity:0.30000000000000004"></path></g><path d="M319.59,312.24a5.46,5.46,0,0,1-1.23-4.11,14.77,14.77,0,0,1,2.48-4.77c-2.16-1.28.08-6.3,4-5.51,5.22,1,.59,5.33.59,5.33s1.3,3.47,1,5.73a5,5,0,0,1-2.28,3.42c2.95,12.29-2,15.93-3.8,15.87s-4-5.53-2.88-9.6S319.59,312.24,319.59,312.24Z" style="fill:none;stroke:#263238;stroke-linecap:round;stroke-linejoin:round"></path></g></svg>