<svg xmlns="http://www.w3.org/2000/svg" viewBox="0 0 500 500"><g id="freepik--Ducks--inject-63"><path d="M168.36,379.56a8.87,8.87,0,0,1-1.49,0c-1,0-2.33-.19-4-.41a81,81,0,0,1-13-2.88,79.6,79.6,0,0,1-12.39-5c-1.53-.77-2.74-1.43-3.56-1.93a8.63,8.63,0,0,1-1.25-.8,7.7,7.7,0,0,1,1.34.62c.85.44,2.09,1.05,3.63,1.78A95.4,95.4,0,0,0,150,375.74a96.65,96.65,0,0,0,12.94,3c1.68.27,3,.46,4,.58A7.71,7.71,0,0,1,168.36,379.56Z" style="fill:#263238"></path><path d="M183,388.73a2.8,2.8,0,0,1-.65.09l-1.85.15c-.81.07-1.8.13-2.94.15s-2.46.1-3.91.06-3,0-4.72-.14-3.51-.23-5.42-.4a107.23,107.23,0,0,1-24.25-5.39c-1.8-.66-3.51-1.26-5.08-1.93s-3-1.27-4.34-1.88-2.48-1.19-3.51-1.7-1.9-1-2.6-1.39l-1.62-.92a2.55,2.55,0,0,1-.54-.35,2.6,2.6,0,0,1,.6.26l1.66.84c.71.37,1.59.82,2.63,1.3s2.2,1.07,3.53,1.63,2.77,1.21,4.35,1.81,3.28,1.23,5.08,1.87a120.27,120.27,0,0,0,11.92,3.35c4.3.94,8.44,1.58,12.22,2,1.9.18,3.7.38,5.39.45s3.27.17,4.71.2,2.74,0,3.89,0,2.13,0,2.94-.06l1.85,0A3.1,3.1,0,0,1,183,388.73Z" style="fill:#263238"></path><path d="M222.15,338.4a4.88,4.88,0,0,1,1.11.18c.71.14,1.73.37,3,.74a21.5,21.5,0,0,1,4.24,1.7,12.56,12.56,0,0,1,4.25,3.66,8.44,8.44,0,0,1,1.7,5.34,7.05,7.05,0,0,1-1.8,4.21,5.48,5.48,0,0,1-2.62,1.64,3.08,3.08,0,0,1-.84.12.81.81,0,0,1-.29,0c0-.06.4-.07,1.07-.3a5.68,5.68,0,0,0,2.4-1.69,6.78,6.78,0,0,0,1.6-4,8.13,8.13,0,0,0-1.64-5,12.5,12.5,0,0,0-4.06-3.54,23.29,23.29,0,0,0-4.12-1.77C223.68,338.88,222.13,338.49,222.15,338.4Z" style="fill:#263238"></path><path d="M245.25,367.25a2.67,2.67,0,0,1,.41-.42l1.22-1.14c1.06-1,2.62-2.39,4.35-4.3a24.35,24.35,0,0,0,4.85-7.53,16.08,16.08,0,0,0,1.07-5.16,12,12,0,0,0-1.1-5.48,18.55,18.55,0,0,0-7.56-7.75,54.75,54.75,0,0,0-8.25-3.72c-2.41-.93-4.36-1.72-5.67-2.34q-1-.46-1.5-.75a2.25,2.25,0,0,1-.49-.31,3.79,3.79,0,0,1,.54.21l1.53.66c1.33.57,3.29,1.3,5.72,2.18a52.05,52.05,0,0,1,8.36,3.66,18.72,18.72,0,0,1,7.79,7.94,12.42,12.42,0,0,1,1.14,5.72,16.32,16.32,0,0,1-1.14,5.31,23.86,23.86,0,0,1-5,7.61,53.8,53.8,0,0,1-4.49,4.2l-1.28,1.07A3.16,3.16,0,0,1,245.25,367.25Z" style="fill:#263238"></path><g style="opacity:0.1"><path d="M215.08,347.6l-88,.82a30.44,30.44,0,0,0,4.16,7.67c.29.39.59.77.91,1.15,5.26,4.72,11.83,3.9,13.37,11.25a13.61,13.61,0,0,0,1.13.82c9.09,5.9,22.51,3.35,33.05,3.51l1.39-.09,2.76-.24a14.88,14.88,0,0,1,5.41.13,6,6,0,0,1,1.67.77c.25.17.49.36.73.56a2.83,2.83,0,0,1,.8.33c1.61,2.46,6.53,1.64,6.53,4.93,0,2.87-5.65,3.23-6,6.3a2.44,2.44,0,0,0,.37,1.48c4.78,3.71,12.17.43,14.2,8.34a10,10,0,0,0,1.34,0,8.75,8.75,0,0,0,1.34-.16c4.32-2,8.43-4.5,7.61-8.6,0-2.47-5.75,0-6.63-4.24a5.66,5.66,0,0,0,.49-1.12,3.58,3.58,0,0,0-2.07-4.5c-.82-.82.82-2.46,1.87-3.18.33-.21.67-.41,1-.61a34.87,34.87,0,0,0,3-1.87c.37-.27.73-.56,1.07-.86,3.68-3.33-2.07-4.15-1.24-6.62s5.74-1.64,5.89-5.75a4.77,4.77,0,0,0-.15-1.36A14.55,14.55,0,0,0,215.08,347.6Z"></path></g><path d="M217.3,311.88s-.83-10.47-8.82-11.57c0,0-12.4-3.86-17.09,5.78s3,19,3,19l1.93,6.34,18.74,4.41L206,320.7s5.23-.28,7.16-1.38S217.3,311.88,217.3,311.88Z" style="fill:#455a64"></path><path d="M214.76,309.24s-1.58.48-1.21,2.79,1.46,4-.06,4.85S210,319.1,210,319.1s7.64,1.17,11.52,1.53,9.33-.36,10.06-1.09,1.45-.89,1-1.84-1.09-1.55-5.09-1.19-10.15-5.41-10.67-7.27C216.59,308.42,214.76,309.24,214.76,309.24Z" style="fill:#2AB6B3"></path><path d="M205.2,308a1.3,1.3,0,0,0-1.85.62,3.23,3.23,0,0,0,0,2.21,3.07,3.07,0,0,0,.59,1.28,1.26,1.26,0,0,0,1.28.44c.66-.22.86-1.05.95-1.74a3.94,3.94,0,0,0,0-1.71c-.18-.55-.86-1.34-1.44-1.3" style="fill:#263238"></path><path d="M117.39,339.44c10.19,11,22.9,18.1,37.68,20.43s30,.53,44.4-3.55c5.08-1.44,10.32-3.32,13.83-7.26s4.57-10.55.95-14.4c0,0-14.79-9.15-25.38-11.59-17.83-4.09-56.23-.36-60.14,2.46l2,1.87L113,334.6Z" style="fill:#2AB6B3"></path><path d="M194.29,333.94l-.32-.17-.93-.55c-.83-.47-2-1.16-3.66-2a48.6,48.6,0,0,0-6-2.59,31,31,0,0,0-4-1.12,23,23,0,0,0-4.58-.44c-6.51,0-14.29.57-22.94,1.45-4.32.46-8.88,1-13.54,1.88a20.8,20.8,0,0,0-6.74,2.41,14.52,14.52,0,0,0-5.28,5l-.24-.37H135l-2.1.51-.31.08-6.14,1.49.14-.42a43,43,0,0,0,11.65,9.08A55.26,55.26,0,0,0,151,353.18a76.69,76.69,0,0,0,12.24,2,85.17,85.17,0,0,0,10.77.29,40.13,40.13,0,0,0,8.74-1.29,27.74,27.74,0,0,0,6.15-2.49,21.87,21.87,0,0,0,3.46-2.36c.37-.3.65-.54.83-.71a2.5,2.5,0,0,1,.29-.24,11.59,11.59,0,0,1-1.05,1,21.48,21.48,0,0,1-3.43,2.45,27,27,0,0,1-6.18,2.58,39.14,39.14,0,0,1-8.79,1.38,85.2,85.2,0,0,1-10.82-.22,76.76,76.76,0,0,1-12.33-2,55.14,55.14,0,0,1-12.94-5,43.56,43.56,0,0,1-11.8-9.18l-.29-.32.42-.1,6.13-1.5.31-.08.06.52H125.6l.22-.38a15.12,15.12,0,0,1,5.49-5.24,21.88,21.88,0,0,1,6.9-2.46c4.7-.89,9.26-1.39,13.59-1.84,8.67-.85,16.46-1.38,23-1.34a23.69,23.69,0,0,1,4.65.48,32.41,32.41,0,0,1,4,1.16,48.29,48.29,0,0,1,6.05,2.69c1.6.84,2.81,1.56,3.62,2.06.4.25.7.45.9.59A2.4,2.4,0,0,1,194.29,333.94Z" style="fill:#263238"></path><path d="M173.34,342a8.35,8.35,0,0,1-2,1.28,25.49,25.49,0,0,1-5.35,2,24.9,24.9,0,0,1-5.67.79A8.15,8.15,0,0,1,158,346a53.26,53.26,0,0,0,7.91-1.15A53.85,53.85,0,0,0,173.34,342Z" style="fill:#263238"></path><path d="M180.77,342.4a7.69,7.69,0,0,1-2,1.63,17.5,17.5,0,0,1-11.8,2.75,7.72,7.72,0,0,1-2.47-.6c0-.09,1,.12,2.51.24a20.7,20.7,0,0,0,6-.47,20.29,20.29,0,0,0,5.57-2.23C180,342.94,180.71,342.33,180.77,342.4Z" style="fill:#263238"></path><path d="M185.62,343.08a5.32,5.32,0,0,1-1.47,1.36,14.35,14.35,0,0,1-4.34,2.14,14.55,14.55,0,0,1-4.8.58,5.26,5.26,0,0,1-2-.35,24.06,24.06,0,0,0,6.62-.73A23.93,23.93,0,0,0,185.62,343.08Z" style="fill:#263238"></path><g style="opacity:0.2"><path d="M126.78,339.84a15.61,15.61,0,0,0,6.24,8,67.7,67.7,0,0,0,8.8,5.12,52.62,52.62,0,0,0,22.73,5.24c7.83.15,16.73-.46,23.86-3.7,4.08-1.85,6-5.48,8-9.68,0,0-6.35,13.38-33.74,10.56S126.78,339.84,126.78,339.84Z"></path></g><g style="opacity:0.2"><path d="M152.68,346.31c2.08-.7,4.41-1.56,6.49-2.26a2.79,2.79,0,0,0-1.19.69.74.74,0,0,0,0,1.1c.26.23.62.15,1,.13a33.56,33.56,0,0,0,6.41-.62c-.3-.09-.53.36-.38.63a1.16,1.16,0,0,0,.79.45,15.37,15.37,0,0,0,8.5-.41l-.45.7c3.48.92,7-.92,10.31-2.22a8.28,8.28,0,0,1-3.15,3.95,16.34,16.34,0,0,1-4.59,1.54,5.72,5.72,0,0,1-3.92-.18,5.22,5.22,0,0,0-1.37-.74c-.82-.18-1.59.38-2.34.76a6.33,6.33,0,0,1-6.27-.33,5.57,5.57,0,0,0-1.24-.74,4,4,0,0,0-2.52.29,7.24,7.24,0,0,1-4.14.48c-1.36-.39-2.47-1.93-1.89-3.22"></path></g><path d="M182.14,325.09a1.4,1.4,0,0,1-.47,0l-1.36-.12c-1.17-.11-2.87-.26-5-.41A142.13,142.13,0,0,0,142.55,326c-2.08.33-3.76.62-4.92.84l-1.33.23a1.57,1.57,0,0,1-.48.05,1.53,1.53,0,0,1,.45-.15l1.32-.33c1.15-.28,2.82-.63,4.9-1a123.51,123.51,0,0,1,32.88-1.44c2.1.2,3.8.4,5,.58l1.34.21A2.14,2.14,0,0,1,182.14,325.09Z" style="fill:#fff"></path><path d="M170.53,352.75a8.24,8.24,0,0,1-1.54.18c-1,.09-2.43.13-4.21.11a57,57,0,0,1-6.25-.46,62.14,62.14,0,0,1-7.51-1.49,64,64,0,0,1-7.26-2.48,57.5,57.5,0,0,1-5.63-2.74c-1.55-.88-2.77-1.64-3.59-2.21a9.38,9.38,0,0,1-1.24-.93,8.9,8.9,0,0,1,1.35.75c.85.53,2.09,1.24,3.66,2.06a61.6,61.6,0,0,0,5.63,2.62,67.5,67.5,0,0,0,7.21,2.43,70.51,70.51,0,0,0,7.45,1.52c2.32.31,4.42.5,6.19.56s3.2.08,4.19.05A10.56,10.56,0,0,1,170.53,352.75Z" style="fill:#fff"></path><path d="M177.46,352.16c0,.13-.63.52-1.57.68s-1.72,0-1.71-.11.74-.24,1.62-.4S177.41,352,177.46,352.16Z" style="fill:#fff"></path><path d="M162.92,344.5c0,.14-.34.32-.82.4s-.87,0-.9-.12.34-.32.82-.4S162.89,344.36,162.92,344.5Z" style="fill:#fff"></path><path d="M172,344.6c.05.14-.36.41-.91.6s-1,.25-1.09.12.36-.41.91-.61S172,344.47,172,344.6Z" style="fill:#fff"></path><path d="M179.31,345.46c.07.12-.16.39-.51.58s-.7.26-.77.13.16-.39.52-.58S179.24,345.33,179.31,345.46Z" style="fill:#fff"></path><path d="M206,320.7l-3.17,7.52c5.45,3.55,6.41,7.45,7,11.86a25.7,25.7,0,0,1-1.81,13.1c4.37-2.25,8.7-7,9.24-11.86C218.09,334,209,324.64,206,320.7Z" style="fill:#455a64"></path><path d="M232.59,318.61a2,2,0,0,1-.63.43,7.8,7.8,0,0,1-1.94.71,17.43,17.43,0,0,1-6.75-.14,33.57,33.57,0,0,1-6.5-1.81,11,11,0,0,1-2.51-1.21,20.18,20.18,0,0,1,2.64.87,44.38,44.38,0,0,0,6.46,1.64,19.49,19.49,0,0,0,6.59.28A20.4,20.4,0,0,0,232.59,318.61Z" style="fill:#263238"></path><path d="M210.66,344.23c-.09,0,0-1-.11-2.6a17.91,17.91,0,0,0-5-11.09c-1.11-1.14-1.92-1.73-1.87-1.8s.24.09.62.34a10.88,10.88,0,0,1,1.51,1.2,16.14,16.14,0,0,1,5.09,11.34,12.27,12.27,0,0,1-.1,1.92A2.09,2.09,0,0,1,210.66,344.23Z" style="fill:#263238"></path><path d="M197.58,321.25c-.09.11-1-.5-1.76-1.57a3.81,3.81,0,0,1-1-2.16c.13-.06.64.84,1.38,1.85S197.68,321.14,197.58,321.25Z" style="fill:#263238"></path><path d="M199.18,322c-.11.1-.72-.46-1.36-1.24s-1.07-1.49-1-1.58.72.47,1.36,1.25S199.29,321.88,199.18,322Z" style="fill:#263238"></path><path d="M201.41,322.77c-.07.11-.9-.32-1.65-1.16s-1.1-1.7-1-1.77.64.64,1.36,1.42S201.5,322.64,201.41,322.77Z" style="fill:#263238"></path><path d="M200,302.14a15.31,15.31,0,0,1-1.61.53,9.45,9.45,0,0,0-3.36,2.18,9.3,9.3,0,0,0-2.15,3.37,15.31,15.31,0,0,1-.53,1.61,3.72,3.72,0,0,1,.17-1.73,8.54,8.54,0,0,1,5.75-5.78A3.66,3.66,0,0,1,200,302.14Z" style="fill:#fff"></path><path d="M217.86,314.49c-.09.11-.62-.16-1.18-.61s-.94-.9-.85-1,.62.16,1.18.6S218,314.38,217.86,314.49Z" style="fill:#fff"></path><path d="M325.62,276.23a6.49,6.49,0,0,1-1,.91,35,35,0,0,1-2.93,2.21,50,50,0,0,1-22.55,8.39c-1.54.17-2.79.25-3.66.26a6.18,6.18,0,0,1-1.35,0,6.88,6.88,0,0,1,1.34-.17c.86-.06,2.1-.2,3.63-.41A55.34,55.34,0,0,0,321.48,279c1.3-.83,2.33-1.54,3-2.06A7.55,7.55,0,0,1,325.62,276.23Z" style="fill:#263238"></path><path d="M338.58,275.65a2.46,2.46,0,0,1-.39.47l-1.2,1.29c-.51.57-1.16,1.24-2,2s-1.67,1.62-2.72,2.49-2.17,1.88-3.46,2.84-2.67,2-4.15,3a88.19,88.19,0,0,1-10.18,5.9A90.74,90.74,0,0,1,303.59,298c-1.73.51-3.38,1-4.95,1.39s-3,.71-4.37,1-2.56.44-3.64.6-2,.27-2.76.33l-1.76.14a2.18,2.18,0,0,1-.61,0,4.09,4.09,0,0,1,.6-.11l1.74-.25c.76-.09,1.68-.21,2.75-.41s2.29-.36,3.61-.67,2.79-.59,4.34-1,3.18-.9,4.9-1.43a85.06,85.06,0,0,0,21-10.21c1.47-1,2.9-2,4.15-3s2.44-1.9,3.48-2.78,1.95-1.71,2.76-2.43,1.48-1.36,2-1.9l1.27-1.22A2.68,2.68,0,0,1,338.58,275.65Z" style="fill:#263238"></path><path d="M222.29,268.45a7.64,7.64,0,0,1,.16-2.47,17.52,17.52,0,0,1,5.91-10.2,7.23,7.23,0,0,1,2.07-1.36,25,25,0,0,0-5.46,6.21A25.6,25.6,0,0,0,222.29,268.45Z" style="fill:#263238"></path><path d="M210.45,270.61a5.76,5.76,0,0,1,.24-1.2,10.05,10.05,0,0,1,.39-1.38c.18-.53.35-1.15.64-1.8a30.19,30.19,0,0,1,2.19-4.46,34.94,34.94,0,0,1,3.6-4.9,35.85,35.85,0,0,1,4.46-4.13,30.68,30.68,0,0,1,4.19-2.67,19,19,0,0,1,1.71-.84,13.84,13.84,0,0,1,1.33-.54,5.13,5.13,0,0,1,1.17-.37c0,.09-1.61.69-4,2.07a34.39,34.39,0,0,0-4.06,2.73,36.59,36.59,0,0,0-4.37,4.1,37.27,37.27,0,0,0-3.58,4.8,33.4,33.4,0,0,0-2.26,4.35C211,268.94,210.55,270.64,210.45,270.61Z" style="fill:#263238"></path><g style="opacity:0.1"><path d="M244.72,254.88c-.65.48-1.54,1.15-2.57,2l-1.11.85c-4,3.28-15.47,2.45-10.22,9.67a2.9,2.9,0,0,1-.48,1.08,9.74,9.74,0,0,0-.59,1.08c-.9,3.76,4,3.76,5.67,6.23.82,3.28-7.39,1.64-4.12,6.32a8.49,8.49,0,0,0,.88.67,11.12,11.12,0,0,0,1,.59c.4.22.83.42,1.26.61,2.61,1.66,3.43,1.66,4.25,4.94.82,4.11,10.68-.82,11.29,6a4.11,4.11,0,0,1-.9.62c-3,1.6-8.68,1.08-11,4.52a5.87,5.87,0,0,0-.73,1.23,5.11,5.11,0,0,0-.38,1.43,6.42,6.42,0,0,0,.62,1.19,6.81,6.81,0,0,0,4.49,3c3.61.57,7.12-1.29,10.22-3.23a29.53,29.53,0,0,0,4-2.9c.31-.28.61-.56.9-.86,2.52-2.53,5.68-2.88,7.92-4.56a5.68,5.68,0,0,0,.9-.81c.52-.7,1.34-1.52.52-2.34-3.28-3.29-14.78-3.29-10.67-7.39,4.92-4.11,13.13-.82,20.91-2.09.28,0,.56,0,.92-.08l1.48-.06,1.48-.08c2.19-.37,4.64-.6,7.18-.82l1.54-.14c7.54-1.66,23.14.8,22.8-9.21a7.24,7.24,0,0,1,.51-1.37l.59-.51c.76-.66,1.5-1.34,2.24-2l1.08-1.05c0-6.37,5.78-8,9.62-12.41.23-.39.44-.77.64-1.15a23.25,23.25,0,0,0,1.33-3.3Z"></path></g><path d="M237.09,224.81s.32-9.87,7.78-11.25c0,0,11.47-4.16,16.29,4.69s-2,18-2,18l-1.53,6-17.41,4.95,7.89-14.62s-4.93,0-6.79-1S237.09,224.81,237.09,224.81Z" style="fill:#455a64"></path><path d="M239.35,222.22s1.51.38,1.26,2.56-1.2,3.82.26,4.55,3.35,1.94,3.35,1.94-7.12,1.43-10.74,1.94-8.78.06-9.5-.59-1.4-.78-1-1.69,1-1.5,4.73-1.34,9.3-5.52,9.7-7.29C237.6,221.53,239.35,222.22,239.35,222.22Z" style="fill:#2AB6B3"></path><path d="M248.27,220.65a1.24,1.24,0,0,1,1.77.51,3.06,3.06,0,0,1,.08,2.07,3,3,0,0,1-.5,1.24,1.18,1.18,0,0,1-1.18.46c-.64-.18-.85-1-1-1.6a3.76,3.76,0,0,1,0-1.6c.14-.53.75-1.3,1.3-1.28" style="fill:#263238"></path><path d="M332.07,246.35a60.49,60.49,0,0,1-34.49,20.81c-13.77,2.82-28.14,1.8-41.83-1.41-4.84-1.13-9.84-2.66-13.31-6.22s-4.73-9.7-1.51-13.47c0,0,13.49-9.23,23.33-12,16.56-4.61,52.77-2.77,56.56-.29L319,235.63l17,6Z" style="fill:#2AB6B3"></path><path d="M259.64,244.52l.27-.22.82-.59c.74-.5,1.84-1.23,3.31-2.09a46,46,0,0,1,5.56-2.79,31.16,31.16,0,0,1,3.69-1.27,22.54,22.54,0,0,1,4.34-.65c6.14-.32,13.47-.16,21.65.26,4.08.24,8.38.51,12.84,1.15a20.2,20.2,0,0,1,6.58,2,14.15,14.15,0,0,1,5.39,4.68l.24.37-.45,0-6.35.29,0-.51.29.06,5.82,1.13.43.09-.27.33a41.16,41.16,0,0,1-10.69,9.14,52.27,52.27,0,0,1-11.94,5.21,71.11,71.11,0,0,1-11.49,2.38,79.52,79.52,0,0,1-10.15.68,36.8,36.8,0,0,1-8.32-.92,25.16,25.16,0,0,1-5.9-2.16A19.44,19.44,0,0,1,262,259a8.75,8.75,0,0,1-1-.92s.37.31,1.09.84a22,22,0,0,0,3.35,2.07,26,26,0,0,0,5.89,2.06,37.05,37.05,0,0,0,8.25.83,81.21,81.21,0,0,0,10.1-.73,71.26,71.26,0,0,0,11.4-2.42,51.61,51.61,0,0,0,11.82-5.19,40.7,40.7,0,0,0,10.54-9l.15.41-5.82-1.13-.29-.06-2.13-.42,2.17-.1,6.34-.29-.21.39a13.72,13.72,0,0,0-5.17-4.49,20,20,0,0,0-6.43-2c-4.41-.63-8.71-.93-12.79-1.17-8.16-.45-15.49-.65-21.6-.38a22.75,22.75,0,0,0-4.28.61,31.56,31.56,0,0,0-3.67,1.22,47,47,0,0,0-5.56,2.7c-1.49.83-2.6,1.53-3.35,2l-.85.55A1.37,1.37,0,0,1,259.64,244.52Z" style="fill:#263238"></path><path d="M279.65,251.18a54.26,54.26,0,0,0,7.15,2.3,53.85,53.85,0,0,0,7.48.75,7.34,7.34,0,0,1-2.22.26,23.91,23.91,0,0,1-10.48-2.19A7.48,7.48,0,0,1,279.65,251.18Z" style="fill:#263238"></path><path d="M272.7,251.87c.05-.07.79.47,2.08,1.14a19.19,19.19,0,0,0,5.33,1.85,18.93,18.93,0,0,0,5.63.18c1.45-.17,2.33-.4,2.35-.32a7,7,0,0,1-2.29.69,16.51,16.51,0,0,1-11.2-2.07A6.8,6.8,0,0,1,272.7,251.87Z" style="fill:#263238"></path><path d="M268.17,252.72a18.07,18.07,0,0,0,12,3,5,5,0,0,1-1.84.41,13.29,13.29,0,0,1-4.53-.33A13.57,13.57,0,0,1,269.6,254,4.81,4.81,0,0,1,268.17,252.72Z" style="fill:#263238"></path><g style="opacity:0.2"><path d="M323.28,247.14a14.66,14.66,0,0,1-5.52,7.74,63.36,63.36,0,0,1-8,5.19,49.46,49.46,0,0,1-21.11,5.9c-7.35.48-15.73.29-22.56-2.44-3.91-1.56-5.87-4.88-7.91-8.74,0,0,6.55,12.28,32.14,8.45S323.28,247.14,323.28,247.14Z"></path></g><g style="opacity:0.2"><path d="M299.24,254.34c-2-.57-4.21-1.28-6.2-1.85a2.68,2.68,0,0,1,1.16.6.69.69,0,0,1,.07,1c-.23.24-.58.17-.91.18a33,33,0,0,1-6.05-.31c.28-.1.51.31.38.57a1.05,1.05,0,0,1-.72.46,14.56,14.56,0,0,1-8,0l.45.63c-3.23,1-6.58-.56-9.78-1.64a7.78,7.78,0,0,0,3.14,3.58,15.24,15.24,0,0,0,4.36,1.24,5.38,5.38,0,0,0,3.68-.34,5.1,5.1,0,0,1,1.26-.76,3.48,3.48,0,0,1,2.22.62,6,6,0,0,0,5.88-.58,4.83,4.83,0,0,1,1.12-.74,3.79,3.79,0,0,1,2.39.15,6.62,6.62,0,0,0,3.9.27c1.26-.42,2.24-1.91,1.64-3.09"></path></g><path d="M270.66,235.69a10.37,10.37,0,0,1,1.68-.39c1.09-.22,2.67-.48,4.64-.76a115,115,0,0,1,30.93-.07c2,.27,3.55.52,4.64.74a9.88,9.88,0,0,1,1.68.38,11.82,11.82,0,0,1-1.71-.18c-1.1-.16-2.69-.36-4.65-.58a134.11,134.11,0,0,0-30.85.08c-2,.22-3.55.43-4.65.59A11,11,0,0,1,270.66,235.69Z" style="fill:#fff"></path><path d="M282.76,261.15a7.36,7.36,0,0,1,1.45-.1c.93,0,2.28-.09,3.94-.24s3.62-.4,5.78-.79a65.64,65.64,0,0,0,6.92-1.75,66.77,66.77,0,0,0,6.66-2.59c2-.93,3.75-1.85,5.18-2.7s2.58-1.56,3.35-2.09a9.54,9.54,0,0,1,1.23-.76,7.11,7.11,0,0,1-1.12.93,38.28,38.28,0,0,1-3.27,2.24,54.29,54.29,0,0,1-5.16,2.81,54,54,0,0,1-13.7,4.38,52.77,52.77,0,0,1-5.85.69c-1.67.1-3,.12-4,.08A7.75,7.75,0,0,1,282.76,261.15Z" style="fill:#fff"></path><path d="M276.23,260.9c0-.14.73,0,1.57.07s1.52.18,1.53.32-.71.31-1.6.2S276.18,261,276.23,260.9Z" style="fill:#fff"></path><path d="M289.55,253.07c0-.14.39-.21.84-.16s.8.22.78.36-.39.21-.84.16S289.53,253.22,289.55,253.07Z" style="fill:#fff"></path><path d="M281,253.57c0-.14.5-.12,1,0s.92.4.88.54-.51.12-1,0S281,253.7,281,253.57Z" style="fill:#fff"></path><path d="M274.2,254.68c.06-.12.39-.09.73.08s.57.41.5.54-.39.09-.73-.08S274.13,254.81,274.2,254.68Z" style="fill:#fff"></path><path d="M248.08,232.6l3.29,6.92c-5,3.57-5.69,7.27-6.09,11.44a24.1,24.1,0,0,0,2.27,12.21c-4.2-1.92-8.48-6.17-9.19-10.73C237.3,245.63,245.42,236.43,248.08,232.6Z" style="fill:#455a64"></path><path d="M223,231.78a16.43,16.43,0,0,0,2.5.6,18.31,18.31,0,0,0,6.17-.55,42.43,42.43,0,0,0,6-1.82,19.94,19.94,0,0,1,2.44-.92,9.51,9.51,0,0,1-2.3,1.26,31.78,31.78,0,0,1-6,2,16.46,16.46,0,0,1-6.34.41,7.37,7.37,0,0,1-1.85-.58C223.21,232,223,231.81,223,231.78Z" style="fill:#263238"></path><path d="M244.72,254.88a6.84,6.84,0,0,1-.37-2.44,15,15,0,0,1,1.05-5.86,15.22,15.22,0,0,1,3.24-5,7.23,7.23,0,0,1,1.94-1.53c0,.07-.68.66-1.67,1.78a16.91,16.91,0,0,0-4.19,10.63C244.67,253.94,244.81,254.87,244.72,254.88Z" style="fill:#263238"></path><path d="M256,232.75c-.1-.11.52-.85,1.16-1.83s1.1-1.84,1.24-1.79a3.45,3.45,0,0,1-.8,2.07C256.91,232.24,256.1,232.85,256,232.75Z" style="fill:#263238"></path><path d="M254.54,233.5c-.12-.09.25-.78.81-1.54s1.12-1.3,1.24-1.22-.25.78-.82,1.54S254.65,233.58,254.54,233.5Z" style="fill:#263238"></path><path d="M252.47,234.34c-.09-.12.48-.71,1.11-1.48s1.1-1.45,1.23-1.38-.15.89-.83,1.71S252.55,234.45,252.47,234.34Z" style="fill:#263238"></path><path d="M252.86,214.91a3.35,3.35,0,0,1,1.64.09,7.91,7.91,0,0,1,3.49,1.87,7.77,7.77,0,0,1,2.16,3.32,3.11,3.11,0,0,1,.23,1.62,13.2,13.2,0,0,1-.57-1.5,9,9,0,0,0-2.17-3.06,8.82,8.82,0,0,0-3.24-1.89A12.26,12.26,0,0,1,252.86,214.91Z" style="fill:#fff"></path><path d="M236.67,227.28c-.09-.11.24-.56.75-1s1-.72,1.08-.61-.23.55-.74,1S236.77,227.38,236.67,227.28Z" style="fill:#fff"></path></g></svg>