<svg xmlns="http://www.w3.org/2000/svg" xmlns:xlink="http://www.w3.org/1999/xlink" viewBox="0 0 500 500"><defs><clipPath id="freepik--clip-path--inject-45"><path d="M382.53,250.2c-.89,3.11-2.27,6-3.23,9.12-29.33-1.78-63.81-3.56-97.8-4.62a30.3,30.3,0,0,0,6.34-4.16c1.42-1.21,2.56-3.11,4.46-3.52,1.05-.23,1.48,1.86,2.53,1.65a1.42,1.42,0,0,0,.79-.68l2.85-4.2a1.08,1.08,0,0,1,.61-.53c.24-.06.51.06.75,0,.53-.15.45-.91.5-1.47a1.92,1.92,0,0,1,1.51-1.67.77.77,0,0,1,.45,0,.82.82,0,0,1,.37.43c.68,1.45.34,3.24,1.14,4.63a8.08,8.08,0,0,1,.52.9c.4,1-.24,4.59,1.06,2.26.89-1.61,1.24-3.59,2.15-5.24a19.41,19.41,0,0,0,.92-2.47,11.53,11.53,0,0,1,1.48-1.69l.18,2.2a1.24,1.24,0,0,0,.17.63c.3.44,1,.36,1.42.68a1.93,1.93,0,0,1,.52,1.37c.07.5.24,1.08.72,1.24.11,0,.24,0,.3.15a.33.33,0,0,1,.05.22,6.93,6.93,0,0,0,.07,1.29c.76-.28,1.72-2.66,2.11-3.52l1.89-4.17a14.85,14.85,0,0,0,1.53-3.78,12.13,12.13,0,0,1,.68-3.45c.13-.28.41-.63.68-.47s.19.34.18.55a13.85,13.85,0,0,0,.31,4.26c.17.62.42,1.21.62,1.82a22.14,22.14,0,0,1,.73,7.17c0,1.68.75,2.81,1.84,1.09a28.66,28.66,0,0,0,1.48-3.73,8.63,8.63,0,0,0,1-3.47,7,7,0,0,1,0-1.65,4.29,4.29,0,0,1,.6-1.26,15,15,0,0,0,2.05-6.69,5.63,5.63,0,0,1,.52-2.63c.23-.37.55-.66.79-1,.7-1.1.35-3.06.74-4.4s.81-2.75,2.09-3.39a.72.72,0,0,1,.51-.1c.26.08.36.37.43.63,1,4.26-.26,8.9,1.23,13,.54,1.48,1.42,3.06.82,4.5a7.56,7.56,0,0,0-.69,1.47c-.25,1.31,1.19,2.23,2.06,3.24a5.78,5.78,0,0,1,1.14,2.25c.11.38.15,2.28.42,2.45,1.2.75,1.35-3.5,1.31-4.14a1.52,1.52,0,0,1,.05-.6,1.75,1.75,0,0,1,.33-.44,5.83,5.83,0,0,0,1.36-2.28c.25-.78.34-1.61.56-2.4a3.58,3.58,0,0,1,1.28-2.06.52.52,0,0,1,.27-.1c.17,0,.28.19.35.35a5.1,5.1,0,0,1,.4,1.68,2.19,2.19,0,0,0,.17.85c.83,1.39,2.07-.09,2.38-.95a4.3,4.3,0,0,0,.15-1.52c0-1.1-.05-2.2-.07-3.31a1.84,1.84,0,0,1,.17-1,3.71,3.71,0,0,1,.69-.68,3.07,3.07,0,0,0,.58-1.12c.68-1.88,1.3-5.66,2.71-7a7.51,7.51,0,0,1,.68,1.46,3.1,3.1,0,0,1,.31,1.3,3.49,3.49,0,0,1-.28,1,4.85,4.85,0,0,0-.33,2.06c.11,1,.7,1.94.86,3,.11.74,0,1.5.05,2.24a42.58,42.58,0,0,0,1.21,6.23c.2.82.62,4.07,1.57,4.42,1.2.27,1.9-2.44,1.85-3.25a2,2,0,0,1,.18-1.4c.29-.36.82-.41,1.17-.71.54-.47.44-1.32.52-2,.12-1,1.44-1.45,2-2.2a20.16,20.16,0,0,0,2-4.28c.93-2.22,2.86-6,2.66-8.4a18.86,18.86,0,0,0,2.62,8.15q1.29-4.9,2.41-9.84c.46-2,.51-5.22,2.4-6.48-.37,2.77,1.7,4.88,1.8,7.56.07,1.86-1,3.72-.52,5.51.35,1.23,1.43,2.18,1.7,3.44s-.26,2.47.17,3.59a2.69,2.69,0,0,0,.28.53,8.72,8.72,0,0,0,1.17,1.27,12.5,12.5,0,0,1,3.52,6.95C382.4,244.54,383.61,246.36,382.53,250.2Z" style="fill:#2AB6B3;stroke:#263238;stroke-linecap:round;stroke-linejoin:round"></path></clipPath><clipPath id="freepik--clip-path-2--inject-45"><path d="M217.93,253.75c-45.48.11-87.15,1.37-118.3,2.65l-1.45,0c-3.37-.1-6.75-.12-10.13-.11s-4.6.34-5.34-3.19c-.49-2.33,1.61-4.33,2.38-6.58.93-2.72-.09-5.86,1.06-8.49.39-.91,1-1.7,1.41-2.62.67-1.59.53-3.39.75-5.1.31-2.43,1.35-4.7,2-7,1.24-4.17,1.38-8.58,1.94-12.89.49-3.78,1.3-7.51,2.11-11.24q1.27-5.87,2.56-11.74c1.18,4.2,2.83,8,3.87,12.29.13.56,2.08,8.12,2.54,8.12-1.1.63-1.29,2.24-.82,3.43s3.53,7.82,4.64,8.27c2.73,1.11,4.58-2.29,6.61-3.68a9,9,0,0,0,1.39-1,2.71,2.71,0,0,0,.36-.46c.64-1,.37-2.39.83-3.51s1.73-1.92,2.3-3.07c.83-1.66.08-3.69.49-5.51.58-2.62,3-4.31,3.15-7.1,1.63,1.58,1.1,4.71,1.18,6.8q.19,5.07.57,10.12a19,19,0,0,0,4.07-7.54c-.64,2.37.57,6.4,1.07,8.75a20.38,20.38,0,0,0,1.2,4.57c.42.84,1.64,1.5,1.57,2.53,0,.72-.31,1.53.14,2.09.29.36.8.51,1,.91a2,2,0,0,1-.07,1.41c-.19.79,0,3.58,1.23,3.53,1-.16,2-3.29,2.35-4.05a42.48,42.48,0,0,0,2.32-5.9c.2-.73.22-1.49.46-2.2.34-1,1.09-1.76,1.38-2.75a4.61,4.61,0,0,0,0-2.09,3.92,3.92,0,0,1-.09-1,3.17,3.17,0,0,1,.55-1.23,6.88,6.88,0,0,1,.93-1.31c1.14,1.59,1.06,5.41,1.38,7.39a3.24,3.24,0,0,0,.37,1.2,5.25,5.25,0,0,1,.56.8,1.9,1.9,0,0,1,0,1c-.23,1.08-.45,2.16-.67,3.24a4.12,4.12,0,0,0-.13,1.52c.14.9,1.09,2.58,2.16,1.36a1.88,1.88,0,0,0,.32-.8,5.54,5.54,0,0,1,.7-1.57c.1-.15.24-.31.42-.28a.45.45,0,0,1,.24.15,3.56,3.56,0,0,1,.88,2.25c.07.82,0,1.65.11,2.46a6.1,6.1,0,0,0,.92,2.49,1.62,1.62,0,0,1,.25.49,1.54,1.54,0,0,1-.06.6c-.16.62-.78,4.84.53,4.31.29-.12.69-2,.87-2.33a5.85,5.85,0,0,1,1.52-2c1-.84,2.62-1.48,2.62-2.82a7.33,7.33,0,0,0-.41-1.56c-.33-1.53.83-2.93,1.62-4.28,2.22-3.78,1.81-8.58,3.6-12.58.11-.24.27-.51.53-.54a.68.68,0,0,1,.48.19c1.14.87,1.31,2.4,1.44,3.72s-.56,3.25-.07,4.46c.16.39.43.74.58,1.14a5.52,5.52,0,0,1,0,2.68,15.11,15.11,0,0,0,.8,7,4.6,4.6,0,0,1,.37,1.35,7.75,7.75,0,0,1-.29,1.63,8.46,8.46,0,0,0,.35,3.59,27.55,27.55,0,0,0,.76,3.93c.77,1.89,1.73.92,2-.73a22.36,22.36,0,0,1,2-6.92c.31-.56.66-1.1.94-1.68a13.41,13.41,0,0,0,1.08-4.13c0-.2.09-.44.28-.51s.51.29.58.59a11.89,11.89,0,0,1,0,3.52,15.38,15.38,0,0,0,.81,4l1.11,4.45c.22.91.73,3.43,1.43,3.84a6.44,6.44,0,0,0,.3-1.26.37.37,0,0,1,.09-.2c.08-.09.21-.08.32-.1.5-.06.78-.6.94-1.08a1.92,1.92,0,0,1,.76-1.25c.48-.24,1.15,0,1.52-.41a1.29,1.29,0,0,0,.28-.59c.19-.71.39-1.42.58-2.13a12.1,12.1,0,0,1,1.15,1.93,18.14,18.14,0,0,0,.45,2.6c.6,1.79.57,3.8,1.16,5.54.85,2.53.88-1.14,1.45-2a10.13,10.13,0,0,1,.68-.79c1-1.21,1-3,2-4.34a.91.91,0,0,1,.44-.36.78.78,0,0,1,.45.06,1.91,1.91,0,0,1,1.18,1.92c-.05.55-.27,1.29.23,1.53.22.11.5,0,.73.14a1.16,1.16,0,0,1,.51.65c.51,1.16,1.8,6.06,3.5,5.44,1-.34,1.94-3.92,2.44-4.85a26.35,26.35,0,0,0,3,8.11,1.61,1.61,0,0,0,.67.74c.61.28,1.36-.23,2,0,.39.15.62.55.89.88a5.18,5.18,0,0,0,4.12,1.5,28.57,28.57,0,0,1,4.53-.06,30.51,30.51,0,0,1,4.12,1.35A14.23,14.23,0,0,0,217.93,253.75Z" style="fill:#2AB6B3;stroke:#263238;stroke-linecap:round;stroke-linejoin:round"></path></clipPath><clipPath id="freepik--clip-path-3--inject-45"><path d="M413.8,226a7.09,7.09,0,0,1-1.08-3.9,4.1,4.1,0,0,1-1.73,2.78c-1.19-1.89-4.16-1.34-5.2-3.72-.49-1.15-.15-2.37-.24-3.56-.12-1.65-.73-2.36-1.39-3.79a5.11,5.11,0,0,1-.3-2.13v-8.51a4.66,4.66,0,0,1-1.81,2.48q-.8-6.88-1.6-13.78a1.33,1.33,0,0,0-.13-.51.92.92,0,0,0-1.4,0,2.56,2.56,0,0,0-.56,1.5c-.83,5.8-.82,11.9-3.45,17.13a12.15,12.15,0,0,0-1.42,3.35c-.25,1.41.15,2.94-.46,4.23-.45,1-1.39,1.62-1.84,2.58-.84,1.78-.21,4.13-1.4,5.78-1.32,1.84-4.07,2-5.77,3.36-2.32,1.88-2.57,5.26-2.64,8.24,0,.92-3.26-.07-3.59-.23-1.42-.68-2.25-2.11-3.06.51-.27.88-.27,1.82-.52,2.71-.39,1.33-1.34,2.34-1.89,3.58-.64,1.45-.24,1.89-.26,3.2-.05,2.82-1.59,2.53-3.89,3.53-1.23.55-1.49,1.38-2.59,2.09a1.27,1.27,0,0,1-1.52,0c-.64-.59-.19-1.65-.32-2.51a1.8,1.8,0,0,0-3.11-1c-.59.64-.65,1.62-1.19,2.29-1.07,1.32-3.17.76-4.82,1.18s-2.14,1.92-3.46,2.47c-1.16.49-3,.32-4.28.49a23.67,23.67,0,0,0-4.55.91c-.12,0-2.6,1.29-2.3,1.42,2.78,1.21,6.05,1.74,9,2.55a28.52,28.52,0,0,0,8.85,1.44c1.89-.1,3.87-.56,5.62.17.77.32,1.45.86,2.23,1.16a7.55,7.55,0,0,0,2.72.35c5.47,0,11.11-.59,16.28,1.19,1.06.36,2.09.82,3.17,1.14a17.58,17.58,0,0,0,4.45.63c4.12.13,8.32-.61,12.33.35a11.94,11.94,0,0,0,3.76.65,5.75,5.75,0,0,0,4-2.56,19.92,19.92,0,0,0,2.26-4.58c.5-1.36.38-3.07,1.07-4.34s2.2-1.71,3-2.82a6.27,6.27,0,0,0,.87-3.53c.44-9.62,2.42-20-4.13-28.16C415.33,222.85,413.8,225,413.8,226Z" style="fill:#2AB6B3;stroke:#263238;stroke-linecap:round;stroke-linejoin:round"></path></clipPath><clipPath id="freepik--clip-path-4--inject-45"><path d="M108.63,309.38c-1.49,1.08-7.3.46-10.77-12.35,0,0,0-.09,0-.14A4.48,4.48,0,0,1,94.27,295c-1.32-1.93-1.91-5.84-1.91-5.84h0c-.4-.1-5.76-1.5-2.06-5.23,2.79-2.81,6.89.24,6.09,2.6a2.44,2.44,0,0,1-.1.24l.6.28c1.42,1.52,4.47,5,4.74,7.05,0,.09,0,.14,0,.14l0,0c.24.21,2.06,1.81,4.78,4.67C109.33,302,110.13,308.3,108.63,309.38Z" style="fill:#757575;stroke:#263238;stroke-linecap:round;stroke-linejoin:round"></path></clipPath><clipPath id="freepik--clip-path-5--inject-45"><path d="M319.59,312.24a5.46,5.46,0,0,1-1.23-4.11,14.77,14.77,0,0,1,2.48-4.77c-2.16-1.28.08-6.3,4-5.51,5.22,1,.59,5.33.59,5.33s1.3,3.47,1,5.73a5,5,0,0,1-2.28,3.42c2.95,12.29-2,15.93-3.8,15.87s-4-5.53-2.88-9.6S319.59,312.24,319.59,312.24Z" style="fill:#2AB6B3;stroke:#263238;stroke-linecap:round;stroke-linejoin:round"></path></clipPath><clipPath id="freepik--clip-path-6--inject-45"><path d="M416.19,369.33c-10-4.08-22-18.4-13.76-34.87s-2.5-26.11,2.53-37.85,17.41-4.34,21.6,10.17,4.93,21.07,9.27,27.26C446.19,348.82,434.16,376.68,416.19,369.33Z" style="fill:#2AB6B3;stroke:#263238;stroke-linecap:round;stroke-linejoin:round"></path></clipPath><clipPath id="freepik--clip-path-7--inject-45"><path d="M390.73,377.06c-13.71-.27-34.61-11.78-32.39-35.16s-15-29.9-14.4-46.18,18.72-13.17,30.38,2.16,15.55,22.8,23.55,28.17C417,338.87,415.48,377.54,390.73,377.06Z" style="fill:#2AB6B3;stroke:#263238;stroke-linecap:round;stroke-linejoin:round"></path></clipPath><clipPath id="freepik--clip-path-8--inject-45"><path d="M374.87,396.62c-8.19,4.74-24.63,5.41-31.68-9.19s-19.52-12.3-25-22.12,6.34-14.46,18.7-9.57,17.33,7.91,24,8.22C376.74,364.69,389.66,388.07,374.87,396.62Z" style="fill:#2AB6B3;stroke:#263238;stroke-linecap:round;stroke-linejoin:round"></path></clipPath></defs><g id="freepik--Plants--inject-45"><path d="M241.76,433.47s12.84-6.65,9.31-9.77-10.18-2.1-10.18-2.1c4.43-6.08,1.71-8.65,1.71-8.65a10.85,10.85,0,0,0-8.46,7.26c-2.22-7.92-7.87-8.58-7.87-8.58C230.71,407.82,231,404,231,404c-7.09-1.43-14.67,4.3-14.67,4.3a19.09,19.09,0,0,0-7.29-19c10.44-1.55,10.73-10,10.73-10-7.13-5.88-15.52-3.08-15.52-3.08,4.18-7.12,1.05-16.93,1.05-16.93-7.65,3.7-8.11,15.35-8.11,15.35-1.9-4.35-6.75-7.82-6.75-7.82s1.71-6.32-.68-8-9.87.81-9.87.81,9.41-12.6,2.59-13.11-13.12,8.09-13.12,8.09c3.85-7.79,1.59-19.66-2.94-17.75s-5,16.1-5,16.1c-5-.4-10.91,1.59-10.91,1.59s5.27-5.69,2-9.87-8.3,4.71-8.3,4.71,8.23-16-.8-12.25-10.18,16.51-10.18,16.51c-6.6-1.59-10.34,5.65-10.34,5.65a31.12,31.12,0,0,0-3.4-17.73,34.72,34.72,0,0,0-7.6,24.43,71.8,71.8,0,0,0-8.37-4.29c-3.42-1.33-4.76,3.07-4.76,3.07s-1.84-7-5.53-11.61-2.32,11.73-2.32,11.73-4-5.27-10.74-4c0,0,.15,6.22,5.49,9.5,0,0-9.58,4.2-9.32,9.85,0,0-2.54-5.77-9.82-1.62,0,0,1.18,8,7.54,8.5,0,0-8.82,2.61-10.47,6.32,0,0,4.21,16.05,32.33,24.11s26.24,28,70.51,32.57c109.52,11.34,75.83-8.83,75.83-8.83s4.42,3.67,13.75,1.9C255.93,443.19,253.74,437,241.76,433.47Z" style="fill:#2AB6B3"></path><path d="M241.76,433.47s12.84-6.65,9.31-9.77-10.18-2.1-10.18-2.1c4.43-6.08,1.71-8.65,1.71-8.65a10.85,10.85,0,0,0-8.46,7.26c-2.22-7.92-7.87-8.58-7.87-8.58C230.71,407.82,231,404,231,404c-7.09-1.43-14.67,4.3-14.67,4.3a19.09,19.09,0,0,0-7.29-19c10.44-1.55,10.73-10,10.73-10-7.13-5.88-15.52-3.08-15.52-3.08,4.18-7.12,1.05-16.93,1.05-16.93-7.65,3.7-8.11,15.35-8.11,15.35-1.9-4.35-6.75-7.82-6.75-7.82s1.71-6.32-.68-8-9.87.81-9.87.81,9.41-12.6,2.59-13.11-13.12,8.09-13.12,8.09c3.85-7.79,1.59-19.66-2.94-17.75s-5,16.1-5,16.1c-5-.4-10.91,1.59-10.91,1.59s5.27-5.69,2-9.87-8.3,4.71-8.3,4.71,8.23-16-.8-12.25-10.18,16.51-10.18,16.51c-6.6-1.59-10.34,5.65-10.34,5.65a31.12,31.12,0,0,0-3.4-17.73,34.72,34.72,0,0,0-7.6,24.43,71.8,71.8,0,0,0-8.37-4.29c-3.42-1.33-4.76,3.07-4.76,3.07s-1.84-7-5.53-11.61-2.32,11.73-2.32,11.73-4-5.27-10.74-4c0,0,.15,6.22,5.49,9.5,0,0-9.58,4.2-9.32,9.85,0,0-2.54-5.77-9.82-1.62,0,0,1.18,8,7.54,8.5,0,0-8.82,2.61-10.47,6.32,0,0,4.21,16.05,32.33,24.11s26.24,28,70.51,32.57c109.52,11.34,75.83-8.83,75.83-8.83s4.42,3.67,13.75,1.9C255.93,443.19,253.74,437,241.76,433.47Z" style="opacity:0.2"></path><path d="M242.18,441.29s4.42,3.67,13.75,1.9c0,0-2.19-6.24-14.17-9.72,0,0,12.84-6.65,9.31-9.77s-10.18-2.1-10.18-2.1c4.43-6.08,1.71-8.65,1.71-8.65a10.85,10.85,0,0,0-8.46,7.26c-2.22-7.92-7.87-8.58-7.87-8.58C230.71,407.82,231,404,231,404c-7.09-1.43-14.67,4.3-14.67,4.3a19.09,19.09,0,0,0-7.29-19c10.44-1.55,10.73-10,10.73-10-7.13-5.88-15.52-3.08-15.52-3.08,4.18-7.12,1.05-16.93,1.05-16.93-7.65,3.7-8.11,15.35-8.11,15.35-1.9-4.35-6.75-7.82-6.75-7.82s1.71-6.32-.68-8-9.87.81-9.87.81,9.41-12.6,2.59-13.11-13.12,8.09-13.12,8.09c3.85-7.79,1.59-19.66-2.94-17.75s-5,16.1-5,16.1c-5-.4-10.91,1.59-10.91,1.59s5.27-5.69,2-9.87-8.3,4.71-8.3,4.71,8.23-16-.8-12.25-10.18,16.51-10.18,16.51c-6.6-1.59-10.34,5.65-10.34,5.65a31.12,31.12,0,0,0-3.4-17.73,34.72,34.72,0,0,0-7.6,24.43,71.8,71.8,0,0,0-8.37-4.29c-3.42-1.33-4.76,3.07-4.76,3.07s-1.84-7-5.53-11.61-2.32,11.73-2.32,11.73-4-5.27-10.74-4c0,0,.15,6.22,5.49,9.5,0,0-9.58,4.2-9.32,9.85,0,0-2.54-5.77-9.82-1.62,0,0,1.18,8,7.54,8.5,0,0-8.82,2.61-10.47,6.32" style="fill:none;stroke:#263238;stroke-linecap:round;stroke-linejoin:round"></path><path d="M197,421c-3-6.7-5-6.93-5-6.93,6-.52,6.64-7.43,6.64-7.43-4.76-5.12-12.55-4-12.55-4,4.94-1.44,5.11-10.18,5.11-10.18-3.5-4.36-12.58-1.39-12.58-1.39,3.36-1.62,4.89-8.21,4.89-8.21-5.11-.57-10.09,4.85-10.09,4.85-.57-5.64-7.92-11.15-7.92-11.15s7.43-6,4.08-8.15-10.4,4-10.4,4,.42-14.54-3.08-11.68S154.74,373,154.74,373c-3.72-2.35-13-1.43-13-1.43s3-5.3-2.08-6.43-14.52,10-14.52,10c1-4-.06-7.95-1.94-7.5-3.68.88-5.91,13.92-5.91,13.92-.7-6.84-6.35-5.08-6.35-5.08-1.88,2.58-1.09,9.82-1.09,9.82-3.15-7.54-7.19-6.35-7.19-6.35s-4,2.88-1.68,11c0,0-5.68-4.11-10.89-5.06A14.27,14.27,0,0,0,96.25,397s-6.94-2.27-10.66-1.43,3.22,7.24,3.22,7.24l-4,.53s35.66,31.79,88.44,33.15,46-24.35,46-24.35-8.67,6.28-11,11.39c0,0,.88-6.84-2.84-11.09S197,421,197,421Z" style="opacity:0.2"></path><path d="M107.78,408.12s-.07-49.9-40.74-87.92" style="fill:none;stroke:#263238;stroke-linecap:round;stroke-linejoin:round"></path><path d="M102.79,378.85s1.18-11.46,7.34-15.56,2.35,14.07-6.72,17.74-20.15-6.22-17.54-10.52S102.79,378.85,102.79,378.85Z" style="fill:#2AB6B3"></path><path d="M97.63,364.32s-1.57-12.92,4.4-15.06.1,15.43-3.14,18.17-20-4.38-18.76-8.86S97.63,364.32,97.63,364.32Z" style="fill:#2AB6B3"></path><path d="M91.07,350.88s-1.51-10.42,1.51-12.5,2.75,8.71-.07,15.13c0,0-13.78,2.47-14.12-4.22S91.07,350.88,91.07,350.88Z" style="fill:#2AB6B3"></path><path d="M84.33,340.13s-4.78-9.36-1.09-10.38,4.07,11.6,3.34,13.7c0,0-11.42-.6-11.81-4.72S84.33,340.13,84.33,340.13Z" style="fill:#2AB6B3"></path><path d="M76.1,329.59s-2.38-5.94-.87-7.27,3.15,10,3.15,10-8.47-.24-9.08-2S76.1,329.59,76.1,329.59Z" style="fill:#2AB6B3"></path><path d="M69.33,322.39s-1.77-5.15-.6-5.77,3,8.17,3,8.17-7.5.2-7.6-1.45S69.33,322.39,69.33,322.39Z" style="fill:#2AB6B3"></path><path d="M61.12,315.9c.76-1.62,3.94.83,6.09,4.3C67.21,320.2,59.8,318.69,61.12,315.9Z" style="fill:#2AB6B3"></path><g style="opacity:0.4"><path d="M102.79,378.85s1.18-11.46,7.34-15.56,2.35,14.07-6.72,17.74-20.15-6.22-17.54-10.52S102.79,378.85,102.79,378.85Z"></path><path d="M97.63,364.32s-1.57-12.92,4.4-15.06.1,15.43-3.14,18.17-20-4.38-18.76-8.86S97.63,364.32,97.63,364.32Z"></path><path d="M91.07,350.88s-1.51-10.42,1.51-12.5,2.75,8.71-.07,15.13c0,0-13.78,2.47-14.12-4.22S91.07,350.88,91.07,350.88Z"></path><path d="M84.33,340.13s-4.78-9.36-1.09-10.38,4.07,11.6,3.34,13.7c0,0-11.42-.6-11.81-4.72S84.33,340.13,84.33,340.13Z"></path><path d="M76.1,329.59s-2.38-5.94-.87-7.27,3.15,10,3.15,10-8.47-.24-9.08-2S76.1,329.59,76.1,329.59Z"></path><path d="M69.33,322.39s-1.77-5.15-.6-5.77,3,8.17,3,8.17-7.5.2-7.6-1.45S69.33,322.39,69.33,322.39Z"></path><path d="M61.12,315.9c.76-1.62,3.94.83,6.09,4.3C67.21,320.2,59.8,318.69,61.12,315.9Z"></path></g><path d="M102.79,378.85s1.18-11.46,7.34-15.56,2.35,14.07-6.72,17.74-20.15-6.22-17.54-10.52S102.79,378.85,102.79,378.85Z" style="fill:none;stroke:#263238;stroke-linecap:round;stroke-linejoin:round"></path><path d="M97.63,364.32s-1.57-12.92,4.4-15.06.1,15.43-3.14,18.17-20-4.38-18.76-8.86S97.63,364.32,97.63,364.32Z" style="fill:none;stroke:#263238;stroke-linecap:round;stroke-linejoin:round"></path><path d="M91.07,350.88s-1.51-10.42,1.51-12.5,2.75,8.71-.07,15.13c0,0-13.78,2.47-14.12-4.22S91.07,350.88,91.07,350.88Z" style="fill:none;stroke:#263238;stroke-linecap:round;stroke-linejoin:round"></path><path d="M84.33,340.13s-4.78-9.36-1.09-10.38,4.07,11.6,3.34,13.7c0,0-11.42-.6-11.81-4.72S84.33,340.13,84.33,340.13Z" style="fill:none;stroke:#263238;stroke-linecap:round;stroke-linejoin:round"></path><path d="M76.1,329.59s-2.38-5.94-.87-7.27,3.15,10,3.15,10-8.47-.24-9.08-2S76.1,329.59,76.1,329.59Z" style="fill:none;stroke:#263238;stroke-linecap:round;stroke-linejoin:round"></path><path d="M69.33,322.39s-1.77-5.15-.6-5.77,3,8.17,3,8.17-7.5.2-7.6-1.45S69.33,322.39,69.33,322.39Z" style="fill:none;stroke:#263238;stroke-linecap:round;stroke-linejoin:round"></path><path d="M61.12,315.9c.76-1.62,3.94.83,6.09,4.3C67.21,320.2,59.8,318.69,61.12,315.9Z" style="fill:none;stroke:#263238;stroke-linecap:round;stroke-linejoin:round"></path><path d="M201.44,413s7.25-49.38,53-81.14" style="fill:none;stroke:#263238;stroke-linecap:round;stroke-linejoin:round"></path><path d="M210.59,384.71s.48-11.51-5-16.45-4.36,13.58,4.1,18.53,20.83-3.26,18.87-7.9S210.59,384.71,210.59,384.71Z" style="fill:#2AB6B3"></path><path d="M217.79,371.08s3.42-12.56-2.18-15.54-2.33,15.26.48,18.43,20.43-1.45,19.84-6.06S217.79,371.08,217.79,371.08Z" style="fill:#2AB6B3"></path><path d="M226.21,358.72s3-10.1.31-12.58-4,8.22-2.11,15c0,0,13.28,4.42,14.59-2.15S226.21,358.72,226.21,358.72Z" style="fill:#2AB6B3"></path><path d="M234.43,349.06s6.08-8.58,2.58-10.13-5.71,10.9-5.28,13.09c0,0,11.39,1,12.36-3S234.43,349.06,234.43,349.06Z" style="fill:#2AB6B3"></path><path d="M244.09,339.81s3.21-5.54,1.92-7.07-4.56,9.41-4.56,9.41,8.42,1,9.28-.73S244.09,339.81,244.09,339.81Z" style="fill:#2AB6B3"></path><path d="M251.83,333.66s2.49-4.84,1.43-5.62-4.11,7.65-4.11,7.65,7.39,1.27,7.72-.34S251.83,333.66,251.83,333.66Z" style="fill:#2AB6B3"></path><path d="M260.89,328.42c-.52-1.71-4,.26-6.65,3.37C254.24,331.79,261.8,331.37,260.89,328.42Z" style="fill:#2AB6B3"></path><g style="opacity:0.6000000000000001"><path d="M210.59,384.71s.48-11.51-5-16.45-4.36,13.58,4.1,18.53,20.83-3.26,18.87-7.9S210.59,384.71,210.59,384.71Z"></path><path d="M217.79,371.08s3.42-12.56-2.18-15.54-2.33,15.26.48,18.43,20.43-1.45,19.84-6.06S217.79,371.08,217.79,371.08Z"></path><path d="M226.21,358.72s3-10.1.31-12.58-4,8.22-2.11,15c0,0,13.28,4.42,14.59-2.15S226.21,358.72,226.21,358.72Z"></path><path d="M234.43,349.06s6.08-8.58,2.58-10.13-5.71,10.9-5.28,13.09c0,0,11.39,1,12.36-3S234.43,349.06,234.43,349.06Z"></path><path d="M244.09,339.81s3.21-5.54,1.92-7.07-4.56,9.41-4.56,9.41,8.42,1,9.28-.73S244.09,339.81,244.09,339.81Z"></path><path d="M251.83,333.66s2.49-4.84,1.43-5.62-4.11,7.65-4.11,7.65,7.39,1.27,7.72-.34S251.83,333.66,251.83,333.66Z"></path><path d="M260.89,328.42c-.52-1.71-4,.26-6.65,3.37C254.24,331.79,261.8,331.37,260.89,328.42Z"></path></g><path d="M210.59,384.71s.48-11.51-5-16.45-4.36,13.58,4.1,18.53,20.83-3.26,18.87-7.9S210.59,384.71,210.59,384.71Z" style="fill:none;stroke:#263238;stroke-linecap:round;stroke-linejoin:round"></path><path d="M217.79,371.08s3.42-12.56-2.18-15.54-2.33,15.26.48,18.43,20.43-1.45,19.84-6.06S217.79,371.08,217.79,371.08Z" style="fill:none;stroke:#263238;stroke-linecap:round;stroke-linejoin:round"></path><path d="M226.21,358.72s3-10.1.31-12.58-4,8.22-2.11,15c0,0,13.28,4.42,14.59-2.15S226.21,358.72,226.21,358.72Z" style="fill:none;stroke:#263238;stroke-linecap:round;stroke-linejoin:round"></path><path d="M234.43,349.06s6.08-8.58,2.58-10.13-5.71,10.9-5.28,13.09c0,0,11.39,1,12.36-3S234.43,349.06,234.43,349.06Z" style="fill:none;stroke:#263238;stroke-linecap:round;stroke-linejoin:round"></path><path d="M244.09,339.81s3.21-5.54,1.92-7.07-4.56,9.41-4.56,9.41,8.42,1,9.28-.73S244.09,339.81,244.09,339.81Z" style="fill:none;stroke:#263238;stroke-linecap:round;stroke-linejoin:round"></path><path d="M251.83,333.66s2.49-4.84,1.43-5.62-4.11,7.65-4.11,7.65,7.39,1.27,7.72-.34S251.83,333.66,251.83,333.66Z" style="fill:none;stroke:#263238;stroke-linecap:round;stroke-linejoin:round"></path><path d="M260.89,328.42c-.52-1.71-4,.26-6.65,3.37C254.24,331.79,261.8,331.37,260.89,328.42Z" style="fill:none;stroke:#263238;stroke-linecap:round;stroke-linejoin:round"></path><path d="M144,394s28.34-49.43,9.72-110.21" style="fill:none;stroke:#263238;stroke-linecap:round;stroke-linejoin:round"></path><path d="M155.7,362.15s7.7-10.67,16.12-11.21-5.68,15.26-16.75,13.73S138.66,347,143.7,344.27,155.7,362.15,155.7,362.15Z" style="fill:#2AB6B3"></path><path d="M158.87,344.85s5.79-13.69,12.92-12.41-8.68,15.33-13.44,16.2S141,332.92,144.82,329.19,158.87,344.85,158.87,344.85Z" style="fill:#2AB6B3"></path><path d="M160,327.81s4.43-11.18,8.6-11.52-2.23,10.19-8.68,14.94c0,0-15-5.41-11.57-12.22S160,327.81,160,327.81Z" style="fill:#2AB6B3"></path><path d="M159.47,313.33s.6-12,4.84-10.9-2.58,13.81-4.51,15.46c0,0-11-7.1-9-11.4S159.47,313.33,159.47,313.33Z" style="fill:#2AB6B3"></path><path d="M157.33,298.21s1-7.24,3.27-7.7-2.55,11.66-2.55,11.66-8.25-5.06-7.82-7.2S157.33,298.21,157.33,298.21Z" style="fill:#2AB6B3"></path><path d="M154.72,287.23s1.19-6.11,2.69-6.05-1.71,9.76-1.71,9.76-7.53-4.07-6.69-5.75S154.72,287.23,154.72,287.23Z" style="fill:#2AB6B3"></path><path d="M150.29,276.13c1.68-1.17,3.43,3.07,3.59,7.72C153.88,283.85,147.4,278.14,150.29,276.13Z" style="fill:#2AB6B3"></path><path d="M155.7,362.15s7.7-10.67,16.12-11.21-5.68,15.26-16.75,13.73S138.66,347,143.7,344.27,155.7,362.15,155.7,362.15Z" style="fill:none;stroke:#263238;stroke-linecap:round;stroke-linejoin:round"></path><path d="M158.87,344.85s5.79-13.69,12.92-12.41-8.68,15.33-13.44,16.2S141,332.92,144.82,329.19,158.87,344.85,158.87,344.85Z" style="fill:none;stroke:#263238;stroke-linecap:round;stroke-linejoin:round"></path><path d="M160,327.81s4.43-11.18,8.6-11.52-2.23,10.19-8.68,14.94c0,0-15-5.41-11.57-12.22S160,327.81,160,327.81Z" style="fill:none;stroke:#263238;stroke-linecap:round;stroke-linejoin:round"></path><path d="M159.47,313.33s.6-12,4.84-10.9-2.58,13.81-4.51,15.46c0,0-11-7.1-9-11.4S159.47,313.33,159.47,313.33Z" style="fill:none;stroke:#263238;stroke-linecap:round;stroke-linejoin:round"></path><path d="M157.33,298.21s1-7.24,3.27-7.7-2.55,11.66-2.55,11.66-8.25-5.06-7.82-7.2S157.33,298.21,157.33,298.21Z" style="fill:none;stroke:#263238;stroke-linecap:round;stroke-linejoin:round"></path><path d="M154.72,287.23s1.19-6.11,2.69-6.05-1.71,9.76-1.71,9.76-7.53-4.07-6.69-5.75S154.72,287.23,154.72,287.23Z" style="fill:none;stroke:#263238;stroke-linecap:round;stroke-linejoin:round"></path><path d="M150.29,276.13c1.68-1.17,3.43,3.07,3.59,7.72C153.88,283.85,147.4,278.14,150.29,276.13Z" style="fill:none;stroke:#263238;stroke-linecap:round;stroke-linejoin:round"></path><path d="M225.5,438.93c-9.8,7.2,12.12-17.33,12.12-17.33s-6.27,1.7-10.31,6.34c0,0,6.5-17.9,1.32-20.24s-9.43,5.56-9.43,5.56-6.17-7.59-12-7.66c0,0,13.25-9.13,14.06-15.27.83-6.33-17.12,11.42-17.12,11.42s1.65-12.82-3.92-12.9-6.35,12.9-6.35,12.9-13,.86-19.9,6.88c0,0,1.65-10-3.77-13.3,0,0-6.06,9-4.73,13.31,0,0-5.26-10.31-13.53-7.82,0,0-9.22,10.22-5.94,15.36a17.86,17.86,0,0,0-16.48-4.57s-6.3,8.11-.8,12.81c0,0-2.27-1.16-11.72,3.91,0,0,37.62,24.69,62.48,26.57,54.55,4.12,57.78-9.07,57.78-9.07s-1.34-3.36-11.87,1.69c0,0,8.62-6.13,10.29-9.63C235.65,437.89,233.83,432.83,225.5,438.93Z" style="fill:#2AB6B3"></path><path d="M225.5,438.93c-9.8,7.2,12.12-17.33,12.12-17.33s-6.27,1.7-10.31,6.34c0,0,6.5-17.9,1.32-20.24s-9.43,5.56-9.43,5.56-6.17-7.59-12-7.66c0,0,13.25-9.13,14.06-15.27.83-6.33-17.12,11.42-17.12,11.42s1.65-12.82-3.92-12.9-6.35,12.9-6.35,12.9-13,.86-19.9,6.88c0,0,1.65-10-3.77-13.3,0,0-6.06,9-4.73,13.31,0,0-5.26-10.31-13.53-7.82,0,0-9.22,10.22-5.94,15.36a17.86,17.86,0,0,0-16.48-4.57s-6.3,8.11-.8,12.81c0,0-2.27-1.16-11.72,3.91,0,0,37.62,24.69,62.48,26.57,54.55,4.12,57.78-9.07,57.78-9.07s-1.34-3.36-11.87,1.69c0,0,8.62-6.13,10.29-9.63C235.65,437.89,233.83,432.83,225.5,438.93Z" style="opacity:0.1"></path><path d="M237.23,445.83s-1.34-3.36-11.87,1.69c0,0,8.62-6.13,10.29-9.63,0,0-1.82-5.06-10.15,1-9.8,7.2,12.12-17.33,12.12-17.33s-6.27,1.7-10.31,6.34c0,0,6.5-17.9,1.32-20.24s-9.43,5.56-9.43,5.56-6.17-7.59-12-7.66c0,0,13.25-9.13,14.06-15.27.83-6.33-17.12,11.42-17.12,11.42s1.65-12.82-3.92-12.9-6.35,12.9-6.35,12.9-13,.86-19.9,6.88c0,0,1.65-10-3.77-13.3,0,0-6.06,9-4.73,13.31,0,0-5.26-10.31-13.53-7.82,0,0-9.22,10.22-5.94,15.36a17.86,17.86,0,0,0-16.48-4.57s-6.3,8.11-.8,12.81c0,0-2.27-1.16-11.72,3.91" style="fill:none;stroke:#263238;stroke-linecap:round;stroke-linejoin:round"></path><path d="M150.9,435c3.6-3.7,4.81-3.41,4.81-3.41-3.18-1.61-1.55-6.11-1.55-6.11a8.59,8.59,0,0,1,8,.11c-2.31-1.92,0-7.35,0-7.35,3.06-1.95,7.21,1.7,7.21,1.7-1.41-1.67-.51-6-.51-6,2.9.68,4.22,5,4.22,5,1.75-3.31,7.11-5.16,7.11-5.16s-2.54-5-.22-5.62,4.63,4.42,4.63,4.42,3.2-8.58,4.41-6.26-2.12,7.44-2.12,7.44c2.58-.67,7.42,1.71,7.42,1.71s-.42-3.75,2.58-3.42,5.78,8.91,5.78,8.91c.35-2.63,1.77-4.82,2.71-4.17,1.84,1.26.26,9.76.26,9.76,1.88-4.11,4.67-1.87,4.67-1.87.51,2-1.5,6.41-1.5,6.41,3.4-4.11,5.44-2.53,5.44-2.53s1.69,2.67-1.36,7.37c0,0,4.13-1.45,7.32-1a9.74,9.74,0,0,1-5.86,5.94s4.51,0,6.5,1.37-3.4,4.15-3.4,4.15l2.24,1.23s-28.48,14-59.77,2.9c-30.27-10.78-18.55-25.93-18.55-25.93s2.86,5.79,2.6,9.57c0,0,1.56-4.59,4.85-6.52S150.9,435,150.9,435Z" style="opacity:0.2"></path><path d="M201.44,445.36a72.46,72.46,0,0,1-19.6,6.17,66.47,66.47,0,0,1-31.62-1.91,230.08,230.08,0,0,1-49-22.73,208.54,208.54,0,0,1-25.47-18.13c-1.21-1-1.84-1.6-1.84-1.6,8.55-4.12,10.78-2.62,10.78-2.62-5.52-5.55-.35-12.9-.35-12.9,9-1.08,15.7,6.57,15.7,6.57-3.67-5.55,3.46-14.33,3.46-14.33,6.88-1.35,13.18,8.48,13.58,9.1-1.92-4.42,2-12.17,2-12.17C124.63,384.52,125,394,125,394c5.26-5.09,17.13-4.4,17.13-4.4s-2.31-12.15,2.77-11.47,6.9,12.69,6.9,12.69,11.72-14.71,12.8-9-8.85,13.17-8.85,13.17c5.64.78,14,9.41,14,9.41s1.48-7.72,7.41-4.61,6,22,6,22c2.4-4.75,8.2-5.8,8.2-5.8s-13.58,26.22-5.79,18.7c6.39-6.18,10.51.29,10.51.29-.3,4.11-7.13,10.59-7.13,10.59C198.42,440.81,201.44,445.36,201.44,445.36Z" style="fill:#2AB6B3"></path><path d="M143.57,402.67c4.29,4.07,3.3,5.57,4.28,7.05-.8-1-2.7-2.88-5.41-1.45-3.62,1.93-9.93,7.41-9.93,7.41s-2.54-9.22-8.23-3.32c-5.5,5.71-6.19,10.67-6.23,11-.24-.53-6.63-15.68-12.64-7.09a22.41,22.41,0,0,0-4.21,10.63,208.54,208.54,0,0,1-25.47-18.13c7.53-.73,13.55,8.07,13.89,8.55,0-.58.53-9.23,4.91-9.82s11.23,2.65,11.23,2.65c.35-6.11,6.47-12.25,6.47-12.25a21.07,21.07,0,0,1,8.51,9.27c.94-6.9,10.78-11.18,10.78-11.18,2.74,4.33,3.46,12.3,3.46,12.3S141.79,401,143.57,402.67Z" style="opacity:0.2"></path><path d="M147.92,409.83a4.28,4.28,0,0,1,.27.38C148.12,410.13,148,410,147.92,409.83Z" style="opacity:0.2"></path><path d="M201.44,445.36a72.46,72.46,0,0,1-19.6,6.17c3.88-5.32,2.24-8.28,2.24-8.28a18.59,18.59,0,0,0-10.41,2.33A9.93,9.93,0,0,0,170.18,435c-8.46.47-13,4.8-13,4.8,1.11-8.53-7.12-12.54-7.12-12.54-8.72,1.55-12.69,9.36-12.95,9.87,2-6.92,6.95-9.26,6.95-9.26s-3.69-6.4.82-5.6,6.29,2.73,6.29,2.73,3.38-9.76,6.12-6S160,429.37,160,429.37s4.78-9.61,5.42-5.62a19.92,19.92,0,0,1,0,6.69,17.24,17.24,0,0,1,10.9-7.77,20.87,20.87,0,0,1,3.61,9c2.21-6.71,11.44-15.59,11.44-15.59s-13.58,26.22-5.79,18.7c6.39-6.18,10.51.29,10.51.29-.3,4.11-7.13,10.59-7.13,10.59C198.42,440.81,201.44,445.36,201.44,445.36Z" style="opacity:0.2"></path><path d="M201.44,445.36s-3-4.55-12.41.26c0,0,6.82-6.48,7.12-10.6,0,0-4.12-6.46-10.52-.28-7.78,7.51,5.79-18.69,5.79-18.69s-5.79,1-8.19,5.79c0,0-.08-18.89-6-22s-7.41,4.61-7.41,4.61-8.39-8.63-14-9.41c0,0,9.92-7.43,8.85-13.17s-12.81,9-12.81,9-1.8-12-6.89-12.69-2.77,11.47-2.77,11.47-11.87-.69-17.14,4.4c0,0-.39-9.51-5.91-13.22,0,0-4,7.8-2,12.2,0,0-6.5-10.52-13.6-9.13,0,0-7.13,8.78-3.46,14.33,0,0-6.73-7.65-15.7-6.57,0,0-5.17,7.35.35,12.9,0,0-2.23-1.5-10.78,2.63" style="fill:none;stroke:#263238;stroke-linecap:round;stroke-linejoin:round"></path><path d="M317.61,435.65a56,56,0,0,0,14.82,5.7,51.45,51.45,0,0,0,24.49,0,177.73,177.73,0,0,0,38.9-15.19,159.58,159.58,0,0,0,20.52-12.77c1-.73,1.5-1.14,1.5-1.14-6.41-3.59-8.19-2.54-8.19-2.54,4.52-4,.88-9.93.88-9.93-6.87-1.27-12.43,4.31-12.43,4.31,3.1-4.11-2-11.22-2-11.22-5.24-1.37-10.57,5.91-10.9,6.37,1.69-3.32-1-9.48-1-9.48-4.44,2.59-5.19,9.91-5.19,9.91-3.82-4.18-13-4.22-13-4.22s2.36-9.26-1.59-9-5.93,9.46-5.93,9.46-8.34-11.91-9.45-7.54,6.2,10.59,6.2,10.59c-4.39.34-11.28,6.59-11.28,6.59s-.77-6-5.49-3.91-5.69,16.67-5.69,16.67c-1.63-3.77-6-4.86-6-4.86s9.21,20.88,3.57,14.7c-4.64-5.07-8.12-.28-8.12-.28,0,3.19,5,8.52,5,8.52C320.15,432.28,317.61,435.65,317.61,435.65Z" style="fill:#2AB6B3"></path><path d="M317.61,435.65a56,56,0,0,0,14.82,5.7,51.45,51.45,0,0,0,24.49,0,177.73,177.73,0,0,0,38.9-15.19,159.58,159.58,0,0,0,20.52-12.77c1-.73,1.5-1.14,1.5-1.14-6.41-3.59-8.19-2.54-8.19-2.54,4.52-4,.88-9.93.88-9.93-6.87-1.27-12.43,4.31-12.43,4.31,3.1-4.11-2-11.22-2-11.22-5.24-1.37-10.57,5.91-10.9,6.37,1.69-3.32-1-9.48-1-9.48-4.44,2.59-5.19,9.91-5.19,9.91-3.82-4.18-13-4.22-13-4.22s2.36-9.26-1.59-9-5.93,9.46-5.93,9.46-8.34-11.91-9.45-7.54,6.2,10.59,6.2,10.59c-4.39.34-11.28,6.59-11.28,6.59s-.77-6-5.49-3.91-5.69,16.67-5.69,16.67c-1.63-3.77-6-4.86-6-4.86s9.21,20.88,3.57,14.7c-4.64-5.07-8.12-.28-8.12-.28,0,3.19,5,8.52,5,8.52C320.15,432.28,317.61,435.65,317.61,435.65Z" style="opacity:0.2"></path><path d="M364.29,405.49c-3.5,2.93-2.81,4.14-3.63,5.23a3.16,3.16,0,0,1,4.24-.86,59.87,59.87,0,0,1,7.3,6.19s2.41-7,6.51-2.17,4.27,8.53,4.28,8.78c.21-.4,5.87-11.78,10.09-4.87a17.37,17.37,0,0,1,2.74,8.41,159.58,159.58,0,0,0,20.52-12.77c-5.77-.92-10.84,5.58-11.13,5.94,0-.46,0-7.15-3.31-7.82s-8.79,1.51-8.79,1.51c0-4.73-4.41-9.76-4.41-9.76a16.28,16.28,0,0,0-7,6.75c-.4-5.38-7.79-9.15-7.79-9.15-2.32,3.21-3.25,9.32-3.25,9.32S365.75,404.27,364.29,405.49Z" style="opacity:0.2"></path><path d="M360.59,410.8c-.1.11-.17.22-.22.28A3.08,3.08,0,0,0,360.59,410.8Z" style="opacity:0.2"></path><path d="M317.61,435.65a56,56,0,0,0,14.82,5.7c-2.74-4.29-1.33-6.5-1.33-6.5a14.4,14.4,0,0,1,7.92,2.29,7.67,7.67,0,0,1,3.2-8,16.56,16.56,0,0,1,9.79,4.33c-.45-6.64,6.09-9.34,6.09-9.34,6.65,1.61,9.34,7.83,9.52,8.24a11.47,11.47,0,0,0-4.92-7.48s3.16-4.76-.37-4.36-5,1.8-5,1.8-2.15-7.69-4.44-4.89-2.59,7.84-2.59,7.84-3.22-7.64-3.91-4.6a15.43,15.43,0,0,0-.36,5.16,13.32,13.32,0,0,0-8-6.52,16.12,16.12,0,0,0-3.22,6.75c-1.38-5.29-8.07-12.58-8.07-12.58s9.21,20.88,3.57,14.7c-4.64-5.07-8.12-.28-8.12-.28,0,3.19,5,8.52,5,8.52C320.15,432.28,317.61,435.65,317.61,435.65Z" style="opacity:0.2"></path><path d="M317.61,435.64s2.54-3.36,9.56.81c0,0-5-5.33-5-8.52,0,0,3.48-4.79,8.12.28,5.64,6.17-3.57-14.7-3.57-14.7s4.42,1.09,6,4.87c0,0,1-14.57,5.69-16.68s5.5,3.91,5.5,3.91,6.88-6.25,11.27-6.59c0,0-7.3-6.2-6.19-10.58s9.44,7.53,9.44,7.53,2-9.17,5.93-9.46,1.59,9,1.59,9,9.19,0,13,4.22c0,0,.76-7.32,5.2-9.92,0,0,2.71,6.21,1,9.51,0,0,5.51-7.81,10.92-6.39,0,0,5.08,7.11,2,11.22,0,0,5.56-5.58,12.43-4.31,0,0,3.64,5.91-.89,9.93,0,0,1.79-1.05,8.19,2.54" style="fill:none;stroke:#263238;stroke-linecap:round;stroke-linejoin:round"></path><path d="M416.19,369.33c-10-4.08-22-18.4-13.76-34.87s-2.5-26.11,2.53-37.85,17.41-4.34,21.6,10.17,4.93,21.07,9.27,27.26C446.19,348.82,434.16,376.68,416.19,369.33Z" style="fill:#2AB6B3"></path><g style="clip-path:url(#freepik--clip-path-6--inject-45)"><path d="M422,370.54a15.41,15.41,0,0,1-5.78-1.21c-10-4.08-22-18.4-13.76-34.87s-2.5-26.11,2.53-37.85c1.59-3.71,3.91-5.51,6.47-5.77,5.56-.59,12.26,6,15.13,15.94,4.2,14.51,4.93,21.07,9.27,27.26C445,347.17,436.57,370.62,422,370.54Z" style="opacity:0.2"></path><path d="M422,370.54c3.46-47.77-6.65-72.24-10.54-79.7,5.56-.59,12.26,6,15.13,15.94,4.2,14.51,4.93,21.07,9.27,27.26C445,347.17,436.57,370.62,422,370.54Z" style="opacity:0.2"></path></g><path d="M416.19,369.33c-10-4.08-22-18.4-13.76-34.87s-2.5-26.11,2.53-37.85,17.41-4.34,21.6,10.17,4.93,21.07,9.27,27.26C446.19,348.82,434.16,376.68,416.19,369.33Z" style="fill:none;stroke:#263238;stroke-linecap:round;stroke-linejoin:round"></path><path d="M415.37,298.94c8.29,25.46,13,75-3.45,110.91" style="fill:none;stroke:#263238;stroke-linecap:round;stroke-linejoin:round"></path><path d="M410,315s8,5.65,11.25,11.27c0,0,4.74-8.27,5.64-11.76" style="fill:none;stroke:#263238;stroke-linecap:round;stroke-linejoin:round"></path><path d="M407.08,334.84s11.42,4.83,15.57,13.2c0,0,7.58-8.46,9.09-13.53" style="fill:none;stroke:#263238;stroke-linecap:round;stroke-linejoin:round"></path><path d="M407,351.26s11.55,7,15.53,12.78c0,0,8.21-5.77,11.74-10.76" style="fill:none;stroke:#263238;stroke-linecap:round;stroke-linejoin:round"></path><path d="M390.73,377.06c-13.71-.27-34.61-11.78-32.39-35.16s-15-29.9-14.4-46.18,18.72-13.17,30.38,2.16,15.55,22.8,23.55,28.17C417,338.87,415.48,377.54,390.73,377.06Z" style="fill:#2AB6B3"></path><g style="clip-path:url(#freepik--clip-path-7--inject-45)"><path d="M398.16,375.84c-17.84-58.41-41.11-82.87-49.17-90,6.34-3.26,17.35,1.52,25.32,12,11.67,15.33,15.55,22.79,23.56,28.16C414.85,337.44,415.57,369.23,398.16,375.84Z" style="opacity:0.2"></path></g><path d="M390.73,377.06c-13.71-.27-34.61-11.78-32.39-35.16s-15-29.9-14.4-46.18,18.72-13.17,30.38,2.16,15.55,22.8,23.55,28.17C417,338.87,415.48,377.54,390.73,377.06Z" style="fill:none;stroke:#263238;stroke-linecap:round;stroke-linejoin:round"></path><path d="M357.39,293.7c21.57,26.48,50,83.21,46.89,133.52" style="fill:none;stroke:#263238;stroke-linecap:round;stroke-linejoin:round"></path><path d="M358.38,315.32s12.11,3,18.56,8.23c0,0,1.83-12,1.3-16.58" style="fill:none;stroke:#263238;stroke-linecap:round;stroke-linejoin:round"></path><path d="M364,340.22s15.8.49,24.59,8.55c0,0,5.13-13.55,4.59-20.28" style="fill:none;stroke:#263238;stroke-linecap:round;stroke-linejoin:round"></path><path d="M371.45,359.8s17,3.07,24.35,8.07c0,0,7.11-10.63,9-18.19" style="fill:none;stroke:#263238;stroke-linecap:round;stroke-linejoin:round"></path><path d="M374.87,396.62c-8.19,4.74-24.63,5.41-31.68-9.19s-19.52-12.3-25-22.12,6.34-14.46,18.7-9.57,17.33,7.91,24,8.22C376.74,364.69,389.66,388.07,374.87,396.62Z" style="fill:#2AB6B3"></path><g style="clip-path:url(#freepik--clip-path-8--inject-45)"><path d="M378.83,393.25a13.74,13.74,0,0,1-3.95,3.37c-8.2,4.74-24.65,5.41-31.69-9.18s-19.52-12.31-25-22.13c-1.73-3.1-1.73-5.68-.54-7.61,2.58-4.19,10.78-5.3,19.24-1.95,12.37,4.88,17.33,7.9,24,8.21C375,364.62,386.74,383.12,378.83,393.25Z" style="opacity:0.4"></path><path d="M378.83,393.25C347.43,365.14,325,359,317.66,357.7c2.58-4.19,10.78-5.3,19.24-1.95,12.37,4.88,17.33,7.9,24,8.21C375,364.62,386.74,383.12,378.83,393.25Z" style="opacity:0.2"></path></g><path d="M374.87,396.62c-8.19,4.74-24.63,5.41-31.68-9.19s-19.52-12.3-25-22.12,6.34-14.46,18.7-9.57,17.33,7.91,24,8.22C376.74,364.69,389.66,388.07,374.87,396.62Z" style="fill:none;stroke:#263238;stroke-linecap:round;stroke-linejoin:round"></path><path d="M325.42,359.32c22.19,7.92,59.21,31.28,75.37,62.08" style="fill:none;stroke:#263238;stroke-linecap:round;stroke-linejoin:round"></path><path d="M333.72,371.73s8.24-2.53,13.9-1.77c0,0-3.21-7.76-5.15-10.26" style="fill:none;stroke:#263238;stroke-linecap:round;stroke-linejoin:round"></path><path d="M346,384.41s9.5-5.36,17.57-3.74c0,0-1.81-9.83-4.53-13.61" style="fill:none;stroke:#263238;stroke-linecap:round;stroke-linejoin:round"></path><path d="M357.33,393.32s11.12-4.25,17.25-3.93c0,0,.4-8.82-1.17-14" style="fill:none;stroke:#263238;stroke-linecap:round;stroke-linejoin:round"></path><path d="M443.55,394.83a56,56,0,0,1-7.6,13.95,51.29,51.29,0,0,1-18.62,15.9,177.92,177.92,0,0,1-39.47,13.65A160.54,160.54,0,0,1,354,441.9c-1.22.08-1.88.1-1.88.1,2.55-6.88,4.59-7.24,4.59-7.24-6.05-.13-7.11-7-7.11-7,4.41-5.42,12.26-4.77,12.26-4.77-5-1.12-5.76-9.83-5.76-9.83,3.1-4.44,11.88-2.35,12.43-2.22-3.44-1.43-5.38-7.87-5.38-7.87,5.06-.9,10.38,4.18,10.38,4.18.2-5.66,7.17-11.64,7.17-11.64s-7.8-5.52-4.61-7.87,10.65,3.36,10.65,3.36-1.37-14.47,2.31-11.86,2.14,12.08,2.14,12.08C394.71,388.74,404,389,404,389s-3.32-5.09,1.65-6.54,15.14,9,15.14,9c-1.21-3.93,1.45-7.62,1.45-7.62s6.51,21.87,6.81,13.51c.24-6.87,6-5.48,6-5.48,2,2.45,1.72,9.72,1.72,9.72C439.43,393.92,443.55,394.83,443.55,394.83Z" style="fill:#2AB6B3"></path><path d="M388.45,402.12c4.56,0,4.82,1.33,6.16,1.63a3.17,3.17,0,0,0-3.79,2.09,60.15,60.15,0,0,0-1.55,9.45s-6.36-3.76-6.36,2.57c0,6.13,2.28,9.26,2.43,9.46-.42-.17-12.1-5.17-10.84,2.83a17.44,17.44,0,0,0,3.36,8.18A160.54,160.54,0,0,1,354,441.9c3.8-4.44,11.87-2.78,12.32-2.69-.29-.35-4.66-5.42-2.54-8.1s7.67-4.55,7.67-4.55c-3.08-3.59-3-10.29-3-10.29a16.28,16.28,0,0,1,9.71.6c-3.18-4.35,0-12,0-12,3.85.94,8.52,5,8.52,5S386.54,402.14,388.45,402.12Z" style="opacity:0.2"></path><path d="M394.71,403.77l.35.07Z" style="opacity:0.2"></path><path d="M443.55,394.83a56,56,0,0,1-7.6,13.95c-.69-5-3.19-5.81-3.19-5.81a14.37,14.37,0,0,0-4.55,6.88,7.67,7.67,0,0,0-7.61-4,16.57,16.57,0,0,0-4.65,9.64c-4-5.34-10.69-3.16-10.69-3.16-4,5.54-2,12-1.91,12.44a11.48,11.48,0,0,1-1.1-8.88s-5.49-1.58-2.55-3.56,5-1.85,5-1.85-3.35-7.25.21-6.6,7.05,4.29,7.05,4.29-2.5-7.91,0-6a15.51,15.51,0,0,1,3.62,3.7,13.32,13.32,0,0,1,1.89-10.17,16.07,16.07,0,0,1,6.82,3.05c-2.37-4.92-2-14.81-2-14.81s6.51,21.87,6.81,13.51c.24-6.87,6-5.48,6-5.48,2,2.45,1.72,9.72,1.72,9.72C439.43,393.92,443.55,394.83,443.55,394.83Z" style="opacity:0.2"></path><path d="M443.55,394.83s-4.12-.91-6.77,6.81c0,0,.32-7.27-1.72-9.72,0,0-5.76-1.39-6,5.48-.3,8.36-6.81-13.51-6.81-13.51s-2.66,3.69-1.45,7.62c0,0-10.18-10.47-15.14-9S404,389,404,389s-9.3-.3-12.86,2.29c0,0,1.54-9.46-2.14-12.08s-2.31,11.86-2.31,11.86-7.45-5.7-10.65-3.36,4.61,7.87,4.61,7.87-7,6-7.17,11.64c0,0-5.32-5.08-10.38-4.18,0,0,1.95,6.48,5.41,7.88,0,0-9.26-2.38-12.46,2.21,0,0,.74,8.71,5.76,9.83,0,0-7.85-.65-12.26,4.77,0,0,1.06,6.86,7.11,7,0,0-2,.36-4.59,7.24" style="fill:none;stroke:#263238;stroke-linecap:round;stroke-linejoin:round"></path></g></svg>