<svg xmlns="http://www.w3.org/2000/svg" viewBox="0 0 500 500"><g id="freepik--Water--inject-63"><path d="M67.69,348.91c-4.63,13.66,4.89,28.14,16,37.39,20.14,16.87,46.16,24.93,71.9,30.18,41.68,8.5,84.89,10.66,126.85,3.64S365,396.71,398.55,370.51c11.61-9.08,23.09-20.84,23.92-35.55.56-9.95-4-19.65-10.57-27.16S397,294.64,388.61,289.23c-5.15-3.34-10.45-6.71-14.23-11.55s-5.79-11.54-3.5-17.23c2.55-6.35,9.49-9.72,13.55-15.23,6.56-8.89,4.2-22.08-2.71-30.71s-17.32-13.62-27.59-17.69c-56.25-22.29-121.11-24.73-177.06-1.71-8.13,3.34-16.36,7.44-21.72,14.41s-7,17.52-1.58,24.44c8.76,11.19,30.44,8.09,35.37,21.41,2.23,6-.55,13-5.18,17.39s-10.79,6.83-16.83,8.95c-22.82,8-46.87,13.73-67.11,27S62.53,333.75,66.49,357.6" style="fill:#f5f5f5"></path><path d="M371.73,363.36c-.27.18-2.22-2-4.81-5.89a63.7,63.7,0,0,1-4.05-7.2,53.48,53.48,0,0,1-3.6-9.52,52.05,52.05,0,0,1-1.71-10.06,48.94,48.94,0,0,1,.19-8.3c.53-4.7,1.46-7.47,1.77-7.41s.12,2.94.07,7.51a71.42,71.42,0,0,0,.36,8,64.3,64.3,0,0,0,1.83,9.57,66.94,66.94,0,0,0,3.27,9.22c1.17,2.78,2.43,5.21,3.46,7.27C370.65,360.62,372.06,363.14,371.73,363.36Z" style="fill:#e0e0e0"></path><path d="M377.59,337.83c-.14.31-1.83-.06-4.33-1.25-.61-.32-1.28-.67-2-1.09s-1.45-.88-2.17-1.46a23.46,23.46,0,0,1-4.38-4.19,19.16,19.16,0,0,1-3.08-5.29,17,17,0,0,1-1.1-4.86c-.19-2.83.36-4.52.67-4.49s.53,1.7,1.15,4.2a22.19,22.19,0,0,0,4.39,8.81,38.75,38.75,0,0,0,7.46,6.79C376.36,336.53,377.75,337.49,377.59,337.83Z" style="fill:#e0e0e0"></path><path d="M348.33,330.66c-.16-.36.59-1,1.45-2.25a32.85,32.85,0,0,0,2.94-5.33c2-4.41,3.33-8.26,4.06-8.1s.49,4.4-1.69,9.19a15.31,15.31,0,0,1-4,5.52C349.67,330.84,348.44,331,348.33,330.66Z" style="fill:#e0e0e0"></path><g style="opacity:0.1"><path d="M295.15,341.35c-.91.4-.59,1.89.27,2.38a6.78,6.78,0,0,0,2.92.4c1,.06,2.13.52,2.31,1.5.31,1.76-2.67,2.53-2.81,4.31-.12,1.5,1.78,2.25,3.27,2.42s3.4.62,3.63,2.11a13.15,13.15,0,0,1-.13,1.76c0,1.73,2,2.82,3.73,2.81s3.38-.71,5.11-.83,3.77.65,4.14,2.34a10.55,10.55,0,0,0,.26,1.8c.46,1.13,1.93,1.37,3.15,1.4a47.41,47.41,0,0,0,14.4-1.9,3.36,3.36,0,0,0,2.4-1.63,2.36,2.36,0,0,0-1.49-2.78,6.88,6.88,0,0,0-3.44-.19l7.64-2.53c2.41-.8,4.93-1.66,6.73-3.46a8.21,8.21,0,0,0-7.07-13.91"></path></g><path d="M339.28,332.3a68.31,68.31,0,0,0-41.78,1,10.44,10.44,0,0,0-4.65,2.71c-1.18,1.38-1.56,3.61-.38,5,.95,1.1,2.52,1.34,4,1.47a67.82,67.82,0,0,0,11.49,0,17.26,17.26,0,0,0-5,2.31,5.84,5.84,0,0,0-2.55,4.67,5.69,5.69,0,0,0,2.87,4.43,12.9,12.9,0,0,0,5.24,1.55c11.23,1.36,22.43-.22,30.83-4.07,3.53-1.62,7.47-5.09,8.64-7.06C349.54,341.66,348.11,335.5,339.28,332.3Z" style="fill:#455a64"></path><path d="M371.73,223.94c.38.13-1.18,5.13-3.42,13.26-.53,2-1.17,4.25-1.74,6.66-.3,1.2-.6,2.44-.92,3.72s-.59,2.61-.89,4c-1.18,5.43-2.31,11.43-3.19,17.78s-1.36,12.44-1.66,18c-.06,1.39-.12,2.74-.17,4.06s-.06,2.59-.09,3.83c-.08,2.47,0,4.77,0,6.88.07,8.42.32,13.65-.08,13.69s-1.22-5.15-1.76-13.63c-.11-2.12-.26-4.44-.27-6.94,0-1.25-.06-2.54,0-3.88s0-2.7.07-4.11A179.37,179.37,0,0,1,359,269c.89-6.43,2.11-12.51,3.43-18,.35-1.36.68-2.69,1-4s.72-2.52,1.06-3.73c.67-2.4,1.41-4.61,2.06-6.63C369.26,228.61,371.43,223.83,371.73,223.94Z" style="fill:#455a64"></path><path d="M377.59,272.39c.27.3-1.58,2.22-4.09,5.61a54.48,54.48,0,0,0-7.66,14.42,74.22,74.22,0,0,0-3.58,16c-.48,4.22-.65,6.89-1.05,6.9s-.8-2.65-.79-7c0-1.08.06-2.28.17-3.56s.22-2.65.49-4.08a49.29,49.29,0,0,1,2.31-9.15,42.59,42.59,0,0,1,8.69-14.71C375.07,273.6,377.38,272.15,377.59,272.39Z" style="fill:#455a64"></path><path d="M348.33,286c.11-.13.54.06,1.22.6a14.77,14.77,0,0,1,1,1.15,15.89,15.89,0,0,1,1.08,1.68,41.82,41.82,0,0,1,3.76,10.62c1.95,8.54,2.06,15.64,1.37,15.71s-2-6.8-3.91-15.12A95.58,95.58,0,0,0,350,290.21c-.21-.66-.48-1.2-.66-1.72s-.43-.89-.57-1.26C348.38,286.59,348.21,286.14,348.33,286Z" style="fill:#455a64"></path><path d="M307.3,172.11c.74.24-1.94,9.17-2.7,20.51s.52,20.55-.25,20.68c-.33.06-1.11-2.18-1.74-6a66.53,66.53,0,0,1,2.12-29.59C305.89,174.11,307,172,307.3,172.11Z" style="fill:#455a64"></path><path d="M312.37,189.46c.7.25-.46,5.07-1.6,11s-1.91,10.83-2.65,10.8-1.12-5.14.09-11.3S311.72,189.21,312.37,189.46Z" style="fill:#455a64"></path><g style="opacity:0.1"><path d="M330,368.06c0,.72-2.49,1.4-5.63,1.52s-5.7-.36-5.72-1.08,2.49-1.4,5.62-1.52S330,367.34,330,368.06Z"></path></g><path d="M366.1,313.84a6.23,6.23,0,0,1-1.87.91,20.71,20.71,0,0,1-9.91,1.07,6.3,6.3,0,0,1-2-.49,30.92,30.92,0,0,0,13.8-1.49Z" style="fill:#263238"></path><path d="M376.06,315.28a6.26,6.26,0,0,1-1.05.82,13.84,13.84,0,0,1-1.3.87c-.53.32-1.11.71-1.8,1a36.42,36.42,0,0,1-5,2.19,39.71,39.71,0,0,1-6.43,1.62,38.59,38.59,0,0,1-6.62.43,35.51,35.51,0,0,1-5.38-.56c-.77-.11-1.44-.3-2-.44a15.68,15.68,0,0,1-1.51-.43,6.75,6.75,0,0,1-1.26-.46c0-.1,1.84.49,4.86,1a39.37,39.37,0,0,0,5.33.44,42.18,42.18,0,0,0,6.53-.46,42.72,42.72,0,0,0,6.35-1.57,38.28,38.28,0,0,0,4.94-2.06C374.47,316.32,376,315.19,376.06,315.28Z" style="fill:#263238"></path></g></svg>