<svg xmlns="http://www.w3.org/2000/svg" viewBox="0 0 500 500"><g id="freepik--Fireflies--inject-63"><path d="M330.48,154.8c-2.75,0-4.68,2.76-5.71,5.3a9,9,0,0,0,.79,7.9,10.3,10.3,0,0,0,9.16,4.92,9.79,9.79,0,0,0,8.41-6,9.31,9.31,0,0,0-2.25-10c-3.39-3.12-6.91-3.66-11.38-2" style="fill:#2AB6B3"></path><g style="opacity:0.7000000000000001"><path d="M330.48,154.8c-2.75,0-4.68,2.76-5.71,5.3a9,9,0,0,0,.79,7.9,10.3,10.3,0,0,0,9.16,4.92,9.79,9.79,0,0,0,8.41-6,9.31,9.31,0,0,0-2.25-10c-3.39-3.12-6.91-3.66-11.38-2" style="fill:#fff"></path></g><path d="M332.65,161.61a31.21,31.21,0,0,0-3.51-12.23,9,9,0,0,0-2.73-3.41,3.43,3.43,0,0,0-5.57,3.44,9.63,9.63,0,0,0,1.62,3.8c2.41,3.81,5.62,6.21,10.19,8.4" style="fill:#fff"></path><path d="M332.65,161.61s-.15,0-.42-.15-.65-.28-1.15-.53a25.06,25.06,0,0,1-4-2.41,19.2,19.2,0,0,1-4.74-5.05,10.73,10.73,0,0,1-1.72-3.76,4.18,4.18,0,0,1,1.44-4.18,3.47,3.47,0,0,1,2.28-.56,4.72,4.72,0,0,1,2.13.74,8.6,8.6,0,0,1,2.66,3.18,30.43,30.43,0,0,1,2.58,6.43,29.38,29.38,0,0,1,.86,4.58c.05.55.08,1,.09,1.27a1.49,1.49,0,0,1,0,.44s-.1-.6-.27-1.68a35.63,35.63,0,0,0-1-4.51,31.31,31.31,0,0,0-2.64-6.29,8.13,8.13,0,0,0-2.52-3,3.55,3.55,0,0,0-3.83-.18,3.69,3.69,0,0,0-1.24,3.66,10.4,10.4,0,0,0,1.62,3.6,19.56,19.56,0,0,0,4.57,5,30.92,30.92,0,0,0,3.86,2.53A12.08,12.08,0,0,1,332.65,161.61Z" style="fill:#263238"></path><path d="M335.76,161.61a31.19,31.19,0,0,0,11.73-4.92,9.1,9.1,0,0,0,3.07-3.1,3.43,3.43,0,0,0-4.06-5.13,9.7,9.7,0,0,0-3.59,2c-3.5,2.83-5.51,6.31-7.15,11.1" style="fill:#fff"></path><path d="M335.76,161.61a1.33,1.33,0,0,1,.1-.43c.08-.28.21-.69.39-1.21a26,26,0,0,1,1.93-4.24,19,19,0,0,1,4.46-5.3,10.47,10.47,0,0,1,3.54-2.15,4.17,4.17,0,0,1,4.31.94,3.46,3.46,0,0,1,.83,2.2,4.67,4.67,0,0,1-.49,2.2,8.64,8.64,0,0,1-2.85,3A30.72,30.72,0,0,1,341.9,160a29.5,29.5,0,0,1-4.45,1.39c-.54.11-1,.19-1.25.23a1.46,1.46,0,0,1-.44,0,14.49,14.49,0,0,1,1.64-.47,35.79,35.79,0,0,0,4.36-1.53,32.68,32.68,0,0,0,5.94-3.36,8.21,8.21,0,0,0,2.67-2.85,3.55,3.55,0,0,0-.27-3.83,3.69,3.69,0,0,0-3.78-.8,10.27,10.27,0,0,0-3.38,2,19.64,19.64,0,0,0-4.44,5.11,29.9,29.9,0,0,0-2.06,4.14A12.58,12.58,0,0,1,335.76,161.61Z" style="fill:#263238"></path><path d="M332.65,160.83c-1,0-1.76,1-2.15,2a3.4,3.4,0,0,0,.3,3,3.86,3.86,0,0,0,3.45,1.85,3.67,3.67,0,0,0,3.17-2.26,3.52,3.52,0,0,0-.85-3.78,3.74,3.74,0,0,0-4.28-.74" style="fill:#2AB6B3"></path><path d="M329.36,170.54a4.16,4.16,0,0,1-1.41-1,9.35,9.35,0,0,1-2.35-3.42,7,7,0,0,1-.42-4.14,2.92,2.92,0,0,1,.73-1.56c.08,0-.23.62-.37,1.63a7.63,7.63,0,0,0,.55,3.87C327.23,168.92,329.5,170.39,329.36,170.54Z" style="fill:#fff"></path><path d="M332.46,171.58c0,.14-.38.33-.88.22s-.8-.43-.72-.54.42,0,.82,0S332.43,171.44,332.46,171.58Z" style="fill:#fff"></path><path d="M342.62,162.27c.06,0,.21.44.24,1.21a7,7,0,0,1-.57,2.91,6.9,6.9,0,0,1-1.73,2.41c-.58.51-1,.7-1.05.65a13.85,13.85,0,0,0,2.3-3.27A14.26,14.26,0,0,0,342.62,162.27Z" style="fill:#fff"></path><path d="M336.48,155.89c-.14.06-.33-.06-.56-.14s-.44-.15-.49-.29.28-.36.69-.19S336.61,155.84,336.48,155.89Z" style="fill:#fff"></path><path d="M332.16,166.26c0,.05-.32,0-.68-.36a2.69,2.69,0,0,1-.36-3.5c.29-.4.56-.54.6-.49a5.28,5.28,0,0,0-.55,2.25C331.3,165.45,332.26,166.15,332.16,166.26Z" style="fill:#fff"></path><path d="M333.78,167c0,.15-.19.25-.39.23s-.36-.15-.34-.29.19-.25.39-.23S333.79,166.82,333.78,167Z" style="fill:#fff"></path><path d="M237.85,137.07c-2.06.52-3,3-3.28,5.05a7,7,0,0,0,2.09,5.78,8,8,0,0,0,7.79,2,7.6,7.6,0,0,0,5.18-6.1,7.21,7.21,0,0,0-3.58-7.09c-3.14-1.7-5.88-1.44-8.91.68" style="fill:#2AB6B3"></path><g style="opacity:0.7000000000000001"><path d="M237.85,137.07c-2.06.52-3,3-3.28,5.05a7,7,0,0,0,2.09,5.78,8,8,0,0,0,7.79,2,7.6,7.6,0,0,0,5.18-6.1,7.21,7.21,0,0,0-3.58-7.09c-3.14-1.7-5.88-1.44-8.91.68" style="fill:#fff"></path></g><path d="M240.77,141.77a24.09,24.09,0,0,0-5-8.5,7,7,0,0,0-2.68-2.05,2.66,2.66,0,0,0-3.53,3.63,7.53,7.53,0,0,0,1.94,2.55c2.52,2.4,5.38,3.59,9.22,4.37" style="fill:#fff"></path><path d="M240.77,141.77a5.65,5.65,0,0,1-1.31-.19,19.18,19.18,0,0,1-3.46-1,14.92,14.92,0,0,1-4.53-2.88,8.2,8.2,0,0,1-2-2.52,3.26,3.26,0,0,1,.3-3.46,3.16,3.16,0,0,1,3.4-.72,6.68,6.68,0,0,1,2.62,1.9,23.75,23.75,0,0,1,3.14,4.35,21.72,21.72,0,0,1,1.49,3.28,5.56,5.56,0,0,1,.36,1.28c-.09,0-.64-1.78-2.17-4.38a25.66,25.66,0,0,0-3.18-4.2,6.17,6.17,0,0,0-2.43-1.74,2.65,2.65,0,0,0-2.84.57,2.78,2.78,0,0,0-.23,2.91,8.12,8.12,0,0,0,1.88,2.38,15.2,15.2,0,0,0,4.35,2.89C238.91,141.39,240.8,141.66,240.77,141.77Z" style="fill:#263238"></path><path d="M243.1,141.18a24,24,0,0,0,7.86-5.9,7,7,0,0,0,1.72-2.91,2.66,2.66,0,0,0-4-3.08,7.6,7.6,0,0,0-2.3,2.22c-2.09,2.79-2.94,5.77-3.26,9.67" style="fill:#fff"></path><path d="M243.1,141.18a5.54,5.54,0,0,1,0-1.32,19.89,19.89,0,0,1,.63-3.56,14.71,14.71,0,0,1,2.34-4.83,8.22,8.22,0,0,1,2.26-2.3,3.3,3.3,0,0,1,3.48-.11,3.17,3.17,0,0,1,1.1,3.3,6.67,6.67,0,0,1-1.58,2.82,23.34,23.34,0,0,1-4,3.63,22.14,22.14,0,0,1-3.09,1.87,5.22,5.22,0,0,1-1.22.5c0-.09,1.69-.84,4.09-2.67a24.38,24.38,0,0,0,3.8-3.64,6.15,6.15,0,0,0,1.45-2.62,2.65,2.65,0,0,0-.9-2.75,2.79,2.79,0,0,0-2.92.11,7.92,7.92,0,0,0-2.14,2.14,15.11,15.11,0,0,0-2.37,4.66C243.26,139.29,243.21,141.2,243.1,141.18Z" style="fill:#263238"></path><path d="M240.62,141.18c-.77.2-1.12,1.11-1.23,1.91a2.64,2.64,0,0,0,.78,2.17,3,3,0,0,0,2.94.74,2.88,2.88,0,0,0,1.95-2.3,2.73,2.73,0,0,0-1.35-2.67,2.9,2.9,0,0,0-3.36.26" style="fill:#2AB6B3"></path><path d="M240,149.09c0,.06-.51-.07-1.26-.43a7.06,7.06,0,0,1-2.42-2.12,5.33,5.33,0,0,1-1.1-3c0-.85.24-1.33.3-1.31s0,.51.07,1.28a6,6,0,0,0,1.14,2.77C238.12,148.22,240.07,148.92,240,149.09Z" style="fill:#fff"></path><path d="M242.51,149.28c.06.13-.21.37-.62.39s-.69-.2-.64-.33.32-.17.62-.19S242.45,149.15,242.51,149.28Z" style="fill:#fff"></path><path d="M248.36,140.38a4.74,4.74,0,0,1-1,6,14.65,14.65,0,0,0,1.05-2.89A14,14,0,0,0,248.36,140.38Z" style="fill:#fff"></path><path d="M242.56,136.76a.7.7,0,0,1-.46.06.61.61,0,0,1-.41-.19c-.09-.11.13-.38.49-.33S242.67,136.67,242.56,136.76Z" style="fill:#fff"></path><path d="M241.28,145.35c0,.06-.26.07-.61-.11a2.06,2.06,0,0,1-.94-2.6c.15-.36.34-.51.4-.47s-.27.87.06,1.77S241.34,145.21,241.28,145.35Z" style="fill:#fff"></path><path d="M242.63,145.57a.28.28,0,0,1-.24.3.26.26,0,1,1-.08-.51A.27.27,0,0,1,242.63,145.57Z" style="fill:#fff"></path><path d="M274.57,89.59c-2.06.51-3,3-3.28,5a7,7,0,0,0,2.08,5.77,8,8,0,0,0,7.8,2,7.57,7.57,0,0,0,5.17-6.09,7.22,7.22,0,0,0-3.58-7.1c-3.13-1.7-5.88-1.44-8.9.68" style="fill:#2AB6B3"></path><g style="opacity:0.7000000000000001"><path d="M274.57,89.59c-2.06.51-3,3-3.28,5a7,7,0,0,0,2.08,5.77,8,8,0,0,0,7.8,2,7.57,7.57,0,0,0,5.17-6.09,7.22,7.22,0,0,0-3.58-7.1c-3.13-1.7-5.88-1.44-8.9.68" style="fill:#fff"></path></g><path d="M277.48,94.28a24.06,24.06,0,0,0-4.94-8.5,7,7,0,0,0-2.69-2,2.65,2.65,0,0,0-3.53,3.63,7.49,7.49,0,0,0,1.94,2.54c2.52,2.4,5.38,3.6,9.22,4.37" style="fill:#fff"></path><path d="M277.48,94.28a5.78,5.78,0,0,1-1.31-.19,20.1,20.1,0,0,1-3.46-1,15.05,15.05,0,0,1-4.52-2.89,8.3,8.3,0,0,1-2-2.51,3.27,3.27,0,0,1,.3-3.47,3.15,3.15,0,0,1,3.4-.71,6.68,6.68,0,0,1,2.62,1.9,23.38,23.38,0,0,1,3.14,4.34,23.07,23.07,0,0,1,1.5,3.29,5,5,0,0,1,.35,1.27,48.47,48.47,0,0,0-2.17-4.37,24.64,24.64,0,0,0-3.17-4.21A6.32,6.32,0,0,0,269.71,84a2.7,2.7,0,0,0-2.85.57,2.84,2.84,0,0,0-.23,2.92,8.08,8.08,0,0,0,1.88,2.37,15.25,15.25,0,0,0,4.35,2.9C275.62,93.9,277.51,94.17,277.48,94.28Z" style="fill:#263238"></path><path d="M279.81,93.69a24.14,24.14,0,0,0,7.87-5.9,7,7,0,0,0,1.71-2.91,2.64,2.64,0,0,0-4-3.07,7.24,7.24,0,0,0-2.3,2.21c-2.1,2.79-2.95,5.77-3.27,9.67" style="fill:#fff"></path><path d="M279.81,93.69a6,6,0,0,1,0-1.32,19.62,19.62,0,0,1,.62-3.55A15.07,15.07,0,0,1,282.81,84a8.19,8.19,0,0,1,2.26-2.29,3.28,3.28,0,0,1,3.48-.11,3.17,3.17,0,0,1,1.11,3.29,6.56,6.56,0,0,1-1.59,2.82,22.57,22.57,0,0,1-3.95,3.63A20.83,20.83,0,0,1,281,93.19a5.17,5.17,0,0,1-1.23.5A44,44,0,0,0,283.9,91a25.35,25.35,0,0,0,3.81-3.64,6.38,6.38,0,0,0,1.45-2.62,2.68,2.68,0,0,0-.9-2.76,2.81,2.81,0,0,0-2.93.11,8.06,8.06,0,0,0-2.13,2.15,15.17,15.17,0,0,0-2.37,4.65C280,91.8,279.93,93.71,279.81,93.69Z" style="fill:#263238"></path><path d="M277.34,93.7c-.78.19-1.13,1.11-1.24,1.9a2.61,2.61,0,0,0,.79,2.17,3,3,0,0,0,2.93.74,2.82,2.82,0,0,0,1.95-2.29,2.72,2.72,0,0,0-1.35-2.68,2.88,2.88,0,0,0-3.35.26" style="fill:#2AB6B3"></path><path d="M276.7,101.6c0,.06-.52-.06-1.26-.43A7,7,0,0,1,273,99.05a5.22,5.22,0,0,1-1.09-3c0-.85.23-1.33.29-1.31s0,.51.07,1.29a5.89,5.89,0,0,0,1.15,2.76C274.83,100.74,276.78,101.43,276.7,101.6Z" style="fill:#fff"></path><path d="M279.22,101.79c.06.13-.2.38-.61.4s-.7-.2-.65-.34.32-.17.62-.19S279.16,101.66,279.22,101.79Z" style="fill:#fff"></path><path d="M285.08,92.9a4.73,4.73,0,0,1-1,6,14.7,14.7,0,0,0,1-2.89A15,15,0,0,0,285.08,92.9Z" style="fill:#fff"></path><path d="M279.27,89.27a.61.61,0,0,1-.45.06c-.16,0-.34-.06-.42-.19s.13-.38.49-.33S279.39,89.19,279.27,89.27Z" style="fill:#fff"></path><path d="M278,97.86c0,.06-.26.07-.6-.1a2.1,2.1,0,0,1-1-1.13,2.06,2.06,0,0,1,0-1.48c.15-.35.35-.5.4-.47s-.26.87.07,1.78S278.05,97.73,278,97.86Z" style="fill:#fff"></path><path d="M279.34,98.08a.27.27,0,0,1-.24.3.26.26,0,0,1-.32-.21.27.27,0,0,1,.24-.3A.28.28,0,0,1,279.34,98.08Z" style="fill:#fff"></path></g></svg>