<svg xmlns="http://www.w3.org/2000/svg" viewBox="65 190 110 110"><g id="freepik--Frog--inject-63"><path d="M90.32,282.64l22.45-2.56,17.77,3.86,39.86-21.73-6.15-13.38c-2.57-1.89-15-10.72-15-10.72S142.14,226,137.79,224.6s-34.4,1.67-34.4,1.67L83,243.58,70.49,271.49Z" style="fill:#f5f5f5"></path><polygon points="82.97 243.58 98.6 248.62 90.31 282.63 70.49 271.49 82.97 243.58" style="fill:#e0e0e0"></polygon><path d="M80.35,249.84c-.66,2.09,1.15,4.41,3.27,4.95a6.57,6.57,0,0,0,6-2,2.64,2.64,0,0,0,3.19,1.85,4.31,4.31,0,0,0,2.82-2.77,12.37,12.37,0,0,0,.57-4.07l-13.11-4.23Z" style="fill:#455a64"></path><polygon points="130.54 283.94 125.43 260.83 111.41 257.97 112.27 280.21 130.54 283.94" style="fill:#e0e0e0"></polygon><path d="M90.32,282.64l-.35-.17-1-.55-3.89-2.14-14.66-8.16-.12-.06.06-.13L82.77,243.5l0-.05,0,0,20.4-17.34.06-.05h.07c7-.7,14.4-1.36,22.06-1.8,1.92-.11,3.85-.2,5.8-.23a37,37,0,0,1,5.93.21c.25.06.51.09.76.16l.71.33a9.17,9.17,0,0,1,1.28.85,20.68,20.68,0,0,1,2.19,2.1,49.87,49.87,0,0,1,3.77,4.76q1.94,2.73,3.64,5.57l-.07-.08,15,10.72,0,0,0,.06q3.15,6.85,6.15,13.38l.09.21-.2.11-39.88,21.69-.07,0h-.06l-18.27-3.78h0l-16.2,1.72-4.29.43-1.1.1-.37,0,.37-.07,1.11-.14,4.3-.51,16.15-1.86h0l18.28,3.68-.13,0L170.29,262l-.11.32q-3-6.51-6.16-13.38l.08.1-15-10.71,0,0,0,0c-1.12-1.87-2.33-3.72-3.62-5.53A50.43,50.43,0,0,0,141.7,228a18.64,18.64,0,0,0-2.13-2,5,5,0,0,0-2.52-1.24,37.58,37.58,0,0,0-5.82-.21c-1.94,0-3.87.13-5.78.23-7.64.43-15,1.08-22,1.77l.14-.06c-7.35,6.22-14.25,12.06-20.45,17.29l.06-.07L70.63,271.55l-.06-.19,14.55,8.27L89,281.84l1,.59Z" style="fill:#263238"></path><path d="M96,248a6.48,6.48,0,0,0-1.09-6.41,3.95,3.95,0,0,0-1-7L83,243.58Z" style="fill:#455a64"></path><path d="M90.32,282.64a1.55,1.55,0,0,1,.07-.52l.3-1.47c.31-1.35.72-3.16,1.23-5.38,1-4.53,2.55-10.78,4.23-17.68.78-3.19,1.53-6.24,2.21-9l.16.29L87.3,245.14,84.1,244a6.45,6.45,0,0,1-1.13-.45,7.93,7.93,0,0,1,1.18.3l3.24,1,11.28,3.54.22.06-.06.23c-.67,2.79-1.41,5.84-2.18,9-1.68,6.9-3.23,13.14-4.37,17.65-.57,2.2-1,4-1.39,5.34l-.4,1.44A3.39,3.39,0,0,1,90.32,282.64Z" style="fill:#263238"></path><path d="M111.41,258.28a12.14,12.14,0,0,1-2-1.3l-4.6-3.32c-1.79-1.31-3.39-2.52-4.51-3.45a9.5,9.5,0,0,1-1.74-1.59,11.33,11.33,0,0,1,2,1.3l4.6,3.32c1.79,1.31,3.39,2.52,4.51,3.45A9.5,9.5,0,0,1,111.41,258.28Z" style="fill:#263238"></path><path d="M112.77,280.08c-.14,0-.56-4.87-.94-10.88s-.56-10.91-.42-10.92.57,4.86.94,10.88S112.92,280.07,112.77,280.08Z" style="fill:#263238"></path><path d="M126,261a54.16,54.16,0,0,1-7.36-1.09,54.4,54.4,0,0,1-7.27-1.61,54.16,54.16,0,0,1,7.36,1.09A54.4,54.4,0,0,1,126,261Z" style="fill:#263238"></path><path d="M130.54,283.94a23,23,0,0,1-.78-3.34l-1.57-8.12c-.6-3.1-1.13-5.9-1.56-8.12A31.27,31.27,0,0,1,126,261a18.73,18.73,0,0,1,.95,3.3c.5,2.06,1.1,4.93,1.71,8.1s1.1,6.06,1.43,8.16A22.28,22.28,0,0,1,130.54,283.94Z" style="fill:#263238"></path><path d="M164.82,248.83a10,10,0,0,1-1.52.5l-4.18,1.22c-3.54,1-8.42,2.41-13.79,4s-10.22,3.17-13.68,4.39c-1.73.62-3.14,1.11-4.1,1.48A9.48,9.48,0,0,1,126,261a9.51,9.51,0,0,1,1.44-.7c.93-.44,2.32-1,4-1.65,3.45-1.3,8.27-2.92,13.65-4.54s10.29-3,13.85-3.9c1.78-.46,3.23-.82,4.23-1.05A7.94,7.94,0,0,1,164.82,248.83Z" style="fill:#263238"></path><path d="M104,242.55c.52,1.07-.09,2.33-.52,3.45s-.47,2.7.62,3.2c.37.17.8.17,1.19.31,1.15.41,1.49,1.83,2.12,2.88a3.34,3.34,0,0,0,1.89,1.54,2.22,2.22,0,0,0,2.28-.63c.76-.93.65-2.59,1.76-3.05s2.2.78,3.38.78c1.55,0,2.41-2,3.93-2.28s2.61,1,3.44,2.18a26.38,26.38,0,0,0,3,3.88,7,7,0,0,0,4.3,2.16,4,4,0,0,0,3.68-1.73,2.77,2.77,0,0,0-.84-3.74l3.76.36c.51,0,1.12.06,1.43-.35s0-1.24-.51-1.62c-2.41-1.88-6.32.22-8.84-1.51a6.47,6.47,0,0,1-2.13-3.45,6.29,6.29,0,0,1-.47-2.33,2.28,2.28,0,0,1,1.13-2,3,3,0,0,1,2.56.27,6.08,6.08,0,0,0,2.5.87c.88,0,1.84-.77,1.65-1.63a8.69,8.69,0,0,0,4.07,2c1.53.16,3.28-.81,3.4-2.33a1.66,1.66,0,0,0,2.62-.1,2.56,2.56,0,0,0-.22-2.89,5.67,5.67,0,0,0-4-1.89,28,28,0,0,1-4.49-.54c-1.59-.46-3-1.49-4.63-1.82-2.11-.44-4.29.35-6.2,1.34-3.12,1.63-6,3.88-9.32,4.87-1.85.54-3.8.69-5.63,1.3s-3.61,1.85-4.15,3.7" style="fill:#e0e0e0"></path><path d="M146.44,234.19a.71.71,0,0,0-.63-.41,2.66,2.66,0,0,0-.79.12,16.61,16.61,0,0,1-6.69-.2,4.11,4.11,0,0,1-1.55-.47,2.81,2.81,0,0,1-1.1-1.53,8.11,8.11,0,0,1-.31-1.9l-1.93,3.51a1.4,1.4,0,0,1,0,1.6,5,5,0,0,1-1.24,1.18,3.15,3.15,0,0,0-1.1,1.28c-.79.85,1.31.13,1.88-.22a3.29,3.29,0,0,1,1.82-.78,2.15,2.15,0,0,1,1.66,1.37,10.39,10.39,0,0,0,1,2,1.57,1.57,0,0,0,.8.57.88.88,0,0,0,.91-.28c.33-.45,0-1.07-.27-1.54l-.9-1.41c-.23-.36-.47-.81-.27-1.19a.85.85,0,0,1,1-.34,2.76,2.76,0,0,1,.94.57,18.07,18.07,0,0,0,4.36,2.52,1.85,1.85,0,0,0,.89.18.65.65,0,0,0,.59-.59c0-.4-.45-.61-.82-.77a7.29,7.29,0,0,1-1.9-1.16.75.75,0,0,1-.34-.56.54.54,0,0,1,.4-.46,1.77,1.77,0,0,1,.65-.05,11.89,11.89,0,0,0,1.79,0,1.83,1.83,0,0,0,.86-.25A.7.7,0,0,0,146.44,234.19Z" style="fill:#455a64"></path><path d="M104,232.63A6.45,6.45,0,0,1,106.8,228c2.75-1.81,6.89-4.46,7.83-4.68,1.45-.34,3.06-2.12,5.77-2.12a38.2,38.2,0,0,0,10.26-1.87,14.77,14.77,0,0,0,3.64-1.78s.94-1.35,1.78-1.35a4.32,4.32,0,0,1,3,1.35,3.34,3.34,0,0,0,1.7,1.1c.93.17,2.71,0,3.39.94s1.18,1.86.76,2.88-2.8,3.29-5.09,4.78a12.53,12.53,0,0,1-2.2,3.44,56.42,56.42,0,0,1-6.27,3.9s-5.35,5.17-7,5.85-9,1.87-12.63-.42L104,232.63Z" style="fill:#455a64"></path><path d="M137.19,221.16a2.78,2.78,0,0,0-2.73.58,3.34,3.34,0,0,0-1.22,2.34,2.13,2.13,0,0,0,.84,1.47,3,3,0,0,0,2.93.5,2.81,2.81,0,0,0,1.77-2.36,2.57,2.57,0,0,0-1.51-2.5" style="fill:#2AB6B3"></path><path d="M132,222.27s0-.36.36-.79a4,4,0,0,1,3.75-1.5c.53.09.82.26.8.32a10.24,10.24,0,0,0-2.68.4A10.2,10.2,0,0,0,132,222.27Z" style="fill:#263238"></path><path d="M142.44,221.54a.41.41,0,0,1-.26-.36.4.4,0,0,1,.15-.41c.12-.07.33.08.37.34S142.58,221.57,142.44,221.54Z" style="fill:#263238"></path><g style="opacity:0.2"><path d="M131.74,225.6a1.52,1.52,0,0,0-1.2,1.39,1.41,1.41,0,0,0,1.16,1.39,1.3,1.3,0,0,0,1.42-1.06,1.64,1.64,0,0,0-.47-1.3,1.33,1.33,0,0,0-.6-.4.64.64,0,0,0-.67.2" style="fill:#fff"></path></g><path d="M137.57,222.64a2.86,2.86,0,0,0-2.91.83.62.62,0,0,0-.2.43.45.45,0,0,0,.26.35.93.93,0,0,0,.44.08,4.57,4.57,0,0,0,1.79-.53,1.71,1.71,0,0,0,.59-.36.62.62,0,0,0,.16-.64" style="fill:#263238"></path><g style="opacity:0.2"><path d="M111.53,237.92a29.34,29.34,0,0,0,6.49,0,14.44,14.44,0,0,0,6.08-2.14c1.69-1.12,3.06-2.67,4.8-3.69a26.23,26.23,0,0,1,4.81-1.88,10.45,10.45,0,0,0,4.43-2.57l.65-1.25s4.19-2.21,4.89-2.79.57-.18.57-.18a22.48,22.48,0,0,1-4.44,3.81,27.65,27.65,0,0,1-1.74,2.95,20.52,20.52,0,0,1-2.85,2.14L131,234.91s-5.07,4.78-6.16,5.24a22.49,22.49,0,0,1-8.55,1.2,9.84,9.84,0,0,1-4.61-1.34l-.14-2.09" style="fill:#fff"></path></g><path d="M126.42,234.71l-2.13,4.61a3.6,3.6,0,0,0-.3,2c.23,1.61.66,4.58.84,5.26.25.94,1.42,3.55,2.75,4.05a13.52,13.52,0,0,1,2.56,1.34s4.16,3.72,4.66,3.77,1.34-.55.89-1.11-1.77-.83-2.22-1.83a13.25,13.25,0,0,0-1.05-1.89,10.41,10.41,0,0,0,4.22,1.28,14.35,14.35,0,0,0,4.39-.45c.22-.16.38-.72-.39-.83s-5.46.33-7.4-1.11c0,0,3.2-.24,3.34-.67s-.44-.84-1.15-.56a7.62,7.62,0,0,1-3.59.12c-1-.28-1.65,0-1.87-.89a22.33,22.33,0,0,0-.55-3c-.34-.72-1.84-4.89-1.84-4.89a25.76,25.76,0,0,0,3-3.94c.4-1,1.65-3.78,1.65-3.78l-.35-1.78-5.42,1.39Z" style="fill:#455a64"></path><path d="M103,240.33a4.91,4.91,0,0,1,.54,6c-.2.3-.45.64-.24,1a.63.63,0,0,0,.75.25c.58-.18.81-.73,1.12-1.19a1.21,1.21,0,0,1,1.08-.67,9.54,9.54,0,0,0,.91,3.51,3.76,3.76,0,0,0,1.42,1.46.54.54,0,0,0,.7-.8l-1.15-1.78a.9.9,0,0,1,0-1c.38-.62,1-.38,1.42.08s.71,1.19,1.42,1.38a.74.74,0,0,0,.85-.34.77.77,0,0,0-.17-.82c-.5-.75-1-1.51-1.51-2.26a1.73,1.73,0,0,0,1.59.11.67.67,0,0,0,.25-.87c-.3-.5-1.19,0-1.48-.48a.51.51,0,0,1,0-.63c2.19-1.7,1.1-7.88-1.94-10.07a30.37,30.37,0,0,1-3.41-2.24c-.87-.83-1.6-2.05-2.91-1.93a2,2,0,0,0-1.28.66,4.18,4.18,0,0,0-.88,3,10.34,10.34,0,0,0,2.87,7.67" style="fill:#455a64"></path><path d="M111,242.81s-.06.23-.36.51A2.7,2.7,0,0,1,109,244a3.61,3.61,0,0,1-2.43-.72,8.08,8.08,0,0,1-2.06-2.27,22.65,22.65,0,0,1-2.42-4.91,8.12,8.12,0,0,1-.6-2.18,12.7,12.7,0,0,1,.94,2,30.3,30.3,0,0,0,2.51,4.75,8.35,8.35,0,0,0,1.91,2.17,3.37,3.37,0,0,0,2.13.74A3.12,3.12,0,0,0,111,242.81Z" style="fill:#263238"></path><path d="M108.15,239.31a5.18,5.18,0,0,1-.36-1.5,20.37,20.37,0,0,0-.94-3.52,21.15,21.15,0,0,0-2.64-4.42,3.71,3.71,0,0,1,1.18,1,10.48,10.48,0,0,1,2,3.22,13.44,13.44,0,0,1,.81,3.66A4.28,4.28,0,0,1,108.15,239.31Z" style="fill:#263238"></path><path d="M144.82,222.63a11.46,11.46,0,0,1-4.21,3.26,10.54,10.54,0,0,1-5.15,1.36,44.57,44.57,0,0,0,4.91-1.82C143,224.13,144.71,222.5,144.82,222.63Z" style="fill:#263238"></path><path d="M128.06,221.58a46.57,46.57,0,0,1-6.86,1.28,46.93,46.93,0,0,1-6.94.77,46.57,46.57,0,0,1,6.86-1.28A46.93,46.93,0,0,1,128.06,221.58Z" style="fill:#263238"></path></g></svg>
