<svg xmlns="http://www.w3.org/2000/svg" viewBox="0 0 500 500"><g id="freepik--Waterfall--inject-62"><path d="M338.55,357.39,302.67,350s9.4-9.46,12.16-7.44c3.59,2.62,8.57-6.68,12.48-3.43,1.37,1.15.07,3.64.82,4.91,1.25,2.09,3.36,2.17,5.11,3.54C336.65,350.25,337.49,353.05,338.55,357.39Z" style="fill:#2AB6B3"></path><path d="M338.55,357.39,302.67,350s9.4-9.46,12.16-7.44c3.59,2.62,8.57-6.68,12.48-3.43,1.37,1.15.07,3.64.82,4.91,1.25,2.09,3.36,2.17,5.11,3.54C336.65,350.25,337.49,353.05,338.55,357.39Z" style="opacity:0.2;isolation:isolate"></path><path d="M307.22,347.75s5.18-13.18,4-15.52-3.45,7.07-3.45,7.07-1.39-20.88-4.87-21.7.63,18,.63,18-9.92-27.5-14.73-26.13,10.71,27.16,10.71,27.16-9-11.66-12-9.5,9.92,13.28,9.92,13.28-6.12-2.77-6.55-.63S300.55,347.64,307.22,347.75Z" style="fill:#2AB6B3"></path><path d="M307.22,347.75s5.18-13.18,4-15.52-3.45,7.07-3.45,7.07-1.39-20.88-4.87-21.7.63,18,.63,18-9.92-27.5-14.73-26.13,10.71,27.16,10.71,27.16-9-11.66-12-9.5,9.92,13.28,9.92,13.28-6.12-2.77-6.55-.63S300.55,347.64,307.22,347.75Z" style="fill:#fff;opacity:0.2;isolation:isolate"></path><path d="M309.78,346.25s11.65.27,13.12-1.33-6.44-.67-6.44-.67,15.75-7,15.41-9.89-13.74,5.56-13.74,5.56,18.48-15.44,16.05-18.77-18,16-18,16,6.48-10.24,4-11.92-7.47,11.42-7.47,11.42.41-5.51-1.36-5.25S308,341.05,309.78,346.25Z" style="fill:#2AB6B3"></path><path d="M309.78,346.25s11.65.27,13.12-1.33-6.44-.67-6.44-.67,15.75-7,15.41-9.89-13.74,5.56-13.74,5.56,18.48-15.44,16.05-18.77-18,16-18,16,6.48-10.24,4-11.92-7.47,11.42-7.47,11.42.41-5.51-1.36-5.25S308,341.05,309.78,346.25Z" style="fill:#fff;opacity:0.2;isolation:isolate"></path><path d="M310.93,344.93s13.09-8.64,13.48-11.53-7.62,4.2-7.62,4.2,12-19.79,9.43-22.75-10.91,16.68-10.91,16.68,8.57-31.23,3.34-33S311,329.89,311,329.89s-.7-16.29-4.75-16.22.5,18.35.5,18.35-3.77-6.41-5.53-4.75S305,340.57,310.93,344.93Z" style="fill:#2AB6B3"></path><path d="M310.93,344.93s13.09-8.64,13.48-11.53-7.62,4.2-7.62,4.2,12-19.79,9.43-22.75-10.91,16.68-10.91,16.68,8.57-31.23,3.34-33S311,329.89,311,329.89s-.7-16.29-4.75-16.22.5,18.35.5,18.35-3.77-6.41-5.53-4.75S305,340.57,310.93,344.93Z" style="fill:#fff;opacity:0.4;isolation:isolate"></path><path d="M322.74,354.13l-28.59-5.89s7.49-7.54,9.69-5.94c2.86,2.09,6.83-5.31,9.94-2.72,1.1.91.06,2.89.66,3.91,1,1.66,2.68,1.73,4.07,2.82C321.23,348.44,321.9,350.67,322.74,354.13Z" style="fill:#2AB6B3"></path><path d="M110.56,264.55s.14-14.15-1.83-15.91-.7,7.83-.7,7.83-8.75-19-12.29-18.53,7,16.58,7,16.58-19.06-22.17-23.07-19.17,19.69,21.56,19.69,21.56-12.56-7.69-14.55-4.62,14,8.87,14,8.87-6.7-.4-6.35,1.75S104.29,266.83,110.56,264.55Z" style="fill:#2AB6B3"></path><path d="M110.56,264.55s.14-14.15-1.83-15.91-.7,7.83-.7,7.83-8.75-19-12.29-18.53,7,16.58,7,16.58-19.06-22.17-23.07-19.17,19.69,21.56,19.69,21.56-12.56-7.69-14.55-4.62,14,8.87,14,8.87-6.7-.4-6.35,1.75S104.29,266.83,110.56,264.55Z" style="fill:#fff;opacity:0.2;isolation:isolate"></path><path d="M109.33,253s4.86-10.6,4-12.58-3.16,5.65-3.16,5.65-.18-17.22-3-18.06-.32,14.81-.32,14.81-6.88-23.07-10.9-22.16,7.55,22.82,7.55,22.82-6.85-10-9.38-8.36,7.54,11.37,7.54,11.37-4.9-2.55-5.36-.82S103.85,252.57,109.33,253Z" style="fill:#2AB6B3"></path><path d="M109.33,253s4.86-10.6,4-12.58-3.16,5.65-3.16,5.65-.18-17.22-3-18.06-.32,14.81-.32,14.81-6.88-23.07-10.9-22.16,7.55,22.82,7.55,22.82-6.85-10-9.38-8.36,7.54,11.37,7.54,11.37-4.9-2.55-5.36-.82S103.85,252.57,109.33,253Z" style="fill:#fff;opacity:0.2;isolation:isolate"></path><path d="M118.75,256.91s13.08-8.64,13.48-11.53-7.63,4.2-7.63,4.2,12.05-19.79,9.43-22.75-10.91,16.68-10.91,16.68,8.58-31.23,3.34-33-7.62,31.41-7.62,31.41-.71-16.29-4.76-16.22.5,18.35.5,18.35-3.77-6.41-5.52-4.75S112.78,252.55,118.75,256.91Z" style="fill:#2AB6B3"></path><path d="M118.75,256.91s13.08-8.64,13.48-11.53-7.63,4.2-7.63,4.2,12.05-19.79,9.43-22.75-10.91,16.68-10.91,16.68,8.58-31.23,3.34-33-7.62,31.41-7.62,31.41-.71-16.29-4.76-16.22.5,18.35.5,18.35-3.77-6.41-5.52-4.75S112.78,252.55,118.75,256.91Z" style="fill:#fff;opacity:0.4;isolation:isolate"></path><path d="M156.13,251.52s11.42-8.08,22.33-6.5,11.3,8.71,11.3,8.71,18.61-1.19,24.93,0,11.45,9.58,11.46,11.71-3.17,10.05,0,11.43,19.91-1,22.42,3.76,7.84,33.34,12.1,33.68,21.65-2.43,29.76,5.88,8,2.07,12.21,12.31,8.43,14.43,11.27,14.71S346,351,352.75,360.93A141,141,0,0,0,367.66,379s40.22,3.54,43.24,11.59H60.61S60,330,65.14,325.08A39.63,39.63,0,0,1,76.9,317.7s5.87-33.73,6.15-35.8,7.41-11,9-17.62,14-15.7,19.85-17.68,21,.73,22.31,4.92S156.13,251.52,156.13,251.52Z" style="fill:#263238"></path><path d="M410.9,390.59H60.61s-.07-6.48,0-15.38c.19-18.3,1-46.83,4.5-50.13A39.63,39.63,0,0,1,76.9,317.7a.65.65,0,0,0,0-.1c.32-1.85,5.16-29.66,6-34.94l.12-.76c.29-2.06,7.41-11,9-17.62s14-15.7,19.85-17.68,21,.73,22.31,4.92,21.93,0,21.93,0a43.59,43.59,0,0,1,12.54-5.75h0a24.59,24.59,0,0,1,9.77-.75c10.9,1.58,11.3,8.71,11.3,8.71s18.61-1.19,24.93,0c5.84,1.09,10.66,8.35,11.37,11.12a2.42,2.42,0,0,1,.09.59c0,2.13-3.17,10.05,0,11.43a17,17,0,0,0,5,.51c6.18.11,15.6-.22,17.43,3.25A27.77,27.77,0,0,1,250.1,285v0c2.8,9.46,7,29,10.57,29.31h.21c4.59.24,21.57-2.31,29.55,5.87,6.81,7,7.82,3.7,10.46,8.51a38,38,0,0,1,1.75,3.8c4.22,10.24,8.43,14.43,11.27,14.71,2.64.25,28.18,3.35,37.13,11.76a11.49,11.49,0,0,1,1.71,2A141,141,0,0,0,367.66,379S407.88,382.54,410.9,390.59Z" style="fill:#fff;opacity:0.4"></path><path d="M109.62,320.76s-14.3-5.19-15.68-4.92c-1.18.22-13.47,1.42-17,1.76.32-1.85,5.16-29.66,6-34.94,3.34,3.12,15.81,14.81,17.5,17.09C102.37,302.38,109.62,320.76,109.62,320.76Z" style="opacity:0.2;isolation:isolate"></path><path d="M189.76,253.73s-3.83.45-5.14-.76-5.77-6.32-15.93-7.2a24.59,24.59,0,0,1,9.77-.75C189.36,246.6,189.76,253.73,189.76,253.73Z" style="opacity:0.2;isolation:isolate"></path><path d="M231.14,277.38v0H210.57s-7.65-6.48-9-8.15-3.35-6.69-3.35-6.69,12.66,2.73,16.44,3.34c2.5.41,8-.43,11.36-1a2.42,2.42,0,0,1,.09.59c0,2.13-3.17,10.05,0,11.43A17,17,0,0,0,231.14,277.38Z" style="opacity:0.2;isolation:isolate"></path><path d="M260.88,314.32H240s-4.82-18.86-4.26-20.54,5.82,2.24,9.13,3.58c2.18.87,4.14-6.92,5.23-12.36,2.8,9.46,7,29,10.57,29.31Z" style="opacity:0.2;isolation:isolate"></path><path d="M351,359c-6.37,5.67-19.82,9.56-24.45,13.75-3.52,3.19-7.86,12-10.48,17.87H239c-16.64-1.19-29.6-2.08-30.2-2-1.72.22.56-69.77,12.26-65.37s31.45,29.54,31.45,29.54l18.38,12.37,8.49-9.36s8.67-5.65,11.1-4.28c2.21,1.24,8.79-16.86,10.46-22.79a38,38,0,0,1,1.75,3.8c4.22,10.24,8.43,14.43,11.27,14.71C316.55,347.46,342.09,350.56,351,359Z" style="opacity:0.2;isolation:isolate"></path><path d="M184.26,390.59H60.61s-.07-6.48,0-15.38a90.37,90.37,0,0,1,9-2.49c1.32-.34,17.14-18.59,17.14-18.59s14.5-7.17,16.78-6.22,18.56,18.56,21.46,22.56,14.51-1.36,19-1.55,15.82-18,17.67-21.71,13.3-6.86,13.3-6.86S182.5,377.28,184.26,390.59Z" style="opacity:0.2;isolation:isolate"></path><path d="M183.23,262.41v51.21h29.33a10.88,10.88,0,0,1,10.89,10.89v61.4H439a8.83,8.83,0,0,1,8.83,8.83v3.91H49.35V395.3a8.83,8.83,0,0,1,8.83-8.83H173.74V335.71a10.63,10.63,0,0,0-10.63-10.63h-9.76a9.14,9.14,0,0,1-9.15-9.15V263.85a12.6,12.6,0,0,0-10-12.33h38.14A10.88,10.88,0,0,1,183.23,262.41Z" style="fill:#2AB6B3"></path><path d="M183.23,262.41v51.21h29.33a10.88,10.88,0,0,1,10.89,10.89v61.4H439a8.83,8.83,0,0,1,8.83,8.83v3.91H49.35V395.3a8.83,8.83,0,0,1,8.83-8.83H173.74V335.71a10.63,10.63,0,0,0-10.63-10.63h-9.76a9.14,9.14,0,0,1-9.15-9.15V263.85a12.6,12.6,0,0,0-10-12.33h38.14A10.88,10.88,0,0,1,183.23,262.41Z" style="fill:#fff;opacity:0.6000000000000001"></path><path d="M167.41,386.47c-2.9-3.21-2.9-7.74,0-5.34s4.22,5.43,6.33,2.33,5-7.2,7.38-3.3,7.12,4.77,9.5,2.36,6.09-7.34,8-4,3,6.28,7.24,3.38,9.76-3.31,10.82-1.78,0,2.57,4.22,1.78,11.86,1.61,7.91,4Z" style="fill:#2AB6B3"></path><path d="M167.41,386.47c-2.9-3.21-2.9-7.74,0-5.34s4.22,5.43,6.33,2.33,5-7.2,7.38-3.3,7.12,4.77,9.5,2.36,6.09-7.34,8-4,3,6.28,7.24,3.38,9.76-3.31,10.82-1.78,0,2.57,4.22,1.78,11.86,1.61,7.91,4Z" style="fill:#fff;opacity:0.8"></path><path d="M144.68,314.31c-2.4-3.21-2.4-7.74,0-5.34s3.49,5.43,5.23,2.33,4.15-7.21,6.11-3.31,5.89,4.78,7.86,2.37,5-7.34,6.66-4,2.5,6.28,6,3.38,8.07-3.31,8.94-1.79,0,2.58,3.49,1.79,9.82,1.61,6.55,4Z" style="fill:#2AB6B3"></path><path d="M144.68,314.31c-2.4-3.21-2.4-7.74,0-5.34s3.49,5.43,5.23,2.33,4.15-7.21,6.11-3.31,5.89,4.78,7.86,2.37,5-7.34,6.66-4,2.5,6.28,6,3.38,8.07-3.31,8.94-1.79,0,2.58,3.49,1.79,9.82,1.61,6.55,4Z" style="fill:#fff;opacity:0.8"></path><path d="M178.46,320.76c3.72,0,4.24,22.42,4.77,31.91s.53-8.7,4-10.81,3.16,9.31,5.54,7,1.05-17.85,3.69-19.16,2.9,14.1,5.54,14.17,4.25-11.27,5.16-11,3.28,12.4,5.12,9.76,2.64-13.45,4.75-8.7,4.16-9.66,2.11-14.51c0,0-.26,9.44-2.9,5.64s-.27-6.7-4.49-7.22-3.69,7.59-6.85,7.22-3.45-5.38-7.27-5.38-3.81,6.28-7.24,5.38-4.48-3.79-7.12-5.38S178.46,320.76,178.46,320.76Z" style="fill:#fff;opacity:0.2"></path><path d="M145.78,258.56c3.09,0,3.53,15.11,4,21.51s.44-5.87,3.29-7.29,2.62,6.27,4.59,4.74.88-12,3.07-12.91,2.4,9.5,4.59,9.55,3.54-7.6,4.29-7.42,2.72,8.35,4.25,6.57,2.19-9.06,3.94-5.86,3.45-6.51,1.75-9.77c0,0-.22,6.36-2.41,3.8s-.22-4.52-3.72-4.87-3.06,5.12-5.69,4.87-2.86-3.63-6-3.63-3.16,4.23-6,3.63-3.72-2.56-5.91-3.63A3.61,3.61,0,0,0,145.78,258.56Z" style="fill:#fff;opacity:0.2"></path></g></svg>