<svg xmlns="http://www.w3.org/2000/svg" viewBox="0 0 500 500"><g id="freepik--Desk--inject-16"><g id="freepik--desk--inject-16"><g id="freepik--desk--inject-16"><polygon points="431.49 363.9 379.1 333.66 379.1 336.15 431.49 366.39 431.49 363.9" style="fill:#263238"></polygon><polygon points="431.49 361.42 379.1 331.17 379.1 333.66 431.49 363.9 431.49 361.42" style="fill:#37474f"></polygon><polygon points="355.29 405.4 306.68 377.33 304.79 378.73 355.29 407.89 355.29 405.4" style="fill:#37474f"></polygon><polygon points="355.29 380.13 355.29 437.26 353.4 436.18 353.4 379.04 355.29 380.13" style="fill:#263238"></polygon><polygon points="355.29 380.13 355.29 437.26 357.18 436.18 357.18 379.04 355.29 380.13" style="fill:#37474f"></polygon><polygon points="304.79 350.97 304.79 408.11 302.9 407.02 302.9 349.88 304.79 350.97" style="fill:#263238"></polygon><polygon points="304.79 350.97 304.79 408.11 306.68 407.02 306.68 349.88 304.79 350.97" style="fill:#37474f"></polygon><polygon points="355.29 407.89 302.9 377.64 302.9 380.13 355.29 410.38 355.29 407.89" style="fill:#263238"></polygon><polygon points="429.6 337.24 429.6 394.37 427.71 393.28 427.71 336.15 429.6 337.24" style="fill:#263238"></polygon><polygon points="429.6 337.24 429.6 394.37 431.49 393.28 431.49 336.15 429.6 337.24" style="fill:#37474f"></polygon><polygon points="355.29 370.05 355.29 383.49 302.9 353.25 302.9 339.8 355.29 370.05" style="fill:#37474f"></polygon><polygon points="355.29 383.49 431.49 339.51 431.49 332.79 355.29 376.77 355.29 383.49" style="fill:#455a64"></polygon><g id="freepik--desk--inject-16"><polygon points="355.29 376.77 297.08 343.16 379.1 295.82 437.31 329.42 355.29 376.77" style="fill:#2AB6B3"></polygon><polygon points="355.29 376.77 297.08 343.16 379.1 295.82 437.31 329.42 355.29 376.77" style="fill:#fff;opacity:0.7000000000000001"></polygon><polygon points="297.08 343.16 297.08 346.52 355.29 380.13 355.29 376.77 297.08 343.16" style="fill:#2AB6B3"></polygon><polygon points="297.08 343.16 297.08 346.52 355.29 380.13 355.29 376.77 297.08 343.16" style="fill:#fff;opacity:0.25"></polygon><polygon points="355.29 380.13 437.31 332.79 437.31 329.42 355.29 376.77 355.29 380.13" style="fill:#2AB6B3"></polygon><polygon points="355.29 380.13 437.31 332.79 437.31 329.42 355.29 376.77 355.29 380.13" style="fill:#fff;opacity:0.4"></polygon></g></g><polygon points="355.66 371.77 325.65 354.44 370.66 328.46 400.67 345.78 355.66 371.77" style="fill:#2AB6B3;opacity:0.2"></polygon><g id="freepik--Notebook--inject-16"><g id="freepik--notebook--inject-16"><path d="M347.77,340.84v-.55l20.91-11.52a1.08,1.08,0,0,1,1,0l29,16.36v.55a.35.35,0,0,1-.21.28L377.55,358Z" style="fill:#2AB6B3"></path><path d="M398.67,345.68v-.55l-.36-.2-20.76,12.55V358L398.46,346A.35.35,0,0,0,398.67,345.68Z" style="opacity:0.2"></path><path d="M347.77,340.29l20.91-12.07a1.08,1.08,0,0,1,1,0l28.79,16.62c.28.16.28.41,0,.57l-20.91,12.07Z" style="fill:#2AB6B3"></path><polygon points="377.55 358.04 377.55 357.49 347.77 340.29 347.77 340.84 377.55 358.04" style="opacity:0.4"></polygon><path d="M348.25,341.11l-21.14,11.13-.44.68v.55a.79.79,0,0,0,.44.68L355,370.24a1.51,1.51,0,0,0,.72.18,1.55,1.55,0,0,0,.73-.18l20.66-11.93v-.55Z" style="fill:#2AB6B3"></path><path d="M348.25,341.11l-21.14,11.13-.44.68v.55a.79.79,0,0,0,.44.68L355,370.24a1.51,1.51,0,0,0,.72.18,1.55,1.55,0,0,0,.73-.18l20.66-11.93v-.55Z" style="opacity:0.2"></path><path d="M355.69,369.87a1.51,1.51,0,0,1-.72-.18L327.11,353.6a.79.79,0,0,1-.44-.68.77.77,0,0,1,.44-.68l20.2-11.67,29.77,17.19-20.66,11.93A1.55,1.55,0,0,1,355.69,369.87Z" style="fill:#2AB6B3"></path><path d="M348.42,338v2.43l28.86,16.64,20.23-11.67a.56.56,0,0,0,.25-.44v-1.56a.56.56,0,0,0-.25-.44L369.1,326.66a1,1,0,0,0-1,0Z" style="fill:#ebebeb"></path><polygon points="348.42 338.04 377.29 354.7 377.29 357.1 348.42 340.46 348.42 338.04" style="fill:#e0e0e0"></polygon><path d="M397.53,343l0,0L369.1,326.66a1,1,0,0,0-1,0L348.49,338l-.07.05,28.86,16.66Z" style="fill:#fafafa"></path><path d="M347.51,338.84l-20,11.53-.21.29v2.15h0a.35.35,0,0,0,.21.28l27.86,16.09a1.08,1.08,0,0,0,1,0l20-11.54V355.5Z" style="fill:#ebebeb"></path><path d="M376.36,355.5l-.25.14-3.25,1.88-.61.35L356.38,367a1.08,1.08,0,0,1-1,0L327.52,351a.31.31,0,0,1,0-.58l.27-.15,19.72-11.38,28.6,16.51.06,0Z" style="fill:#f0f0f0"></path><path d="M355.88,367.15v2.15a1,1,0,0,1-.49-.12l-27.87-16.09a.35.35,0,0,1-.2-.29v-2.14a.37.37,0,0,0,.2.29L355.39,367A1,1,0,0,0,355.88,367.15Z" style="fill:#e0e0e0"></path><path d="M376.36,355.21l-3.6,2.08-.56.32-15.82,9.14a1.15,1.15,0,0,1-1,0l-24.95-14.41q-.35-.18-.63-.36a6.07,6.07,0,0,1-2-1.76l-.05-.07a.47.47,0,0,1-.06-.15.45.45,0,0,1,.35-.51,9.21,9.21,0,0,0,1.88-.78h0l17.57-10.15Z" style="fill:#fafafa"></path><path d="M355.12,338.5a1.2,1.2,0,0,1-.57-.14l-1.07-.62a.44.44,0,0,1-.26-.36.33.33,0,0,1,.19-.28l14.92-8.62a1.15,1.15,0,0,1,1,0l1.06.61a.48.48,0,0,1,.27.36.35.35,0,0,1-.2.29l-14.91,8.62A1,1,0,0,1,355.12,338.5Zm13.65-10a.78.78,0,0,0-.39.09l-14.92,8.62a.26.26,0,0,0-.15.2.38.38,0,0,0,.22.28l1.06.61a1,1,0,0,0,.93,0l14.92-8.62a.23.23,0,0,0,.14-.2.37.37,0,0,0-.21-.28l-1.07-.61A1,1,0,0,0,368.77,328.47Z" style="fill:#e0e0e0"></path><polygon points="354.06 338.05 354.01 337.97 369.83 328.83 369.88 328.91 354.06 338.05" style="fill:#e0e0e0"></polygon><path d="M378.46,352a1,1,0,0,1-.5-.12l-21.3-12.27a.38.38,0,0,1-.22-.32.4.4,0,0,1,.22-.32l14.85-8.58a1.14,1.14,0,0,1,1,0l21.29,12.27a.37.37,0,0,1,.23.32.39.39,0,0,1-.23.32L379,351.84A1,1,0,0,1,378.46,352ZM372,330.32a1,1,0,0,0-.46.11L356.71,339c-.11.07-.18.15-.18.24a.3.3,0,0,0,.18.24L378,351.76a1.08,1.08,0,0,0,.93,0l14.85-8.58a.3.3,0,0,0,.17-.24.28.28,0,0,0-.18-.24l-21.29-12.27A1,1,0,0,0,372,330.32Z" style="fill:#e0e0e0"></path><polygon points="357.29 339.9 357.24 339.82 373.06 330.68 373.1 330.76 357.29 339.9" style="fill:#e0e0e0"></polygon><polygon points="358.35 340.52 358.3 340.44 374.12 331.29 374.16 331.38 358.35 340.52" style="fill:#e0e0e0"></polygon><polygon points="359.41 341.13 359.36 341.05 375.18 331.9 375.23 331.99 359.41 341.13" style="fill:#e0e0e0"></polygon><polygon points="360.47 341.74 360.42 341.66 376.24 332.52 376.29 332.6 360.47 341.74" style="fill:#e0e0e0"></polygon><polygon points="361.53 342.35 361.48 342.27 377.3 333.13 377.35 333.21 361.53 342.35" style="fill:#e0e0e0"></polygon><polygon points="362.59 342.96 362.54 342.88 378.36 333.74 378.41 333.82 362.59 342.96" style="fill:#e0e0e0"></polygon><polygon points="363.65 343.57 363.6 343.49 379.42 334.35 379.47 334.43 363.65 343.57" style="fill:#e0e0e0"></polygon><polygon points="364.71 344.18 364.67 344.1 380.48 334.96 380.53 335.04 364.71 344.18" style="fill:#e0e0e0"></polygon><polygon points="365.77 344.79 365.73 344.71 381.54 335.57 381.59 335.65 365.77 344.79" style="fill:#e0e0e0"></polygon><polygon points="366.83 345.4 366.79 345.32 382.61 336.18 382.65 336.26 366.83 345.4" style="fill:#e0e0e0"></polygon><polygon points="367.89 346.02 367.85 345.94 383.67 336.79 383.71 336.88 367.89 346.02" style="fill:#e0e0e0"></polygon><polygon points="368.95 346.63 368.91 346.55 384.73 337.4 384.77 337.49 368.95 346.63" style="fill:#e0e0e0"></polygon><polygon points="370.02 347.24 369.97 347.16 385.79 338.02 385.83 338.1 370.02 347.24" style="fill:#e0e0e0"></polygon><polygon points="371.08 347.85 371.03 347.77 386.85 338.63 386.9 338.71 371.08 347.85" style="fill:#e0e0e0"></polygon><polygon points="372.14 348.46 372.09 348.38 387.91 339.24 387.96 339.32 372.14 348.46" style="fill:#e0e0e0"></polygon><polygon points="373.2 349.07 373.15 348.99 388.97 339.85 389.02 339.93 373.2 349.07" style="fill:#e0e0e0"></polygon><polygon points="374.26 349.68 374.21 349.6 390.03 340.46 390.08 340.54 374.26 349.68" style="fill:#e0e0e0"></polygon><polygon points="375.32 350.29 375.27 350.21 391.09 341.07 391.14 341.15 375.32 350.29" style="fill:#e0e0e0"></polygon><polygon points="376.38 350.9 376.33 350.82 392.15 341.68 392.2 341.76 376.38 350.9" style="fill:#e0e0e0"></polygon><polygon points="377.44 351.52 377.4 351.44 393.21 342.29 393.26 342.38 377.44 351.52" style="fill:#e0e0e0"></polygon><path d="M332.48,351.61a1.27,1.27,0,0,1-.58-.14l-1.06-.61a.46.46,0,0,1-.27-.36.33.33,0,0,1,.2-.29l14.91-8.62a1.15,1.15,0,0,1,1,0l1.07.62a.44.44,0,0,1,.26.35.34.34,0,0,1-.19.29l-14.92,8.62A.89.89,0,0,1,332.48,351.61Zm13.65-10a.84.84,0,0,0-.4.09l-14.92,8.62a.26.26,0,0,0-.14.21.37.37,0,0,0,.21.27l1.07.62a1.07,1.07,0,0,0,.92,0l14.92-8.62a.27.27,0,0,0,.15-.21c0-.09-.08-.19-.22-.27l-1.06-.62A1.19,1.19,0,0,0,346.13,341.58Z" style="fill:#e0e0e0"></path><polygon points="331.42 351.16 331.37 351.08 347.19 341.94 347.24 342.02 331.42 351.16" style="fill:#e0e0e0"></polygon><path d="M355.82,365.07a1,1,0,0,1-.51-.12L334,352.69a.34.34,0,0,1,0-.65l14.85-8.58a1.12,1.12,0,0,1,1,0l21.3,12.27a.34.34,0,0,1,0,.64L356.33,365A1.07,1.07,0,0,1,355.82,365.07Zm-6.44-21.63a.91.91,0,0,0-.47.11l-14.85,8.58a.25.25,0,0,0,0,.47l21.3,12.27a1,1,0,0,0,.92,0l14.85-8.58c.11-.07.18-.15.18-.24s-.07-.17-.18-.24l-21.29-12.26A.9.9,0,0,0,349.38,343.44Z" style="fill:#e0e0e0"></path><polygon points="334.64 353.02 334.59 352.94 350.41 343.8 350.46 343.88 334.64 353.02" style="fill:#e0e0e0"></polygon><polygon points="335.7 353.63 335.65 353.55 351.47 344.41 351.52 344.49 335.7 353.63" style="fill:#e0e0e0"></polygon><polygon points="336.76 354.24 336.71 354.16 352.53 345.02 352.58 345.1 336.76 354.24" style="fill:#e0e0e0"></polygon><polygon points="337.82 354.85 337.78 354.77 353.59 345.63 353.64 345.71 337.82 354.85" style="fill:#e0e0e0"></polygon><polygon points="338.88 355.46 338.84 355.38 354.65 346.24 354.7 346.32 338.88 355.46" style="fill:#e0e0e0"></polygon><polygon points="339.94 356.07 339.9 355.99 355.72 346.85 355.76 346.93 339.94 356.07" style="fill:#e0e0e0"></polygon><polygon points="341 356.69 340.96 356.6 356.78 347.46 356.82 347.54 341 356.69" style="fill:#e0e0e0"></polygon><polygon points="342.07 357.3 342.02 357.21 357.84 348.07 357.88 348.15 342.07 357.3" style="fill:#e0e0e0"></polygon><polygon points="343.13 357.91 343.08 357.82 358.9 348.69 358.95 348.77 343.13 357.91" style="fill:#e0e0e0"></polygon><polygon points="344.19 358.52 344.14 358.44 359.96 349.3 360.01 349.38 344.19 358.52" style="fill:#e0e0e0"></polygon><polygon points="345.25 359.13 345.2 359.05 361.02 349.91 361.07 349.99 345.25 359.13" style="fill:#e0e0e0"></polygon><polygon points="346.31 359.74 346.26 359.66 362.08 350.52 362.13 350.6 346.31 359.74" style="fill:#e0e0e0"></polygon><polygon points="347.37 360.35 347.32 360.27 363.14 351.13 363.19 351.21 347.37 360.35" style="fill:#e0e0e0"></polygon><polygon points="348.43 360.96 348.38 360.88 364.2 351.74 364.25 351.82 348.43 360.96" style="fill:#e0e0e0"></polygon><polygon points="349.49 361.57 349.45 361.49 365.26 352.35 365.31 352.43 349.49 361.57" style="fill:#e0e0e0"></polygon><polygon points="350.55 362.19 350.51 362.1 366.33 352.96 366.37 353.04 350.55 362.19" style="fill:#e0e0e0"></polygon><polygon points="351.62 362.8 351.57 362.71 367.39 353.57 367.43 353.65 351.62 362.8" style="fill:#e0e0e0"></polygon><polygon points="352.68 363.41 352.63 363.32 368.45 354.19 368.5 354.27 352.68 363.41" style="fill:#e0e0e0"></polygon><polygon points="353.74 364.02 353.69 363.94 369.51 354.8 369.56 354.88 353.74 364.02" style="fill:#e0e0e0"></polygon><polygon points="354.8 364.63 354.75 364.55 370.57 355.41 370.62 355.49 354.8 364.63" style="fill:#e0e0e0"></polygon><path d="M377.14,353.68a.53.53,0,0,1-.11.09,1,1,0,0,1-.21.08,1.16,1.16,0,0,1-.76-.08.31.31,0,0,1,0-.57l.16-.06a1,1,0,0,1,.63,0,.75.75,0,0,1,.18.07C377.26,353.33,377.29,353.53,377.14,353.68Z" style="opacity:0.1"></path><path d="M374.22,352a.24.24,0,0,1-.11.08.49.49,0,0,1-.21.08,1,1,0,0,1-.75-.08c-.27-.15-.27-.4,0-.56l.16-.07h0a1.13,1.13,0,0,1,.63,0,.67.67,0,0,1,.18.07C374.34,351.65,374.38,351.85,374.22,352Z" style="opacity:0.1"></path><path d="M371.31,350.31l-.11.09a.72.72,0,0,1-.22.08,1.07,1.07,0,0,1-.75-.08.3.3,0,0,1,0-.56l.17-.07a1,1,0,0,1,.62,0,.48.48,0,0,1,.18.07C371.42,350,371.46,350.16,371.31,350.31Z" style="opacity:0.1"></path><path d="M368.39,348.63a.31.31,0,0,1-.11.08.67.67,0,0,1-.21.09,1.06,1.06,0,0,1-.75-.09c-.27-.15-.27-.4,0-.56a.59.59,0,0,1,.16-.06,1,1,0,0,1,.63,0h0l.17.07C368.51,348.28,368.54,348.48,368.39,348.63Z" style="opacity:0.1"></path><path d="M365.48,347l-.11.08a.58.58,0,0,1-.22.08,1,1,0,0,1-.75-.08c-.27-.15-.27-.4,0-.56l.16-.07a1.13,1.13,0,0,1,.63,0,.67.67,0,0,1,.18.07C365.59,346.6,365.63,346.8,365.48,347Z" style="opacity:0.1"></path><path d="M362.56,345.26a.33.33,0,0,1-.11.09.66.66,0,0,1-.21.08,1.1,1.1,0,0,1-.76-.08.3.3,0,0,1,0-.56.56.56,0,0,1,.16-.07h0a1.18,1.18,0,0,1,.62,0,.75.75,0,0,1,.18.08C362.67,344.92,362.71,345.11,362.56,345.26Z" style="opacity:0.1"></path><path d="M359.65,343.58l-.11.08a.85.85,0,0,1-.22.09,1.06,1.06,0,0,1-.75-.09c-.27-.15-.27-.4,0-.56a.76.76,0,0,1,.16-.06h0a1,1,0,0,1,.63,0h0l.18.07C359.76,343.23,359.8,343.43,359.65,343.58Z" style="opacity:0.1"></path><path d="M356.73,341.9l-.11.08a.58.58,0,0,1-.22.08,1,1,0,0,1-.75-.08.3.3,0,0,1,0-.56l.17-.07a1.09,1.09,0,0,1,.62,0,.56.56,0,0,1,.18.07C356.84,341.55,356.88,341.75,356.73,341.9Z" style="opacity:0.1"></path><path d="M353.81,340.22l-.11.08a1,1,0,0,1-.21.08,1.12,1.12,0,0,1-.75-.08c-.27-.16-.27-.41,0-.56l.16-.07h0a1.12,1.12,0,0,1,.63,0h0l.17.08C353.93,339.86,354,340.06,353.81,340.22Z" style="opacity:0.1"></path><path d="M350.9,338.53l-.11.08a.58.58,0,0,1-.22.08,1,1,0,0,1-.75-.08c-.27-.15-.27-.4,0-.56L350,338a1.13,1.13,0,0,1,.63,0l.18.07C351,338.18,351.05,338.38,350.9,338.53Z" style="opacity:0.1"></path><path d="M373.46,354.71c-.27.15-.27.4,0,.56a1.1,1.1,0,0,0,1,0c.27-.16.27-.41,0-.56A1,1,0,0,0,373.46,354.71Z" style="opacity:0.1"></path><path d="M376.85,353.13a.92.92,0,0,0-.28-.24,1.28,1.28,0,0,0-1.3.09,3.71,3.71,0,0,0-1.36,1.61,4.81,4.81,0,0,0-.28.75h.06l.12,0H374a4.2,4.2,0,0,1,.29-.74,3.26,3.26,0,0,1,1.17-1.35,1.21,1.21,0,0,1,.59-.18.52.52,0,0,1,.18,0,.49.49,0,0,1,.17.06,1,1,0,0,1,.43.65,1,1,0,0,0,.21-.08.53.53,0,0,0,.11-.09A1.45,1.45,0,0,0,376.85,353.13Z" style="fill:#263238"></path><path d="M370.54,353a.3.3,0,0,0,0,.56,1,1,0,0,0,1,0c.27-.15.27-.4,0-.56A1.1,1.1,0,0,0,370.54,353Z" style="opacity:0.1"></path><path d="M373.94,351.45a1,1,0,0,0-.29-.24,1.26,1.26,0,0,0-1.3.09,3.58,3.58,0,0,0-1.35,1.61,4.16,4.16,0,0,0-.28.74h.35a3.67,3.67,0,0,1,.29-.74,3.27,3.27,0,0,1,1.17-1.35,1.21,1.21,0,0,1,.59-.18l.19,0h0l.16.07a1,1,0,0,1,.43.64.49.49,0,0,0,.21-.08.24.24,0,0,0,.11-.08A1.43,1.43,0,0,0,373.94,351.45Z" style="fill:#263238"></path><path d="M367.63,351.34c-.27.15-.27.4,0,.56a1.1,1.1,0,0,0,1,0,.3.3,0,0,0,0-.56A1,1,0,0,0,367.63,351.34Z" style="opacity:0.1"></path><path d="M371,349.77a1.32,1.32,0,0,0-.28-.25,1.29,1.29,0,0,0-1.3.1,3.54,3.54,0,0,0-1.36,1.61,5.1,5.1,0,0,0-.28.74.7.7,0,0,0,.14,0h.22a4.2,4.2,0,0,1,.29-.74,3.23,3.23,0,0,1,1.17-1.34,1.23,1.23,0,0,1,.59-.19.63.63,0,0,1,.19,0,.56.56,0,0,1,.16.07,1,1,0,0,1,.42.64.72.72,0,0,0,.22-.08l.11-.09A1.47,1.47,0,0,0,371,349.77Z" style="fill:#263238"></path><path d="M364.71,349.65a.31.31,0,0,0,0,.57,1.1,1.1,0,0,0,1,0,.3.3,0,0,0,0-.57A1.1,1.1,0,0,0,364.71,349.65Z" style="opacity:0.1"></path><path d="M368.11,348.08h0a1.09,1.09,0,0,0-.29-.24,1.28,1.28,0,0,0-1.3.09,3.72,3.72,0,0,0-1.36,1.61,4.81,4.81,0,0,0-.28.75H365l.11,0h.18a4.2,4.2,0,0,1,.29-.74,3.26,3.26,0,0,1,1.17-1.35,1.21,1.21,0,0,1,.59-.18.58.58,0,0,1,.19,0,.44.44,0,0,1,.16.06,1,1,0,0,1,.43.65.67.67,0,0,0,.21-.09.31.31,0,0,0,.11-.08A1.59,1.59,0,0,0,368.11,348.08Z" style="fill:#263238"></path><path d="M361.8,348c-.27.16-.27.41,0,.56a1,1,0,0,0,1,0c.27-.15.27-.4,0-.56A1.08,1.08,0,0,0,361.8,348Z" style="opacity:0.1"></path><path d="M365.19,346.4a1.05,1.05,0,0,0-.28-.24,1.28,1.28,0,0,0-1.31.09,3.58,3.58,0,0,0-1.35,1.61,4.16,4.16,0,0,0-.28.74l.07,0,.11,0h.17a5.42,5.42,0,0,1,.29-.74,3.27,3.27,0,0,1,1.17-1.35,1.24,1.24,0,0,1,.6-.18l.18,0,.17.07a1,1,0,0,1,.42.64.58.58,0,0,0,.22-.08l.11-.08A1.44,1.44,0,0,0,365.19,346.4Z" style="fill:#263238"></path><path d="M358.88,346.29c-.27.15-.27.4,0,.56a1.1,1.1,0,0,0,1,0c.27-.16.27-.41,0-.56A1,1,0,0,0,358.88,346.29Z" style="opacity:0.1"></path><path d="M362.27,344.71a1.13,1.13,0,0,0-1.58-.15,3.75,3.75,0,0,0-1.36,1.62,4.7,4.7,0,0,0-.28.74h.06l.12,0h.18a4.2,4.2,0,0,1,.29-.74,3.26,3.26,0,0,1,1.17-1.35,1.33,1.33,0,0,1,.59-.18.57.57,0,0,1,.18,0h0l.16.06a1,1,0,0,1,.43.65.66.66,0,0,0,.21-.08.33.33,0,0,0,.11-.09A1.45,1.45,0,0,0,362.27,344.71Z" style="fill:#263238"></path><path d="M356,344.6a.3.3,0,0,0,0,.57,1.1,1.1,0,0,0,1,0,.3.3,0,0,0,0-.57A1.08,1.08,0,0,0,356,344.6Z" style="opacity:0.1"></path><path d="M359.36,343h0a1.09,1.09,0,0,0-.29-.24,1.28,1.28,0,0,0-1.3.09,3.69,3.69,0,0,0-1.35,1.61,4,4,0,0,0-.28.75l.07,0h.28a4.74,4.74,0,0,1,.29-.74,3.26,3.26,0,0,1,1.17-1.35,1.21,1.21,0,0,1,.6-.18.57.57,0,0,1,.18,0h0a.44.44,0,0,1,.16.06,1,1,0,0,1,.43.65.85.85,0,0,0,.22-.09l.11-.08A1.69,1.69,0,0,0,359.36,343Z" style="fill:#263238"></path><path d="M353.05,342.92c-.27.16-.27.41,0,.56a1,1,0,0,0,1,0,.3.3,0,0,0,0-.56A1.1,1.1,0,0,0,353.05,342.92Z" style="opacity:0.1"></path><path d="M356.44,341.35a1.05,1.05,0,0,0-.28-.24,1.26,1.26,0,0,0-1.3.09,3.6,3.6,0,0,0-1.36,1.61,4.16,4.16,0,0,0-.28.74h0l.07,0,.07,0h.09a.28.28,0,0,0,.13,0,3.83,3.83,0,0,1,.29-.73,3.26,3.26,0,0,1,1.17-1.35,1.21,1.21,0,0,1,.59-.18.62.62,0,0,1,.19,0l.16.07a1,1,0,0,1,.42.64.58.58,0,0,0,.22-.08l.11-.08A1.38,1.38,0,0,0,356.44,341.35Z" style="fill:#263238"></path><path d="M350.13,341.24a.3.3,0,0,0,0,.56,1.1,1.1,0,0,0,1,0c.27-.16.27-.41,0-.56A1,1,0,0,0,350.13,341.24Z" style="opacity:0.1"></path><path d="M353.53,339.66h0a1.09,1.09,0,0,0-.29-.24,1.28,1.28,0,0,0-1.3.09,3.77,3.77,0,0,0-1.36,1.61,4.81,4.81,0,0,0-.28.75l.07,0,.12,0h.17a3.83,3.83,0,0,1,.29-.73,3.14,3.14,0,0,1,1.17-1.35,1.23,1.23,0,0,1,.59-.19.58.58,0,0,1,.19,0h0a.44.44,0,0,1,.16.06,1,1,0,0,1,.43.65,1,1,0,0,0,.21-.08l.11-.08A1.55,1.55,0,0,0,353.53,339.66Z" style="fill:#263238"></path><path d="M347.22,339.55c-.27.16-.27.41,0,.56a1,1,0,0,0,1,0c.27-.15.27-.4,0-.56A1.08,1.08,0,0,0,347.22,339.55Z" style="opacity:0.1"></path><path d="M350.61,338a1.05,1.05,0,0,0-.28-.24,1.3,1.3,0,0,0-1.31.09,3.77,3.77,0,0,0-1.36,1.61,5.05,5.05,0,0,0-.27.74l.05,0,.12,0h.18a4.41,4.41,0,0,1,.3-.74,3.24,3.24,0,0,1,1.16-1.35,1.21,1.21,0,0,1,.6-.18l.18,0,.17.07a1,1,0,0,1,.42.64.58.58,0,0,0,.22-.08l.11-.08A1.52,1.52,0,0,0,350.61,338Z" style="fill:#263238"></path></g><g style="opacity:0.5"><path d="M361.62,351.31c0-.06-.07-.06-.08,0a.4.4,0,0,1-.41.38,1.55,1.55,0,0,1-.48,0s0,0,0,0a1.8,1.8,0,0,1-.13.43c-.11-.08-.24-.17-.34,0s0,.62-.29.35c0,0-.06,0-.08,0-.15.24-.32.25-.44.1a.89.89,0,0,0-.13-.24c0-.07-.08,0-.07.07a1.59,1.59,0,0,0,.07.2.74.74,0,0,1-.14.56c-.26.19-.57-.26-.61-.47h0v0c0-.1-.13-.05-.11,0v0a.89.89,0,0,1-.09.62c-.14.24-.32.12-.48-.06s-.08,0-.08.06c0,.3-.23.71-.51.35,0,0-.08,0-.09,0l-.09.35a1.55,1.55,0,0,1-.08.23c0,.13-.05.14-.12,0s-.17-.22-.31-.21-.22.28-.21.47c-.11-.06-.25-.12-.35-.05s-.14.24-.16.37c-.09-.08-.2-.17-.32-.09s-.16.28-.19.43a.54.54,0,0,1-.31-.27c0-.05-.06,0-.07,0s0,.39,0,.51-.46-.19-.52-.35-.13-.07-.12,0c0,.26.07,1.06-.34,1a.56.56,0,0,1-.2-.08.93.93,0,0,0-.51-1.12s-.07,0-.08,0a1.22,1.22,0,0,0,.42,1.16.83.83,0,0,1-.12.16c-.14.13-.35,0-.47.19s0,.11-.16.2-.17.05-.28,0a1,1,0,0,1-.13-.16c0-.06-.08,0-.08,0s0,.35-.17.39-.26-.1-.34-.17-.08,0-.09,0a1.46,1.46,0,0,0,0,.22.34.34,0,0,1,0,.14c0,.11-.21.32-.3,0,0-.08-.12-.06-.12,0a.83.83,0,0,1-.22.61.48.48,0,0,1-.3.15h0a.31.31,0,0,0,0-.13c0-.16-.06-.41-.23-.45a.26.26,0,0,0-.3.22.4.4,0,0,0,.22.45h0a1.36,1.36,0,0,1-.35.16,1,1,0,0,0-.3.13s-.07.12-.09.13c-.27.15-.14,0-.27,0a.42.42,0,0,0-.43.34c-.22-.22-.41.11-.48.36-.1-.14-.21-.35-.37-.39s-.31.11-.42.21,0,0,0,0,.31-.24.48-.11a2.46,2.46,0,0,1,.3.4s0,0,0,0,.22-.62.44-.31c0,0,.06,0,.06,0,.07-.27.2-.34.46-.28.1,0,.12,0,.22,0s.09-.13.16-.18l.13,0c.12-.05.24-.08.36-.14l.2-.14c.38.08.67-.32.74-.7a.23.23,0,0,0,.33,0c.13-.1.12-.31.14-.47.11.09.27.19.41.12a.45.45,0,0,0,.17-.37c.15.16.36.31.53.12s-.13-.13.27-.27c.05,0,.11,0,.16,0a.64.64,0,0,0,.27-.27l0-.05.15.09c.56.24.6-.45.6-.91.11.18.28.35.45.34s.22-.39.18-.64a.77.77,0,0,0,.31.21s0,0,.05,0a1.55,1.55,0,0,1,.06-.31c.09-.22.25-.14.37,0s.05,0,.05,0,0-.33.16-.38.26.08.34.14.07,0,.08-.05-.05-.51.24-.35c.09.06.15.17.25.22a.06.06,0,0,0,.07,0,2.32,2.32,0,0,0,.22-.69c.29.34.59,0,.62-.41.15.17.35.29.53.08a.72.72,0,0,0,.17-.49c.15.24.39.44.64.33a.53.53,0,0,0,.25-.59l.06,0c.2.06.32-.08.39-.24l.15.11h0a.43.43,0,0,0,.16-.28c0-.05,0-.14,0-.18s.17,0,.26.08,0,0,.07,0,.09-.26.14-.44,0-.09.19,0a1.26,1.26,0,0,0,.27,0C361.52,351.91,361.67,351.68,361.62,351.31Zm-11.36,6.5c0-.1.09-.22.19-.19s.16.27.08.41C350.4,358,350.27,357.92,350.26,357.81Zm2.91-2.55a.74.74,0,0,1,.39.83A1.08,1.08,0,0,1,353.17,355.26Z"></path><path d="M368.05,355c0-.06-.07-.06-.08,0a.4.4,0,0,1-.41.38,1.54,1.54,0,0,1-.48,0s0,0-.05,0a3.06,3.06,0,0,1-.13.43c-.11-.09-.25-.18-.34-.05s0,.62-.29.35a0,0,0,0,0-.08,0c-.15.24-.32.25-.45.1a.77.77,0,0,0-.12-.24c0-.06-.08,0-.07.07a1,1,0,0,0,.07.21.72.72,0,0,1-.14.55c-.26.19-.57-.26-.61-.47h0v0c0-.1-.13-.05-.11,0v0a.92.92,0,0,1-.09.61c-.14.25-.32.13-.48-.06s-.08,0-.08.06c0,.3-.23.71-.51.36,0-.05-.08,0-.09,0s-.06.23-.09.35a2.25,2.25,0,0,1-.08.24c0,.12,0,.13-.12,0s-.17-.23-.31-.21-.22.27-.21.46a.37.37,0,0,0-.36-.05.57.57,0,0,0-.16.37c-.09-.08-.19-.17-.31-.09s-.16.28-.19.43a.54.54,0,0,1-.31-.27s-.07,0-.07,0,0,.39,0,.51-.46-.19-.52-.35-.13-.07-.13,0c0,.26.08,1.06-.34,1a.52.52,0,0,1-.19-.08.92.92,0,0,0-.52-1.11s-.06,0-.07,0a1.22,1.22,0,0,0,.42,1.16.83.83,0,0,1-.12.16c-.15.13-.35,0-.47.19s0,.11-.17.2-.16.06-.27,0a1,1,0,0,1-.13-.16c0-.05-.08,0-.09,0s0,.35-.16.39-.26-.1-.34-.17-.08,0-.09,0a1.33,1.33,0,0,0,0,.21.34.34,0,0,1,0,.14c0,.11-.21.32-.3,0,0-.08-.12-.06-.12,0a.87.87,0,0,1-.22.61.48.48,0,0,1-.3.15h0l0-.13c0-.15-.06-.41-.23-.45a.26.26,0,0,0-.3.23.4.4,0,0,0,.22.44h0a1.54,1.54,0,0,1-.34.17.79.79,0,0,0-.3.12s-.07.12-.1.13c-.27.15-.13,0-.26,0a.41.41,0,0,0-.43.34c-.22-.22-.41.11-.49.36-.09-.14-.21-.35-.36-.39s-.31.11-.42.21,0,0,0,0,.3-.24.47-.1a1.62,1.62,0,0,1,.3.39s.05,0,.05,0c0-.17.22-.63.43-.32,0,0,.06,0,.07,0,.07-.27.2-.34.45-.28s.13.05.23,0,.08-.13.16-.18l.13,0c.12-.05.24-.08.36-.14l.2-.14c.38.08.67-.32.74-.7a.23.23,0,0,0,.33,0c.13-.1.12-.3.14-.47a.38.38,0,0,0,.41.12.45.45,0,0,0,.17-.37c.14.17.36.31.53.12s-.13-.12.27-.27c.05,0,.11,0,.16,0a.64.64,0,0,0,.27-.27l0,0,.15.09c.56.24.6-.45.59-.9.12.17.29.34.46.33s.22-.39.18-.64a.65.65,0,0,0,.3.21,0,0,0,0,0,.06,0,1.55,1.55,0,0,1,.06-.31c.09-.22.24-.14.37,0s0,0,.05,0,0-.33.16-.38.26.08.34.14.07,0,.07-.05-.05-.51.25-.34c.09.05.15.16.25.21a0,0,0,0,0,.06,0,1.86,1.86,0,0,0,.22-.69c.3.34.59,0,.63-.41.14.17.35.29.53.08a.77.77,0,0,0,.17-.49c.15.24.39.44.64.33a.54.54,0,0,0,.25-.59l.06,0c.2.06.32-.08.39-.24l.15.11h0a.42.42,0,0,0,.16-.28c0-.05,0-.14,0-.18s.17,0,.25.08a.06.06,0,0,0,.08,0c.14-.14.09-.26.14-.44s0-.08.19,0a1.17,1.17,0,0,0,.27,0C368,355.62,368.1,355.39,368.05,355Zm-11.36,6.5c0-.09.08-.21.19-.18s.15.27.07.4C356.83,361.71,356.7,361.63,356.69,361.52ZM359.6,359a.74.74,0,0,1,.39.83A1.08,1.08,0,0,1,359.6,359Z"></path><path d="M353.11,359.65a.54.54,0,0,0-.35.14,4.34,4.34,0,0,1-.43-.43c0-.06-.09,0-.08.07a.66.66,0,0,1-.17.4c-.1.09-.17.06-.29,0s-.18,0-.19.15c-.17-.07-.27.11-.32.28a.22.22,0,0,0-.27-.05.67.67,0,0,0-.2.32c-.14-.1-.21-.38-.43-.34s-.31.29-.35.45,0,.05.05,0,.22-.44.41-.35.17.27.32.34,0,0,0,0c.08-.2.19-.46.42-.23,0,0,.05,0,.06,0s.11-.38.3-.24.06,0,.06-.07.11-.08.2-.06a.26.26,0,0,0,.21-.06.66.66,0,0,0,.24-.4l.24.22.11.1,0,.05a.37.37,0,0,0,.27.46.07.07,0,0,0,.05,0,.46.46,0,0,0-.12-.47c.08-.05.19-.06.27-.11S353.18,359.64,353.11,359.65Zm-.22.59a.2.2,0,0,1-.12-.26A.37.37,0,0,1,352.89,360.24Z"></path><path d="M356.17,357.14s0,0,0,0,0,.2-.1.22-.19-.05-.25-.09-.05,0-.05.05a.53.53,0,0,1-.08.27c-.08,0-.2-.12-.24-.17s-.07,0-.07.05-.07.46-.26.43a.2.2,0,0,1-.12-.06.58.58,0,0,0-.21-.52c-.05,0-.08,0-.08.06a.86.86,0,0,0,.18.57.47.47,0,0,1-.14.3c-.12.08-.21,0-.33,0s-.11.08-.13.14c-.14-.1-.24.06-.31.2-.19-.14-.34,0-.39.22a.39.39,0,0,0-.28-.12c-.17,0-.14.2-.12.32s.06,0,0,0c0-.26.27-.07.37,0s.09,0,.09-.05.11-.35.28-.19a0,0,0,0,0,.06,0c.05-.11.11-.34.26-.2s.06,0,.06,0c0-.22.18-.07.33-.1s.21-.15.26-.27l0-.1a.36.36,0,0,0,.17.07c.26,0,.3-.28.31-.5.07.08.16.17.26.13s.11-.21.11-.33c.09.06.22.12.32,0S356.2,357.24,356.17,357.14Z"></path><path d="M356.53,357.13s0,0,0,0h0s0,0,0,0h-.09l-.07,0h0l0,0s0,.05,0,.06a.18.18,0,0,0,.14,0,.15.15,0,0,0,.11-.11S356.54,357.14,356.53,357.13Z"></path><path d="M357,356.68s0,0,0,0a.3.3,0,0,1-.09.26.67.67,0,0,1-.24.07l-.2.05s0,.1,0,.09l.35-.09a.22.22,0,0,0,.11-.05.29.29,0,0,0,.08-.13A1.34,1.34,0,0,0,357,356.68Z"></path><path d="M362.89,353.18s-.05,0-.06,0c-.08.26-.29.23-.42,0,0-.05-.05,0-.05,0a1.2,1.2,0,0,1-.12.59c-.14.2-.22,0-.37,0s-.18.17-.19.31c-.13-.08-.25,0-.31.17-.15-.13-.27,0-.34.14-.08-.07-.19-.19-.26-.17s-.17.79-.39.34l0,0a.2.2,0,0,0,0-.08.31.31,0,0,0-.5.15c-.11.24-.19,1.13-.58.57,0-.05-.08,0-.08,0,0,.19,0,.45-.25.23,0,0-.07,0-.07.05s0,.44-.21.3a.57.57,0,0,1-.2-.34c0-.06-.08,0-.07,0a1,1,0,0,1-.15.68s0,.1.05,0a1.22,1.22,0,0,0,.19-.51c.07.13.17.27.3.25s.17-.2.18-.34c.23.19.29,0,.32-.25.14.16.33.21.48,0a1.26,1.26,0,0,0,.11-.37.37.37,0,0,0,.12.24c.23.22.38-.13.43-.4.08.11.2.17.3,0s.1-.39.13-.39.2.17.24.19.06,0,.07-.05.09-.18.25-.09.08,0,.09,0,.07-.17.23-.13.1,0,.1,0,0-.17,0-.21.16,0,.23,0a.22.22,0,0,0,.25-.09,1,1,0,0,0,.13-.62c.15.2.4.22.47-.05a3,3,0,0,1,.61,1c0,.07.09,0,.08,0C363.56,353.83,363.14,353.53,362.89,353.18Zm-2.75,1.89c-.19.14-.2-.21-.14-.32a.26.26,0,0,1,.28-.14v0A.63.63,0,0,1,360.14,355.07Z"></path><path d="M357.93,360a3.14,3.14,0,0,0-.72-1.36s-.1-.06-.12,0,0,.58-.18.64-.23-.23-.36-.3-.05,0-.07,0c-.1.2-.07.49-.2.68,0-.08-.12-.15-.2-.1s-.09.17-.11.27c-.17-.12-.28,0-.34.21-.19-.18-.32-.05-.43.17a.37.37,0,0,0-.25-.17s-.05,0-.06,0a3,3,0,0,0-.08.32c-.08.29-.25,0-.31-.12s-.07-.05-.09,0a2.2,2.2,0,0,0-.09.43.74.74,0,0,1,0,.14.21.21,0,0,1-.26,0c-.08,0-.12-.2-.14-.28a.06.06,0,0,0-.11,0c0,.26.06.75-.22.87a.21.21,0,0,1-.19,0,.51.51,0,0,0,.07-.4c-.08-.26-.31-.2-.34,0a.54.54,0,0,0,.1.38,1.12,1.12,0,0,1-.37.31c-.05,0,0,.16,0,.13a1.34,1.34,0,0,0,.43-.34.25.25,0,0,0,.31.05c.25-.12.29-.45.3-.74.08.14.19.24.34.19s.2-.39.24-.61c.08.14.19.31.34.22a.48.48,0,0,0,.12-.26s0-.19,0-.21.19.13.22.16a0,0,0,0,0,.08,0c.07-.16.17-.38.36-.15,0,.05.08,0,.09,0s.07-.38.26-.17c0,0,.08,0,.09,0s0-.36.17-.16c0,0,.05.05.08,0,.18-.18.15-.47.24-.69.13.12.18.37.41.29s.22-.37.24-.59a4,4,0,0,1,.58,1.15C357.83,360.17,358,360.14,357.93,360Z"></path><path d="M360.44,357.18a.24.24,0,0,0-.13.22c-.08-.08-.16-.2-.27-.13a.25.25,0,0,0-.1.2.21.21,0,0,0-.31,0c-.1.07-.09.19-.1.3,0,0-.06-.08-.1-.08s-.12.05-.14.1a1.65,1.65,0,0,0-.11.36,1,1,0,0,0-.37-.29c-.22-.07-.27.21-.29.36s.09.14.11,0,.05-.32.21-.23a1.34,1.34,0,0,1,.33.3s.06,0,.08,0,0-.21.08-.32,0-.12.07-.14.09.07.11.1.07,0,.08,0,0-.21,0-.3a.14.14,0,0,1,.18-.07c.07,0,.11.09.15.14s.07,0,.07-.06,0-.28.1-.23.13.14.21.19.05-.05.05-.07a.42.42,0,0,1,.07-.27S360.47,357.16,360.44,357.18Z"></path><path d="M365.87,353.54s-.07,0-.07,0a1.91,1.91,0,0,1-.06.58.28.28,0,0,1-.21.23c-.12,0-.19-.09-.29-.14-.28-.13-.38.25-.4.48a.16.16,0,0,0-.23.07c-.18-.15-.3,0-.34.23-.09-.09-.17-.18-.3-.06a.61.61,0,0,0-.11.42c-.12-.12-.25-.27-.43-.15s-.16.34-.18.52a1.53,1.53,0,0,1-.27-.17l0,0-.07.14a.21.21,0,0,1-.12.17.69.69,0,0,1-.24-.18s-.05,0-.07,0a2.77,2.77,0,0,0-.1.26c-.09.18-.18.13-.31,0s-.09,0-.1,0,0,.24-.05.34c-.11.33-.41,0-.48-.18s-.1,0-.1,0,.11.64-.1.71c0,0,0,.13,0,.12.22-.07.21-.36.2-.59.11.15.27.29.45.21s.16-.28.18-.45c.09.07.21.13.31.05a.66.66,0,0,0,.16-.39,1.61,1.61,0,0,0,.28.17s0,0,0,0a1.89,1.89,0,0,0,.09-.21c.09-.18.19,0,.33,0s0,0,.05,0,0-.44.18-.5.28.12.38.22.06,0,.08,0,0-.16,0-.22.16-.2.22-.17l.09.08s.07-.05.07-.08.05-.22.24-.19c0,.05.08,0,.07,0s.1-.13.19,0,.05,0,.06,0,0-.22.06-.33a.21.21,0,0,1,.24-.15s.09.08.12.1a.3.3,0,0,0,.38,0c.19-.16.18-.49.16-.75a2.12,2.12,0,0,1,.57,1c0,.07.07.05.08,0C366.56,354.22,366.09,353.87,365.87,353.54Z"></path></g><g style="opacity:0.5"><path d="M373.16,331.29c0-.06-.08-.06-.08,0a.4.4,0,0,1-.42.38,1.48,1.48,0,0,1-.47,0s-.05,0-.05,0a3.06,3.06,0,0,1-.13.43c-.11-.08-.25-.18-.34-.05s0,.62-.29.35a.05.05,0,0,0-.08,0c-.15.24-.32.25-.45.1a.77.77,0,0,0-.12-.24c0-.06-.09,0-.08.07a1.72,1.72,0,0,0,.07.21.68.68,0,0,1-.14.56c-.26.18-.56-.26-.6-.48h0v0c0-.09-.12,0-.11,0v0a1,1,0,0,1-.09.62c-.15.24-.33.12-.48-.06s-.08,0-.08.06c0,.29-.24.71-.51.35,0-.05-.09,0-.1,0l-.09.35a1.09,1.09,0,0,1-.07.24c0,.12-.06.13-.12,0s-.18-.23-.32-.21-.21.28-.2.46a.39.39,0,0,0-.36,0c-.11.07-.14.24-.16.37-.09-.08-.2-.16-.31-.09s-.16.28-.19.43a.53.53,0,0,1-.31-.26c0-.06-.07,0-.07,0s0,.38,0,.51-.45-.2-.52-.36-.12-.06-.12,0c0,.27.08,1.07-.34,1a.47.47,0,0,1-.2-.08.91.91,0,0,0-.51-1.11.05.05,0,0,0-.07,0,1.22,1.22,0,0,0,.42,1.16.61.61,0,0,1-.12.16c-.15.14-.35.05-.48.19s0,.11-.16.2-.16.06-.27,0a.65.65,0,0,1-.13-.16c0-.05-.09,0-.09.05s0,.34-.16.38-.26-.1-.34-.17-.08,0-.09,0a1.52,1.52,0,0,0,0,.21.68.68,0,0,1,0,.14c0,.12-.22.32-.3,0,0-.09-.13-.06-.12,0a.9.9,0,0,1-.22.61.51.51,0,0,1-.3.15h0a.5.5,0,0,0,0-.13c0-.15-.06-.4-.23-.45s-.27.1-.31.23a.41.41,0,0,0,.23.44l0,0a1.39,1.39,0,0,1-.35.16,1.11,1.11,0,0,0-.3.12s-.06.12-.09.13c-.27.15-.13,0-.27,0a.43.43,0,0,0-.43.34c-.22-.22-.41.12-.48.36-.09-.13-.21-.35-.36-.39s-.32.11-.42.21,0,0,0,0,.3-.23.47-.1a1.93,1.93,0,0,1,.3.39s0,0,.05,0c0-.17.22-.63.43-.32,0,0,.06,0,.07,0,.06-.27.19-.34.45-.28s.13.05.23,0,.08-.13.16-.17l.13,0a2.13,2.13,0,0,0,.35-.14.6.6,0,0,0,.2-.14c.39.09.68-.32.75-.7a.23.23,0,0,0,.33,0c.13-.1.12-.3.13-.47.12.1.27.2.41.12a.42.42,0,0,0,.18-.37c.14.17.35.31.53.12s-.14-.12.27-.26c.05,0,.1,0,.16,0a.64.64,0,0,0,.27-.27s0,0,0-.05l.15.09c.55.24.6-.45.59-.9.12.17.29.35.46.33s.21-.39.18-.64a.59.59,0,0,0,.3.21,0,0,0,0,0,.05,0c0-.09,0-.21.07-.3s.24-.15.36,0,0,0,.06,0,0-.33.16-.39.26.08.34.14.07,0,.07,0-.05-.5.25-.34c.09.05.15.16.25.22a0,0,0,0,0,.06,0,2.08,2.08,0,0,0,.22-.68c.29.33.59,0,.62-.41.15.16.36.28.54.08a.75.75,0,0,0,.16-.5c.16.24.39.44.65.33s.27-.34.24-.59l.06,0c.2.06.32-.08.4-.24l.14.11h.05a.52.52,0,0,0,.16-.29,1.1,1.1,0,0,1,0-.18c.08-.13.18,0,.26.08a0,0,0,0,0,.07,0c.15-.14.09-.26.14-.43s.05-.09.2-.05a.61.61,0,0,0,.27,0C373.06,331.89,373.21,331.66,373.16,331.29Zm-11.36,6.5c0-.09.08-.21.18-.18s.16.27.08.4C361.94,338,361.81,337.91,361.8,337.79Zm2.91-2.55a.75.75,0,0,1,.38.83A1.1,1.1,0,0,1,364.71,335.24Z"></path><path d="M379.59,335a0,0,0,0,0-.09,0,.39.39,0,0,1-.41.37,1.48,1.48,0,0,1-.47,0s-.05,0-.06,0a1.64,1.64,0,0,1-.13.43c-.1-.08-.24-.17-.33,0s0,.61-.3.34a0,0,0,0,0-.07,0c-.16.24-.33.25-.45.1a1.07,1.07,0,0,0-.12-.24c-.05-.06-.09,0-.08.07a1.72,1.72,0,0,0,.07.21.71.71,0,0,1-.14.56c-.26.18-.56-.26-.6-.47h0v0c0-.09-.12,0-.11,0v0a1,1,0,0,1-.09.62c-.15.24-.33.12-.48-.06s-.09,0-.09.06c0,.29-.23.71-.51.35,0-.05-.08,0-.09,0l-.09.35a2.17,2.17,0,0,1-.07.24c0,.12-.06.14-.13,0s-.17-.22-.31-.21-.21.28-.21.46a.37.37,0,0,0-.35-.05c-.11.07-.14.24-.16.37-.09-.08-.2-.16-.31-.09s-.16.29-.19.43a.5.5,0,0,1-.31-.26c0-.05-.07,0-.07,0a1.45,1.45,0,0,1,0,.51c-.14.25-.46-.2-.52-.36s-.12-.06-.12,0c0,.26.07,1.06-.34,1a.47.47,0,0,1-.2-.08.92.92,0,0,0-.51-1.11.07.07,0,0,0-.08,0,1.21,1.21,0,0,0,.43,1.16.65.65,0,0,1-.13.16c-.14.14-.35,0-.47.2s0,.11-.16.19-.16.06-.27,0a.7.7,0,0,1-.14-.16c0-.05-.08,0-.08,0s0,.35-.16.39-.27-.11-.34-.18-.08,0-.09,0a.76.76,0,0,0,0,.21s0,.1,0,.15-.22.31-.31,0c0-.09-.12-.06-.11,0a.86.86,0,0,1-.23.61.48.48,0,0,1-.29.15h0a.28.28,0,0,0,0-.13c0-.15-.06-.4-.23-.45a.28.28,0,0,0-.3.23.42.42,0,0,0,.23.45h0a1.39,1.39,0,0,1-.35.16,1.57,1.57,0,0,0-.3.12s-.06.12-.09.14c-.27.14-.14,0-.27,0a.43.43,0,0,0-.43.35c-.22-.23-.41.11-.48.35-.1-.13-.21-.35-.37-.39s-.31.12-.42.21,0,0,0,0,.3-.23.47-.1a2.25,2.25,0,0,1,.3.39s0,0,.05,0,.21-.62.43-.31c0,0,.06,0,.07,0,.06-.27.19-.34.45-.27.1,0,.13,0,.22,0s.09-.13.17-.17l.13-.05a2.13,2.13,0,0,0,.35-.14.6.6,0,0,0,.2-.14c.39.09.67-.32.75-.7a.22.22,0,0,0,.33,0c.13-.1.12-.3.13-.47.12.1.27.2.41.12s.16-.22.18-.37c.14.17.35.31.53.13s-.14-.13.26-.27c.06,0,.11,0,.17,0a.7.7,0,0,0,.26-.28l0-.05.15.09c.55.24.6-.44.59-.9.12.18.28.35.46.33s.21-.39.18-.64a.67.67,0,0,0,.3.22s.05,0,.05,0,0-.21.06-.3.25-.14.37,0,0,0,0,0,0-.33.17-.38.26.08.34.14.07,0,.07-.06-.05-.5.24-.34c.1.05.15.17.26.22a0,0,0,0,0,.06,0,2,2,0,0,0,.22-.68c.29.33.59,0,.62-.41.15.16.35.29.54.08a.75.75,0,0,0,.16-.5c.15.24.39.44.64.33s.28-.34.25-.59l.06,0c.2.07.32-.08.39-.24l.15.11a0,0,0,0,0,.05,0,.46.46,0,0,0,.15-.29.86.86,0,0,1,0-.17c.08-.14.18,0,.26.07a0,0,0,0,0,.07,0c.15-.13.09-.26.14-.43s0-.09.19-.05a.66.66,0,0,0,.27,0C379.49,335.6,379.64,335.38,379.59,335Zm-11.37,6.49c0-.09.09-.21.19-.18s.16.27.08.41C368.37,341.69,368.24,341.62,368.22,341.5Zm2.92-2.54a.74.74,0,0,1,.38.82A1.1,1.1,0,0,1,371.14,339Z"></path><path d="M364.65,339.63a.57.57,0,0,0-.35.14,4.34,4.34,0,0,1-.43-.42c-.05-.06-.09,0-.09.06a.54.54,0,0,1-.17.4c-.1.09-.17.07-.29,0s-.18,0-.18.15c-.18-.07-.27.11-.32.28-.08-.06-.18-.11-.27,0a.54.54,0,0,0-.2.31c-.15-.1-.22-.38-.43-.33s-.32.28-.35.44,0,.06,0,0,.22-.44.41-.35.18.27.32.34,0,0,0,0c.09-.2.2-.45.43-.23,0,0,.05,0,.06,0s.11-.37.29-.24.07,0,.07-.07.11-.07.2-.06a.27.27,0,0,0,.21-.06.72.72,0,0,0,.24-.39l.24.22.1.09s0,0,0,.06a.36.36,0,0,0,.26.45s.05,0,.06,0a.47.47,0,0,0-.13-.47c.09-.05.19-.05.28-.1S364.71,339.63,364.65,339.63Zm-.22.59a.19.19,0,0,1-.12-.25A.37.37,0,0,1,364.43,340.22Z"></path><path d="M367.7,337.12s0,0,0,0,0,.19-.11.22-.18-.05-.25-.09,0,0,0,0,0,.23-.09.27-.19-.11-.23-.16-.07,0-.07,0-.08.47-.27.44a.24.24,0,0,1-.11-.06.6.6,0,0,0-.22-.53s-.07,0-.07.06a.84.84,0,0,0,.18.57.45.45,0,0,1-.15.3c-.11.08-.2,0-.32,0s-.11.07-.13.14c-.15-.1-.24.05-.31.2-.19-.15-.35,0-.39.21a.47.47,0,0,0-.29-.12c-.16,0-.14.2-.12.32s.06,0,.06,0c0-.26.27-.06.36,0s.1,0,.09-.06.12-.35.28-.19,0,0,.06,0,.11-.33.26-.19.06,0,.07,0c0-.23.18-.08.32-.1a.39.39,0,0,0,.26-.28l0-.1a.31.31,0,0,0,.18.07c.25,0,.3-.28.31-.5.07.09.16.18.25.13s.11-.21.12-.33c.09.06.22.13.31.06S367.73,337.22,367.7,337.12Z"></path><path d="M368.06,337.11s0,0,0,0h0s0,0,0,0l0,0h-.1l-.06,0h0a0,0,0,0,0,0,0s0,0,0,.06a.17.17,0,0,0,.15,0,.17.17,0,0,0,.11-.11A.06.06,0,0,0,368.06,337.11Z"></path><path d="M368.49,336.66s0,0,0,0a.33.33,0,0,1-.1.25.45.45,0,0,1-.23.07l-.2.06s0,.1,0,.08l.34-.08.11-.05a.18.18,0,0,0,.08-.13A.75.75,0,0,0,368.49,336.66Z"></path><path d="M374.43,333.16s-.05,0-.06,0c-.09.26-.3.23-.42,0,0,0-.06,0-.06,0a1.08,1.08,0,0,1-.12.59c-.13.2-.22,0-.37,0s-.18.17-.19.31c-.12-.08-.25,0-.31.16-.15-.13-.26,0-.33.15-.08-.07-.19-.2-.27-.18s-.16.79-.38.34c0,0,0,0,0,0s0-.07,0-.08a.3.3,0,0,0-.5.14c-.11.25-.2,1.14-.59.57,0,0-.07,0-.08,0s0,.45-.24.22c0,0-.07,0-.07,0s0,.45-.21.3a.56.56,0,0,1-.21-.33c0-.06-.07,0-.06,0a1,1,0,0,1-.15.68s0,.1,0,.05a1.1,1.1,0,0,0,.19-.51c.07.14.18.27.31.25s.17-.19.18-.33c.23.19.29,0,.31-.25.15.16.33.2.48,0a2,2,0,0,0,.12-.37.38.38,0,0,0,.11.24c.24.22.39-.14.43-.4.09.11.2.16.31,0s.1-.38.13-.38.2.16.23.18a.06.06,0,0,0,.08,0c0-.15.08-.18.24-.1a.05.05,0,0,0,.09,0c0-.13.08-.18.23-.14s.11,0,.11,0,0-.18,0-.22.15,0,.22,0a.21.21,0,0,0,.25-.09.93.93,0,0,0,.14-.62c.15.21.39.23.46,0a2.56,2.56,0,0,1,.61,1c0,.08.09,0,.09,0C375.1,333.81,374.68,333.51,374.43,333.16Zm-2.76,1.89c-.18.14-.19-.21-.14-.31a.27.27,0,0,1,.29-.14h0A.59.59,0,0,1,371.67,335.05Z"></path><path d="M369.46,340a3,3,0,0,0-.72-1.36s-.1-.06-.11,0,0,.58-.18.64-.23-.22-.36-.3a0,0,0,0,0-.07,0c-.11.2-.08.48-.2.67-.05-.07-.12-.14-.2-.09s-.1.16-.11.26c-.17-.11-.29,0-.35.21-.19-.18-.32-.05-.42.17a.39.39,0,0,0-.26-.17.05.05,0,0,0-.05,0c0,.11-.05.22-.08.33-.08.29-.25,0-.32-.13s-.07-.05-.09,0a2,2,0,0,0-.09.42.37.37,0,0,1,0,.14.2.2,0,0,1-.25,0c-.08,0-.12-.21-.14-.29s-.11-.06-.11,0c0,.25.05.74-.23.87a.28.28,0,0,1-.18,0,.54.54,0,0,0,.06-.41c-.07-.25-.31-.2-.34.05a.65.65,0,0,0,.1.37.89.89,0,0,1-.36.31c-.06,0,0,.16,0,.13a1.11,1.11,0,0,0,.43-.33.29.29,0,0,0,.32,0c.24-.11.29-.45.29-.73.08.13.2.23.34.18s.21-.39.25-.6c.07.14.19.31.33.21s.1-.18.12-.26,0-.19.05-.21.18.14.21.17.07,0,.08,0,.17-.39.36-.15c0,0,.08,0,.09,0s.07-.38.27-.18c0,0,.08,0,.09,0s0-.37.16-.17c0,0,.06,0,.09,0,.18-.18.15-.46.24-.69.13.12.18.38.4.29s.22-.37.24-.59a3.56,3.56,0,0,1,.58,1.15C369.36,340.15,369.49,340.12,369.46,340Z"></path><path d="M372,337.16a.23.23,0,0,0-.13.22c-.08-.07-.17-.19-.28-.12a.24.24,0,0,0-.09.2c-.09-.09-.2-.15-.32,0s-.09.19-.1.3a.14.14,0,0,0-.1-.08c-.07,0-.11.05-.14.11a1.5,1.5,0,0,0-.11.36.9.9,0,0,0-.37-.3c-.21-.07-.27.22-.28.37s.09.13.1,0,0-.32.22-.23a1.81,1.81,0,0,1,.32.3,0,0,0,0,0,.08,0c0-.11.05-.22.08-.33s0-.12.08-.14.09.07.11.11.06,0,.07,0,0-.21,0-.3a.16.16,0,0,1,.19-.07.41.41,0,0,1,.14.15c.05.06.08,0,.07-.07s0-.28.11-.23.13.14.21.19.05-.05.05-.07a.36.36,0,0,1,.07-.26S372,337.15,372,337.16Z"></path><path d="M377.4,333.53s-.06,0-.06,0a2.24,2.24,0,0,1-.06.58c0,.11-.09.22-.22.23s-.18-.09-.28-.13c-.29-.13-.38.24-.4.47-.11,0-.2,0-.24.08-.17-.16-.3,0-.33.22-.09-.09-.18-.17-.3-.05s-.1.26-.11.41c-.13-.12-.26-.27-.43-.14s-.16.33-.19.52l-.26-.17s0,0,0,0a.71.71,0,0,0-.08.15.22.22,0,0,1-.11.17.75.75,0,0,1-.24-.19s-.06,0-.08,0-.06.18-.1.27-.17.12-.31,0-.09,0-.1.05,0,.23,0,.34c-.12.32-.41,0-.49-.19s-.09,0-.1,0,.12.64-.09.71c-.05,0,0,.14,0,.12.21-.06.21-.35.19-.59.11.16.28.3.45.22s.17-.28.19-.45c.09.07.2.13.31.05a.81.81,0,0,0,.16-.39,1.48,1.48,0,0,0,.27.16,0,0,0,0,0,.05,0c0-.07.05-.14.09-.21s.19,0,.33,0,0,0,0,0,0-.44.19-.5.28.13.37.22a0,0,0,0,0,.08,0c0-.07,0-.16,0-.23s.17-.19.23-.17l.08.08c.05,0,.08,0,.08-.07s.05-.22.23-.2.08,0,.08-.05.1-.13.19,0,.05,0,.06,0a1.75,1.75,0,0,1,.06-.33c0-.09.12-.19.23-.16s.1.09.13.11a.29.29,0,0,0,.37,0c.19-.16.18-.49.17-.75a2.29,2.29,0,0,1,.57,1c0,.07.07,0,.07,0C378.09,334.21,377.63,333.85,377.4,333.53Z"></path><path d="M373,342.65a3.13,3.13,0,0,0-.72-1.37.07.07,0,0,0-.12,0c0,.17,0,.58-.17.65s-.23-.23-.36-.31a.05.05,0,0,0-.07,0c-.11.2-.08.49-.21.67,0-.07-.11-.14-.19-.09s-.1.16-.12.27c-.16-.12-.28,0-.34.2-.19-.18-.32,0-.43.17a.37.37,0,0,0-.25-.17.05.05,0,0,0,0,0,2,2,0,0,0-.09.33c-.08.29-.24,0-.31-.13s-.07-.05-.09,0a2.1,2.1,0,0,0-.09.42.47.47,0,0,1,0,.14.19.19,0,0,1-.25.05c-.08,0-.13-.2-.15-.28s-.1-.07-.1,0c0,.25,0,.75-.23.87a.25.25,0,0,1-.19,0,.48.48,0,0,0,.07-.4c-.07-.26-.31-.2-.34,0a.61.61,0,0,0,.1.38.91.91,0,0,1-.37.3c-.05,0,0,.16,0,.13a1.18,1.18,0,0,0,.43-.33.28.28,0,0,0,.32.05c.24-.12.29-.45.29-.74.08.13.19.24.34.18s.2-.39.25-.6c.07.14.19.31.33.21s.1-.18.12-.26,0-.18.05-.21.18.14.21.17.07,0,.08,0,.17-.39.36-.15c0,0,.08,0,.09,0s.07-.38.26-.18c0,0,.08,0,.09,0s0-.36.17-.16c0,0,.06.05.09,0,.18-.19.15-.47.24-.7.12.12.18.38.4.29s.22-.36.24-.59a3.56,3.56,0,0,1,.58,1.15C372.9,342.8,373,342.77,373,342.65Z"></path><path d="M375.52,339.81a.24.24,0,0,0-.14.23c-.08-.08-.16-.2-.27-.13a.28.28,0,0,0-.1.2.21.21,0,0,0-.31-.05c-.1.08-.09.19-.1.3a.2.2,0,0,0-.1-.08c-.07,0-.11.06-.14.11a1.5,1.5,0,0,0-.11.36.9.9,0,0,0-.37-.3c-.21-.07-.27.22-.29.37s.1.14.11,0,.05-.31.21-.22a1.53,1.53,0,0,1,.33.29,0,0,0,0,0,.08,0c0-.1.05-.22.08-.32s0-.13.07-.15.1.08.11.11.07,0,.08,0,0-.21,0-.29a.16.16,0,0,1,.19-.08.5.5,0,0,1,.14.15c0,.06.08,0,.07-.07s0-.28.11-.23.13.15.2.19.06-.05,0-.07a.48.48,0,0,1,.07-.26S375.55,339.8,375.52,339.81Z"></path><path d="M380.94,336.18s-.06,0-.06,0a3,3,0,0,1-.06.59c0,.1-.09.21-.22.22s-.18-.08-.28-.13c-.29-.13-.38.24-.4.48-.11-.05-.2,0-.24.07-.17-.16-.3,0-.34.23-.09-.1-.17-.18-.3-.06s-.09.27-.11.41c-.12-.12-.25-.26-.43-.14s-.15.34-.18.52a1.17,1.17,0,0,1-.26-.17s0,0,0,0,0,.1-.08.15a.23.23,0,0,1-.12.17.71.71,0,0,1-.23-.19.05.05,0,0,0-.08,0c-.05.09-.06.18-.1.27s-.18.12-.31,0-.09,0-.1,0,0,.23-.05.34c-.11.33-.41,0-.48-.18s-.1,0-.1,0,.11.63-.09.71c0,0,0,.13,0,.11.22-.06.21-.35.2-.58.11.15.28.29.45.21s.17-.28.18-.45c.1.07.21.13.31.05a.63.63,0,0,0,.16-.39,2.61,2.61,0,0,0,.28.17s0,0,0,0a1,1,0,0,0,.09-.21c.1-.18.19,0,.33,0a0,0,0,0,0,.05,0c0-.14,0-.45.19-.51s.28.13.37.22a0,0,0,0,0,.08,0c0-.07,0-.16,0-.22s.16-.2.23-.18l.08.08c.05,0,.08,0,.07-.07s.06-.22.24-.2.08,0,.08,0,.1-.12.18,0,.06,0,.06,0a1.94,1.94,0,0,1,.07-.33c0-.09.12-.19.23-.16s.1.09.13.11a.3.3,0,0,0,.37,0c.19-.16.18-.5.17-.76a2.17,2.17,0,0,1,.56,1c0,.07.08,0,.08,0C381.63,336.86,381.16,336.5,380.94,336.18Z"></path></g><path d="M341.75,352.63c-.05.08.14.15.23.21l.38.23.38.21.19.11a1.45,1.45,0,0,0,.18.1c.07,0,.36,0,.31,0a.74.74,0,0,0-.16-.1l-.18-.1-.39-.23-.4-.22a1.18,1.18,0,0,0-.42-.18s-.11,0-.12,0Z" style="fill:#455a64"></path><path d="M342.22,352.38s0,.08.08.11l.15.09.38.22.72.4c.1.05.49,0,.36-.06s-.45-.26-.69-.38l-.35-.19a1.64,1.64,0,0,0-.51-.2.21.21,0,0,0-.14,0Z" style="fill:#455a64"></path><path d="M343.16,354.42c.29-.34.19-.69.36-1,.08-.17.55-.21,1-.23l.6,0c.2,0,.41,0,.61-.05s.06-.09-.07-.1a7.51,7.51,0,0,0-.8,0l-.65,0a2.07,2.07,0,0,0-1.06.26.48.48,0,0,0-.09.23c0,.1,0,.2,0,.3a1.08,1.08,0,0,0,0,.56.26.26,0,0,0,.23,0Z" style="fill:#455a64"></path><path d="M345.66,350.36c-.05.07.14.15.24.21l.38.22.37.22.19.11a.84.84,0,0,0,.19.09c.07,0,.35,0,.31,0a.55.55,0,0,0-.17-.1L347,351c-.14-.07-.27-.15-.4-.23l-.39-.22a1.48,1.48,0,0,0-.43-.17s-.1,0-.12,0Z" style="fill:#455a64"></path><path d="M346.14,350.11s0,.07.07.1l.16.1.37.21c.23.14.48.27.73.4.1.06.48,0,.35-.06l-.69-.38-.35-.18a1.7,1.7,0,0,0-.5-.21s-.13,0-.14,0Z" style="fill:#455a64"></path><path d="M347.07,352.15c.29-.35.19-.7.36-1,.08-.17.55-.21,1-.23l.6,0a6,6,0,0,0,.61,0c.2,0,.06-.09-.06-.1s-.56,0-.8,0l-.66,0A2.16,2.16,0,0,0,347,351a.34.34,0,0,0-.08.23l-.06.3a1,1,0,0,0,0,.56s.19.06.22,0Z" style="fill:#455a64"></path><path d="M350.66,348.66a.25.25,0,0,0-.07.16c0,.07,0,.14,0,.22s-.06.28-.08.42a.34.34,0,0,0,0,.14s.3.07.31,0,.06-.2.08-.3a2.32,2.32,0,0,0,.07-.46.13.13,0,0,0-.07-.17.24.24,0,0,0-.19,0Z" style="fill:#455a64"></path><path d="M340.25,351.44l.11.06.34.21.51.31.13.07.06.05a0,0,0,0,1,0,.08.51.51,0,0,1-.18,0l-.37-.05-1.15-.11.82.49.09.05a.05.05,0,0,1,0,.1.17.17,0,0,1-.17,0l-.19-.12-.33-.2-.34-.19-.23-.13s0,0-.06-.05h0s0-.05,0-.07a.15.15,0,0,1,.12,0c.29,0,1,.11,1.56.15l-.68-.42-.21-.11a.1.1,0,0,1-.06,0s0,0,0-.05A.17.17,0,0,1,340.25,351.44Z" style="fill:#455a64"></path><path d="M341.81,351.1c.19.11.37.22.58.32l.09.05h0c.06,0,.05.06,0,.08a.21.21,0,0,1-.19,0h0l-.27-.15-.12-.07-.29-.16-.53.35.37.22.3.17c.06,0,.08.07,0,.11a.21.21,0,0,1-.17,0l-.68-.41-.11,0s0,0,0-.06l-.09-.06-.25-.13h0c-.06,0-.06-.06,0-.09l0,0c.09-.05.18,0,.26.06l.09.05.17.1.11-.07.41-.27-.29-.15-.06,0s-.05,0-.05-.05,0,0,0,0a.28.28,0,0,1,.26,0l.08.05.17.1a.16.16,0,0,1,.12,0,.08.08,0,0,1,.05.07Z" style="fill:#455a64"></path><path d="M347.17,352.31a.41.41,0,0,1,.11.07l.34.21.52.3.13.08a.1.1,0,0,1,.06,0s0,.05,0,.07a.27.27,0,0,1-.18,0l-.38,0-1.14-.12.82.49.09.05a.06.06,0,0,1,0,.1.17.17,0,0,1-.17,0l-.19-.11-.33-.2-.34-.2-.24-.13-.05-.05h0a.07.07,0,0,1,0-.06.16.16,0,0,1,.12,0l1.57.15-.69-.42-.2-.11-.07-.05s0,0,0-.06A.19.19,0,0,1,347.17,352.31Z" style="fill:#455a64"></path><path d="M349.4,353.67a5.39,5.39,0,0,0,.58.32l.09.05h0c.06,0,.05.06,0,.08a.21.21,0,0,1-.19,0h0l-.28-.16-.12-.07-.29-.16-.53.35.38.22.3.17c.05,0,.08.07,0,.11a.21.21,0,0,1-.17,0l-.68-.41-.11,0s0,0,0-.06l-.09-.06-.25-.13h0c-.06,0-.06-.06,0-.09h0c.08,0,.17,0,.25.05l.09.05.17.1.11-.07.41-.27-.29-.15-.06,0s-.05,0-.05,0a.05.05,0,0,1,0-.05.28.28,0,0,1,.26.05l.08,0,.18.1a.18.18,0,0,1,.12,0,.09.09,0,0,1,0,.07Z" style="fill:#455a64"></path><path d="M350.7,349.79l.11.07.34.2.51.31.14.08.05,0s0,.06,0,.08a.3.3,0,0,1-.19,0l-.37,0c-.38-.05-.77-.08-1.15-.12.22.14.6.36.83.49l.08,0c.05,0,0,.08,0,.1a.17.17,0,0,1-.17,0l-.19-.11a2.63,2.63,0,0,0-.33-.2l-.34-.2-.23-.13-.05,0h0s0,0,0-.07a.24.24,0,0,1,.12,0c.29,0,1,.11,1.57.16l-.69-.42-.21-.11-.06-.05a0,0,0,0,1,0-.06A.21.21,0,0,1,350.7,349.79Z" style="fill:#455a64"></path><path d="M353.14,351.52c.05,0,.06.07,0,.1a.08.08,0,0,1-.07,0,.38.38,0,0,0-.17.07c-.31.17-.24.46.09.65a.86.86,0,0,0,.83.06c.11-.06.2-.15.19-.24s0-.06,0-.09a.2.2,0,0,1,.17,0,.14.14,0,0,1,.05.08c0,.13-.08.25-.24.35a1.21,1.21,0,0,1-1.15-.07c-.3-.17-.47-.42-.35-.64a.53.53,0,0,1,.21-.21C352.8,351.55,353,351.45,353.14,351.52Z" style="fill:#455a64"></path><path d="M354.7,351.19c.2.1.38.22.58.32l.1,0h0c.05,0,0,.06,0,.09a.24.24,0,0,1-.19,0h0l-.27-.15-.13-.08-.28-.16-.54.35c.12.08.25.15.38.22l.3.17c.05,0,.08.07,0,.11a.25.25,0,0,1-.17,0l-.67-.41-.12,0s0,0,0-.06l-.1,0-.24-.13,0,0c-.06,0-.07-.06,0-.09h0c.09-.05.17,0,.25,0l.1.06.16.1.12-.08c.14-.08.26-.18.4-.27l-.28-.15-.07,0s-.05,0-.05-.05,0,0,0-.05.16,0,.25.05l.08.05.18.1a.17.17,0,0,1,.12,0s.05.05,0,.07Z" style="fill:#455a64"></path><path d="M356.48,351.4c.13.08.16.17.11.25a.22.22,0,0,1-.12.11.51.51,0,0,1-.27.08h-.07a0,0,0,0,1,0-.06h.05a.4.4,0,0,0,.19-.05c.11-.06.17-.17,0-.26a.28.28,0,0,0-.3,0l-.13.09h0a.12.12,0,0,1-.08,0s0,0,0-.07h0a1.31,1.31,0,0,0,.12-.11s0-.07,0-.09a.23.23,0,0,0-.16,0,.25.25,0,0,0-.11.12s0,0,0,.05a.12.12,0,0,1-.1,0c-.06,0,0-.1,0-.15a.22.22,0,0,1,.09-.07.37.37,0,0,1,.34,0c.06,0,.08.07.07.11l.14,0A.48.48,0,0,1,356.48,351.4Z" style="fill:#455a64"></path><path d="M351.63,347.8c.06,0,.06.07,0,.1s0,0-.07,0a.42.42,0,0,0-.18.07c-.3.17-.24.46.09.65a.88.88,0,0,0,.84.06c.1-.06.19-.15.18-.24s0-.06,0-.09a.2.2,0,0,1,.17,0,.11.11,0,0,1,.05.08c0,.13-.07.25-.24.35a1.24,1.24,0,0,1-1.15-.07c-.3-.17-.46-.42-.34-.64a.57.57,0,0,1,.2-.21C351.3,347.83,351.52,347.73,351.63,347.8Z" style="fill:#455a64"></path><path d="M353.19,347.46c.2.11.38.23.59.32l.09.05h0c.05,0,.05.06,0,.08a.21.21,0,0,1-.19,0h0l-.27-.16-.12-.07-.29-.16-.53.35.37.22.3.17c.06,0,.08.07,0,.11a.23.23,0,0,1-.18,0l-.67-.41-.11,0s0,0,0-.06l-.09-.06-.25-.13h0c-.06,0-.07-.06,0-.09h0c.09-.05.18,0,.25.05l.1.05.16.1.12-.07.41-.27-.29-.15-.06,0s-.05,0-.05-.05,0,0,0-.05a.28.28,0,0,1,.26.05l.08.05.17.1a.17.17,0,0,1,.12,0,.08.08,0,0,1,0,.07Z" style="fill:#455a64"></path><path d="M355,347.68c.13.08.16.17.12.25a.25.25,0,0,1-.12.11.52.52,0,0,1-.28.08h-.07s0-.05,0-.06h.05a.41.41,0,0,0,.2-.05c.11-.06.16-.18,0-.26a.27.27,0,0,0-.31,0,.6.6,0,0,1-.13.09h0a.12.12,0,0,1-.08,0s-.05-.05,0-.07h0a.31.31,0,0,0,.12-.1s0-.07,0-.09-.11,0-.16,0a.22.22,0,0,0-.1.12s0,0,0,0a.19.19,0,0,1-.1,0c-.05,0,0-.09,0-.14l.09-.07a.39.39,0,0,1,.35,0,.13.13,0,0,1,.07.11.32.32,0,0,1,.14,0A.47.47,0,0,1,355,347.68Z" style="fill:#455a64"></path><path d="M342.84,355.5c.19.11.38.22.58.32l.1.05h0s0,.06,0,.08a.21.21,0,0,1-.19,0h0l-.27-.15-.13-.07-.28-.16-.54.35.38.22.3.17c.05,0,.08.07,0,.1a.17.17,0,0,1-.17,0c-.23-.13-.45-.27-.67-.41a.24.24,0,0,1-.12,0s0,0,0,0l-.1-.06-.24-.13h0s-.06-.07,0-.09l0,0c.09-.05.17,0,.25.06l.09,0,.17.1.12-.07.4-.27-.28-.15-.07,0s-.05,0-.05-.06l0,0c.07,0,.16,0,.25.05l.08.05.18.1a.17.17,0,0,1,.12,0s.05,0,0,.07Z" style="fill:#455a64"></path><path d="M344.8,355.87s0,.05,0,.07l0,0-.09,0-.17.12-.05,0h0a.14.14,0,0,1-.11,0s0,0,0,0h0a.24.24,0,0,1-.09-.23c0-.09.08-.19,0-.25a.23.23,0,0,0-.24,0s-.11.08-.08.13,0,0,0,.06a.07.07,0,0,1-.09,0s0,0-.05-.05.06-.16.12-.2a.44.44,0,0,1,.43,0c.14.08.1.19.08.3a.17.17,0,0,0,.05.18l.3-.2,0,0A.1.1,0,0,1,344.8,355.87Z" style="fill:#455a64"></path><path d="M344.13,354.19l.11.07.34.21.52.3.13.08s0,0,.06,0a0,0,0,0,1,0,.07.3.3,0,0,1-.19,0l-.37,0-1.15-.11.83.48.08.05c.06,0,0,.08,0,.1a.17.17,0,0,1-.17,0l-.18-.11-.33-.2-.35-.2-.23-.13-.05,0v0a0,0,0,0,1,0-.06.16.16,0,0,1,.12,0l1.57.15-.69-.42-.21-.11s-.05,0-.06-.05,0,0,0-.06A.19.19,0,0,1,344.13,354.19Z" style="fill:#455a64"></path><path d="M344,349.26l.11.07.34.2.51.31.13.08.06,0a0,0,0,0,1,0,.08.36.36,0,0,1-.18,0l-.37,0-1.15-.12.82.49.09.05a.05.05,0,0,1,0,.1.17.17,0,0,1-.17,0l-.19-.12-.33-.2-.34-.19-.23-.13s0,0-.06-.05h0s0-.05,0-.07a.21.21,0,0,1,.12,0c.29,0,1,.11,1.56.16a7.92,7.92,0,0,0-.69-.42l-.2-.12a.1.1,0,0,1-.06-.05s0,0,0-.05A.21.21,0,0,1,344,349.26Z" style="fill:#455a64"></path><path d="M345.55,348.92c.2.11.38.23.59.32l.09.05h0c.06,0,.05.06,0,.09a.24.24,0,0,1-.19,0h0l-.27-.15-.12-.08-.29-.16-.53.35.37.22.3.17c.06,0,.08.07,0,.11a.21.21,0,0,1-.17,0l-.68-.41-.11,0s0,0,0-.06l-.09-.05-.25-.14h0c-.06,0-.06-.06,0-.09h0c.09,0,.18,0,.25.05l.1.05.17.1.11-.07.41-.27-.29-.15-.06,0s-.05,0-.05,0,0,0,0-.05a.28.28,0,0,1,.26.05l.08,0,.17.1a.17.17,0,0,1,.12,0s.05.05.05.07Z" style="fill:#455a64"></path><path d="M348.83,346.87c.2.11.38.23.58.32l.1.05h0c.05,0,.05.06,0,.09a.24.24,0,0,1-.19,0h0l-.27-.15-.13-.08-.28-.16-.54.35.38.22.3.17c.05,0,.08.07,0,.11a.21.21,0,0,1-.17,0c-.23-.13-.45-.27-.67-.41l-.12,0s0,0,0-.06l-.1,0-.24-.14h0c-.06,0-.07-.06,0-.09h0c.09-.05.17,0,.25,0l.1.05.16.1.12-.07.41-.27-.29-.15-.07,0s-.05,0-.05-.05a.07.07,0,0,1,0-.05c.07,0,.16,0,.25.05l.08.05.18.1a.17.17,0,0,1,.12,0s.05.05,0,.07Z" style="fill:#455a64"></path><path d="M349.47,345.94c.06,0,.06.07,0,.1s-.05,0-.08,0a.67.67,0,0,0-.17.06c-.3.18-.24.47.09.66a.86.86,0,0,0,.83.06c.11-.06.2-.15.19-.25s0,0,0-.08a.17.17,0,0,1,.17,0,.11.11,0,0,1,.05.08c0,.13-.07.25-.24.35a1.24,1.24,0,0,1-1.15-.07c-.3-.17-.46-.42-.35-.64a.6.6,0,0,1,.21-.21C349.14,346,349.36,345.87,349.47,345.94Z" style="fill:#455a64"></path><path d="M349.72,345.68l.3.17.25.15.43.24.19.11.12.06c.05,0,.06.07,0,.1a.21.21,0,0,1-.17,0l0,0-.09-.05-.42-.25-.63-.35-.1-.05h0l0,0a.05.05,0,0,1,0-.07A.18.18,0,0,1,349.72,345.68Z" style="fill:#455a64"></path><path d="M351.73,350.88c-.08,0,0,.06,0,.09l.07,0,.18.11.35.21a.48.48,0,0,0,.25,0c.09,0,.13,0,.09-.07l-.36-.22-.19-.1a.61.61,0,0,0-.3-.11Z" style="fill:#455a64"></path><path d="M347,347.79l-.16,0a.09.09,0,0,0-.06,0l-.09.06c0,.05,0,.1,0,.14a1.42,1.42,0,0,0,.86,0c.15,0,.26-.09.28-.15s0-.1-.1-.14a1.11,1.11,0,0,0-.43-.09,1.16,1.16,0,0,0-.53.11c-.09,0-.11.12,0,.16a.43.43,0,0,0,.21.07h.23l.19,0,.12-.06s0,0,0,0l-.1,0a1.08,1.08,0,0,0-.31,0l0,0h.27l0,0,0,0a0,0,0,0,1,0,0v0s0,0,0,0l0,0,0,0,0,0h-.13l.08,0h0l.09.06,0,0s0,0,0,.05v0l0,0,0,0-.06,0,0,0h0s0,0,0,0h0l-.07,0,0,0-.05,0,0,0s0,0,0-.05v0s0,0,.08-.07h0l.09-.06s0,0-.1-.06a.71.71,0,0,0-.25,0Z" style="fill:#455a64"></path><path d="M372.66,344.94l-.19,0-.1,0a.56.56,0,0,0-.14.09.22.22,0,0,0-.06.19c0,.07.05.15.2.2a1.52,1.52,0,0,0,.62,0c.39-.05.64-.2.66-.33s-.24-.23-.56-.26a2.34,2.34,0,0,0-.65,0c-.19,0-.42.08-.37.15a.32.32,0,0,0,.3,0,.32.32,0,0,1,.13-.05h.29s0,0,0,0h.11a.63.63,0,0,1,.23.07.11.11,0,0,1,.06.12c0,.07-.15.16-.37.2,0,0,0,0,0,0h-.08l-.06,0a.2.2,0,0,1-.09-.14.19.19,0,0,1,.06-.14.46.46,0,0,1,.07-.07l0,0,0,0c.05,0-.07-.06-.15-.05Z" style="fill:#455a64"></path><path d="M376.17,342.92l-.19,0-.1.05a.56.56,0,0,0-.14.09.22.22,0,0,0-.07.19.28.28,0,0,0,.21.2,1.52,1.52,0,0,0,.62,0c.39,0,.64-.2.66-.33s-.24-.23-.56-.27a2.82,2.82,0,0,0-.65,0c-.19,0-.42.08-.37.15a.31.31,0,0,0,.3,0,.32.32,0,0,1,.13,0h.42a.69.69,0,0,1,.23.07.1.1,0,0,1,.06.11c0,.08-.16.17-.37.21,0,0-.05,0,0,0h-.08l-.06,0a.2.2,0,0,1-.09-.14.16.16,0,0,1,.06-.14.23.23,0,0,1,.07-.07l0,0s0,0,0,0-.07-.07-.15-.05Z" style="fill:#455a64"></path><path d="M381.29,343.47l-.19,0-.1,0a.39.39,0,0,0-.14.1.24.24,0,0,0-.06.19c0,.07.05.14.2.19a1.52,1.52,0,0,0,.62,0c.4-.05.64-.2.66-.32s-.23-.23-.56-.27a2.82,2.82,0,0,0-.65,0c-.19,0-.42.07-.37.14s.24.08.3,0a.39.39,0,0,1,.13-.05l.06,0h.36a.9.9,0,0,1,.23.07q.08.06.06.12c0,.08-.15.16-.36.21h-.11l-.06,0a.19.19,0,0,1-.09-.13.19.19,0,0,1,.06-.15l.07-.06,0,0,0-.05c.05,0-.07-.06-.15,0Z" style="fill:#455a64"></path><path d="M386.13,344.43l-.19,0-.1,0a.56.56,0,0,0-.14.09.2.2,0,0,0-.06.2c0,.07.05.14.2.19a1.52,1.52,0,0,0,.62,0c.39-.05.64-.2.66-.33s-.24-.22-.56-.26a2.8,2.8,0,0,0-.65,0c-.19,0-.42.08-.37.15a.32.32,0,0,0,.3,0l.13-.05h.39s0,0,0,0a.69.69,0,0,1,.23.07.11.11,0,0,1,.06.12c0,.07-.15.16-.37.2,0,0-.05,0,0,0h-.08l-.06,0a.21.21,0,0,1-.09-.13.19.19,0,0,1,.06-.15l.07-.07.05,0,0,0c.05,0-.07-.06-.15-.05Z" style="fill:#455a64"></path><path d="M374,345h1.69a.52.52,0,0,0,.26-.06s-.05-.07-.15-.07c-.34,0-.7,0-1.06,0l-.5,0a2,2,0,0,0-.35,0s-.06,0,0,0a.05.05,0,0,0,0,0l.11,0Z" style="fill:#455a64"></path><path d="M374.18,345.27l.25,0,.26,0,.4,0,.39,0,.42,0c.09,0,.2,0,.2-.06s-.1-.06-.19-.06l-.48,0-.42,0a9.5,9.5,0,0,0-.95.11c-.12,0,0,.07.12.07Z" style="fill:#455a64"></path><path d="M376.19,343.73a.57.57,0,0,0-.13.08.24.24,0,0,0-.06.08l-.09.17a1.33,1.33,0,0,0-.1.34,1.42,1.42,0,0,0,0,.65c0,.07.44.07.42,0a2,2,0,0,1-.05-.65,1.83,1.83,0,0,1,.07-.32,1,1,0,0,1,.05-.16s0-.05,0-.07,0-.07,0-.11-.07,0-.11,0Z" style="fill:#455a64"></path><path d="M377.92,345.93c.06-.06-.17-.14-.26-.18s-.3-.16-.46-.23l-.46-.23a4.08,4.08,0,0,0-.51-.23c-.07,0-.31,0-.24,0a3.73,3.73,0,0,0,.45.23l.45.21.45.22a1.64,1.64,0,0,0,.52.18s.06,0,.06,0Z" style="fill:#455a64"></path><path d="M376.37,342.61a.48.48,0,0,0,.17.13l.19.1.2.1a1.09,1.09,0,0,0,.28.11c.1,0,.34,0,.29-.06a.62.62,0,0,0-.2-.1l-.2-.09-.27-.11-.28-.1c-.06,0-.2,0-.18,0Z" style="fill:#455a64"></path><path d="M376.77,342.25c0,.07.1.13.2.18l.22.11.22.1a1.69,1.69,0,0,0,.27.11.63.63,0,0,0,.24,0c.08,0,.13,0,.1-.07a1,1,0,0,0-.23-.1l-.23-.1-.23-.1a.59.59,0,0,0-.14-.06,1.12,1.12,0,0,0-.24-.08h-.18Z" style="fill:#455a64"></path><path d="M377.11,342.77l.05,0,0,0,.07-.07a1.09,1.09,0,0,1,.17-.13s0-.06-.09-.06a.48.48,0,0,0-.21,0h0l0,0h-.05l0,0-.1.09s-.05,0-.06.07l0,0a.08.08,0,0,0,0,0s.19.07.26,0Z" style="fill:#455a64"></path><path d="M378,346.05c-.27.52-.5,1.05-.71,1.57,0,.06.34.08.37,0a6.51,6.51,0,0,0,.56-1.56s-.19-.07-.22,0Z" style="fill:#455a64"></path><path d="M380.71,345.73h-.22l-.29,0-.57.06-1.33.15a.88.88,0,0,0-.24,0c-.11.05.09.09.21.08s.42,0,.63-.07l1.28-.14.52-.06a1.12,1.12,0,0,0,.21,0c.08,0-.1-.08-.2-.06Z" style="fill:#455a64"></path><path d="M379.61,348.65a1.83,1.83,0,0,0-.49-.26l-.54-.26c-.35-.18-.68-.35-1-.53-.07,0-.34,0-.24,0,.32.18.66.35,1,.52l.59.28a3.37,3.37,0,0,0,.57.24s.12,0,.1,0Z" style="fill:#455a64"></path><path d="M382.35,346.49a1,1,0,0,0-.32-.19l-.35-.18c-.24-.13-.5-.25-.77-.37-.09,0-.37,0-.25,0l.77.37.36.17a2.2,2.2,0,0,0,.48.18s.09,0,.08,0Z" style="fill:#455a64"></path><path d="M379.58,348.67c.26,0,.54-.06.8-.09l.69-.09,1.41-.19c.23,0,0-.11-.16-.09l-1.42.19c-.23,0-.47.05-.69.09a4.78,4.78,0,0,0-.73.13s0,.05.1.05Z" style="fill:#455a64"></path><path d="M382.17,346.47c-.1.13,0,.27,0,.39s0,.29.05.43a6.28,6.28,0,0,1,0,1c0,.06.4.07.4,0a7.55,7.55,0,0,0,0-.95l-.06-.42c0-.13,0-.29-.1-.41s-.2-.05-.23,0Z" style="fill:#455a64"></path><path d="M378.17,347.53c-.06,0,0,.07.06.1a1,1,0,0,0,.17.1l.4.22.39.2a3.31,3.31,0,0,0,.46.21c.09,0,.38,0,.29,0s-.26-.14-.39-.21l-.41-.19-.4-.2a1.64,1.64,0,0,0-.51-.2Z" style="fill:#455a64"></path><path d="M378.58,346.27c.18,0,.38,0,.56,0l.52-.06,1-.11c.12,0,0-.08-.12-.07l-1.05.11-.51.05-.25,0-.25.05s0,0,.07,0Z" style="fill:#455a64"></path><path d="M381.65,346.63c-.11.05-.11.09-.12.14s0,.12,0,.18,0,.22,0,.34,0,.24.05.37,0,.26.12.37.15,0,.18,0a.24.24,0,0,0,0-.18,1.33,1.33,0,0,0,0-.2c0-.11,0-.23,0-.35l0-.34c0-.11,0-.25-.17-.33a.23.23,0,0,0-.12,0Z" style="fill:#455a64"></path><path d="M381.08,344.26a1.23,1.23,0,0,0-.13.38l-.09.38c-.06.25-.13.5-.19.75,0,.05.3.07.31,0l.18-.74c0-.13,0-.25.08-.38a.91.91,0,0,0,0-.4s-.18-.06-.2,0Z" style="fill:#455a64"></path><path d="M382.72,343.73h.43l.37,0,.63,0c.09,0,.21,0,.2-.07s-.13-.05-.23,0l-.77,0-.31,0-.39,0c-.06,0-.08,0-.07.05a.37.37,0,0,0,.14,0Z" style="fill:#455a64"></path><path d="M384.05,342.33c0,.22,0,.44,0,.65v.33a.74.74,0,0,0,0,.33s.28.07.29,0a.92.92,0,0,0,0-.33V343c0-.22,0-.44,0-.66,0,0-.24-.06-.25,0Z" style="fill:#455a64"></path><path d="M385.23,344.42s-.05-.06-.1-.09l-.15-.09-.35-.19-.33-.18-.17-.09a1.16,1.16,0,0,0-.27-.11.1.1,0,0,0-.08,0s.07.07.11.1l.15.09.34.18.34.19a1.65,1.65,0,0,0,.42.19s.09,0,.09,0Z" style="fill:#455a64"></path><path d="M385.68,344.19l-.15-.11-.15-.09-.35-.19-.69-.38c-.08,0-.35,0-.25,0l.72.39.35.18c.13.07.29.13.44.2s.11,0,.08,0Z" style="fill:#455a64"></path><path d="M384.27,341.57s-.06-.05-.15-.06a.59.59,0,0,0-.27,0,.33.33,0,0,0-.17.11c-.07.09,0,.17.06.24a.85.85,0,0,0,.56.15,1.65,1.65,0,0,0,.62-.1c.09,0,.14-.08.15-.13a.13.13,0,0,0,0-.06s-.09-.07-.2-.08a.24.24,0,0,0-.15,0s0,0,0,.07l0,0v0a.25.25,0,0,1-.12.09.88.88,0,0,1-.2,0h-.14a.31.31,0,0,1-.24-.17.1.1,0,0,1,0-.1.12.12,0,0,1,.05-.05l0,0s0,0,0,0,.15,0,.17,0Z" style="fill:#455a64"></path><path d="M384.24,341.3a.65.65,0,0,0,.15.1l.17.09.23.09a.82.82,0,0,0,.25.08.5.5,0,0,0,.21,0c.07,0,.08,0,.05-.05a.83.83,0,0,0-.21-.09l-.2-.07-.2-.09-.22-.09a.31.31,0,0,0-.17,0c-.05,0-.08,0-.06,0Z" style="fill:#455a64"></path><path d="M384.73,341c.24.13.47.25.74.37a.65.65,0,0,0,.29,0c.09,0,.12-.06.06-.08l-.48-.2L385,341a.35.35,0,0,0-.2,0c-.12,0-.17,0-.11.06Z" style="fill:#455a64"></path><path d="M384.73,341.51a1.59,1.59,0,0,0,.34-.14l.1-.07.05,0,0,0s0,0,0,0a.24.24,0,0,0-.11,0s-.1,0-.13,0l-.09,0,0,0,0,0-.08.06-.09.06-.08.05a.05.05,0,0,0,0,0,.2.2,0,0,0,.17,0Z" style="fill:#455a64"></path><path d="M385.87,341a2.2,2.2,0,0,0,.34-.13l.06,0s0,0-.11,0h0l0,0c0,.07,0,.14-.18.19s0,.05,0,.06a.55.55,0,0,0,.23,0l.27,0a.75.75,0,0,1,.19,0c.05,0,0,.06-.09.08a.82.82,0,0,1-.28,0c-.08,0-.16,0-.15.05a.29.29,0,0,0,.19.05c.33,0,.84-.13.68-.25a1.88,1.88,0,0,0-1-.06l.24.07c.26-.09.34-.22.19-.32a.83.83,0,0,0-.52,0c-.17,0-.33.13-.29.2a.2.2,0,0,0,.13,0Z" style="fill:#455a64"></path></g><g id="freepik--book--inject-16"><polygon points="366.06 339.07 405.89 316.08 380 301.13 340.17 324.13 366.06 339.07" style="opacity:0.1"></polygon><polygon points="366.02 337.23 403.54 315.57 379.57 301.73 342.05 323.39 366.02 337.23" style="fill:#2AB6B3"></polygon><polygon points="366.02 337.23 403.54 315.57 379.57 301.73 342.05 323.39 366.02 337.23" style="opacity:0.15"></polygon><path d="M384.28,326.11v-.67c0-.83,1.47-3.18,3.31-4.25l14.9-8.6v3Z" style="fill:#f5f5f5"></path><path d="M402.49,312.59l-14.9,8.61c-1.84,1.06-3.32,3.42-3.31,4.24v.67l-22.92-13.24h0v-.67c0-.83,1.47-3.19,3.31-4.25l14.9-8.6h0Z" style="fill:#fafafa"></path><path d="M402.49,312.59l-14.9,8.61c-1.84,1.06-3.32,3.42-3.31,4.24v.67l-22.92-13.24h0v-.67c0-.83,1.47-3.19,3.31-4.25l14.91-8.61Z" style="fill:#fafafa"></path><path d="M384.28,325.49l-1.43-.83L381,323.57a3.74,3.74,0,0,1,2.32.34A2,2,0,0,1,384.28,325.49Z" style="fill:#f0f0f0"></path><path d="M384.28,325.49l-1.43-.83L381,323.57a3.74,3.74,0,0,1,2.32.34A2,2,0,0,1,384.28,325.49Z" style="fill:#e0e0e0"></path><polygon points="366.03 337.85 366.02 337.23 342.05 323.39 342.05 324.01 366.03 337.85" style="fill:#2AB6B3"></polygon><polygon points="366.03 337.85 366.02 337.23 342.05 323.39 342.05 324.01 366.03 337.85" style="opacity:0.30000000000000004"></polygon><polygon points="366.03 337.85 403.54 316.19 403.54 315.57 366.02 337.23 366.03 337.85" style="fill:#2AB6B3"></polygon><path d="M384.28,325.49c0-.83-1.52-1.52-3.36-.46L366,333.57v3.09l18.26-10.55S384.29,326.32,384.28,325.49Z" style="fill:#f5f5f5"></path><polygon points="366.02 336.65 366.02 333.57 343.09 320.33 343.09 323.42 366.02 336.65" style="fill:#ebebeb"></polygon><path d="M380.92,325l-.67.38L366,333.57l-20.25-11.7-2.68-1.54,14.9-8.54c1.35-.77,2.11-.71,2.64-.41h0l23.24,13.42A3,3,0,0,0,380.92,325Z" style="fill:#fafafa"></path><polygon points="364.98 331.24 377.67 323.92 378.33 323.54 378.82 323.82 378.15 324.2 365.47 331.52 364.98 331.24" style="fill:#e0e0e0"></polygon><polygon points="363.81 330.56 376.49 323.24 377.16 322.86 377.65 323.14 376.98 323.52 364.3 330.85 363.81 330.56" style="fill:#e0e0e0"></polygon><polygon points="362.63 329.89 375.32 322.57 375.99 322.19 376.48 322.47 375.81 322.85 363.12 330.17 362.63 329.89" style="fill:#e0e0e0"></polygon><polygon points="361.46 329.21 374.15 321.89 374.82 321.51 375.31 321.79 374.64 322.17 361.95 329.49 361.46 329.21" style="fill:#e0e0e0"></polygon><polygon points="360.29 328.54 372.98 321.21 373.65 320.83 374.13 321.11 373.47 321.5 360.78 328.82 360.29 328.54" style="fill:#e0e0e0"></polygon><polygon points="359.12 327.86 371.81 320.54 372.48 320.16 372.96 320.44 372.3 320.82 359.61 328.14 359.12 327.86" style="fill:#e0e0e0"></polygon><polygon points="357.95 327.18 370.64 319.86 371.3 319.48 371.79 319.76 371.12 320.14 358.44 327.46 357.95 327.18" style="fill:#e0e0e0"></polygon><polygon points="356.78 326.51 369.46 319.19 370.13 318.8 370.62 319.08 369.95 319.47 357.26 326.79 356.78 326.51" style="fill:#e0e0e0"></polygon><polygon points="355.61 325.83 368.29 318.51 368.96 318.13 369.45 318.41 368.78 318.79 356.09 326.11 355.61 325.83" style="fill:#e0e0e0"></polygon><polygon points="354.43 325.15 367.12 317.83 367.79 317.45 368.28 317.73 367.61 318.11 354.92 325.44 354.43 325.15" style="fill:#e0e0e0"></polygon><polygon points="353.26 324.48 365.95 317.15 366.62 316.77 367.11 317.06 366.44 317.44 353.75 324.76 353.26 324.48" style="fill:#e0e0e0"></polygon><polygon points="352.09 323.8 364.78 316.48 365.44 316.1 365.93 316.38 365.27 316.76 352.58 324.08 352.09 323.8" style="fill:#e0e0e0"></polygon><polygon points="350.92 323.12 363.61 315.8 364.27 315.42 364.76 315.7 364.09 316.08 351.41 323.4 350.92 323.12" style="fill:#e0e0e0"></polygon><polygon points="349.75 322.45 362.43 315.13 363.1 314.74 363.59 315.03 362.92 315.41 350.24 322.73 349.75 322.45" style="fill:#e0e0e0"></polygon><polygon points="348.57 321.77 361.26 314.45 361.93 314.07 362.42 314.35 361.75 314.73 349.06 322.05 348.57 321.77" style="fill:#e0e0e0"></polygon><polygon points="347.4 321.09 360.09 313.77 360.76 313.39 361.25 313.67 360.58 314.06 347.89 321.38 347.4 321.09" style="fill:#e0e0e0"></polygon><polygon points="346.23 320.42 358.92 313.1 359.59 312.71 360.08 313 359.41 313.38 346.72 320.7 346.23 320.42" style="fill:#e0e0e0"></polygon><path d="M381.06,324.23c-.27,0-.86.22-1.18.29a33.55,33.55,0,0,0-6,2.54c-3.06,1.53-5.94,3.17-5.94,3.17l-21-12.1L358,311.79a4.87,4.87,0,0,1,1.37-.56,3.08,3.08,0,0,1,1,.33l.14-.26.17.08,23.24,13.42A3.8,3.8,0,0,0,381.06,324.23Z" style="opacity:0.1"></path><polygon points="366 334.24 368.28 333.09 366.02 334.46 363.75 333.15 366 334.24" style="fill:#e6e6e6"></polygon><polygon points="366.02 335.79 370.19 333.38 366.02 335.62 361.33 333.08 366.02 335.79" style="fill:#e6e6e6"></polygon><polygon points="343.09 321.01 346.6 323.13 343.09 321.34 343.09 321.01" style="fill:#e6e6e6"></polygon><polygon points="343.1 322.22 348.3 325.4 343.09 322.5 343.1 322.22" style="fill:#e6e6e6"></polygon><path d="M381,323.57a6.47,6.47,0,0,0-.89.16,33.29,33.29,0,0,0-6,2.54c-3.06,1.53-5.94,3.16-5.94,3.16L345.16,316.2s8.73-5,12.16-5.68a4.56,4.56,0,0,1,3.19.25h0l22.78,13.15A3.74,3.74,0,0,0,381,323.57Z" style="fill:#f5f5f5"></path><path d="M380.68,322.41a3.69,3.69,0,0,0-2.31-.34,8.43,8.43,0,0,0-.9.15,22.89,22.89,0,0,0-3.74,1.44c-.75.35-1.53.72-2.29,1.11-1.84.92-3.62,1.88-4.74,2.49l.52.3c1.12-.61,2.9-1.57,4.74-2.49.77-.39,1.54-.76,2.29-1.11a22.89,22.89,0,0,1,3.74-1.44,8.43,8.43,0,0,1,.9-.15,3.69,3.69,0,0,1,2.31.34Z" style="fill:#e0e0e0"></path><path d="M379.51,321.73a3.72,3.72,0,0,0-2.32-.34,6.74,6.74,0,0,0-.89.16,22.17,22.17,0,0,0-3.75,1.43c-.74.35-1.52.72-2.28,1.11-1.85.92-3.62,1.88-4.74,2.5l.52.3c1.12-.62,2.9-1.58,4.74-2.5.76-.38,1.54-.76,2.28-1.11a22.17,22.17,0,0,1,3.75-1.43,6.74,6.74,0,0,1,.89-.16A3.72,3.72,0,0,1,380,322Z" style="fill:#e0e0e0"></path><path d="M378.33,321.05a3.69,3.69,0,0,0-2.31-.34c-.28,0-.57.09-.9.16a21.17,21.17,0,0,0-3.74,1.44c-.75.34-1.52.72-2.29,1.1-1.84.92-3.61,1.88-4.74,2.5l.52.3c1.13-.62,2.9-1.58,4.74-2.5.77-.38,1.54-.76,2.29-1.1a20.93,20.93,0,0,1,3.75-1.44,8.27,8.27,0,0,1,.89-.15,3.68,3.68,0,0,1,2.32.33Z" style="fill:#e0e0e0"></path><path d="M377.16,320.37a3.7,3.7,0,0,0-2.31-.33,8.43,8.43,0,0,0-.9.15,21.17,21.17,0,0,0-3.74,1.44c-.75.34-1.53.72-2.29,1.1-1.84.92-3.62,1.88-4.74,2.5l.52.3c1.12-.62,2.9-1.57,4.74-2.5.76-.38,1.54-.76,2.29-1.1a22,22,0,0,1,3.74-1.44,8.43,8.43,0,0,1,.9-.15,3.77,3.77,0,0,1,2.31.33Z" style="fill:#e0e0e0"></path><path d="M376,319.69a3.82,3.82,0,0,0-2.32-.33,8.71,8.71,0,0,0-.89.15A23.28,23.28,0,0,0,369,321c-.74.34-1.52.72-2.29,1.11-1.84.92-3.61,1.88-4.73,2.49l.52.3c1.12-.61,2.89-1.57,4.74-2.49.76-.39,1.54-.76,2.28-1.11a23.28,23.28,0,0,1,3.75-1.44,8.71,8.71,0,0,1,.89-.15,3.72,3.72,0,0,1,2.32.34Z" style="fill:#e0e0e0"></path><path d="M374.81,319a3.69,3.69,0,0,0-2.31-.34,6.59,6.59,0,0,0-.9.16,21.81,21.81,0,0,0-3.74,1.43c-.75.35-1.52.72-2.29,1.11-1.84.92-3.62,1.88-4.74,2.49l.52.31c1.13-.62,2.9-1.58,4.74-2.5.77-.39,1.54-.76,2.29-1.11a21.81,21.81,0,0,1,3.74-1.43,6.59,6.59,0,0,1,.9-.16,3.69,3.69,0,0,1,2.31.34Z" style="fill:#e0e0e0"></path><path d="M373.64,318.34a3.72,3.72,0,0,0-2.32-.34,6.74,6.74,0,0,0-.89.16,21.52,21.52,0,0,0-3.75,1.44c-.74.34-1.52.72-2.28,1.1-1.84.92-3.62,1.88-4.74,2.5l.52.3c1.12-.62,2.9-1.58,4.74-2.5.76-.38,1.54-.76,2.29-1.1a21.17,21.17,0,0,1,3.74-1.44,8.71,8.71,0,0,1,.89-.15,3.65,3.65,0,0,1,2.32.33Z" style="fill:#e0e0e0"></path><path d="M372.47,317.66a3.75,3.75,0,0,0-2.32-.33,8.71,8.71,0,0,0-.89.15,20.93,20.93,0,0,0-3.75,1.44c-.74.34-1.52.72-2.29,1.1-1.84.92-3.61,1.88-4.74,2.5l.53.3c1.12-.62,2.89-1.58,4.73-2.5.77-.38,1.55-.76,2.29-1.1a21.52,21.52,0,0,1,3.75-1.44,8.71,8.71,0,0,1,.89-.15A3.82,3.82,0,0,1,373,318Z" style="fill:#e0e0e0"></path><path d="M369.5,317a8.43,8.43,0,0,0-.9.15,34.48,34.48,0,0,0-6,2.55c-1.84.92-3.62,1.88-4.74,2.49l-.52-.3c1.12-.62,2.9-1.57,4.74-2.5a35.09,35.09,0,0,1,6-2.54,8.43,8.43,0,0,1,.9-.15,3.77,3.77,0,0,1,2.31.33l.52.31A3.69,3.69,0,0,0,369.5,317Z" style="fill:#e0e0e0"></path><path d="M368.32,316.27a6.74,6.74,0,0,0-.89.16,33.25,33.25,0,0,0-6,2.54c-1.84.92-3.62,1.88-4.74,2.5l-.52-.31c1.12-.61,2.9-1.57,4.74-2.49a33.86,33.86,0,0,1,6-2.55,8.71,8.71,0,0,1,.89-.15,3.72,3.72,0,0,1,2.32.34l.52.3A3.72,3.72,0,0,0,368.32,316.27Z" style="fill:#e0e0e0"></path><path d="M367.15,315.59c-.27,0-.57.09-.89.16a33.29,33.29,0,0,0-6,2.54c-1.84.92-3.61,1.88-4.74,2.5l-.52-.3c1.13-.62,2.9-1.58,4.74-2.5a33.29,33.29,0,0,1,6-2.54,6.47,6.47,0,0,1,.89-.16,3.69,3.69,0,0,1,2.31.34l.53.3A3.74,3.74,0,0,0,367.15,315.59Z" style="fill:#e0e0e0"></path><path d="M366,314.92a8.43,8.43,0,0,0-.9.15,35.09,35.09,0,0,0-6,2.54c-1.84.92-3.62,1.88-4.74,2.5l-.52-.3c1.12-.62,2.9-1.58,4.74-2.5a34.3,34.3,0,0,1,6-2.54,8.43,8.43,0,0,1,.9-.15,3.7,3.7,0,0,1,2.31.33l.52.3A3.7,3.7,0,0,0,366,314.92Z" style="fill:#e0e0e0"></path><path d="M364.8,314.24a8.71,8.71,0,0,0-.89.15,34.45,34.45,0,0,0-6,2.54c-1.84.93-3.62,1.88-4.74,2.5l-.52-.3c1.12-.62,2.89-1.57,4.73-2.5a34.81,34.81,0,0,1,6-2.54,8.71,8.71,0,0,1,.89-.15,3.8,3.8,0,0,1,2.32.33l.52.3A3.8,3.8,0,0,0,364.8,314.24Z" style="fill:#e0e0e0"></path><path d="M363.63,313.56a8.27,8.27,0,0,0-.89.15,34.21,34.21,0,0,0-6,2.55c-1.84.92-3.61,1.88-4.74,2.49l-.52-.3c1.12-.61,2.9-1.57,4.74-2.49a34.48,34.48,0,0,1,6-2.55,8.43,8.43,0,0,1,.9-.15,3.69,3.69,0,0,1,2.31.34l.52.3A3.69,3.69,0,0,0,363.63,313.56Z" style="fill:#e0e0e0"></path><path d="M362.46,312.88a6.59,6.59,0,0,0-.9.16,33.55,33.55,0,0,0-6,2.54c-1.84.92-3.62,1.88-4.74,2.5l-.52-.3c1.12-.62,2.9-1.58,4.74-2.5a33.55,33.55,0,0,1,6-2.54,6.74,6.74,0,0,1,.89-.16,3.72,3.72,0,0,1,2.32.34l.52.3A3.69,3.69,0,0,0,362.46,312.88Z" style="fill:#e0e0e0"></path><path d="M361.28,312.21a8.71,8.71,0,0,0-.89.15,34,34,0,0,0-6,2.54c-1.84.92-3.61,1.88-4.73,2.5l-.53-.3c1.13-.62,2.9-1.58,4.74-2.5a33.29,33.29,0,0,1,6-2.54,8.71,8.71,0,0,1,.89-.15,3.68,3.68,0,0,1,2.32.33l.52.3A3.73,3.73,0,0,0,361.28,312.21Z" style="fill:#e0e0e0"></path><path d="M360.11,311.53a8.43,8.43,0,0,0-.9.15,35.09,35.09,0,0,0-6,2.54c-1.84.93-3.61,1.88-4.74,2.5l-.52-.3c1.12-.62,2.9-1.57,4.74-2.5a35.09,35.09,0,0,1,6-2.54,8.43,8.43,0,0,1,.9-.15,3.77,3.77,0,0,1,2.31.33l.52.3A3.77,3.77,0,0,0,360.11,311.53Z" style="fill:#e0e0e0"></path><path d="M385.45,320a7.37,7.37,0,0,0-1.86,1.58l-.48-.27a7.62,7.62,0,0,1,1.86-1.59L398.33,312l.47.27Z" style="fill:#e0e0e0"></path><path d="M385.45,320a7.37,7.37,0,0,0-1.86,1.58l-.48-.27a7.62,7.62,0,0,1,1.86-1.59L398.33,312l.47.27Z" style="fill:#e0e0e0"></path><path d="M382.74,321.33l.19-.22a8,8,0,0,1,1.92-1.64l13.48-7.76.95.55-13.71,7.91a7.34,7.34,0,0,0-1.8,1.53l-.13.15Z" style="fill:#2AB6B3;opacity:0.30000000000000004"></path><path d="M384.27,319.28a7.58,7.58,0,0,0-1.85,1.59l-.48-.28A7.62,7.62,0,0,1,383.8,319l13.35-7.69.48.28Z" style="fill:#e0e0e0"></path><path d="M383.1,318.6a7.4,7.4,0,0,0-1.85,1.59l-.48-.27a7.17,7.17,0,0,1,1.85-1.59l13.36-7.7.48.28Z" style="fill:#e0e0e0"></path><path d="M381.93,317.93a7.37,7.37,0,0,0-1.86,1.58l-.47-.27a7.4,7.4,0,0,1,1.85-1.59L394.81,310l.48.27Z" style="fill:#e0e0e0"></path><path d="M380.76,317.25a7.62,7.62,0,0,0-1.86,1.59l-.48-.28a7.62,7.62,0,0,1,1.86-1.59l13.36-7.69.47.28Z" style="fill:#e0e0e0"></path><path d="M379.58,316.57a7.76,7.76,0,0,0-1.85,1.59l-.48-.27a7.21,7.21,0,0,1,1.86-1.59l13.35-7.7.48.28Z" style="fill:#e0e0e0"></path><path d="M378.41,315.9a7.16,7.16,0,0,0-1.85,1.58l-.48-.27a7.76,7.76,0,0,1,1.85-1.59l13.36-7.69.48.27Z" style="fill:#e0e0e0"></path><path d="M377.24,315.22a7.41,7.41,0,0,0-1.86,1.59l-.47-.28a7.58,7.58,0,0,1,1.85-1.59l13.36-7.69.48.27Z" style="fill:#e0e0e0"></path><path d="M376.07,314.54a7.62,7.62,0,0,0-1.86,1.59l-.48-.28a7.37,7.37,0,0,1,1.86-1.58l13.36-7.7.47.28Z" style="fill:#e0e0e0"></path><path d="M374.89,313.87a7.5,7.5,0,0,0-1.85,1.58l-.48-.27a7.62,7.62,0,0,1,1.86-1.59l13.36-7.69.47.27Z" style="fill:#e0e0e0"></path><path d="M373.72,313.19a7.37,7.37,0,0,0-1.85,1.59l-.48-.28a7.62,7.62,0,0,1,1.86-1.59l13.35-7.69.48.27Z" style="fill:#e0e0e0"></path><path d="M372.55,312.51a7.62,7.62,0,0,0-1.86,1.59l-.47-.28a7.33,7.33,0,0,1,1.85-1.58l13.36-7.7.48.28Z" style="fill:#e0e0e0"></path><path d="M371.38,311.83a7.62,7.62,0,0,0-1.86,1.59l-.47-.27a7.4,7.4,0,0,1,1.85-1.59l13.36-7.69.48.27Z" style="fill:#e0e0e0"></path><path d="M370.21,311.16a7.21,7.21,0,0,0-1.86,1.59l-.48-.28a7.62,7.62,0,0,1,1.86-1.59l13.36-7.69.47.27Z" style="fill:#e0e0e0"></path><path d="M369,310.48a7.58,7.58,0,0,0-1.85,1.59l-.48-.28a7.37,7.37,0,0,1,1.86-1.58l13.35-7.7.48.28Z" style="fill:#e0e0e0"></path><path d="M367.86,309.8a7.4,7.4,0,0,0-1.85,1.59l-.48-.27a7.37,7.37,0,0,1,1.85-1.59l13.36-7.7.48.28Z" style="fill:#e0e0e0"></path><path d="M366.69,309.13a7.21,7.21,0,0,0-1.86,1.59l-.47-.28a7.4,7.4,0,0,1,1.85-1.59l13.36-7.69.48.27Z" style="fill:#e0e0e0"></path><path d="M381.58,320.64l.19-.22a7.56,7.56,0,0,1,1.92-1.64L397.17,311l.95.55-13.71,7.9a7.18,7.18,0,0,0-1.8,1.54l-.13.15Z" style="fill:#2AB6B3;opacity:0.30000000000000004"></path><path d="M380.42,320l.19-.22a7.56,7.56,0,0,1,1.92-1.64L396,310.33l1,.55-13.72,7.9a7.33,7.33,0,0,0-1.79,1.54l-.13.15Z" style="fill:#2AB6B3;opacity:0.30000000000000004"></path><path d="M379.26,319.26l.19-.22a7.37,7.37,0,0,1,1.92-1.64l13.47-7.77,1,.56-13.72,7.9a7.33,7.33,0,0,0-1.79,1.54l-.13.15Z" style="fill:#2AB6B3;opacity:0.30000000000000004"></path><path d="M372.24,315.18l.19-.22a7.5,7.5,0,0,1,1.91-1.64l13.48-7.77,1,.56L375.06,314a7,7,0,0,0-1.79,1.54l-.13.15Z" style="fill:#2AB6B3;opacity:0.30000000000000004"></path><path d="M371.07,314.48l.19-.22a8.15,8.15,0,0,1,1.92-1.64l13.48-7.76,1,.55-13.72,7.91a7.13,7.13,0,0,0-1.79,1.53L372,315Z" style="fill:#2AB6B3;opacity:0.30000000000000004"></path><path d="M369.91,313.79l.19-.22a8.15,8.15,0,0,1,1.92-1.64l13.48-7.76,1,.55-13.72,7.9a7.18,7.18,0,0,0-1.79,1.54l-.13.15Z" style="fill:#2AB6B3;opacity:0.30000000000000004"></path><polygon points="399.37 315.22 402.49 313.57 402.49 313.31 399.37 315.22" style="fill:#e6e6e6"></polygon><polygon points="402.5 314.49 397.28 317.4 402.5 314.3 402.5 314.49" style="fill:#e6e6e6"></polygon><path d="M348.74,314.24c2.82-1.48,6.59-3.34,8.58-3.72a4.56,4.56,0,0,1,3.19.25h0l22.78,13.15a3.74,3.74,0,0,0-2.32-.34s-11.27-6.87-18.55-9.22A23.46,23.46,0,0,0,348.74,314.24Z" style="opacity:0.02"></path></g><g id="freepik--Pen--inject-16"><path d="M335.26,331l-21.58,12.47-3.69.75a.12.12,0,0,1-.12-.17l1.16-2.12,21.58-12.47C333.34,329,335.83,330.67,335.26,331Z" style="opacity:0.2"></path><g id="freepik--pen--inject-16"><path d="M332.7,327.94a2.18,2.18,0,0,0,1,1.71.79.79,0,0,0,.57.12l-.11.08.24-.13h0l0,0,0,0,0,0h0l0,0a.71.71,0,0,0,.08-.15s0,0,0-.05v0a.09.09,0,0,0,0-.05.88.88,0,0,0,0-.24,2.16,2.16,0,0,0-1-1.71.83.83,0,0,0-.44-.14h-.18l0,0h0l0,0-.21.12.11,0A.77.77,0,0,0,332.7,327.94Zm1.63,1.81h0Z" style="fill:#2AB6B3"></path><path d="M312.16,339.32l1.4,2.42.24-.13,20.35-11.76.11-.08a.82.82,0,0,0,.18-.56,2.18,2.18,0,0,0-1-1.71.91.91,0,0,0-.44-.13h-.12l-.11,0h0Z" style="fill:#f0f0f0"></path><path d="M312.86,339.39c-.54-.32-1-.06-1,.57a2.2,2.2,0,0,0,1,1.71c.55.32,1,.06,1-.57A2.16,2.16,0,0,0,312.86,339.39Z" style="fill:#2AB6B3"></path><path d="M310.74,340.86l0,0,1.26-1.39h0l0,0h0a.64.64,0,0,1,.79,0,2.16,2.16,0,0,1,1,1.71.65.65,0,0,1-.38.68h0l-.07,0h0l-1.82.4a.43.43,0,0,1-.32-.07,1.24,1.24,0,0,1-.57-1A.44.44,0,0,1,310.74,340.86Z" style="fill:#e0e0e0"></path><path d="M326.9,331.85h0l0,0a.25.25,0,0,1,.23,0,.79.79,0,0,1,.35.61.26.26,0,0,1-.08.21h0l0,0-15,8.67-1-.57Z" style="fill:#455a64"></path><path d="M313.76,340.58l-1.39.8-1-.57,1.89-1.09A2.24,2.24,0,0,1,313.76,340.58Z" style="fill:#37474f"></path><path d="M310.24,341.52h0l1.14-1.25,0,0a.43.43,0,0,1,.56,0,1.52,1.52,0,0,1,.7,1.21.46.46,0,0,1-.27.48h-.05l-1.68.37h0a.25.25,0,0,1-.18,0,.69.69,0,0,1-.32-.55A.23.23,0,0,1,310.24,341.52Z" style="fill:#2AB6B3"></path><path d="M310.24,341.52h0l1.14-1.25,0,0a.43.43,0,0,1,.56,0,1.52,1.52,0,0,1,.7,1.21.46.46,0,0,1-.27.48h-.05l-1.68.37h0a.25.25,0,0,1-.18,0,.69.69,0,0,1-.32-.55A.23.23,0,0,1,310.24,341.52Z" style="opacity:0.1"></path><path d="M310.18,341.7a.69.69,0,0,0,.32.55.25.25,0,0,0,.18,0h0l.84-.19c.14,0,.23-.15.23-.35a1.15,1.15,0,0,0-.51-.89.34.34,0,0,0-.41,0l0,0-.57.62h0A.23.23,0,0,0,310.18,341.7Z" style="fill:#2AB6B3"></path><path d="M310.5,341.51c-.18-.1-.32,0-.32.19a.69.69,0,0,0,.32.55c.17.1.31,0,.31-.19A.71.71,0,0,0,310.5,341.51Z" style="opacity:0.1"></path><path d="M330.64,329.69a.24.24,0,0,1,.25,0,.77.77,0,0,1,.35.6.27.27,0,0,1-.1.23h0l-3.7,2.13a.26.26,0,0,0,.08-.21.79.79,0,0,0-.35-.61.25.25,0,0,0-.23,0Z" style="fill:#fafafa"></path><path d="M330.54,329.92a.77.77,0,0,0,.35.6.26.26,0,0,0,.25,0,.27.27,0,0,0,.1-.23.77.77,0,0,0-.35-.6.24.24,0,0,0-.25,0A.27.27,0,0,0,330.54,329.92Z" style="fill:#f5f5f5"></path><path d="M331.32,328.42h0l1.46-.84,0,0h0a.64.64,0,0,1,.6.07,2,2,0,0,1,.89,1.55.62.62,0,0,1-.26.57h0l-1.48.86h0a.64.64,0,0,1-.62-.06,2,2,0,0,1-.89-1.55A.63.63,0,0,1,331.32,328.42Z" style="fill:#2AB6B3"></path><path d="M331.32,328.42h0l1.46-.84,0,0h0a.64.64,0,0,1,.6.07,2,2,0,0,1,.89,1.55.62.62,0,0,1-.26.57h0l-1.48.86h0a.64.64,0,0,1-.62-.06,2,2,0,0,1-.89-1.55A.63.63,0,0,1,331.32,328.42Z" style="opacity:0.05"></path><path d="M332,328.47c-.49-.28-.89-.05-.89.51a2,2,0,0,0,.89,1.55c.49.28.89.05.89-.52A2,2,0,0,0,332,328.47Z" style="opacity:0.1"></path><path d="M309.77,342.05h0l.61-.37h0s.07,0,.12,0a.36.36,0,0,1,.16.29.11.11,0,0,1-.05.1h0l-.6.36h0a.2.2,0,0,1-.11,0,.23.23,0,0,1-.13-.42Z" style="fill:#455a64"></path><path d="M309.74,342.07h0l0,0h0a.11.11,0,0,1,.11,0,.37.37,0,0,1,.16.29.11.11,0,0,1,0,.1h-.1a.23.23,0,0,1-.23-.23A.21.21,0,0,1,309.74,342.07Z" style="fill:#263238"></path></g></g><g id="freepik--Pencil--inject-16"><path id="freepik--shadow--inject-16" d="M317.89,346.41c.27.73,1,1.18,2.34,1.35l23-13.43,2.4-2.43a.18.18,0,0,0-.19-.3l-4.41,1.46Z" style="opacity:0.2"></path><path d="M341.25,331.42l3.92-.77a.12.12,0,0,1,.12.2l-2.66,3Z" style="fill:#ffa8a7"></path><path d="M345.29,330.85a.12.12,0,0,0-.12-.2l-.76.15h0a.67.67,0,0,1,.31.63v.06Z" style="fill:#263238"></path><path d="M323.35,344.9l.32-.18.39-.23,18.57-10.63a2,2,0,0,0-1.38-2.44l-18.56,10.63-.74.42C322.45,342.22,323.84,344.64,323.35,344.9Z" style="fill:#455a64"></path><path d="M324.58,344.2l.71-.41c.21-.11.09-.63-.16-1.17-.32-.71-1-1.4-1.25-1.25l-.53.3-.18.11c.28-.15.92.54,1.25,1.26.24.51.36,1,.18,1.15h0Z" style="fill:#ebebeb"></path><path d="M324.75,344.1c.49-.26-.91-2.69-1.4-2.43l-.72.42c.49-.27,1.9,2.16,1.4,2.42Z" style="fill:#2AB6B3"></path><path d="M323.35,344.9l.71-.41c.48-.25-.85-2.6-1.37-2.44h0l-.71.41C322.45,342.22,323.84,344.64,323.35,344.9Z" style="fill:#ebebeb"></path><path d="M345.3,330.72l-.13-.07-2.84,1.56L323,343.3s0-.05-.07,0c.42.65.74,1.48.46,1.62l.32-.18.39-.23,18.57-10.63h0l2.66-3A.12.12,0,0,0,345.3,330.72Z" style="opacity:0.15"></path><path d="M320.35,346.62l3-1.72c.21-.11.1-.62-.15-1.16-.32-.71-1-1.41-1.25-1.27h0l-3,1.73c-.59.34,0,1.65.62,2.23A.73.73,0,0,0,320.35,346.62Z" style="fill:#f28f8f"></path><path d="M320.52,345.69a2.19,2.19,0,0,0-1.22-1.49.51.51,0,0,0-.45.06c-.45.42.07,1.62.7,2.17a.72.72,0,0,0,.78.19C320.55,346.49,320.64,346.15,320.52,345.69Z" style="opacity:0.1"></path></g></g></g><g id="freepik--Backpack--inject-16"><g id="freepik--backpack--inject-16"><path d="M294.55,384.14c-3.27-.25-10.94,4.18-12.24,6.66s-7.8,38.52-5.21,42.07c3.25,4.45,20,13.77,27.54,14,6.23.17,12.49-5.2,13.53-6.81,1.72-2.63,1.94-40,.15-43.23C315.42,391.53,298.72,384.45,294.55,384.14Z" style="fill:#2AB6B3"></path><path d="M294.55,384.14c-3.27-.25-10.94,4.18-12.24,6.66s-7.8,38.52-5.21,42.07c3.25,4.45,20,13.77,27.54,14,6.23.17,12.49-5.2,13.53-6.81,1.72-2.63,1.94-40,.15-43.23C315.42,391.53,298.72,384.45,294.55,384.14Z" style="fill:#fff;opacity:0.2"></path><path d="M319.56,415.82c0-1.57,0-3.11,0-4.61,0-.6,0-1.19,0-1.77,0-1.16-.07-2.28-.11-3.34,0-.53-.05-1-.07-1.54,0-.75-.08-1.47-.13-2.14s-.1-1.29-.15-1.86L319,400a11,11,0,0,0-.64-3.2c-.08-.15-.18-.3-.28-.45l-.11-.15-.23-.31-.15-.18c-.08-.1-.17-.19-.26-.29l-.17-.19-.42-.41-.3-.28-.2-.18-.35-.29-.17-.15-.41-.32c-3,1-5.85,2-5.94,2.1a7.11,7.11,0,0,0-3.4,6.31l-1.06,18.49-.11,1.76c-.1,2.45-3.53,25,3.47,24.06l.28,0c4.75-1.38,8.84-5,9.66-6.26a3.78,3.78,0,0,0,.38-1.22c0-.24.09-.5.13-.8,0-.15.05-.3.07-.46.06-.48.12-1,.17-1.6l.06-.61c.26-3.1.44-7.4.53-12,0-.92,0-1.86,0-2.8,0-.62,0-1.25,0-1.88,0-.32,0-.63,0-.95C319.57,417.07,319.57,416.44,319.56,415.82Z" style="opacity:0.1"></path><path d="M318.82,398.89a7.1,7.1,0,0,0-.5-2.09c-2.9-5.27-19.6-12.35-23.77-12.66-3.27-.25-10.94,4.18-12.24,6.66a19.65,19.65,0,0,0-.93,3.28c6.34,3.85,22.78,12.55,24.55,12,2.18-.65,12.69-6.91,12.89-7.2Z" style="opacity:0.4"></path><path d="M297.13,426.51c-3.37-1.83-10.84-6.66-12.93-7.77a2.37,2.37,0,0,0-2.37-.14c-.32.2-1.42.89-1.71,1a1.6,1.6,0,0,0-.81,1.28c-.27,3.91-.45,5.52-.39,7.41a4.54,4.54,0,0,0,2,3.92c1.81,1.47,9.71,6.27,12.05,7.57s4.59,2.16,5.61,1.49c.27-.18,1.46-.87,1.78-1.08a1.24,1.24,0,0,0,.5-1.07c.08-2,.39-6.27.48-7.72C301.49,429.65,300.69,428.43,297.13,426.51Z" style="fill:#2AB6B3"></path><path d="M297.13,426.51c-3.37-1.83-10.84-6.66-12.93-7.77a2.37,2.37,0,0,0-2.37-.14c-.32.2-1.42.89-1.71,1a1.6,1.6,0,0,0-.81,1.28c-.27,3.91-.45,5.52-.39,7.41a4.54,4.54,0,0,0,2,3.92c1.81,1.47,9.71,6.27,12.05,7.57s4.59,2.16,5.61,1.49c.27-.18,1.46-.87,1.78-1.08a1.24,1.24,0,0,0,.5-1.07c.08-2,.39-6.27.48-7.72C301.49,429.65,300.69,428.43,297.13,426.51Z" style="opacity:0.30000000000000004"></path><path d="M299.35,430.89l1.8-1c-.44-1.07-1.58-2.06-4-3.38-3.37-1.83-10.84-6.66-12.93-7.77a2.37,2.37,0,0,0-2.37-.14c-.32.2-1.42.89-1.71,1a1.56,1.56,0,0,0-.73.89Z" style="opacity:0.4"></path><path d="M279.31,420.93c-.27,3.91-.45,5.52-.39,7.41a4.54,4.54,0,0,0,2,3.92c1.81,1.47,9.71,6.27,12.05,7.57,2.88,1.58,6,2.72,6.13.42.08-2,.38-6.26.48-7.72.12-1.8-.68-3-4.24-4.94-3.38-1.83-10.85-6.66-12.93-7.77C280.68,418.88,279.4,419.76,279.31,420.93Z" style="fill:#2AB6B3"></path><path d="M279.31,420.93c-.27,3.91-.45,5.52-.39,7.41a4.54,4.54,0,0,0,2,3.92c1.81,1.47,9.71,6.27,12.05,7.57,2.88,1.58,6,2.72,6.13.42.08-2,.38-6.26.48-7.72.12-1.8-.68-3-4.24-4.94-3.38-1.83-10.85-6.66-12.93-7.77C280.68,418.88,279.4,419.76,279.31,420.93Z" style="opacity:0.18"></path><path d="M301.15,429.89c-.34-1-2.06-.36-2.46,1s-.4,3.16-.59,3.75-18.69-10.43-19.19-11.05c-.23-.29.06-3.58.74-4.16s2.25-1.61,3.28-1.4,12.24,7,14.43,8.18S301.28,428.61,301.15,429.89Z" style="fill:#2AB6B3"></path><path d="M301.15,429.89c-.34-1-2.06-.36-2.46,1s-.4,3.16-.59,3.75-18.69-10.43-19.19-11.05c-.23-.29.06-3.58.74-4.16s2.25-1.61,3.28-1.4,12.24,7,14.43,8.18S301.28,428.61,301.15,429.89Z" style="opacity:0.1"></path><path d="M292.37,433.32l2.23,1.22a.4.4,0,0,0,.62-.27l.29-1.13a.63.63,0,0,0-.29-.67L293,431.21a.4.4,0,0,0-.61.27l-.29,1.18A.62.62,0,0,0,292.37,433.32Z" style="fill:#37474f"></path><path d="M281.35,426.73l2.23,1.22a.41.41,0,0,0,.63-.27l.28-1.13a.63.63,0,0,0-.29-.67L282,424.62a.4.4,0,0,0-.61.27l-.29,1.18A.63.63,0,0,0,281.35,426.73Z" style="fill:#37474f"></path><path d="M278.36,410.63c.43-2.84.69-4.78,1.16-7.16.93-.65,2.21-1.46,2.21-1.46l8,2.8,7.46,2.63,1.7.59c.53.19,1.06.52,1.59.67,1.36.37,3.4-.73,4.44-1.52s1.67-1.53,3-1.81q-.27,3.87-.62,7.74a27.56,27.56,0,0,1-1.09,7.19,3.75,3.75,0,0,1-2.62,2.41,10.67,10.67,0,0,1-4.36,0s-.21,2.18-.46,3.25a3.29,3.29,0,0,1-1.93,1.68c-1.26-.33-1.26-6.24-1.26-6.24l-9.47-5.13s-.34,2.12-.65,3.15c-.53.82-1.54,1.72-1.91,1.63-1.59-.41-.9-6.76-.9-6.76A14.77,14.77,0,0,1,278.36,410.63Z" style="opacity:0.15"></path><path d="M294.21,384.12c-3.59-.23-10.18,3.05-12.18,5.77s-4.66,16.4-3.47,18.91,10.94,8.26,16.85,11.11c4.73,2.28,7.2,1.75,9.1.81,1.42-.71,1.47-3,1.66-4.74.49-4.42,1.12-12.34,3.95-14.78s8-4.31,8.7-2.3c0,0,1-2.9-4.37-6.09C305.59,387.53,298.64,384.39,294.21,384.12Z" style="fill:#2AB6B3"></path><path d="M294.21,384.12c-3.59-.23-10.18,3.05-12.18,5.77s-4.66,16.4-3.47,18.91,10.94,8.26,16.85,11.11c4.73,2.28,7.2,1.75,9.1.81,1.42-.71,1.47-3,1.66-4.74.49-4.42,1.12-12.34,3.95-14.78s8-4.31,8.7-2.3c0,0,1-2.9-4.37-6.09C305.59,387.53,298.64,384.39,294.21,384.12Z" style="opacity:0.1"></path><path d="M296.06,412.42l3.13,1.42s-1,7.75-1.23,11.57c0,0-.85,1.6-1.56,1.83s-1.52-1.67-1.58-3.06A110.05,110.05,0,0,1,296.06,412.42Z" style="fill:#455a64"></path><path d="M295.92,413.17l3.19,1.34a.56.56,0,0,0,.8-.46l.23-1.57a.86.86,0,0,0-.49-.86l-3.2-1.39a.54.54,0,0,0-.79.45l-.23,1.64A.83.83,0,0,0,295.92,413.17Z" style="fill:#37474f"></path><path d="M296.48,422.65a1.58,1.58,0,0,1,.81,1.41.64.64,0,0,1-.94.61,1.54,1.54,0,0,1-.81-1.42C295.58,422.69,296,422.41,296.48,422.65Z" style="fill:#e0e0e0"></path><path d="M283.14,405.91l3.05,1.58s-.9,7.66-1.33,11.46c0,0-.93,1.56-1.65,1.74s-1.43-1.74-1.42-3.14A92.1,92.1,0,0,1,283.14,405.91Z" style="fill:#455a64"></path><path d="M283,406.65l3.12,1.5a.55.55,0,0,0,.82-.42l.31-1.55a.87.87,0,0,0-.44-.89l-3.13-1.55a.54.54,0,0,0-.81.41l-.31,1.62A.83.83,0,0,0,283,406.65Z" style="fill:#37474f"></path><path d="M283.52,416.11a1.59,1.59,0,0,1,.74,1.46.64.64,0,0,1-1,.56,1.54,1.54,0,0,1-.73-1.46C282.62,416.1,283.05,415.85,283.52,416.11Z" style="fill:#e0e0e0"></path><path d="M320.5,423.24c-.19-.11-2.94-2.42-3.26-2.6-.57-.33-9.38,5-10.22,5.9-.59.65-.3,11.2,0,12,.1.27,3.16,2.32,3.26,2.6.29.77,9.59-4.6,10.22-6S321.34,423.72,320.5,423.24Z" style="fill:#2AB6B3"></path><path d="M320.5,423.24c-.19-.11-2.94-2.42-3.26-2.6-.57-.33-9.38,5-10.22,5.9-.59.65-.3,11.2,0,12,.1.27,3.16,2.32,3.26,2.6.29.77,9.59-4.6,10.22-6S321.34,423.72,320.5,423.24Z" style="opacity:0.18"></path><path d="M310.28,429.14c-.58.65-.29,11.2,0,12s9.59-4.6,10.22-6,.84-11.4,0-11.88C319.93,422.91,311.12,428.2,310.28,429.14Z" style="fill:#2AB6B3"></path><path d="M317.24,420.64c.32.18,3.07,2.49,3.26,2.6-.57-.33-9.38,5-10.22,5.9l-3.26-2.6C307.86,425.6,316.67,420.31,317.24,420.64Z" style="opacity:0.4"></path><path d="M310.28,429.14c-.58.65-.29,11.2,0,12s9.59-4.6,10.22-6,.84-11.4,0-11.88C319.93,422.91,311.12,428.2,310.28,429.14Z" style="opacity:0.30000000000000004"></path><path d="M307,426.54c.65-.38,2.49.73,3.27,1.47s1.5,4.09,3.58,4.72,5.2-2,5.92-3.75,1.66-5.47.71-6.87a3.48,3.48,0,0,0-4.23-1.49C314.73,421.35,307.29,424.9,307,426.54Z" style="fill:#2AB6B3"></path><path d="M307,426.54c.65-.38,2.49.73,3.27,1.47s1.5,4.09,3.58,4.72,5.2-2,5.92-3.75,1.66-5.47.71-6.87a3.48,3.48,0,0,0-4.23-1.49C314.73,421.35,307.29,424.9,307,426.54Z" style="opacity:0.2"></path><path d="M316.44,428.49a1.59,1.59,0,0,0-.81,1.42.64.64,0,0,0,.94.61,1.56,1.56,0,0,0,.81-1.42C317.34,428.53,316.92,428.26,316.44,428.49Z" style="fill:#37474f"></path></g></g><g id="freepik--Character--inject-16"><g id="freepik--character--inject-16"><g id="freepik--Legs--inject-16"><path d="M400.66,406.9s0-2.95,2.08-3.94a1.14,1.14,0,0,1,1.21,0s-2,.49-2.29,4c0,0-.08.24-.52.2C401,407.17,400.66,407.15,400.66,406.9Z" style="fill:#fafafa"></path><path d="M398.85,404.34c-3.23,0-5-.38-8.87-.31-2.9.05-4,3.6-.45,6.5a19.63,19.63,0,0,0,5,2.74c4.57,1.4,7.87.61,10.28.89,3.13.37,4,1.25,6.52,1.44,3.36.25,4.58-.28,5.47-1.33,1.06-2.43.39-3.32.75-6.17.2-1.58.09-2.24-.08-2.22C416.44,405.78,400.42,404.32,398.85,404.34Z" style="fill:#455a64"></path><path d="M417.41,406.13c.5-1.56,2-8,2-8s-2.1,1.5-6,1c-2-.26-3.34-5.46-3.34-5.46l-1.14,8.65c-.77,2-4.59,2.08-8.31,2.12-.63,0-1.28,0-1.93-.05h0c-2,.14-3.84,1.58-1.57,3s5.76,1.65,9,1.83C409.9,409.38,416.25,409.79,417.41,406.13Z" style="fill:#ffbda7"></path><path d="M413.31,358.48c-1.15,8.67-4,39.78-4,39.78s5,3.95,9.76,1.6c3.85-14.37,11.42-30.22,10.34-40.36Z" style="fill:#263238"></path><path d="M381.63,414.45c-3.23,0-5-.38-8.87-.31-2.91.06-4,3.6-.46,6.51a20.51,20.51,0,0,0,5,2.74c4.57,1.4,7.87.6,10.28.88,3.13.37,3.95,1.26,6.52,1.45,3.36.25,4.58-.28,5.47-1.34,1.06-2.43.39-3.31.75-6.17.2-1.57.09-2.24-.08-2.22C399.22,415.89,383.19,414.44,381.63,414.45Z" style="fill:#455a64"></path><path d="M400.19,416.25c.5-1.57,2-8,2-8s-2.1,1.49-6,1c-2-.27-3.34-5.46-3.34-5.46l-1.14,8.64c-.78,2-4.59,2.08-8.31,2.12-.63,0-1.28,0-1.93,0h0c-2,.14-3.83,1.58-1.56,3s5.75,1.65,9,1.82C392.68,419.49,399,419.9,400.19,416.25Z" style="fill:#ffbda7"></path><path d="M397,368.26c-1.43,6.58-3.66,31.2-5.14,40.77a15.77,15.77,0,0,0,9.86,1.71c2.26-7.26,13-33,10.53-41.12-1.56-5.11-7.09-3-7.09-3Z" style="fill:#37474f"></path></g><path d="M479.8,435.83l-6-50.06-4.9-.25,8.43,50.31h0a.7.7,0,0,0,.33.44,1.93,1.93,0,0,0,1.75.08.58.58,0,0,0,.38-.52Z" style="fill:#263238"></path><path d="M415.88,382.52H411l-7.15,47.28h0a.59.59,0,0,0,.36.54,1.93,1.93,0,0,0,1.75,0,.66.66,0,0,0,.34-.43h0Z" style="fill:#37474f"></path><path d="M411,382.52l-2,13.19a18.94,18.94,0,0,0,3.77,2.31l3.14-15.5Z" style="fill:#263238"></path><path d="M447,452.62l-4.62-50.91-4.9-.25,7,51.15h0a.68.68,0,0,0,.33.44,2,2,0,0,0,1.75.09.6.6,0,0,0,.38-.52Z" style="fill:#37474f"></path><path d="M443.06,409.15l-.68-7.44-4.9-.25,1.11,8.05A8.92,8.92,0,0,0,443.06,409.15Z" style="fill:#263238"></path><path d="M442.67,366.94h-4.91l-7.14,47.28h0a.61.61,0,0,0,.36.54,1.93,1.93,0,0,0,1.75,0,.68.68,0,0,0,.35-.42h0Z" style="fill:#263238"></path><path d="M407.94,381.55c-.68-3.88,2.47-6.9,8.4-10.9a139.2,139.2,0,0,1,17.2-9.66c5-2.28,10-2.07,16.4,1.19,8.83,4.54,32.14,19.36,32.14,19.36S442.35,404,434.7,403s-23.48-12.14-25-16.51S407.94,381.55,407.94,381.55Z" style="fill:#2AB6B3"></path><g style="opacity:0.6000000000000001"><path d="M407.94,381.55c-.68-3.88,2.47-6.9,8.4-10.9a139.2,139.2,0,0,1,17.2-9.66c5-2.28,10-2.07,16.4,1.19,8.83,4.54,32.14,19.36,32.14,19.36S442.35,404,434.7,403s-23.48-12.14-25-16.51S407.94,381.55,407.94,381.55Z" style="fill:#fff"></path></g><path d="M438.54,398.25c-5.7,5.16-8.4,2-17.83-4.11-10.67-6.93-12.77-12.59-12.77-12.59s0,4.24.8,6.23,2.52,4.25,10.22,9.56S429,404,434.14,405l4.08-.56" style="fill:#2AB6B3"></path><path d="M420.71,394.14c-10.67-6.93-12.77-12.59-12.77-12.59s0,4.24.8,6.23,2.52,4.25,10.22,9.56S429,404,434.14,405l4.08-.56.32-6.18C432.84,403.41,430.14,400.26,420.71,394.14Z" style="fill:#fff;opacity:0.25"></path><g id="freepik--top--inject-16"><path d="M465.51,361.07s-16.29-4.69-27.4-7.17c-9.37-2.09-13.86-2.76-16.59-1.9s-4.28,2.86-6.12,6.43c-1.55,3-3,6.27-3,6.27s19.3,9.5,29.83,10.74S465.51,361.07,465.51,361.07Z" style="fill:#263238"></path><path d="M466.06,361.07c3.44,9.92,2.89,19.4-3.12,25-3.45,3.21-19.57,12.26-30.11,8.77-10.37-3.43-29.74-21.57-31.9-23.18s-4.12-2.7-3.91-3.38c2.9-9.62,7.13-10.37,15-8.64,9.61,2.11,28.57,12.9,28.57,12.9Z" style="fill:#37474f"></path><path d="M441.62,321.2l-29.79-3.56c-2.81-1.64-4.76-2.67-8-3a7.88,7.88,0,0,0-3.44,1.26c-3.06,2.29-7.32,10.86-2,11.77,3.18.54,7-1.62,9.58-1.74a31.94,31.94,0,0,1,6.89.75c6.15,2,17.36,6.16,25.68,7.95,3.15.68,6.68-1.32,8.41-4.78C451.8,324.21,441.62,321.2,441.62,321.2Z" style="fill:#ffbda7"></path><path d="M403.3,320.12l-4.19,7.63s.57,0,1.14,0c0,0,1.64-3.18,2.45-4.35s1.6-2.46,1.6-2.46,2.49-1.3,3.25-2.58S403.3,320.12,403.3,320.12Z" style="fill:#f0997a"></path><g id="freepik--pencil--inject-16"><path d="M394.74,328.23l-.92,4.88a.15.15,0,0,0,.25.14l3.72-3.34Z" style="fill:#ffbda7"></path><path d="M394.05,333.26h0l3.72-3.34-1.62-.89-.3.54-1.9,3.55Z" style="fill:#f0997a"></path><path d="M394.07,333.25a.15.15,0,0,1-.25-.14l.18-.95h0a.84.84,0,0,0,.78.38h.09Z" style="fill:#263238"></path><path d="M409.71,308.74l-.23.4-.27.49-11.42,20.28a2.22,2.22,0,0,1-1.62-.12,2.27,2.27,0,0,1-1.43-1.56L406.16,308l.52-.92C406.37,307.65,409.4,309.36,409.71,308.74Z" style="fill:#455a64"></path><path d="M409.71,308.74l-.23.4-.27.49-11.42,20.28a2.35,2.35,0,0,1-2-.29l11.88-21.35c-.06,0-.06-.06,0-.08C408.51,308.7,409.53,309.09,409.71,308.74Z" style="fill:#37474f"></path><path d="M408.86,310.27l-.51.89c-.14.27-.78.12-1.45-.18-.89-.4-1.76-1.19-1.58-1.54l.37-.66.14-.23c-.18.35.68,1.14,1.57,1.54.65.29,1.27.43,1.44.21h0S408.85,310.28,408.86,310.27Z" style="fill:#ebebeb"></path><path d="M408.73,310.49c-.32.62-3.35-1.11-3-1.72l.5-.9c-.31.61,2.71,2.34,3,1.73Z" style="fill:#37474f"></path><path d="M409.71,308.74l-.5.89c-.3.6-3.24-1-3-1.68v0l.51-.89C406.37,307.65,409.4,309.36,409.71,308.74Z" style="fill:#ebebeb"></path><path d="M393.91,333.27a.14.14,0,0,0,.14,0A.12.12,0,0,1,393.91,333.27Z" style="fill:#ffbda7"></path><path d="M410.76,306.91l-1.05,1.83c-.13.26-.77.12-1.44-.17-.89-.4-1.77-1.19-1.59-1.54h0l1.06-1.85c.42-.75,2-.08,2.77.75A.88.88,0,0,1,410.76,306.91Z" style="fill:#f0997a"></path><path d="M409.6,307.14a2.68,2.68,0,0,1-1.85-1.51.59.59,0,0,1,.07-.56c.51-.56,2,.08,2.69.86a.89.89,0,0,1,.26,1C410.61,307.17,410.18,307.28,409.6,307.14Z" style="opacity:0.1"></path></g><path d="M402.65,314.18a23.39,23.39,0,0,0-4.73,1.38,2,2,0,0,0-.75.62,3.18,3.18,0,0,0-.31,1c-.38,1.71-1.63,3.06-2,4.76-.34,1.5,0,5.35,1.27,5.84.78.31,1.44-1.48,1.51-2.66.49.71,1.5,0,1.68-2,.14-1.59.47-3.82.47-3.82Z" style="fill:#ffbda7"></path><path d="M398.88,318.3a1.05,1.05,0,0,0,0,1.05,2.08,2.08,0,0,0,.8.85l.13-.91Z" style="fill:#f0997a"></path><path d="M411.83,317.61c-2.29-1.3-4.12-3.34-5.68-3.05-2.32.43-3,1.84-5.59,2.58-3.61,1-.88,3.44,2.36,3a8.22,8.22,0,0,0,4.63-1.84S411.78,321.34,411.83,317.61Z" style="fill:#ffbda7"></path><path d="M441.25,309.77a11.89,11.89,0,0,1,16.55,4.59c3.15,6.19,2.67,15.86,2.67,15.86C456.74,326.53,441.25,309.77,441.25,309.77Z" style="fill:#37474f"></path><path d="M441.81,311.65l-.56-1.88c8-3.82,16.23,2,18.35,12.45,1.35,6.6.68,14.19,1.47,23.51.57,6.72,3.63,7.69,6.64,19.7,0,0-4.36,6.86-14.42,9.32s-23.87.29-26.31-7.48a85.44,85.44,0,0,0-1.59-11.81c-1.09-4.94-2.43-12-4.85-17.61-2.29-5.34-4.76-16.5,1.47-20.19,1.83-1.09,3.7-1.81,6.19-3C433.88,316.53,442.54,313.9,441.81,311.65Z" style="fill:#2AB6B3"></path><path d="M412.82,368c-3.09-1.17-5-4.66-5.36-6.92s.63-5.95,1.83-8S412.82,368,412.82,368Z" style="fill:#f0997a"></path><path d="M409.23,353.42c.89-5.44,2.33-13.86,4.13-22.73,1.76-8.62,3.21-10.25,7.71-12.12,10.91,6.5,5.54,21.25,5.54,21.25s-4.18,17.1-6.42,22.53c-1.46,3.52-4.34,7.48-8.17,5.26S408.35,358.86,409.23,353.42Z" style="fill:#ffbda7"></path><path d="M421.45,318a13.22,13.22,0,0,0-7.11,7.43,80.44,80.44,0,0,0-2.51,8.6,22.4,22.4,0,0,1,9.09,2,14.45,14.45,0,0,1,5.65,5.39,43.21,43.21,0,0,0,1.71-8.94C428.42,328.74,428.31,321.43,421.45,318Z" style="fill:#37474f"></path><path d="M417.57,294.94s-2.95,5-2.5,5.45a7.82,7.82,0,0,0,2.53.9Z" style="fill:#f0997a"></path><path d="M444.9,281.64a3.68,3.68,0,0,0-.24-1.07,6.21,6.21,0,0,0-1.35-1.79,10.13,10.13,0,0,0-3.84-2.24,16.93,16.93,0,0,0-6.85-.76c-2.22.19-4.27.74-6.52.47a33.69,33.69,0,0,0-5.09-.54,6,6,0,0,0-4.56,1.93,5.09,5.09,0,0,0-1,3.5,8.73,8.73,0,0,0,1.08,3.55,4.79,4.79,0,0,0-1,5.58c1.12,2.55,3.73,4,5.86,5.59,1.67,1.26,3.29,2.6,4.83,4a29,29,0,0,1,2.19,2.1l.12.15a3.52,3.52,0,0,1-1.68,0s.59,5.05,4.88,6.71c0,0,5.47,1.11,9.31-1.33.79-1.83,3.22-4.07,5.1-7.64C449.83,292.73,448.66,285.5,444.9,281.64Z" style="fill:#263238"></path><path d="M430.67,300.82a3.21,3.21,0,0,1-2.19,1.74,1.67,1.67,0,0,1-1.68-.47,12.73,12.73,0,0,0,3.8,6.18,9.41,9.41,0,0,1-2.41,1.16c-2.35.86-7,.82-7.91,0-1.39-1.18-4.65-4.61-2.68-14-.8-3.92-.09-7.61,1.85-8.6a4.09,4.09,0,0,0,2.54,3,4,4,0,0,0-.45,3.35,8,8,0,0,0,2.54,3.25.52.52,0,0,0,.21.13c.15,0,.76,0,.84-.17.78-1.29,1.85-2.81,4.18-2.19C432,295,432.18,298.12,430.67,300.82Z" style="fill:#ffbda7"></path><path d="M420.54,309.62c1.11.53,4.18.6,6.44.14l-.45-1.7a10.27,10.27,0,0,1-2.69,1.16A11.13,11.13,0,0,1,420.54,309.62Z" style="fill:#f0997a"></path><path d="M424.09,299.84a2.21,2.21,0,0,1-1.51-2.76,2.28,2.28,0,0,1,2.81-1.5Z" style="fill:#263238"></path><path d="M426.8,302.09s1.36,6.45-.42,9.21-3.44,5.84-3.44,5.84l5.26-2.48s1.25,8.84,5.94,13.09,15,4.77,20.45-1.22c6.26-6.9-3.73-14.52-5.11-18.56s3.64-21.84-4.58-26.33l-1.83,13.85L436,304.17S428.17,304.88,426.8,302.09Z" style="fill:#263238"></path></g><path d="M438.22,404.43c3.25-.16,5.79-2.55,13.52-5.77,14.25-5.94,24.95-10.69,29-18.16s7-41,5.94-50.29a12.31,12.31,0,0,0-.69-3.1l1-.15-2.6-2.21h0c-2.66-2.18-7-.24-10.27,1.54-9.33,5.08-16.63,10-22.4,27.84-4.35,13.41-7.21,37.57-13.2,44.11" style="fill:#2AB6B3"></path><path d="M486,327.11l1-.15-2.6-2.21h0c-2.66-2.18-7-.24-10.27,1.54-9.33,5.08-16.63,10-22.4,27.84-4.35,13.41-7.21,37.57-13.2,44.11l-.32,6.18c3.25-.16,5.79-2.55,13.52-5.77,14.25-5.94,24.95-10.69,29-18.16s7-41,5.94-50.29A12.31,12.31,0,0,0,486,327.11Z" style="fill:#fff;opacity:0.25"></path><path d="M476.62,327.5c-9.34,5.08-18.11,10.63-23.06,28.91-4.89,18.08-8.05,45.53-19.42,48.58,0,0,5.14,2.05,20.9-4.62,5-2.12,11.1-6,15.1-8.23,7.83-4.39,12.58-8,13.33-9.34,4.14-7.44,7-41,5.94-50.3S481.29,325,476.62,327.5Z" style="fill:#2AB6B3"></path><g style="opacity:0.4"><path d="M476.62,327.5c-9.34,5.08-18.11,10.63-23.06,28.91-4.89,18.08-8.05,45.53-19.42,48.58,0,0,5.14,2.05,20.9-4.62,5-2.12,11.1-6,15.1-8.23,7.83-4.39,12.58-8,13.33-9.34,4.14-7.44,7-41,5.94-50.3S481.29,325,476.62,327.5Z" style="fill:#fff"></path></g></g></g></svg>