<svg xmlns="http://www.w3.org/2000/svg" xmlns:xlink="http://www.w3.org/1999/xlink" viewBox="0 0 500 500"><defs><clipPath id="freepik--clip-path--inject-2"><path d="M423.29,196.59l-2.7,18s-14.9,6.54-18,11.8l-.74.1-3.5.49-1.89-.56a105.85,105.85,0,0,0-14.1-3.08,21.76,21.76,0,0,0-5-.19l-10.08-15.71s15.59-2.16,26.37,1.53l5.16-.36.19-.16C400.55,207.18,411.41,198.55,423.29,196.59Z" style="fill:#2AB6B3;stroke:#263238;stroke-linecap:round;stroke-linejoin:round"></path></clipPath><clipPath id="freepik--clip-path-2--inject-2"><path d="M234.77,412.2H211.09l-12.82-4.06-4-1.27-1.17,12.07-140.22.26s2.14-5.4,5.63-13.32c7.53-17.09,21.33-45.95,33.4-57.74,9.8-9.57,34.28-9.84,34.28-9.84a15.25,15.25,0,0,1,8.43-2.54c4.5.22,38.52,3.91,40.63,5a11.42,11.42,0,0,1,3.69,3.42s11.92-5.27,23.63-.52S234.77,412.2,234.77,412.2Z" style="fill:#bfbfbf;stroke:#263238;stroke-linecap:round;stroke-linejoin:round"></path></clipPath><clipPath id="freepik--clip-path-3--inject-2"><path d="M220.32,391.89s3.64-2.26,6.83-1.52,5.83,3.89,5.83,3.89,26.48-2.19,32.49-2,19.46,4.13,19.46,4.13,6.52-1.32,7.22-1.05-1.41,22.46-1.41,22.46h-86c-4.22,0-7.35-6.11-10.52-10.91a215.44,215.44,0,0,0,8.3-58.73" style="fill:#bfbfbf;stroke:#263238;stroke-linecap:round;stroke-linejoin:round"></path></clipPath><clipPath id="freepik--clip-path-4--inject-2"><path d="M181.88,413.87H342.06a5.33,5.33,0,0,1-5.33,5.33h-142a5.36,5.36,0,0,1-1.64-.26l-11.41-3.68A.71.71,0,0,1,181.88,413.87Z" style="fill:#2AB6B3;stroke:#263238;stroke-linecap:round;stroke-linejoin:round"></path></clipPath><clipPath id="freepik--clip-path-5--inject-2"><path d="M370.73,348.12l0,.13L352.09,413.1a4.32,4.32,0,0,1-3.93,2.95h-97.1a2.2,2.2,0,0,1-2.24-2.95l18.62-64.85a4.31,4.31,0,0,1,3.93-2.95h97.1A2.17,2.17,0,0,1,370.73,348.12Z" style="fill:#2AB6B3;stroke:#263238;stroke-linecap:round;stroke-linejoin:round"></path></clipPath><clipPath id="freepik--clip-path-6--inject-2"><path d="M207.09,419.2h-134l1.62-3.38S87.37,417,97.4,413.87c4.43-1.38,11.25-2,18.09-1.92,4.31.06,14.8.1,21.31.07h0c2.32,0,4.14,0,5-.06.33,0,.66,0,1,0a26.28,26.28,0,0,1,5.53.52,41.72,41.72,0,0,1,5.29-.26c3.09,0,16.38-.05,20,0,4.77.06,10.28,1,15.51,1.72l.14-.05,0,.07c6.32.88,12.24,1.48,16-.07Z" style="fill:#fff;stroke:#263238;stroke-linecap:round;stroke-linejoin:round"></path></clipPath></defs><g id="freepik--book-shelf--inject-2"><polyline points="342.06 385.62 342.06 285.94 454.3 285.94" style="fill:none;stroke:#263238;stroke-linecap:round;stroke-linejoin:round"></polyline><polyline points="450.22 296.25 351.09 296.25 351.09 389.1" style="fill:none;stroke:#263238;stroke-linecap:round;stroke-linejoin:round"></polyline><polyline points="370.93 346.89 370.93 305.62 377.42 305.62 377.42 314.13 386.08 314.13 386.08 310.31 393.82 310.31 393.82 314.94 404.27 314.94 404.27 305.62 414.96 305.62 414.96 311.88 420.72 311.88 420.72 308.24 431.04 308.24 431.04 332.55" style="fill:none;stroke:#263238;stroke-linecap:round;stroke-linejoin:round"></polyline><line x1="420.72" y1="311.88" x2="420.72" y2="346.89" style="fill:none;stroke:#263238;stroke-linecap:round;stroke-linejoin:round"></line><line x1="415.79" y1="317.12" x2="415.79" y2="323.37" style="fill:none;stroke:#263238;stroke-linecap:round;stroke-linejoin:round"></line><line x1="415.79" y1="327.85" x2="415.79" y2="353.52" style="fill:none;stroke:#263238;stroke-linecap:round;stroke-linejoin:round"></line><line x1="404.27" y1="314.95" x2="404.27" y2="338.01" style="fill:none;stroke:#263238;stroke-linecap:round;stroke-linejoin:round"></line><line x1="404.67" y1="345.61" x2="404.67" y2="352.79" style="fill:none;stroke:#263238;stroke-linecap:round;stroke-linejoin:round"></line><line x1="393.82" y1="314.95" x2="393.82" y2="327.85" style="fill:none;stroke:#263238;stroke-linecap:round;stroke-linejoin:round"></line><line x1="393.82" y1="335.78" x2="393.82" y2="362.96" style="fill:none;stroke:#263238;stroke-linecap:round;stroke-linejoin:round"></line><line x1="386.08" y1="314.13" x2="386.08" y2="346.17" style="fill:none;stroke:#263238;stroke-linecap:round;stroke-linejoin:round"></line><line x1="377.42" y1="314.13" x2="377.42" y2="326.25" style="fill:none;stroke:#263238;stroke-linecap:round;stroke-linejoin:round"></line><line x1="377.42" y1="332.55" x2="377.42" y2="361.36" style="fill:none;stroke:#263238;stroke-linecap:round;stroke-linejoin:round"></line><line x1="370.93" y1="352.79" x2="370.93" y2="365.8" style="fill:none;stroke:#263238;stroke-linecap:round;stroke-linejoin:round"></line><line x1="357.54" y1="365.8" x2="436.32" y2="365.8" style="fill:none;stroke:#263238;stroke-linecap:round;stroke-linejoin:round"></line><line x1="420.72" y1="365.8" x2="420.72" y2="357.47" style="fill:none;stroke:#263238;stroke-linecap:round;stroke-linejoin:round"></line><line x1="404.67" y1="359.67" x2="404.67" y2="365.41" style="fill:none;stroke:#263238;stroke-linecap:round;stroke-linejoin:round"></line><line x1="431.92" y1="318.93" x2="439.56" y2="318.93" style="fill:none;stroke:#263238;stroke-linecap:round;stroke-linejoin:round"></line><line x1="357.84" y1="373.06" x2="431.04" y2="373.06" style="fill:none;stroke:#263238;stroke-linecap:round;stroke-linejoin:round"></line><polyline points="373.55 394.23 373.55 384.53 387.11 384.53 387.11 390.78 398.02 390.78 398.02 402.97 404.27 402.97 404.27 384.9 418.12 384.9 418.12 389.1 426.63 389.1" style="fill:none;stroke:#263238;stroke-linecap:round;stroke-linejoin:round"></polyline><line x1="418.12" y1="389.1" x2="418.12" y2="399.5" style="fill:none;stroke:#263238;stroke-linecap:round;stroke-linejoin:round"></line><line x1="404.67" y1="407.37" x2="404.67" y2="414.37" style="fill:none;stroke:#263238;stroke-linecap:round;stroke-linejoin:round"></line><line x1="398.02" y1="402.97" x2="398.02" y2="412.19" style="fill:none;stroke:#263238;stroke-linecap:round;stroke-linejoin:round"></line><line x1="387.11" y1="390.78" x2="387.11" y2="396.07" style="fill:none;stroke:#263238;stroke-linecap:round;stroke-linejoin:round"></line></g></svg>