<svg xmlns="http://www.w3.org/2000/svg" xmlns:xlink="http://www.w3.org/1999/xlink" viewBox="0 0 500 500"><defs><clipPath id="freepik--clip-path--inject-2"><path d="M423.29,196.59l-2.7,18s-14.9,6.54-18,11.8l-.74.1-3.5.49-1.89-.56a105.85,105.85,0,0,0-14.1-3.08,21.76,21.76,0,0,0-5-.19l-10.08-15.71s15.59-2.16,26.37,1.53l5.16-.36.19-.16C400.55,207.18,411.41,198.55,423.29,196.59Z" style="fill:#2AB6B3;stroke:#263238;stroke-linecap:round;stroke-linejoin:round"></path></clipPath><clipPath id="freepik--clip-path-2--inject-2"><path d="M234.77,412.2H211.09l-12.82-4.06-4-1.27-1.17,12.07-140.22.26s2.14-5.4,5.63-13.32c7.53-17.09,21.33-45.95,33.4-57.74,9.8-9.57,34.28-9.84,34.28-9.84a15.25,15.25,0,0,1,8.43-2.54c4.5.22,38.52,3.91,40.63,5a11.42,11.42,0,0,1,3.69,3.42s11.92-5.27,23.63-.52S234.77,412.2,234.77,412.2Z" style="fill:#bfbfbf;stroke:#263238;stroke-linecap:round;stroke-linejoin:round"></path></clipPath><clipPath id="freepik--clip-path-3--inject-2"><path d="M220.32,391.89s3.64-2.26,6.83-1.52,5.83,3.89,5.83,3.89,26.48-2.19,32.49-2,19.46,4.13,19.46,4.13,6.52-1.32,7.22-1.05-1.41,22.46-1.41,22.46h-86c-4.22,0-7.35-6.11-10.52-10.91a215.44,215.44,0,0,0,8.3-58.73" style="fill:#bfbfbf;stroke:#263238;stroke-linecap:round;stroke-linejoin:round"></path></clipPath><clipPath id="freepik--clip-path-4--inject-2"><path d="M181.88,413.87H342.06a5.33,5.33,0,0,1-5.33,5.33h-142a5.36,5.36,0,0,1-1.64-.26l-11.41-3.68A.71.71,0,0,1,181.88,413.87Z" style="fill:#2AB6B3;stroke:#263238;stroke-linecap:round;stroke-linejoin:round"></path></clipPath><clipPath id="freepik--clip-path-5--inject-2"><path d="M370.73,348.12l0,.13L352.09,413.1a4.32,4.32,0,0,1-3.93,2.95h-97.1a2.2,2.2,0,0,1-2.24-2.95l18.62-64.85a4.31,4.31,0,0,1,3.93-2.95h97.1A2.17,2.17,0,0,1,370.73,348.12Z" style="fill:#2AB6B3;stroke:#263238;stroke-linecap:round;stroke-linejoin:round"></path></clipPath><clipPath id="freepik--clip-path-6--inject-2"><path d="M207.09,419.2h-134l1.62-3.38S87.37,417,97.4,413.87c4.43-1.38,11.25-2,18.09-1.92,4.31.06,14.8.1,21.31.07h0c2.32,0,4.14,0,5-.06.33,0,.66,0,1,0a26.28,26.28,0,0,1,5.53.52,41.72,41.72,0,0,1,5.29-.26c3.09,0,16.38-.05,20,0,4.77.06,10.28,1,15.51,1.72l.14-.05,0,.07c6.32.88,12.24,1.48,16-.07Z" style="fill:#fff;stroke:#263238;stroke-linecap:round;stroke-linejoin:round"></path></clipPath></defs><g id="freepik--Screen--inject-2"><rect x="210.92" y="73.17" width="239.64" height="165.57" style="fill:#2AB6B3;stroke:#263238;stroke-linecap:round;stroke-linejoin:round"></rect><rect x="210.92" y="73.17" width="239.64" height="16.37" style="fill:#263238"></rect><path d="M308,186.69l-5.62-7.82a48.59,48.59,0,0,0-.25-4.89c-.21-.73-3.62-6.1-3.7-7.37a8.56,8.56,0,0,0-.23-1.8s-1.75.44-1.73,1.51.21,4.68.21,4.68-4.56-2.66-5.07-3.36-6.07-4.78-6.59-5.39-2.64-.65-2.89,0l.3.75-1.75.83,1.17,3.47a7.68,7.68,0,0,0-.6,2.46c.19.43.81,3,.81,3s-.38.39-.33,1.75,7.52,8.31,9,9.06a48.75,48.75,0,0,0,5.42,1.91l4.69,6.07Z" style="fill:#fff;stroke:#263238;stroke-linecap:round;stroke-linejoin:round"></path><path d="M296.67,171a10.32,10.32,0,0,0-.64,6.32" style="fill:none;stroke:#263238;stroke-linecap:round;stroke-linejoin:round"></path><path d="M282.42,163c1.51.58,3.4,3.4,4.27,4.27a19.8,19.8,0,0,0,2.52,1.93" style="fill:none;stroke:#263238;stroke-linecap:round;stroke-linejoin:round"></path><path d="M281.84,167.27c1.24-.26,2.08.22,2.05,1.43s2.65,3.05,2.65,3.05" style="fill:none;stroke:#263238;stroke-linecap:round;stroke-linejoin:round"></path><path d="M282.05,172.73s.87-1.55,1.56-.84.91,2.53,2.18,2.91" style="fill:none;stroke:#263238;stroke-linecap:round;stroke-linejoin:round"></path><path d="M381.08,178.19s-19.73,1.22-24.08,3c-3.57,1.47-28.68,18-28.68,18s-14.77-11.14-19.06-15a8.14,8.14,0,0,0-2.63-.76L304.38,182l-5.53,7.79,1.55,2.15s.25,3.47.94,4.34c9.18,11.53,26.76,27.67,29.4,29.26s26.06-12.27,26.06-12.27l4.35,25.5H431s-.18-44.75-3.12-48.18-36.64-16.88-36.64-16.88Z" style="fill:#757575;stroke:#263238;stroke-linecap:round;stroke-linejoin:round"></path><path d="M404.67,162s-6.26,4.2-2.94,17.62c0,0-9.43,6.74-18.76-.06,0,0,2.15-10.7,0-12.85" style="fill:#fff;stroke:#263238;stroke-linecap:round;stroke-linejoin:round"></path><path d="M426.63,192.67s-8.51,9.79-9.5,26.55" style="fill:none;stroke:#263238;stroke-linecap:round;stroke-linejoin:round"></path><path d="M389.18,135.11s-5.58-.84-7.53,6a17.52,17.52,0,0,0,1.29,12.52L393.2,144Z" style="fill:#263238"></path><path d="M402.76,166.08c7.19-8.58,12.27-22.88,1.47-28.59C383.39,126.47,376.5,148,380,168c1.08,6.17,9.46,3.42,15.59,1.19" style="fill:#fff;stroke:#263238;stroke-linecap:round;stroke-linejoin:round"></path><path d="M388.2,147.43s3.44.93,4.31,2.77" style="fill:none;stroke:#263238;stroke-linecap:round;stroke-linejoin:round"></path><path d="M383.22,146.52a2.64,2.64,0,0,0-2.58.14" style="fill:none;stroke:#263238;stroke-linecap:round;stroke-linejoin:round"></path><path d="M388.14,152.17c-.06.61.21,1.14.6,1.18s.76-.43.82-1-.21-1.15-.6-1.19S388.2,151.55,388.14,152.17Z" style="fill:#263238"></path><path d="M380.68,150.32c-.05.62.22,1.15.61,1.19s.76-.43.82-1-.21-1.14-.61-1.18S380.74,149.71,380.68,150.32Z" style="fill:#263238"></path><path d="M399.55,156.18s-3.23,4.68-5.4,6.18a6.61,6.61,0,0,1-4.73.94s-2.77-3.42-6.81-3.47a7.83,7.83,0,0,0-3.47-1.19l.23-5.22s-3.07,11.19-2.78,15.2,10.15,6.79,15.08,5.67,7.44-8.79,8.94-16C400.72,157.69,399.55,156.18,399.55,156.18Z" style="fill:#263238"></path><path d="M379.74,162.41s3.9,1.87,7.37,1.43" style="fill:none;stroke:#fff;stroke-linecap:round;stroke-linejoin:round"></path><path d="M402.78,141.92c1.28-1-2-5.3-3.84-5.21s-10.87.43-10.87.43-1.9-9.94,13.3-4.57c2.49.88,3.29,3.21,5.52,4.4s5.25,7.45,4.39,12.79-3.71,14.71-8.88,17.52c0,0-1.78-.18-.7-1.41,5.09-5.73-.24-16.51-1.09-7.6l-1.79-1.07a12.51,12.51,0,0,1,.3-2.91C399.5,151.84,396.79,146.83,402.78,141.92Z" style="fill:#263238"></path><path d="M402,155.53s3.27-3.88,5.25-2.56.65,6-.41,7.17-1.92,1.43-3.39,3.3-3.32,1.24-3-.26" style="fill:#fff;stroke:#263238;stroke-linecap:round;stroke-linejoin:round"></path><path d="M392,152.67c.11,2.17-1.21,4-3,4.09s-3.25-1.59-3.36-3.76,1.21-4,3-4.09S391.87,150.5,392,152.67Z" style="fill:none;stroke:#263238;stroke-miterlimit:10;stroke-width:0.5px"></path><path d="M382.78,150.7c.12,2.17-1.21,4-2.95,4.1s-3.25-1.6-3.37-3.77,1.22-4,3-4.09S382.67,148.53,382.78,150.7Z" style="fill:none;stroke:#263238;stroke-miterlimit:10;stroke-width:0.5px"></path><path d="M383.73,148.84c0,1-5.18,6.91-5.24,8.21s4.82,1.38,4.82,1.38" style="fill:#fff;stroke:#263238;stroke-linecap:round;stroke-linejoin:round"></path><path d="M382.78,150.7s1.55-.39,2.85,1.7" style="fill:none;stroke:#263238;stroke-miterlimit:10;stroke-width:0.5px"></path><polyline points="392.02 153.43 393.7 153.68 403.13 154.34" style="fill:none;stroke:#263238;stroke-miterlimit:10;stroke-width:0.5px"></polyline><path d="M420.72,198l-1.88-2.33S403,197.48,396,206.92c0,0-13-6.14-24.7-3.15l-.34,4.19,25.59,15.31,10-4.16Z" style="fill:#fff;stroke:#263238;stroke-linecap:round;stroke-linejoin:round"></path><path d="M423.29,196.59l-2.7,18s-14.9,6.54-18,11.8l-.74.1-3.5.49-1.89-.56a105.85,105.85,0,0,0-14.1-3.08,21.76,21.76,0,0,0-5-.19l-10.08-15.71s15.59-2.16,26.37,1.53l5.16-.36.19-.16C400.55,207.18,411.41,198.55,423.29,196.59Z" style="fill:#2AB6B3"></path><g style="clip-path:url(#freepik--clip-path--inject-2)"><path d="M401.65,222.29,399,208.44c1.54-1.26,12.4-9.89,24.28-11.85l-2.7,18s-14.9,6.54-18,11.8l-.74.1Z" style="fill-opacity:0.7000000000000001;opacity:0.30000000000000004"></path><path d="M396.52,223.27l-.07,3.14a105.85,105.85,0,0,0-14.1-3.08A14.62,14.62,0,0,1,393.9,210Z" style="fill-opacity:0.7000000000000001;opacity:0.30000000000000004"></path></g><path d="M423.29,196.59l-2.7,18s-14.9,6.54-18,11.8l-.74.1-3.5.49-1.89-.56a105.85,105.85,0,0,0-14.1-3.08,21.76,21.76,0,0,0-5-.19l-10.08-15.71s15.59-2.16,26.37,1.53l5.16-.36.19-.16C400.55,207.18,411.41,198.55,423.29,196.59Z" style="fill:none;stroke:#263238;stroke-linecap:round;stroke-linejoin:round"></path><path d="M401.59,230.78c-5.34-.34-15.5-8.52-15.5-8.52a15,15,0,0,0-2.54-4.19c-1.45-1.45.48-2.66.48-2.66s-1.69-1.09-2.65-1.69.72-2.18.72-2.18,7.25,1,8,.73,7.71,4.23,8.79,4.35a8,8,0,0,0,4.18-1.09c.72-.6,2.95-4.35,4.4-5.08s4-.72,2.78.85-1,5.07-1.6,5.56-1.59,5.75-1.59,7.56l7.9,7.22-4.5,6.13Z" style="fill:#fff;stroke:#263238;stroke-linecap:round;stroke-linejoin:round"></path><path d="M384,215.41a13.19,13.19,0,0,1,4.1,1.15" style="fill:none;stroke:#263238;stroke-linecap:round;stroke-linejoin:round"></path><path d="M389.38,218.27s-.45,1.83-.57,2.11,1.49,2.07,1.26,2.89,1.63,3,1.63,3" style="fill:none;stroke:#263238;stroke-linecap:round;stroke-linejoin:round"></path><path d="M387.56,220.38a30.66,30.66,0,0,1-4-2.31" style="fill:none;stroke:#263238;stroke-linecap:round;stroke-linejoin:round"></path><polygon points="383.69 174.84 387.15 181.81 401.37 173.93 404.5 180.91 389.99 190.12 387.2 182.91 381.56 188.34 379.65 179.56 383.69 174.84" style="fill:#757575;stroke:#263238;stroke-linecap:round;stroke-linejoin:round"></polygon><path d="M427.92,190.56c3.45,3.69,15.72,30.75,16.9,48.18H407.44v-1.56l-4.08-2.39s2.53-8.9,9.74-7.51l2.1,3,4.65,3.5s8.16.21,10.53,2.56" style="fill:#757575;stroke:#263238;stroke-linecap:round;stroke-linejoin:round"></path><path d="M419.85,233.82s4.53-6.53,11.19-3.77" style="fill:none;stroke:#263238;stroke-linecap:round;stroke-linejoin:round"></path><path d="M418.12,223.27A79,79,0,0,1,422,231.6" style="fill:none;stroke:#263238;stroke-linecap:round;stroke-linejoin:round"></path><path d="M356.8,213.24s-2.77-16.14-2-21.72" style="fill:#757575;stroke:#263238;stroke-linecap:round;stroke-linejoin:round"></path><path d="M351.26,197.81s1.54,7.93,5,12.18" style="fill:#757575;stroke:#263238;stroke-linecap:round;stroke-linejoin:round"></path><path d="M328.32,199.2s4.35,3.6,1.58,12.58" style="fill:#757575;stroke:#263238;stroke-linecap:round;stroke-linejoin:round"></path><path d="M386.49,188.62a.94.94,0,1,1-.93-.94A.93.93,0,0,1,386.49,188.62Z" style="fill:#263238"></path><circle cx="384.03" cy="201.44" r="0.94" style="fill:#263238"></circle><circle cx="382.61" cy="230.31" r="0.94" style="fill:#263238"></circle><polygon points="260.94 145.48 272.72 145.48 278.62 135.27 272.72 125.07 260.94 125.07 255.05 135.27 260.94 145.48" style="fill:none;stroke:#263238;stroke-linecap:round;stroke-linejoin:round"></polygon><polyline points="259.23 167.86 253.34 157.66 241.56 157.66" style="fill:none;stroke:#263238;stroke-linecap:round;stroke-linejoin:round"></polyline><polygon points="243.14 135.27 254.92 135.27 260.81 125.07 254.92 114.86 243.14 114.86 237.25 125.07 243.14 135.27" style="fill:none;stroke:#263238;stroke-linecap:round;stroke-linejoin:round"></polygon><polygon points="260.94 125.07 272.72 125.07 278.62 114.86 272.72 104.66 260.94 104.66 255.05 114.86 260.94 125.07" style="fill:none;stroke:#263238;stroke-linecap:round;stroke-linejoin:round"></polygon><path d="M259.23,125.07a1.59,1.59,0,1,1,1.58,1.58A1.58,1.58,0,0,1,259.23,125.07Z" style="fill:#263238"></path><circle cx="236.21" cy="103.65" r="1.58" style="fill:#263238"></circle><path d="M257.65,167.86a1.58,1.58,0,1,1,1.58,1.58A1.58,1.58,0,0,1,257.65,167.86Z" style="fill:#263238"></path><circle cx="241.56" cy="157.66" r="1.58" style="fill:#263238"></circle><path d="M290,115.13a1.59,1.59,0,1,1,1.58,1.59A1.58,1.58,0,0,1,290,115.13Z" style="fill:#263238"></path><circle cx="253.22" cy="157.66" r="1.58" style="fill:#263238"></circle><path d="M277,115.13a1.59,1.59,0,1,1,1.59,1.59A1.59,1.59,0,0,1,277,115.13Z" style="fill:#263238"></path><path d="M259.23,145.48a1.59,1.59,0,1,1,1.58,1.58A1.59,1.59,0,0,1,259.23,145.48Z" style="fill:#263238"></path><line x1="278.62" y1="115.13" x2="291.59" y2="115.13" style="fill:none;stroke:#263238;stroke-linecap:round;stroke-linejoin:round"></line><line x1="260.81" y1="145.48" x2="253.22" y2="157.66" style="fill:none;stroke:#263238;stroke-linecap:round;stroke-linejoin:round"></line><line x1="243.14" y1="114.86" x2="236.21" y2="103.65" style="fill:none;stroke:#263238;stroke-linecap:round;stroke-linejoin:round"></line><path d="M229.56,194.79a15.16,15.16,0,0,1,3.54-2.38,1.27,1.27,0,0,0,1.39,1.06c.71-.11,1.51-.81,2-.3.2.2.24.52.45.71.64.59,1.73-.68,2.45-.2.19.13.29.35.49.48a1.26,1.26,0,0,0,1,0,19.88,19.88,0,0,1,5.45-.47l8.39.06-.64-.33" style="fill:none;stroke:#263238;stroke-linecap:round;stroke-linejoin:round"></path><path d="M229.11,201.79a1.44,1.44,0,0,1,2.83.07,1.66,1.66,0,0,0,.88-1c.54,1.21,2.21,1.31,3.54,1.22l5.93-.42c1.78-.13,3.86-.45,4.66-2a8.68,8.68,0,0,1,1,5.26,16.51,16.51,0,0,1,2.13-3.66c.18.64.36,1.28.53,1.92,4.13-2.89,9.78-1,14.78-1.63" style="fill:none;stroke:#263238;stroke-linecap:round;stroke-linejoin:round"></path><path d="M229.64,211.06a.75.75,0,0,1,.59-.81,1.39,1.39,0,0,0,1.82.89,4,4,0,0,0,1.76-1.44,1.35,1.35,0,0,0,2-.34,12.06,12.06,0,0,1,1.1,2.29c.54-1.38,2.37-1.6,3.86-1.59l12,0" style="fill:none;stroke:#263238;stroke-linecap:round;stroke-linejoin:round"></path><path d="M322.4,102.22a13.16,13.16,0,0,0-8,2.47c-2.88,1.84-5.62,4.94-4.9,8.28s4.66,5.11,8.13,5.78a43.69,43.69,0,0,0,9.06.8,14.5,14.5,0,0,0,3.48-.37,18.38,18.38,0,0,0,3.34-1.31l7.74-3.64c1.06-.5,2.25-1.14,2.54-2.28.36-1.41-.85-2.72-2-3.57a21.17,21.17,0,0,0-15-3.78" style="fill:none;stroke:#263238;stroke-linecap:round;stroke-linejoin:round"></path><path d="M313.21,109.7a3.68,3.68,0,0,1,1.7-1.08,1.83,1.83,0,0,0,0,1.18c.18.36.73.54,1,.24s.33-.78.63-.63l.36.8c.49-.17.87-.57,1.35-.78a3.75,3.75,0,0,1,1.7-.16,79,79,0,0,0,12.87-.39" style="fill:none;stroke:#263238;stroke-linecap:round;stroke-linejoin:round"></path><path d="M320.21,114a1.37,1.37,0,0,1,.85-.89c-.23.25.05.68.39.74a2.29,2.29,0,0,0,1-.21,5.07,5.07,0,0,1,1.16-.16l7.29-.5" style="fill:none;stroke:#263238;stroke-linecap:round;stroke-linejoin:round"></path><path d="M323.32,124.16a38,38,0,0,1-33.77,27.63" style="fill:none;stroke:#263238;stroke-linecap:round;stroke-linejoin:round"></path><path d="M289.67,149.62a15.09,15.09,0,0,0-3.73,3.26,3.45,3.45,0,0,1,3.4,1.22" style="fill:none;stroke:#263238;stroke-linecap:round;stroke-linejoin:round"></path><path d="M320.92,152l.91,2,1.3-1.54a1.27,1.27,0,0,1,.48.74c.1.28.25.59.53.67s.63-.3.42-.51a1.54,1.54,0,0,0,1.27.21c.19,0,.36-.14.55-.19a2.69,2.69,0,0,1,.69-.06l13.51,0" style="fill:none;stroke:#263238;stroke-linecap:round;stroke-linejoin:round"></path><path d="M321.55,163a1,1,0,0,1,1.69-.28,1.1,1.1,0,0,0,.2.35.59.59,0,0,0,.79-.1c.22-.2.36-.47.59-.65.63-.49,1.53-.11,2.3.1a9.86,9.86,0,0,0,3,.16l7.67-.4" style="fill:none;stroke:#263238;stroke-linecap:round;stroke-linejoin:round"></path><path d="M321.79,171.5a1.14,1.14,0,0,0,1.13-.84.64.64,0,0,1,.52.5,3,3,0,0,0,.92-.89q7.41.09,14.84,0" style="fill:none;stroke:#263238;stroke-linecap:round;stroke-linejoin:round"></path><path d="M321.78,177.85a1.34,1.34,0,0,0,1.69-.6,1.79,1.79,0,0,1,.62,1,1.72,1.72,0,0,1,1.36-.25c.19,0,.38.13.57.18a4.56,4.56,0,0,0,1.47.13l17.24-.25" style="fill:none;stroke:#263238;stroke-linecap:round;stroke-linejoin:round"></path><path d="M275.49,218.28l7.83-.76a.46.46,0,0,0,.5-.59v-5a.68.68,0,0,0-.12-.47.66.66,0,0,0-.48-.17c-1.7-.15-5.53-1-7,.15S275.5,216.57,275.49,218.28Z" style="fill:none;stroke:#263238;stroke-linecap:round;stroke-linejoin:round"></path><path d="M277.73,213.82c.1.47.19.94.29,1.42a11.84,11.84,0,0,1,3.61-.19" style="fill:none;stroke:#263238;stroke-linecap:round;stroke-linejoin:round"></path><path d="M281.72,220.44a.72.72,0,0,0,.66,1.11c.53-.1.95-.81,1.44-.59" style="fill:none;stroke:#263238;stroke-linecap:round;stroke-linejoin:round"></path><path d="M276.33,208.91a.92.92,0,0,1,1.66.29l1.88-.22" style="fill:none;stroke:#263238;stroke-linecap:round;stroke-linejoin:round"></path><path d="M291.93,225.49q4,0,8,0a42.74,42.74,0,0,0,6.2-.37,1,1,0,0,0,.62-.26,1,1,0,0,0,.17-.7V212c0-.14-12.25-.53-13.68.46C290.36,214.48,291.93,222.38,291.93,225.49Z" style="fill:none;stroke:#263238;stroke-linecap:round;stroke-linejoin:round"></path><path d="M296.27,215.6l1.91.05a13,13,0,0,1-1.61,3.67c-.26.35-.57.79-.38,1.18,1,.16,2.17.25,2.8-.52.82-1,.1-2.57.72-3.69l.24,2.37.83.79a2,2,0,0,0,.79.54.7.7,0,0,0,.83-.3" style="fill:none;stroke:#263238;stroke-linecap:round;stroke-linejoin:round"></path><path d="M301.83,227.53c.63-.23.89.95,1.54,1.12s1-.69,1.55-1.07a1.3,1.3,0,0,1,1.69.22" style="fill:none;stroke:#263238;stroke-linecap:round;stroke-linejoin:round"></path><path d="M296.67,208.29c.6.15.36,1.15.81,1.58s1.2,0,1.71-.41,1.44-.59,1.63,0" style="fill:none;stroke:#263238;stroke-linecap:round;stroke-linejoin:round"></path><rect x="210.92" y="238.51" width="239.64" height="16.92" style="fill:#bfbfbf;stroke:#263238;stroke-linecap:round;stroke-linejoin:round"></rect><rect x="249.64" y="245.17" width="156.58" height="3.6" style="fill:#263238"></rect><path d="M338.44,247a2.63,2.63,0,1,1-2.63-2.63A2.63,2.63,0,0,1,338.44,247Z" style="fill:#2AB6B3;stroke:#263238;stroke-linecap:round;stroke-linejoin:round"></path><rect x="436.32" y="243.73" width="6.48" height="6.48" style="fill:none;stroke:#263238;stroke-linecap:round;stroke-linejoin:round"></rect><rect x="425.45" y="243.73" width="6.48" height="6.48" style="fill:none;stroke:#263238;stroke-linecap:round;stroke-linejoin:round"></rect><rect x="218.34" y="243.66" width="11.29" height="6.62" style="fill:none;stroke:#263238;stroke-linecap:round;stroke-linejoin:round"></rect><line x1="218.21" y1="81.35" x2="260.81" y2="81.35" style="fill:none;stroke:#fff;stroke-linecap:round;stroke-linejoin:round"></line><path d="M444.49,81.2a2.51,2.51,0,1,1-2.5-2.5A2.5,2.5,0,0,1,444.49,81.2Z" style="fill:none;stroke:#fff;stroke-linecap:round;stroke-linejoin:round"></path><path d="M434.6,81.35a2.5,2.5,0,1,1-2.5-2.5A2.5,2.5,0,0,1,434.6,81.35Z" style="fill:none;stroke:#fff;stroke-linecap:round;stroke-linejoin:round"></path><path d="M424.71,81.51a2.5,2.5,0,1,1-2.5-2.51A2.5,2.5,0,0,1,424.71,81.51Z" style="fill:none;stroke:#fff;stroke-linecap:round;stroke-linejoin:round"></path></g></svg>