<svg xmlns="http://www.w3.org/2000/svg" xmlns:xlink="http://www.w3.org/1999/xlink" viewBox="0 0 500 500"><defs><clipPath id="freepik--clip-path--inject-2"><path d="M423.29,196.59l-2.7,18s-14.9,6.54-18,11.8l-.74.1-3.5.49-1.89-.56a105.85,105.85,0,0,0-14.1-3.08,21.76,21.76,0,0,0-5-.19l-10.08-15.71s15.59-2.16,26.37,1.53l5.16-.36.19-.16C400.55,207.18,411.41,198.55,423.29,196.59Z" style="fill:#2AB6B3;stroke:#263238;stroke-linecap:round;stroke-linejoin:round"></path></clipPath><clipPath id="freepik--clip-path-2--inject-2"><path d="M234.77,412.2H211.09l-12.82-4.06-4-1.27-1.17,12.07-140.22.26s2.14-5.4,5.63-13.32c7.53-17.09,21.33-45.95,33.4-57.74,9.8-9.57,34.28-9.84,34.28-9.84a15.25,15.25,0,0,1,8.43-2.54c4.5.22,38.52,3.91,40.63,5a11.42,11.42,0,0,1,3.69,3.42s11.92-5.27,23.63-.52S234.77,412.2,234.77,412.2Z" style="fill:#bfbfbf;stroke:#263238;stroke-linecap:round;stroke-linejoin:round"></path></clipPath><clipPath id="freepik--clip-path-3--inject-2"><path d="M220.32,391.89s3.64-2.26,6.83-1.52,5.83,3.89,5.83,3.89,26.48-2.19,32.49-2,19.46,4.13,19.46,4.13,6.52-1.32,7.22-1.05-1.41,22.46-1.41,22.46h-86c-4.22,0-7.35-6.11-10.52-10.91a215.44,215.44,0,0,0,8.3-58.73" style="fill:#bfbfbf;stroke:#263238;stroke-linecap:round;stroke-linejoin:round"></path></clipPath><clipPath id="freepik--clip-path-4--inject-2"><path d="M181.88,413.87H342.06a5.33,5.33,0,0,1-5.33,5.33h-142a5.36,5.36,0,0,1-1.64-.26l-11.41-3.68A.71.71,0,0,1,181.88,413.87Z" style="fill:#2AB6B3;stroke:#263238;stroke-linecap:round;stroke-linejoin:round"></path></clipPath><clipPath id="freepik--clip-path-5--inject-2"><path d="M370.73,348.12l0,.13L352.09,413.1a4.32,4.32,0,0,1-3.93,2.95h-97.1a2.2,2.2,0,0,1-2.24-2.95l18.62-64.85a4.31,4.31,0,0,1,3.93-2.95h97.1A2.17,2.17,0,0,1,370.73,348.12Z" style="fill:#2AB6B3;stroke:#263238;stroke-linecap:round;stroke-linejoin:round"></path></clipPath><clipPath id="freepik--clip-path-6--inject-2"><path d="M207.09,419.2h-134l1.62-3.38S87.37,417,97.4,413.87c4.43-1.38,11.25-2,18.09-1.92,4.31.06,14.8.1,21.31.07h0c2.32,0,4.14,0,5-.06.33,0,.66,0,1,0a26.28,26.28,0,0,1,5.53.52,41.72,41.72,0,0,1,5.29-.26c3.09,0,16.38-.05,20,0,4.77.06,10.28,1,15.51,1.72l.14-.05,0,.07c6.32.88,12.24,1.48,16-.07Z" style="fill:#fff;stroke:#263238;stroke-linecap:round;stroke-linejoin:round"></path></clipPath></defs><g id="freepik--Window--inject-2"><polyline points="64.28 266.92 64.28 92.47 79.12 92.47" style="fill:none;stroke:#263238;stroke-linecap:round;stroke-linejoin:round"></polyline><line x1="64.29" y1="295.44" x2="64.29" y2="289.08" style="fill:none;stroke:#263238;stroke-linecap:round;stroke-linejoin:round"></line><polyline points="117.27 92.47 270.33 92.47 270.33 317.77 64.28 317.77" style="fill:none;stroke:#263238;stroke-linecap:round;stroke-linejoin:round"></polyline><line x1="98.5" y1="92.47" x2="111.95" y2="92.47" style="fill:none;stroke:#263238;stroke-linecap:round;stroke-linejoin:round"></line><rect x="72.03" y="100.21" width="190.55" height="209.83" style="fill:none;stroke:#263238;stroke-linecap:round;stroke-linejoin:round"></rect><polyline points="253.72 114.93 253.72 196.54 80.89 196.54 80.89 189.1" style="fill:none;stroke:#263238;stroke-linecap:round;stroke-linejoin:round"></polyline><polyline points="80.89 171.64 80.89 108.31 253.72 108.31" style="fill:none;stroke:#263238;stroke-linecap:round;stroke-linejoin:round"></polyline><line x1="80.9" y1="183.37" x2="80.9" y2="176.13" style="fill:none;stroke:#263238;stroke-linecap:round;stroke-linejoin:round"></line><line x1="224.54" y1="205.12" x2="262.58" y2="205.12" style="fill:none;stroke:#263238;stroke-linecap:round;stroke-linejoin:round"></line><line x1="211.01" y1="205.12" x2="216.39" y2="205.12" style="fill:none;stroke:#263238;stroke-linecap:round;stroke-linejoin:round"></line><line x1="72.03" y1="205.12" x2="204.58" y2="205.12" style="fill:none;stroke:#263238;stroke-linecap:round;stroke-linejoin:round"></line><polyline points="157.73 196.54 157.73 192.62 173.66 192.62 173.66 194.85 167.31 194.85 167.31 196.54" style="fill:none;stroke:#263238;stroke-linecap:round;stroke-linejoin:round"></polyline><path d="M72.36,275.45s2.64,2,4.5,14.1c0,0,3.2-19.33,7.08-19.63S87,282.5,87,282.5s.64-6.35,3.68-6.06,0,13.11,0,13.11,3.65-10,7.1-9.82-2.29,18.11-2.29,18.11,8.86-6.42,12.45-3.28-2,11.06-2,11.06,12.71-2.76,14.68,4.69" style="fill:none;stroke:#263238;stroke-linecap:round;stroke-linejoin:round"></path><path d="M120.65,303.09s5.54-3.63,9.89-1.94c0,0-2.77-4.22,0-6.8s6.33,6.8,6.33,6.8.4-15.71,5.94-14.92,0,14.92,0,14.92,9.89-8.76,12.26-5.71-1.58,7.65-1.58,7.65,5.93-1.9,10.28,2.53c0,0,6.63-6.77,14-7.74,0,0-4.9-14.22-2.52-17.09s6.68,12.41,6.68,12.41,1.89-9.94,8.08-10.7c0,0-5.16-2.81-3.63-7.05s8.65,1,8.65,1-2.93-7.47,1.7-9.52,6.56,6.25,6.56,6.25,1.29-8.7,6.73-8.22,3.68,10.5,3.68,10.5,5.13-8,7.88-7.15c5.49,1.62,3.82,14.2,3.82,14.2s7.67-5.33,9.64-2.88c2.13,2.65-8,9.46-8,9.46s7.61.84,12.34,5.27" style="fill:none;stroke:#263238;stroke-linecap:round;stroke-linejoin:round"></path><path d="M262.58,278.32s-.87-8-8.86-8.4,2.2,17.5,2.2,17.5-6.59-5.45-8.95-3.77,6.75,10.91,6.75,10.91-4.37-4-9-2.79,2.63,14.1,2.63,14.1a32.92,32.92,0,0,0-20.29,2.37" style="fill:none;stroke:#263238;stroke-linecap:round;stroke-linejoin:round"></path></g></svg>